<?xml version="1.0" encoding="UTF-8" standalone="no"?>
<!DOCTYPE svg PUBLIC "-//W3C//DTD SVG 1.1//EN" "http://www.w3.org/Graphics/SVG/1.1/DTD/svg11.dtd">
<svg width="100%" height="100%" viewBox="0 0 974 252" version="1.1" xmlns="http://www.w3.org/2000/svg" xmlns:xlink="http://www.w3.org/1999/xlink" xml:space="preserve" xmlns:serif="http://www.serif.com/" style="fill-rule:evenodd;clip-rule:evenodd;stroke-linejoin:round;stroke-miterlimit:2;">
    <g>
        <g>
            <path d="M115.248,228.837C64.169,221.049 45.158,183.485 45.158,183.485C69.895,222.194 143.65,204.328 166.326,189.211C194.729,170.2 184.651,154.166 181.902,147.752C194.271,164.244 194.042,201.58 179.382,215.094C166.555,226.775 144.337,233.189 115.248,228.837Z" style="fill:white;fill-rule:nonzero;stroke:black;stroke-width:2.29px;"/>
            <path d="M227.254,123.244C233.897,106.981 229.087,94.612 228.4,92.78C226.796,89.802 224.964,87.512 222.902,85.679C186.025,56.819 94.862,87.97 60.504,124.16C35.538,150.501 37.37,169.97 45.158,183.256C52.258,194.25 63.253,200.663 75.851,203.87C49.51,175.468 98.298,132.635 142.276,116.83C190.377,99.651 216.718,109.959 227.254,123.244Z" style="fill:rgb(52,52,52);fill-rule:nonzero;stroke:black;stroke-width:2.29px;"/>
            <path d="M217.405,139.048C238.02,114.998 228.858,93.925 228.4,92.322C228.4,92.322 238.478,108.585 233.439,144.088C230.69,163.557 221.07,180.736 210.304,171.116C205.494,166.993 203.433,155.311 217.405,139.048Z" style="fill:white;fill-rule:nonzero;stroke:black;stroke-width:2.29px;"/>
            <path d="M181.673,147.752C174.114,136.758 163.12,130.803 153.499,123.015C148.46,119.121 115.935,97.361 109.521,88.428C94.862,73.769 87.762,49.718 101.734,35.517C91.655,33.684 82.951,35.975 77.454,38.953C74.935,40.327 72.644,41.701 71.041,43.534C55.694,57.735 57.756,82.473 67.376,99.193C77.683,117.059 97.611,134.467 123.036,151.417C134.717,159.205 158.768,170.658 167.243,188.066C194.042,169.512 184.651,153.937 181.673,147.752Z" style="fill:rgb(180,180,180);fill-rule:nonzero;stroke:black;stroke-width:2.29px;"/>
            <path d="M123.723,46.053C141.818,60.484 152.125,68.5 169.533,65.523C182.589,63.232 180.757,47.428 160.371,34.372C150.293,27.958 138.84,24.751 124.41,24.751C107.231,24.751 87.074,33.684 77.225,39.411C86.387,34.143 104.482,30.707 123.723,46.053Z" style="fill:white;fill-rule:nonzero;stroke:black;stroke-width:2.29px;"/>
            <g transform="matrix(1,0,0,1,0,13.4164)">
                <path d="M295.069,158.208L299.652,144.25C305.069,147.792 314.652,151.542 323.819,151.542C337.152,151.542 343.402,144.875 343.402,136.542C343.402,127.792 338.194,123 324.652,118C306.527,111.542 297.986,101.542 297.986,89.459C297.986,73.209 311.111,59.875 332.777,59.875C342.986,59.875 351.944,62.792 357.569,66.125L352.986,79.459C349.027,76.959 341.736,73.625 332.361,73.625C321.527,73.625 315.486,79.875 315.486,87.375C315.486,95.708 321.527,99.458 334.652,104.458C352.152,111.125 361.111,119.875 361.111,134.875C361.111,152.583 347.361,165.292 323.402,165.292C312.361,165.292 302.152,162.375 295.069,158.208ZM453.503,145.5L456.628,159.25C451.836,161.75 441.211,165.292 427.67,165.292C397.253,165.292 377.461,144.458 377.461,113.625C377.461,82.584 398.711,60.084 431.628,60.084C442.461,60.084 452.045,62.792 457.045,65.292L452.878,79.459C448.503,76.959 441.628,74.667 431.628,74.667C408.503,74.667 396.003,91.75 396.003,112.792C396.003,136.125 411.003,150.5 431.003,150.5C441.42,150.5 448.295,147.792 453.503,145.5ZM469.299,62.167L488.882,62.167L508.674,118.833C512.007,128 514.715,136.333 516.799,144.667L517.424,144.667C519.715,136.333 522.632,128 525.965,118.833L545.549,62.167L564.715,62.167L525.132,163L507.632,163L469.299,62.167ZM661.107,115.917L590.274,115.917C590.69,140.708 606.524,150.917 624.857,150.917C637.982,150.917 645.898,148.625 652.773,145.708L655.898,158.833C649.44,161.75 638.398,165.292 622.357,165.292C591.315,165.292 572.774,144.667 572.774,114.25C572.774,83.834 590.69,59.875 620.065,59.875C652.982,59.875 661.732,88.834 661.732,107.375C661.732,111.125 661.315,114.042 661.107,115.917ZM590.482,102.792L644.023,102.792C644.232,91.125 639.232,73 618.607,73C600.065,73 591.94,90.083 590.482,102.792ZM684.435,163L684.435,93.625C684.435,81.75 684.227,71.542 683.602,62.167L699.643,62.167L700.268,81.959L701.102,81.959C705.685,68.417 716.727,59.875 729.018,59.875C731.102,59.875 732.56,60.084 734.227,60.5L734.227,77.792C732.352,77.375 730.477,77.167 727.977,77.167C715.06,77.167 705.893,86.959 703.393,100.708C702.977,103.208 702.56,106.125 702.56,109.25L702.56,163L684.435,163ZM745.508,158.208L750.091,144.25C755.508,147.792 765.091,151.542 774.258,151.542C787.591,151.542 793.841,144.875 793.841,136.542C793.841,127.792 788.633,123 775.091,118C756.966,111.542 748.424,101.542 748.424,89.459C748.424,73.209 761.549,59.875 783.216,59.875C793.424,59.875 802.383,62.792 808.008,66.125L803.424,79.459C799.466,76.959 792.174,73.625 782.799,73.625C771.966,73.625 765.924,79.875 765.924,87.375C765.924,95.708 771.966,99.458 785.091,104.458C802.591,111.125 811.549,119.875 811.549,134.875C811.549,152.583 797.799,165.292 773.841,165.292C762.799,165.292 752.591,162.375 745.508,158.208ZM916.233,115.917L845.4,115.917C845.817,140.708 861.65,150.917 879.983,150.917C893.108,150.917 901.025,148.625 907.9,145.708L911.025,158.833C904.567,161.75 893.525,165.292 877.483,165.292C846.442,165.292 827.9,144.667 827.9,114.25C827.9,83.834 845.817,59.875 875.192,59.875C908.108,59.875 916.858,88.834 916.858,107.375C916.858,111.125 916.442,114.042 916.233,115.917ZM845.608,102.792L899.15,102.792C899.358,91.125 894.358,73 873.733,73C855.192,73 847.067,90.083 845.608,102.792Z" style="fill-rule:nonzero;"/>
            </g>
        </g>
    </g>
</svg>
