<?xml version="1.0" encoding="utf-8"?>
<!-- Generator: Adobe Illustrator 27.6.1, SVG Export Plug-In . SVG Version: 6.00 Build 0)  -->
<svg version="1.1"
	 id="svg2" xmlns:cc="http://creativecommons.org/ns#" xmlns:rdf="http://www.w3.org/1999/02/22-rdf-syntax-ns#" xmlns:sodipodi="http://sodipodi.sourceforge.net/DTD/sodipodi-0.dtd" xmlns:dc="http://purl.org/dc/elements/1.1/" xmlns:inkscape="http://www.inkscape.org/namespaces/inkscape" xmlns:svg="http://www.w3.org/2000/svg" inkscape:version="0.91 r13725" sodipodi:docname="nf-core-logo-square.svg"
	 xmlns="http://www.w3.org/2000/svg" xmlns:xlink="http://www.w3.org/1999/xlink" x="0px" y="0px" viewBox="0 0 283.2 283.2"
	 style="enable-background:new 0 0 283.2 283.2;" xml:space="preserve">
<style type="text/css">
	.st0{fill:#22AE63;}
	.st1{fill:#ECDC86;}
	.st2{fill:#A0918F;}
	.st3{fill:#A3A2A2;}
	.st4{fill:#386E35;}
</style>
<sodipodi:namedview  bordercolor="#666666" borderopacity="1" gridtolerance="10" guidetolerance="10" id="namedview47" inkscape:current-layer="svg2" inkscape:cx="167.47057" inkscape:cy="101.35275" inkscape:pageopacity="0" inkscape:pageshadow="2" inkscape:window-height="1015" inkscape:window-maximized="1" inkscape:window-width="1920" inkscape:window-x="1920" inkscape:window-y="724" inkscape:zoom="0.58917246" objecttolerance="10" pagecolor="#ffffff" showgrid="false">
	</sodipodi:namedview>
<g id="g4216">
	<path id="path17" inkscape:connector-curvature="0" class="st0" d="M222,126.6v4.3c-0.1,0-0.2,0-0.3,0.1c-0.7-0.6-1.5-1.2-2.2-1.8
		c-4.8-4-9.8-7.6-15.4-10.4c-1-0.5-1.9-1.1-3-1.3c-0.1-0.2-0.2-0.2-0.4-0.3c-2.1-0.9-4.3-1.6-6.5-2.1c-4.8-1.1-9.7-1.2-14.6-0.2
		c-6.3,1.3-11.9,4-17.1,7.6c-5.2,3.5-9.9,7.6-14.3,12.1c-0.8,0.8-0.8,0.8-1.3-0.2c-2.3-4.9-4.9-9.6-8.1-14c-2.5-3.3-5.2-6.4-8.8-8.6
		c-3.6-2.2-7.5-3-11.6-2c-5.1,1.2-9.2,4.2-13.1,7.6c-2.4,1.8-4.5,3.9-6.7,5.9c-2,1.8-3.9,3.6-6,5.3c-0.4,0.3-0.6,0.3-0.9,0
		c-2-2.1-4.1-4-6.7-5.3c-3.7-2-7.5-2.2-11.4-0.9c-3.3,1.1-6.2,2.9-9.1,4.7c-1.1,0.7-2.2,1.6-3.5,2.1v-0.3c0.2-0.2,0.1-0.5,0.1-0.7
		c0.2-5.3,0.6-10.5,1.5-15.7c1.1-7.2,2.9-14.1,6.1-20.7c2.4-4.9,5.5-9.3,9.6-12.9c5.3-4.8,11.6-7.9,18.5-9.8
		c7.4-2.1,15.1-3,22.7-3.4c3-0.2,6.1-0.2,9.1-0.4c1.5,0.6,3.1,1,4.6,1.5c2.2,0.7,4.5,1.4,6.7,2c1.1,0.4,2.3,0.8,3.4,1.2
		c4.4,1.6,8.6,3.6,12.3,6.5c1,0.7,1.9,1.5,2.8,2.4c-0.2-0.7-0.4-1.4-0.7-2c-1.6-4.3-4.1-8-8.2-10.4c-1.7-1-3.4-1.8-5.1-2.8
		c0.2,0,0.3,0,0.5-0.1c5.4-0.9,10.8-1.4,16.2-1.6c4.7-0.2,9.3-0.1,14,0.4c5.4,0.6,10.8,1.6,15.9,3.5c7.6,2.8,14.1,7.2,19.1,13.6
		c4.4,5.6,7.2,12,9,18.8c1.8,6.8,2.5,13.7,2.7,20.7C222,121.4,222,124,222,126.6"/>
	<path id="path21" inkscape:connector-curvature="0" class="st1" d="M222,118.8h0.1v7.9H222C222,124,222,121.4,222,118.8"/>
	<path id="path25" inkscape:connector-curvature="0" class="st2" d="M178.8,6.6L178.8,6.6l-5.3,0.1V6.6l0,0H178.8L178.8,6.6z"/>
	<path id="path29" inkscape:connector-curvature="0" class="st0" d="M182.2,229.4c3-1.2,5.8-2.7,8.6-4.3c3.3-2,6.4-4.1,9.5-6.4
		c2.6-1.9,5.1-4,7.6-6.1c1.4-1.2,2.9-2.4,4.3-3.6c0.3-0.2,0.3-0.1,0.4,0.2c0.5,1.9,0.9,3.9,1.3,5.9c0.5,2.7,1,5.4,1.3,8.1
		c0.3,3.1,0.5,6.3,0.3,9.4c-0.2,3.9-0.9,7.8-2.3,11.5c-0.8,2.2-1.9,4.4-3.2,6.4c-1.6,2.6-3.6,4.9-5.9,7c-2.8,2.5-5.8,4.6-9.1,6.4
		c-4.4,2.4-9.1,4.2-13.9,5.7c-4.6,1.4-9.3,2.4-14,3.2c-1.3,0.2-2.6,0.5-3.9,0.4c-2.8-0.1-5.4-0.7-8-1.7c-3.9-1.5-7.4-3.9-11.2-5.6
		c-2.1-1-4.2-1.7-6.5-1.8c-3-0.2-5.5,0.8-7.6,2.8c-1.6,1.5-3.1,3.1-4.7,4.6c-2.6,2.6-5.7,4.3-9.4,4.9c-2.4,0.4-4.9,0.3-7.3-0.1
		c-3.4-0.5-6.7-1.3-9.9-2.3c-4.7-1.5-9.2-3.7-13.1-6.7c-3.7-2.9-6.8-6.4-9.2-10.5c-2.4-4.1-3.9-8.5-5-13.2c-0.4-2-0.7-4.1-0.9-6.2
		c-0.3-2.9-0.5-5.8-0.4-8.7c0.1-4.1,0.4-8.2,1.1-12.3c0.5,0.4,0.9,0.8,1.4,1.2c2.6,2.4,5.5,4.5,8.6,6.3c3.5,2,7.2,3.6,11.1,4.7
		c2.6,0.7,5.3,1.1,8.1,1.4c2.3,0.2,4.5,0.2,6.8,0.1c2.6-0.2,5.3-0.3,7.9-1.1c0.3,0,0.7-0.1,1-0.1c2.4-0.5,4.7-1.1,7-1.7
		c2.7-0.8,5.3-1.7,7.9-2.6c2.5-0.9,5.1-2,7.5-3.1c0.7-0.3,1.2-0.2,1.8,0.3c4.1,3.2,8.6,5.9,13.5,7.9c5.4,2.1,11,3.2,16.8,2.7
		C174.3,232,178.3,230.9,182.2,229.4"/>
	<path id="path33" inkscape:connector-curvature="0" class="st1" d="M182.2,229.4c-3.9,1.6-7.9,2.6-12.1,2.9
		c-5.8,0.5-11.4-0.5-16.8-2.7c-4.9-1.9-9.3-4.7-13.5-7.9c-0.6-0.4-1-0.6-1.8-0.3c-2.5,1.1-5,2.1-7.5,3.1c-2.6,1-5.3,1.8-7.9,2.6
		c-2.3,0.7-4.7,1.2-7,1.7c-0.3,0.1-0.7,0.1-1,0.1c0.8-0.9,1.6-1.9,2.5-2.8c3.3-3.8,5.7-8.2,7-13.1c1.9-6.7,3.8-13.3,5.4-20.1
		c1.1-5,2.2-10,2.8-15c0.5-3.6,0.8-7.3,1-10.9c0.2-3.4,0.1-6.7-0.1-10.1c-0.6-10.1-2.9-19.9-7-29.2c-2.5-5.6-6.7-9.4-12.7-10.9
		c-2.6-0.7-5.2-0.5-7.7,0.3c-0.2,0.1-0.4,0.2-0.6,0.1c3.9-3.4,8-6.3,13.1-7.6c4.2-1,8-0.2,11.6,2s6.3,5.2,8.8,8.6
		c3.2,4.4,5.8,9.1,8.1,14c0.5,1,0.5,1,1.3,0.2c4.4-4.5,9.1-8.6,14.3-12.1s10.8-6.3,17.1-7.6c4.9-1,9.7-0.9,14.6,0.2
		c2.2,0.5,4.4,1.2,6.5,2.1c0.2,0.1,0.3,0.1,0.4,0.3c-6.2,0.1-11.6,2.5-16.5,6.1c-2.4,1.8-4.5,3.8-6.1,6.3c-1.3,2-2.4,4.3-3.5,6.5
		c-2.2,4.5-3.9,9.2-5.2,14c-1.1,4.1-1.8,8.4-2.1,12.6c-0.3,3.3-0.3,6.6-0.2,9.9c0.2,4.1,0.5,8.1,1.1,12.1c0.9,6.8,2.1,13.5,3.2,20.2
		c0.6,3.7,1.1,7.5,1.7,11.2c0.9,5.4,3.8,9.5,8.2,12.6C181.9,229.1,182.1,229.2,182.2,229.4"/>
	<path id="path37" inkscape:connector-curvature="0" class="st3" d="M173.5,6.8h5.3c4.3,0.2,8.5,0.9,12.6,2.3c3.1,1.1,3.9,3.1,2,5.9
		c-1.4,1.9-3.2,3.4-5.2,4.7c-2.5,1.7-5.2,3.1-8.1,4.1c-3,1.1-5.8,0-7.7-2.9c-0.6-0.9-1-1.9-1.3-3c-0.1-0.3-0.2-0.5-0.6-0.5
		c-6.6-1.2-12.5,0.4-17.4,5.1c-4,3.8-6.4,8.6-8,13.8c-1.5,4.7-2.2,9.5-2.5,14.4c-0.2,4.4,0.1,8.7,0.8,13c0.1,0.7,0.3,1.5,0.4,2.2
		c0.1,0.9-0.2,1.7-1,2.3c-0.8,0.6-1.8,0.5-2.7,0.5c-2.2-0.7-4.5-1.4-6.7-2c0-0.5,0-1.1,0-1.6c0-2.3,0-4.6,0.2-6.9
		c0.5-9.1,1.9-18.1,5.4-26.6c2.6-6.3,6.4-11.9,11.7-16.3c4.4-3.6,9.4-6,14.9-7.3C168.1,7.3,170.8,6.9,173.5,6.8"/>
	<path id="path41" inkscape:connector-curvature="0" class="st4" d="M140,68.7c0.9,0,1.9,0.1,2.7-0.5s1.1-1.4,1-2.3
		c-0.1-0.7-0.3-1.5-0.4-2.2c0.4,0,0.8-0.1,1.3-0.1c1.7,1,3.5,1.8,5.1,2.8c4,2.4,6.5,6.1,8.2,10.4c0.2,0.7,0.5,1.3,0.7,2
		c-0.9-0.8-1.9-1.6-2.8-2.4c-3.7-2.9-7.9-4.9-12.3-6.4C142.3,69.5,141.2,69.1,140,68.7"/>
	<path id="path45" inkscape:connector-curvature="0" class="st4" d="M133.3,65c0,0.5,0,1.1,0,1.6c-1.5-0.5-3.1-0.8-4.6-1.5
		C130.3,65.1,131.8,65.1,133.3,65"/>
</g>
</svg>
