<svg width="28" height="28" viewBox="0 0 28 28" fill="none" xmlns="http://www.w3.org/2000/svg">
<path fill-rule="evenodd" clip-rule="evenodd" d="M6.23795 2.04004H21.9195C22.5914 2.04004 23.1404 2.58941 23.1404 3.2609C23.1404 3.9324 22.5914 4.48177 21.9195 4.48177H6.23795C5.56646 4.48177 5.01709 3.9324 5.01709 3.2609C5.01709 2.58941 5.56646 2.04004 6.23795 2.04004Z" fill="#64BC4D"/>
<path fill-rule="evenodd" clip-rule="evenodd" d="M26.4043 2.04004C27.0499 2.04004 27.5781 2.56815 27.5781 3.2138V3.30801C27.5781 3.95366 27.0499 4.48177 26.4043 4.48177C25.7586 4.48177 25.2305 3.95366 25.2305 3.30801V3.2138C25.2305 2.56815 25.7586 2.04004 26.4043 2.04004Z" fill="#64BC4D"/>
<path fill-rule="evenodd" clip-rule="evenodd" d="M1.22086 2.04004H2.95775C3.62925 2.04004 4.17861 2.58941 4.17861 3.2609C4.17861 3.9324 3.62925 4.48177 2.95775 4.48177H1.22086C0.549368 4.48177 0 3.9324 0 3.2609C0 2.58941 0.549368 2.04004 1.22086 2.04004Z" fill="#64BC4D"/>
<path fill-rule="evenodd" clip-rule="evenodd" d="M1.22086 6.87585H16.9024C17.5739 6.87585 18.1233 7.42481 18.1233 8.09672C18.1233 8.76821 17.5739 9.31758 16.9024 9.31758H1.22086C0.548951 9.31758 0 8.76821 0 8.09672C0 7.42481 0.548951 6.87585 1.22086 6.87585Z" fill="#F57F27"/>
<path fill-rule="evenodd" clip-rule="evenodd" d="M20.7707 6.87585C21.4163 6.87585 21.9445 7.40396 21.9445 8.04962V8.14382C21.9445 8.78947 21.4163 9.31758 20.7707 9.31758C20.125 9.31758 19.5969 8.78947 19.5969 8.14382V8.04962C19.5969 7.40396 20.125 6.87585 20.7707 6.87585Z" fill="#F57F27"/>
<path fill-rule="evenodd" clip-rule="evenodd" d="M24.6259 6.87585H26.3628C27.0343 6.87585 27.5836 7.42481 27.5836 8.09672C27.5836 8.76821 27.0343 9.31758 26.3628 9.31758H24.6259C23.9544 9.31758 23.405 8.76821 23.405 8.09672C23.405 7.42481 23.9544 6.87585 24.6259 6.87585Z" fill="#F57F27"/>
<path fill-rule="evenodd" clip-rule="evenodd" d="M6.50395 11.7358H22.1855C22.8574 11.7358 23.4064 12.2852 23.4064 12.9567C23.4064 13.6286 22.8574 14.1776 22.1855 14.1776H6.50395C5.83203 14.1776 5.28308 13.6286 5.28308 12.9567C5.28308 12.2852 5.83203 11.7358 6.50395 11.7358Z" fill="#E6383D"/>
<path fill-rule="evenodd" clip-rule="evenodd" d="M26.4043 11.7358C27.0499 11.7358 27.5781 12.2639 27.5781 12.9096V13.0038C27.5781 13.6495 27.0499 14.1776 26.4043 14.1776C25.7586 14.1776 25.2305 13.6495 25.2305 13.0038V12.9096C25.2305 12.2639 25.7586 11.7358 26.4043 11.7358Z" fill="#E6383D"/>
<path fill-rule="evenodd" clip-rule="evenodd" d="M1.22086 11.7358H2.95775C3.62925 11.7358 4.17861 12.2852 4.17861 12.9567C4.17861 13.6286 3.62925 14.1776 2.95775 14.1776H1.22086C0.549368 14.1776 0 13.6286 0 12.9567C0 12.2852 0.549368 11.7358 1.22086 11.7358Z" fill="#E6383D"/>
<path fill-rule="evenodd" clip-rule="evenodd" d="M26.3684 16.5717H10.6868C10.0153 16.5717 9.46594 17.121 9.46594 17.7925C9.46594 18.464 10.0153 19.0134 10.6868 19.0134H26.3684C27.0399 19.0134 27.5893 18.464 27.5893 17.7925C27.5893 17.121 27.0399 16.5717 26.3684 16.5717Z" fill="#8E4199"/>
<path fill-rule="evenodd" clip-rule="evenodd" d="M6.80743 16.5717C6.16178 16.5717 5.63367 17.1002 5.63367 17.7454V17.8396C5.63367 18.4853 6.16178 19.0134 6.80743 19.0134C7.45308 19.0134 7.98119 18.4853 7.98119 17.8396V17.7454C7.98119 17.1002 7.45308 16.5717 6.80743 16.5717Z" fill="#8E4199"/>
<path fill-rule="evenodd" clip-rule="evenodd" d="M2.95775 16.5717H1.22086C0.549368 16.5717 0 17.121 0 17.7925C0 18.464 0.549368 19.0134 1.22086 19.0134H2.95775C3.62925 19.0134 4.17861 18.464 4.17861 17.7925C4.17861 17.121 3.62925 16.5717 2.95775 16.5717Z" fill="#8E4199"/>
<path fill-rule="evenodd" clip-rule="evenodd" d="M21.3392 21.4073H5.65763C4.98572 21.4073 4.43677 21.9567 4.43677 22.6286C4.43677 23.3001 4.98572 23.8491 5.65763 23.8491H21.3392C22.0107 23.8491 22.5601 23.3001 22.5601 22.6286C22.5601 21.9567 22.0107 21.4073 21.3392 21.4073Z" fill="#049FDB"/>
<path fill-rule="evenodd" clip-rule="evenodd" d="M1.17376 21.4073C0.52811 21.4073 0 21.9359 0 22.5811V22.6757C0 23.3214 0.52811 23.8491 1.17376 23.8491C1.81942 23.8491 2.34753 23.3214 2.34753 22.6757V22.5811C2.34753 21.9359 1.81942 21.4073 1.17376 21.4073Z" fill="#049FDB"/>
<path fill-rule="evenodd" clip-rule="evenodd" d="M26.3628 21.4073H24.6259C23.9544 21.4073 23.405 21.9567 23.405 22.6286C23.405 23.3001 23.9544 23.8491 24.6259 23.8491H26.3628C27.0343 23.8491 27.5836 23.3001 27.5836 22.6286C27.5836 21.9567 27.0343 21.4073 26.3628 21.4073Z" fill="#049FDB"/>
</svg>
