<svg width="734" height="154" viewBox="0 0 734 154" fill="none" xmlns="http://www.w3.org/2000/svg">
<g clip-path="url(#clip0_1_2)">
<path d="M1.17001 141.69C0.780009 141.25 0.0700088 140.33 0.140009 138.89C0.140009 138.89 0.140009 138.81 0.140009 138.61C0.150009 137.96 0.510009 136.4 2.78001 135.2C5.75001 133.63 12.71 131.54 14.89 131.03C16.9 130.57 27.08 128.42 29.13 128.11C31.18 127.8 42.8 126.51 44.38 126.34C45.97 126.17 64.73 124.63 66.41 124.51C68.08 124.4 77.74 123.94 80.45 123.77C80.45 123.77 86.21 123.57 91.69 122.31C91.69 122.31 94 121.48 96.68 120.94C96.68 120.94 100.92 119.74 103.83 124.31C103.83 124.31 106.84 129.41 105.26 132.19C105.26 132.19 105.18 132.38 105 132.62C104.58 133.38 103.39 135.05 100.33 136.81C99.66 137.22 98.59 137.72 97.44 137.76C95.8 137.89 92.26 138.08 88.83 137.74C88.83 137.74 87 137.59 86.46 137.56C84.55 137.45 79.48 137.23 74.94 137.05C69.15 136.81 64.31 136.47 61.51 136.53C58.71 136.59 53.64 136.47 49.14 136.9C44.64 137.33 33.86 138.19 31.35 138.42C28.84 138.65 20.18 139.5 17.45 139.96C14.55 140.46 9.95001 141.45 8.86001 141.73C8.86001 141.73 4.89001 142.77 2.17001 142.18C1.95001 142.14 1.47001 142.02 1.17001 141.69Z" fill="black"/>
<path d="M62.63 106.12C60.59 106.22 60.03 103.73 58.85 101.66C57.6 99.47 52.7 89.8 51.52 87.61C50.34 85.42 43.53 72.2 42.5 70.58C41.78 69.46 37.84 62.22 35.32 57.87C34.12 55.8 31.93 52.37 30.25 50.09C28.11 47.18 25.52 43.69 24.58 42.45C22.89 40.24 19.43 35.58 16.56 31.67C16.56 31.67 13.93 27.47 17.42 24.63C17.42 24.63 19.84 23.03 22.92 22.99C23.54 22.98 24.06 23.06 24.99 23.38C26.01 23.73 27.59 24.44 28.87 25.42C30.9 26.98 35.05 30.6 39.86 37.2C42.56 40.91 47.1 49.6 48.68 52.41C50.25 55.22 54.66 65.86 55.58 67.96C56.5 70.06 59.82 79.6 61.19 83.29C62.56 86.98 64.37 92.4 65.54 96.8C66.38 99.94 66.51 101.14 66.38 102.3C66.36 102.79 66.28 103.21 66.08 103.73C66.09 103.73 65.03 106 62.63 106.12Z" fill="black"/>
<path d="M70.24 58.61C70.24 58.61 69.52 58.86 68.8 57.47C68.68 57.24 68.55 56.53 68.64 55.97C68.97 53.91 70.58 45.71 75.31 33.86C75.31 33.86 80.35 21.77 83.72 16.86C87.1 11.95 91.94 4.95999 95.05 3.04999C95.05 3.04999 99.63 -0.400007 103.48 0.199993C103.48 0.199993 107.27 0.479993 108.76 3.51999C108.76 3.51999 109.96 7.03999 108.13 9.47999C108.13 9.47999 106.33 12.91 103.61 14.36C103.61 14.36 97.01 18.21 94.97 20.01C93.33 21.45 91.99 23.03 90.24 24.93C89.7 25.6 88.23 27.34 86.85 29.02C86.27 29.71 84.88 31.59 84.51 32.02C84.51 32.02 81.13 36.68 77.98 43.18C74.83 49.68 74.33 50.92 72.31 55.58C72.33 55.57 71.42 58.38 70.24 58.61Z" fill="black"/>
<path d="M77.4 79.78C77.4 79.78 75.54 79.41 75.65 77.94C75.84 76.83 75.9 76.48 76.35 75.3C77.89 71.25 79.39 66.43 82.01 61.7C85.33 55.71 92.5 44.4 100.3 38.2C104.98 34.48 107.39 32.93 111.23 32.14C111.83 32.01 112.72 31.63 114.49 32.07C115.86 32.46 117.87 33.42 118.48 35.73C118.48 35.73 119.2 39.85 114.76 42.85C114.76 42.85 101.71 51.79 99.48 53.66C97.25 55.54 95.94 56.22 91.71 60.36C91.71 60.36 85.68 67.14 83.46 70.65C83.46 70.65 81.42 74.18 79.59 77.25C79.31 77.84 78.81 78.64 78.2 79.33C78.18 79.34 77.97 79.71 77.4 79.78Z" fill="black"/>
<path d="M389.33 90.8603H381.75V24.4603H389.33V67.8503L407.87 46.4503H416.72L401.89 63.1303L418.57 90.8503H409.72L396.74 68.9403L389.33 77.2803V90.8603Z" fill="black"/>
<path d="M467.18 46.4603H474.51V53.8803H474.68C477.29 49.1603 482.1 45.3703 488.84 45.3703C498.28 45.3703 506.7 51.1803 506.7 68.0403C506.7 84.2203 498.36 91.9703 488.33 91.9703C481.84 91.9703 476.62 88.3503 474.93 84.3903H474.76V106.72H467.18V46.4603ZM487.23 85.9803C495.15 85.9803 499.03 79.6603 499.03 68.0303C499.03 58.5903 496.25 51.4303 487.15 51.4303C479.31 51.4303 474.51 58.0903 474.51 65.5903V70.3103C474.51 79.0703 478.8 85.9803 487.23 85.9803Z" fill="black"/>
<path d="M536.82 57.5703C536.4 53.6103 533.2 51.0803 527.97 51.0803C522.75 51.0803 519.29 54.1103 519.29 58.2403C519.29 61.8603 521.48 63.5503 525.95 64.3103L532.78 65.3203C542.05 66.7503 545.42 70.5403 545.42 78.2103C545.42 87.1403 538.17 91.9503 528.06 91.9503C518.87 91.9503 511.29 87.8203 510.7 78.3003H518.12C518.46 81.7603 520.4 86.1403 528.23 86.1403C534.3 86.1403 538.09 83.2703 538.09 78.6403C538.09 75.1003 537.16 73.1603 531.09 72.1503L524.26 71.1403C516.34 69.8703 512.12 66.5903 512.12 58.8303C512.12 50.9903 518.1 45.3503 528.22 45.3503C537.83 45.3503 543.31 49.8203 544.07 57.5703H536.82Z" fill="black"/>
<path d="M552.75 46.4503H559.91V54.7903H560.08C562.1 50.1603 567.66 45.6103 574.15 45.6103H574.91V53.5303H573.48C565.56 53.5303 560.34 58.0803 560.34 66.6703V90.8503H552.76V46.4503H552.75Z" fill="black"/>
<path d="M422.85 58.9203C423.02 51.0803 429 45.6903 439.62 45.6903C450.66 45.6903 456.05 50.3203 456.05 62.2003V80.3203C456.05 83.8603 456.81 85.2903 460.09 85.3803V91.5303H459.16C452.08 91.5303 449.72 89.0003 448.96 83.6903H448.79C446.43 88.9103 441.12 91.9503 434.55 91.9503C425.7 91.9503 420.48 87.1503 420.48 79.2303C420.48 74.3403 422.59 70.3003 427.14 68.0203C431.77 65.5803 438.68 64.7303 448.63 64.4003V62.4603C448.63 54.4603 445.6 51.3403 439.36 51.3403C432.79 51.3403 430.34 55.1303 430.09 58.9203H422.85ZM448.63 71.0503V70.0403C439.02 70.4603 433.55 71.2203 430.68 73.3303C428.99 74.5903 428.24 76.4503 428.24 78.8103C428.24 83.3603 431.19 85.8003 435.99 85.8003C441.64 85.7903 448.63 82.0003 448.63 71.0503Z" fill="black"/>
<path d="M579.29 58.9203C579.46 51.0803 585.44 45.6903 596.06 45.6903C607.1 45.6903 612.49 50.3203 612.49 62.2003V80.3203C612.49 83.8603 613.25 85.2903 616.53 85.3803V91.5303H615.6C608.52 91.5303 606.16 89.0003 605.4 83.6903H605.23C602.87 88.9103 597.56 91.9503 590.99 91.9503C582.14 91.9503 576.92 87.1503 576.92 79.2303C576.92 74.3403 579.03 70.3003 583.58 68.0203C588.21 65.5803 595.12 64.7303 605.07 64.4003V62.4603C605.07 54.4603 602.04 51.3403 595.8 51.3403C589.23 51.3403 586.78 55.1303 586.53 58.9203H579.29ZM605.07 71.0503V70.0403C595.46 70.4603 589.99 71.2203 587.12 73.3303C585.43 74.5903 584.68 76.4503 584.68 78.8103C584.68 83.3603 587.63 85.8003 592.43 85.8003C598.08 85.7903 605.07 82.0003 605.07 71.0503Z" fill="black"/>
<path d="M659.34 90.8503H652.09V83.5203H651.84C649.48 87.9003 644.68 91.9503 637.85 91.9503C628.41 91.9503 619.73 86.0503 619.73 68.9503C619.73 53.7003 627.65 45.3603 638.86 45.3603C645.52 45.3603 649.81 49.0703 651.58 53.2003H651.75V24.4503H659.33V90.8503H659.34ZM651.93 66.9203C651.93 57.4803 646.96 51.4203 639.88 51.4203C631.37 51.4203 627.49 58.1603 627.49 68.6103C627.49 78.6403 630.44 85.9703 639.29 85.9703C647.13 85.9703 651.93 79.7303 651.93 71.6503V66.9203Z" fill="black"/>
<path d="M685.94 91.9603C672.37 91.9603 665.88 82.1003 665.88 68.8703C665.88 55.7203 672.96 45.3603 685.69 45.3603C699.01 45.3603 704.23 55.6403 704.23 66.8503V70.7303H673.64C674.15 79.9203 677.85 86.1503 686.2 86.1503C693.62 86.1503 695.55 81.8503 696.31 79.2403H703.64C702.03 86.9003 695.46 91.9603 685.94 91.9603ZM696.47 64.2303C696.3 56.8103 693.35 51.0803 685.6 51.0803C678.52 51.0803 674.64 56.6403 673.72 64.7303H696.48V64.2303H696.47Z" fill="black"/>
<path d="M722.23 33.5503V46.4503H733.19V52.2703H722.23V78.4803C722.23 83.2003 724.17 85.0503 728.97 85.0503C731.25 85.0503 733.86 84.6303 733.86 84.6303V91.0403C733.86 91.0403 730.74 91.5503 726.86 91.5503C718.18 91.5503 714.72 87.3403 714.72 79.7503V52.2603H706.63V46.7003H707.98C713.96 46.7003 715.31 45.2703 715.31 36.7503V33.5503H722.23Z" fill="black"/>
<path d="M204.48 91.9603C190.91 91.9603 184.42 82.1003 184.42 68.8703C184.42 55.7203 191.5 45.3603 204.23 45.3603C217.55 45.3603 222.77 55.6403 222.77 66.8503V70.7303H192.18C192.69 79.9203 196.39 86.1503 204.74 86.1503C212.16 86.1503 214.09 81.8503 214.85 79.2403H222.18C220.58 86.9003 214.01 91.9603 204.48 91.9603ZM215.02 64.2303C214.85 56.8103 211.9 51.0803 204.15 51.0803C197.07 51.0803 193.19 56.6403 192.27 64.7303H215.03V64.2303H215.02Z" fill="black"/>
<path d="M240.3 33.5503V46.4503H251.26V52.2703H240.3V78.4803C240.3 83.2003 242.24 85.0503 247.04 85.0503C249.32 85.0503 251.93 84.6303 251.93 84.6303V91.0403C251.93 91.0403 248.81 91.5503 244.93 91.5503C236.25 91.5503 232.79 87.3403 232.79 79.7503V52.2603H224.7V46.7003H226.05C232.03 46.7003 233.38 45.2703 233.38 36.7503V33.5503H240.3Z" fill="black"/>
<path d="M275.1 91.9603C261.53 91.9603 255.04 82.1003 255.04 68.8703C255.04 55.7203 262.12 45.3603 274.85 45.3603C288.17 45.3603 293.39 55.6403 293.39 66.8503V70.7303H262.8C263.31 79.9203 267.01 86.1503 275.36 86.1503C282.78 86.1503 284.71 81.8503 285.47 79.2403H292.8C291.2 86.9003 284.62 91.9603 275.1 91.9603ZM285.64 64.2303C285.47 56.8103 282.52 51.0803 274.77 51.0803C267.69 51.0803 263.81 56.6403 262.89 64.7303H285.65V64.2303H285.64Z" fill="black"/>
<path d="M328.31 63.4703C328.31 60.2703 328.31 56.7303 326.71 54.6203C325.19 52.5103 322.66 51.6703 319.71 51.6703C311.45 51.6703 307.66 56.9803 307.66 64.2303V90.8603H300.08V46.4503H307.24V53.9503H307.41C309.52 49.4003 314.66 45.3503 321.74 45.3503C330.25 45.3503 335.9 49.4003 335.9 59.9303V90.8603H328.31V63.4703Z" fill="black"/>
<path d="M367.19 57.5703C366.77 53.6103 363.57 51.0803 358.34 51.0803C353.12 51.0803 349.66 54.1103 349.66 58.2403C349.66 61.8603 351.85 63.5503 356.32 64.3103L363.15 65.3203C372.42 66.7503 375.79 70.5403 375.79 78.2103C375.79 87.1403 368.54 91.9503 358.43 91.9503C349.24 91.9503 341.66 87.8203 341.07 78.3003H348.49C348.83 81.7603 350.77 86.1403 358.6 86.1403C364.67 86.1403 368.46 83.2703 368.46 78.6403C368.46 75.1003 367.53 73.1603 361.46 72.1503L354.63 71.1403C346.71 69.8703 342.49 66.5903 342.49 58.8303C342.49 50.9903 348.47 45.3503 358.59 45.3503C368.2 45.3503 373.68 49.8203 374.44 57.5703H367.19Z" fill="black"/>
<path d="M596.66 42.0403C590.99 42.0003 587.5 38.5103 587.54 32.9503C587.58 27.6403 591.42 23.9603 596.88 24.0003C602.55 24.0403 606.04 27.5303 606 33.0903C605.96 38.4903 602.21 42.0903 596.66 42.0403ZM596.76 28.1903C594.31 28.1703 592.66 30.1003 592.64 32.9903C592.62 35.9203 594.24 37.8303 596.77 37.8503C599.22 37.8703 600.87 35.9403 600.89 33.0503C600.92 30.1203 599.3 28.2103 596.76 28.1903Z" fill="black"/>
<path d="M134.03 26.3903H142.37L158.97 73.8403C161.16 80.4103 161.75 83.8703 161.75 83.8703H161.92C161.92 83.8703 162.59 80.4103 164.79 74.0103L181.31 26.3903H189.23L166.31 90.8603H157.21L134.03 26.3903Z" fill="black"/>
<path d="M146.45 131.25C146.583 132.85 146.933 134.217 147.5 135.35C148.1 136.45 148.85 137.35 149.75 138.05C150.683 138.75 151.75 139.267 152.95 139.6C154.15 139.9 155.433 140.05 156.8 140.05C158.4 140.05 159.783 139.85 160.95 139.45C162.117 139.05 163.067 138.517 163.8 137.85C164.533 137.15 165.067 136.35 165.4 135.45C165.767 134.55 165.95 133.6 165.95 132.6C165.95 131.2 165.633 130.067 165 129.2C164.367 128.333 163.533 127.633 162.5 127.1C161.5 126.533 160.333 126.083 159 125.75C157.7 125.417 156.35 125.1 154.95 124.8C153.583 124.467 152.233 124.083 150.9 123.65C149.6 123.217 148.433 122.633 147.4 121.9C146.4 121.167 145.583 120.233 144.95 119.1C144.317 117.933 144 116.467 144 114.7C144 113.467 144.25 112.267 144.75 111.1C145.283 109.933 146.05 108.9 147.05 108C148.083 107.1 149.367 106.383 150.9 105.85C152.433 105.317 154.2 105.05 156.2 105.05C158.233 105.05 160 105.333 161.5 105.9C163.033 106.467 164.3 107.25 165.3 108.25C166.3 109.217 167.05 110.35 167.55 111.65C168.05 112.95 168.3 114.333 168.3 115.8H165.05C165.05 114.433 164.8 113.25 164.3 112.25C163.833 111.25 163.183 110.433 162.35 109.8C161.517 109.167 160.567 108.7 159.5 108.4C158.433 108.1 157.333 107.95 156.2 107.95C154.467 107.95 153 108.2 151.8 108.7C150.633 109.167 149.7 109.783 149 110.55C148.3 111.317 147.817 112.167 147.55 113.1C147.283 114.033 147.233 114.967 147.4 115.9C147.6 117.067 148.067 118 148.8 118.7C149.533 119.4 150.433 119.983 151.5 120.45C152.567 120.883 153.733 121.25 155 121.55C156.3 121.817 157.617 122.117 158.95 122.45C160.283 122.75 161.567 123.117 162.8 123.55C164.067 123.983 165.183 124.567 166.15 125.3C167.117 126.033 167.883 126.983 168.45 128.15C169.05 129.283 169.35 130.717 169.35 132.45C169.35 135.783 168.2 138.367 165.9 140.2C163.6 142.033 160.367 142.95 156.2 142.95C154.333 142.95 152.6 142.7 151 142.2C149.4 141.733 148.017 141.017 146.85 140.05C145.683 139.05 144.767 137.833 144.1 136.4C143.467 134.933 143.15 133.217 143.15 131.25H146.45ZM197.066 138L203.866 116.1H206.916L198.516 142H195.316L189.666 120.25H189.566L183.816 142H180.216L172.316 116.1H175.316L182.016 138.2L188.016 116.1H191.366L197.066 138ZM230 127.25C230 125.983 229.817 124.8 229.45 123.7C229.117 122.567 228.6 121.6 227.9 120.8C227.234 119.967 226.384 119.317 225.35 118.85C224.317 118.35 223.134 118.1 221.8 118.1C220.467 118.1 219.284 118.35 218.25 118.85C217.25 119.35 216.384 120.017 215.65 120.85C214.95 121.683 214.384 122.65 213.95 123.75C213.517 124.85 213.234 126.017 213.1 127.25H230ZM213.1 129.75C213.1 131.15 213.284 132.483 213.65 133.75C214.017 134.983 214.55 136.067 215.25 137C215.984 137.9 216.9 138.633 218 139.2C219.1 139.733 220.367 140 221.8 140C223.767 140 225.45 139.483 226.85 138.45C228.25 137.417 229.184 135.95 229.65 134.05H233C232.634 135.283 232.15 136.433 231.55 137.5C230.95 138.533 230.2 139.45 229.3 140.25C228.4 141.017 227.334 141.617 226.1 142.05C224.867 142.483 223.434 142.7 221.8 142.7C219.734 142.7 217.95 142.35 216.45 141.65C214.95 140.95 213.717 140 212.75 138.8C211.784 137.567 211.067 136.133 210.6 134.5C210.134 132.833 209.9 131.05 209.9 129.15C209.9 127.25 210.167 125.467 210.7 123.8C211.267 122.133 212.05 120.683 213.05 119.45C214.084 118.183 215.334 117.2 216.8 116.5C218.267 115.767 219.934 115.4 221.8 115.4C225.367 115.4 228.167 116.633 230.2 119.1C232.234 121.533 233.234 125.083 233.2 129.75H213.1ZM259.034 128.95C259.034 127.483 258.834 126.1 258.434 124.8C258.034 123.467 257.45 122.317 256.684 121.35C255.95 120.35 255.034 119.567 253.934 119C252.867 118.4 251.65 118.1 250.284 118.1C248.717 118.1 247.367 118.417 246.234 119.05C245.1 119.65 244.167 120.483 243.434 121.55C242.7 122.617 242.167 123.867 241.834 125.3C241.5 126.7 241.367 128.217 241.434 129.85C241.434 131.483 241.65 132.933 242.084 134.2C242.55 135.433 243.184 136.483 243.984 137.35C244.784 138.217 245.717 138.883 246.784 139.35C247.85 139.783 249.017 140 250.284 140C251.684 140 252.934 139.717 254.034 139.15C255.134 138.583 256.05 137.817 256.784 136.85C257.517 135.85 258.067 134.683 258.434 133.35C258.834 131.983 259.034 130.517 259.034 128.95ZM259.034 106H262.034V142H259.034V137.45H258.934C258.5 138.317 257.934 139.083 257.234 139.75C256.567 140.383 255.817 140.917 254.984 141.35C254.184 141.783 253.35 142.117 252.484 142.35C251.617 142.583 250.767 142.7 249.934 142.7C247.834 142.7 246.05 142.35 244.584 141.65C243.117 140.95 241.9 140 240.934 138.8C240 137.567 239.317 136.117 238.884 134.45C238.45 132.783 238.234 131 238.234 129.1C238.234 127.3 238.467 125.567 238.934 123.9C239.4 122.233 240.1 120.783 241.034 119.55C242 118.283 243.2 117.283 244.634 116.55C246.1 115.783 247.817 115.4 249.784 115.4C251.617 115.4 253.367 115.817 255.034 116.65C256.734 117.45 258.067 118.65 259.034 120.25V106ZM269.171 142V116.1H272.171V142H269.171ZM269.021 110.45V106H272.321V110.45H269.021ZM281.555 133.9C282.022 136.133 282.855 137.717 284.055 138.65C285.288 139.55 287.038 140 289.305 140C290.405 140 291.355 139.867 292.155 139.6C292.955 139.333 293.605 138.983 294.105 138.55C294.638 138.083 295.038 137.567 295.305 137C295.572 136.433 295.705 135.833 295.705 135.2C295.705 133.933 295.288 133 294.455 132.4C293.655 131.767 292.638 131.283 291.405 130.95C290.172 130.583 288.838 130.283 287.405 130.05C285.972 129.783 284.638 129.4 283.405 128.9C282.172 128.4 281.138 127.683 280.305 126.75C279.505 125.817 279.105 124.5 279.105 122.8C279.105 120.633 279.888 118.867 281.455 117.5C283.055 116.1 285.305 115.4 288.205 115.4C291.005 115.4 293.272 116.033 295.005 117.3C296.772 118.533 297.838 120.617 298.205 123.55H295.155C294.888 121.55 294.122 120.15 292.855 119.35C291.622 118.517 290.055 118.1 288.155 118.1C286.255 118.1 284.805 118.517 283.805 119.35C282.805 120.15 282.305 121.217 282.305 122.55C282.305 123.717 282.705 124.617 283.505 125.25C284.338 125.85 285.372 126.35 286.605 126.75C287.838 127.117 289.172 127.45 290.605 127.75C292.038 128.05 293.372 128.483 294.605 129.05C295.838 129.583 296.855 130.317 297.655 131.25C298.488 132.183 298.905 133.483 298.905 135.15C298.905 136.383 298.638 137.483 298.105 138.45C297.572 139.383 296.838 140.167 295.905 140.8C294.972 141.433 293.855 141.9 292.555 142.2C291.288 142.533 289.888 142.7 288.355 142.7C286.822 142.7 285.455 142.467 284.255 142C283.088 141.567 282.088 140.95 281.255 140.15C280.422 139.35 279.772 138.417 279.305 137.35C278.838 136.283 278.572 135.133 278.505 133.9H281.555ZM304.805 142V106H307.805V119.7C309.005 118.433 310.238 117.4 311.505 116.6C312.805 115.8 314.355 115.4 316.155 115.4C317.755 115.4 319.238 115.683 320.605 116.25C321.972 116.783 323.122 117.733 324.055 119.1C324.688 120.033 325.055 121 325.155 122C325.288 122.967 325.355 123.983 325.355 125.05V142H322.355V125.1C322.355 122.767 321.838 121.017 320.805 119.85C319.772 118.683 318.055 118.1 315.655 118.1C314.722 118.1 313.872 118.25 313.105 118.55C312.338 118.817 311.638 119.183 311.005 119.65C310.405 120.117 309.888 120.65 309.455 121.25C309.022 121.85 308.688 122.483 308.455 123.15C308.155 123.983 307.972 124.783 307.905 125.55C307.838 126.317 307.805 127.15 307.805 128.05V142H304.805ZM360.904 122.75C362.171 122.75 363.338 122.617 364.404 122.35C365.504 122.083 366.454 121.667 367.254 121.1C368.054 120.5 368.688 119.75 369.154 118.85C369.621 117.95 369.854 116.867 369.854 115.6C369.854 114.267 369.604 113.167 369.104 112.3C368.638 111.433 367.988 110.75 367.154 110.25C366.354 109.75 365.421 109.4 364.354 109.2C363.321 109 362.238 108.9 361.104 108.9H350.304V122.75H360.904ZM350.304 125.65V142H346.904V106H361.004C364.971 106 368.004 106.75 370.104 108.25C372.204 109.717 373.254 112.117 373.254 115.45C373.254 117.717 372.788 119.517 371.854 120.85C370.954 122.183 369.471 123.317 367.404 124.25C368.471 124.617 369.304 125.15 369.904 125.85C370.504 126.55 370.954 127.35 371.254 128.25C371.554 129.15 371.738 130.1 371.804 131.1C371.904 132.1 371.971 133.067 372.004 134C372.038 135.367 372.088 136.5 372.154 137.4C372.254 138.3 372.354 139.033 372.454 139.6C372.588 140.167 372.738 140.617 372.904 140.95C373.071 141.25 373.271 141.483 373.504 141.65V142H369.754C369.388 141.4 369.121 140.567 368.954 139.5C368.821 138.433 368.704 137.317 368.604 136.15C368.538 134.983 368.471 133.85 368.404 132.75C368.371 131.65 368.288 130.75 368.154 130.05C367.954 129.083 367.621 128.317 367.154 127.75C366.721 127.15 366.188 126.7 365.554 126.4C364.921 126.1 364.204 125.9 363.404 125.8C362.638 125.7 361.838 125.65 361.004 125.65H350.304ZM398.604 127.25C398.604 125.983 398.421 124.8 398.054 123.7C397.721 122.567 397.204 121.6 396.504 120.8C395.837 119.967 394.987 119.317 393.954 118.85C392.921 118.35 391.737 118.1 390.404 118.1C389.071 118.1 387.887 118.35 386.854 118.85C385.854 119.35 384.987 120.017 384.254 120.85C383.554 121.683 382.987 122.65 382.554 123.75C382.121 124.85 381.837 126.017 381.704 127.25H398.604ZM381.704 129.75C381.704 131.15 381.887 132.483 382.254 133.75C382.621 134.983 383.154 136.067 383.854 137C384.587 137.9 385.504 138.633 386.604 139.2C387.704 139.733 388.971 140 390.404 140C392.371 140 394.054 139.483 395.454 138.45C396.854 137.417 397.787 135.95 398.254 134.05H401.604C401.237 135.283 400.754 136.433 400.154 137.5C399.554 138.533 398.804 139.45 397.904 140.25C397.004 141.017 395.937 141.617 394.704 142.05C393.471 142.483 392.037 142.7 390.404 142.7C388.337 142.7 386.554 142.35 385.054 141.65C383.554 140.95 382.321 140 381.354 138.8C380.387 137.567 379.671 136.133 379.204 134.5C378.737 132.833 378.504 131.05 378.504 129.15C378.504 127.25 378.771 125.467 379.304 123.8C379.871 122.133 380.654 120.683 381.654 119.45C382.687 118.183 383.937 117.2 385.404 116.5C386.871 115.767 388.537 115.4 390.404 115.4C393.971 115.4 396.771 116.633 398.804 119.1C400.837 121.533 401.837 125.083 401.804 129.75H381.704ZM409.387 133.9C409.854 136.133 410.687 137.717 411.887 138.65C413.12 139.55 414.87 140 417.137 140C418.237 140 419.187 139.867 419.987 139.6C420.787 139.333 421.437 138.983 421.937 138.55C422.47 138.083 422.87 137.567 423.137 137C423.404 136.433 423.537 135.833 423.537 135.2C423.537 133.933 423.12 133 422.287 132.4C421.487 131.767 420.47 131.283 419.237 130.95C418.004 130.583 416.67 130.283 415.237 130.05C413.804 129.783 412.47 129.4 411.237 128.9C410.004 128.4 408.97 127.683 408.137 126.75C407.337 125.817 406.937 124.5 406.937 122.8C406.937 120.633 407.72 118.867 409.287 117.5C410.887 116.1 413.137 115.4 416.037 115.4C418.837 115.4 421.104 116.033 422.837 117.3C424.604 118.533 425.67 120.617 426.037 123.55H422.987C422.72 121.55 421.954 120.15 420.687 119.35C419.454 118.517 417.887 118.1 415.987 118.1C414.087 118.1 412.637 118.517 411.637 119.35C410.637 120.15 410.137 121.217 410.137 122.55C410.137 123.717 410.537 124.617 411.337 125.25C412.17 125.85 413.204 126.35 414.437 126.75C415.67 127.117 417.004 127.45 418.437 127.75C419.87 128.05 421.204 128.483 422.437 129.05C423.67 129.583 424.687 130.317 425.487 131.25C426.32 132.183 426.737 133.483 426.737 135.15C426.737 136.383 426.47 137.483 425.937 138.45C425.404 139.383 424.67 140.167 423.737 140.8C422.804 141.433 421.687 141.9 420.387 142.2C419.12 142.533 417.72 142.7 416.187 142.7C414.654 142.7 413.287 142.467 412.087 142C410.92 141.567 409.92 140.95 409.087 140.15C408.254 139.35 407.604 138.417 407.137 137.35C406.67 136.283 406.404 135.133 406.337 133.9H409.387ZM451.387 127.25C451.387 125.983 451.204 124.8 450.837 123.7C450.504 122.567 449.987 121.6 449.287 120.8C448.62 119.967 447.77 119.317 446.737 118.85C445.704 118.35 444.52 118.1 443.187 118.1C441.854 118.1 440.67 118.35 439.637 118.85C438.637 119.35 437.77 120.017 437.037 120.85C436.337 121.683 435.77 122.65 435.337 123.75C434.904 124.85 434.62 126.017 434.487 127.25H451.387ZM434.487 129.75C434.487 131.15 434.67 132.483 435.037 133.75C435.404 134.983 435.937 136.067 436.637 137C437.37 137.9 438.287 138.633 439.387 139.2C440.487 139.733 441.754 140 443.187 140C445.154 140 446.837 139.483 448.237 138.45C449.637 137.417 450.57 135.95 451.037 134.05H454.387C454.02 135.283 453.537 136.433 452.937 137.5C452.337 138.533 451.587 139.45 450.687 140.25C449.787 141.017 448.72 141.617 447.487 142.05C446.254 142.483 444.82 142.7 443.187 142.7C441.12 142.7 439.337 142.35 437.837 141.65C436.337 140.95 435.104 140 434.137 138.8C433.17 137.567 432.454 136.133 431.987 134.5C431.52 132.833 431.287 131.05 431.287 129.15C431.287 127.25 431.554 125.467 432.087 123.8C432.654 122.133 433.437 120.683 434.437 119.45C435.47 118.183 436.72 117.2 438.187 116.5C439.654 115.767 441.32 115.4 443.187 115.4C446.754 115.4 449.554 116.633 451.587 119.1C453.62 121.533 454.62 125.083 454.587 129.75H434.487ZM477.37 128.4C476.104 128.933 474.82 129.283 473.52 129.45C472.22 129.617 470.92 129.75 469.62 129.85C467.32 130.017 465.52 130.533 464.22 131.4C462.954 132.267 462.32 133.583 462.32 135.35C462.32 136.15 462.47 136.85 462.77 137.45C463.104 138.017 463.52 138.5 464.02 138.9C464.554 139.267 465.154 139.55 465.82 139.75C466.52 139.917 467.22 140 467.92 140C469.12 140 470.287 139.85 471.42 139.55C472.554 139.25 473.554 138.8 474.42 138.2C475.32 137.567 476.037 136.783 476.57 135.85C477.104 134.883 477.37 133.75 477.37 132.45V128.4ZM472.32 126.9C472.887 126.833 473.554 126.733 474.32 126.6C475.12 126.467 475.77 126.283 476.27 126.05C476.77 125.817 477.07 125.433 477.17 124.9C477.304 124.333 477.37 123.817 477.37 123.35C477.37 121.817 476.87 120.567 475.87 119.6C474.904 118.6 473.254 118.1 470.92 118.1C469.887 118.1 468.937 118.2 468.07 118.4C467.204 118.567 466.437 118.883 465.77 119.35C465.137 119.783 464.604 120.383 464.17 121.15C463.77 121.883 463.504 122.817 463.37 123.95H460.32C460.42 122.417 460.77 121.117 461.37 120.05C461.97 118.95 462.737 118.067 463.67 117.4C464.637 116.7 465.737 116.2 466.97 115.9C468.237 115.567 469.57 115.4 470.97 115.4C472.27 115.4 473.487 115.55 474.62 115.85C475.787 116.117 476.787 116.567 477.62 117.2C478.487 117.8 479.154 118.617 479.62 119.65C480.12 120.683 480.37 121.95 480.37 123.45V137.55C480.37 138.717 480.57 139.467 480.97 139.8C481.404 140.1 482.254 140.017 483.52 139.55V141.9C483.287 141.967 482.937 142.067 482.47 142.2C482.037 142.333 481.604 142.4 481.17 142.4C480.704 142.4 480.254 142.35 479.82 142.25C479.32 142.183 478.92 142.033 478.62 141.8C478.32 141.533 478.07 141.233 477.87 140.9C477.704 140.533 477.587 140.15 477.52 139.75C477.454 139.317 477.42 138.867 477.42 138.4C476.154 139.8 474.704 140.867 473.07 141.6C471.437 142.333 469.67 142.7 467.77 142.7C466.637 142.7 465.537 142.55 464.47 142.25C463.437 141.95 462.52 141.483 461.72 140.85C460.92 140.217 460.287 139.45 459.82 138.55C459.354 137.617 459.12 136.517 459.12 135.25C459.12 130.85 462.137 128.25 468.17 127.45L472.32 126.9ZM491.354 142H488.354V116.1H491.354V120.95H491.454C492.287 118.883 493.354 117.45 494.654 116.65C495.987 115.817 497.737 115.4 499.904 115.4V118.65C498.204 118.617 496.804 118.883 495.704 119.45C494.604 120.017 493.72 120.783 493.054 121.75C492.42 122.717 491.97 123.867 491.704 125.2C491.47 126.5 491.354 127.867 491.354 129.3V142ZM522.325 124.25C521.792 122.317 520.875 120.817 519.575 119.75C518.275 118.65 516.625 118.1 514.625 118.1C513.092 118.1 511.775 118.417 510.675 119.05C509.575 119.683 508.675 120.533 507.975 121.6C507.275 122.633 506.758 123.817 506.425 125.15C506.092 126.45 505.925 127.767 505.925 129.1C505.925 130.467 506.075 131.8 506.375 133.1C506.708 134.4 507.225 135.567 507.925 136.6C508.625 137.633 509.525 138.467 510.625 139.1C511.725 139.7 513.058 140 514.625 140C516.858 140 518.642 139.383 519.975 138.15C521.342 136.917 522.208 135.217 522.575 133.05H525.775C525.508 134.483 525.075 135.8 524.475 137C523.908 138.167 523.158 139.183 522.225 140.05C521.325 140.883 520.242 141.533 518.975 142C517.708 142.467 516.258 142.7 514.625 142.7C512.558 142.7 510.775 142.35 509.275 141.65C507.775 140.95 506.542 140 505.575 138.8C504.608 137.567 503.892 136.117 503.425 134.45C502.958 132.783 502.725 131 502.725 129.1C502.725 127.3 502.975 125.583 503.475 123.95C504.008 122.283 504.775 120.817 505.775 119.55C506.775 118.283 508.008 117.283 509.475 116.55C510.975 115.783 512.692 115.4 514.625 115.4C517.625 115.4 520.042 116.117 521.875 117.55C523.742 118.983 524.908 121.217 525.375 124.25H522.325ZM531.758 142V106H534.758V119.7C535.958 118.433 537.192 117.4 538.458 116.6C539.758 115.8 541.308 115.4 543.108 115.4C544.708 115.4 546.192 115.683 547.558 116.25C548.925 116.783 550.075 117.733 551.008 119.1C551.642 120.033 552.008 121 552.108 122C552.242 122.967 552.308 123.983 552.308 125.05V142H549.308V125.1C549.308 122.767 548.792 121.017 547.758 119.85C546.725 118.683 545.008 118.1 542.608 118.1C541.675 118.1 540.825 118.25 540.058 118.55C539.292 118.817 538.592 119.183 537.958 119.65C537.358 120.117 536.842 120.65 536.408 121.25C535.975 121.85 535.642 122.483 535.408 123.15C535.108 123.983 534.925 124.783 534.858 125.55C534.792 126.317 534.758 127.15 534.758 128.05V142H531.758ZM599.457 116.45C598.757 113.383 597.457 111.2 595.557 109.9C593.657 108.6 591.174 107.95 588.107 107.95C585.941 107.95 584.074 108.383 582.507 109.25C580.941 110.117 579.641 111.283 578.607 112.75C577.607 114.217 576.857 115.917 576.357 117.85C575.891 119.75 575.657 121.767 575.657 123.9C575.657 125.9 575.857 127.867 576.257 129.8C576.691 131.733 577.391 133.467 578.357 135C579.324 136.5 580.624 137.717 582.257 138.65C583.891 139.583 585.941 140.05 588.407 140.05C589.941 140.05 591.341 139.8 592.607 139.3C593.874 138.8 594.974 138.117 595.907 137.25C596.874 136.35 597.674 135.3 598.307 134.1C598.974 132.9 599.474 131.583 599.807 130.15H603.357C602.957 131.883 602.374 133.533 601.607 135.1C600.841 136.633 599.824 137.983 598.557 139.15C597.324 140.317 595.807 141.25 594.007 141.95C592.241 142.617 590.157 142.95 587.757 142.95C584.991 142.95 582.624 142.45 580.657 141.45C578.691 140.417 577.074 139.033 575.807 137.3C574.574 135.567 573.674 133.567 573.107 131.3C572.541 129 572.257 126.567 572.257 124C572.257 120.567 572.674 117.65 573.507 115.25C574.374 112.85 575.557 110.9 577.057 109.4C578.557 107.867 580.324 106.767 582.357 106.1C584.391 105.4 586.607 105.05 589.007 105.05C590.841 105.05 592.541 105.3 594.107 105.8C595.707 106.267 597.107 106.983 598.307 107.95C599.541 108.917 600.541 110.117 601.307 111.55C602.107 112.95 602.657 114.583 602.957 116.45H599.457ZM619.841 142.7C618.175 142.667 616.608 142.367 615.141 141.8C613.708 141.233 612.441 140.383 611.341 139.25C610.275 138.117 609.425 136.7 608.791 135C608.158 133.3 607.841 131.317 607.841 129.05C607.841 127.15 608.091 125.383 608.591 123.75C609.091 122.083 609.841 120.633 610.841 119.4C611.841 118.167 613.091 117.2 614.591 116.5C616.091 115.767 617.841 115.4 619.841 115.4C621.875 115.4 623.641 115.767 625.141 116.5C626.641 117.2 627.891 118.167 628.891 119.4C629.891 120.6 630.625 122.033 631.091 123.7C631.591 125.367 631.841 127.15 631.841 129.05C631.841 131.117 631.558 132.983 630.991 134.65C630.425 136.317 629.608 137.75 628.541 138.95C627.508 140.15 626.241 141.083 624.741 141.75C623.275 142.383 621.641 142.7 619.841 142.7ZM628.641 129.05C628.641 127.517 628.475 126.083 628.141 124.75C627.808 123.417 627.291 122.267 626.591 121.3C625.891 120.3 624.991 119.517 623.891 118.95C622.791 118.383 621.441 118.1 619.841 118.1C618.275 118.1 616.925 118.417 615.791 119.05C614.691 119.65 613.791 120.467 613.091 121.5C612.391 122.5 611.875 123.667 611.541 125C611.208 126.3 611.041 127.65 611.041 129.05C611.041 130.65 611.225 132.133 611.591 133.5C611.991 134.833 612.558 135.983 613.291 136.95C614.025 137.917 614.941 138.667 616.041 139.2C617.141 139.733 618.408 140 619.841 140C621.408 140 622.741 139.7 623.841 139.1C624.975 138.467 625.891 137.633 626.591 136.6C627.291 135.567 627.808 134.4 628.141 133.1C628.475 131.8 628.641 130.45 628.641 129.05ZM654.875 116.1H657.875V142H654.875V138.4C654.475 138.867 654.025 139.35 653.525 139.85C653.025 140.35 652.441 140.817 651.775 141.25C651.141 141.65 650.391 141.983 649.525 142.25C648.658 142.55 647.658 142.7 646.525 142.7C644.791 142.7 643.341 142.467 642.175 142C641.008 141.5 640.058 140.817 639.325 139.95C638.625 139.083 638.108 138.083 637.775 136.95C637.475 135.783 637.325 134.517 637.325 133.15V116.1H640.325V133.1C640.325 135.333 640.841 137.05 641.875 138.25C642.908 139.417 644.608 140 646.975 140C648.208 140 649.308 139.767 650.275 139.3C651.275 138.8 652.108 138.117 652.775 137.25C653.441 136.383 653.958 135.35 654.325 134.15C654.691 132.95 654.875 131.633 654.875 130.2V116.1ZM668.108 142H665.108V116.1H668.108V119.7C669.308 118.433 670.541 117.4 671.808 116.6C673.108 115.8 674.658 115.4 676.458 115.4C678.058 115.4 679.541 115.683 680.908 116.25C682.274 116.783 683.424 117.733 684.358 119.1C684.991 120.033 685.358 121 685.458 122C685.591 122.967 685.658 123.983 685.658 125.05V142H682.658V125.1C682.658 122.767 682.141 121.017 681.108 119.85C680.074 118.683 678.358 118.1 675.958 118.1C675.024 118.1 674.174 118.25 673.408 118.55C672.641 118.817 671.941 119.183 671.308 119.65C670.708 120.117 670.191 120.65 669.758 121.25C669.324 121.85 668.991 122.483 668.758 123.15C668.458 123.983 668.274 124.783 668.208 125.55C668.141 126.317 668.108 127.15 668.108 128.05V142ZM711.241 124.25C710.708 122.317 709.791 120.817 708.491 119.75C707.191 118.65 705.541 118.1 703.541 118.1C702.008 118.1 700.691 118.417 699.591 119.05C698.491 119.683 697.591 120.533 696.891 121.6C696.191 122.633 695.674 123.817 695.341 125.15C695.008 126.45 694.841 127.767 694.841 129.1C694.841 130.467 694.991 131.8 695.291 133.1C695.624 134.4 696.141 135.567 696.841 136.6C697.541 137.633 698.441 138.467 699.541 139.1C700.641 139.7 701.974 140 703.541 140C705.774 140 707.558 139.383 708.891 138.15C710.258 136.917 711.124 135.217 711.491 133.05H714.691C714.424 134.483 713.991 135.8 713.391 137C712.824 138.167 712.074 139.183 711.141 140.05C710.241 140.883 709.158 141.533 707.891 142C706.624 142.467 705.174 142.7 703.541 142.7C701.474 142.7 699.691 142.35 698.191 141.65C696.691 140.95 695.458 140 694.491 138.8C693.524 137.567 692.808 136.117 692.341 134.45C691.874 132.783 691.641 131 691.641 129.1C691.641 127.3 691.891 125.583 692.391 123.95C692.924 122.283 693.691 120.817 694.691 119.55C695.691 118.283 696.924 117.283 698.391 116.55C699.891 115.783 701.608 115.4 703.541 115.4C706.541 115.4 708.958 116.117 710.791 117.55C712.658 118.983 713.824 121.217 714.291 124.25H711.241ZM720.245 142V116.1H723.245V142H720.245ZM720.095 110.45V106H723.395V110.45H720.095ZM731.329 142V106H734.329V142H731.329Z" fill="black"/>
</g>
<defs>
<clipPath id="clip0_1_2">
<rect width="734" height="154" fill="white"/>
</clipPath>
</defs>
</svg>
