<?xml version="1.0" encoding="utf-8"?>
<!-- Generator: Adobe Illustrator 27.9.0, SVG Export Plug-In . SVG Version: 6.00 Build 0)  -->
<svg version="1.1" id="Layer_1" xmlns="http://www.w3.org/2000/svg" xmlns:xlink="http://www.w3.org/1999/xlink" x="0px" y="0px"
	 viewBox="0 0 166 40" style="enable-background:new 0 0 166 40;" xml:space="preserve">
<style type="text/css">
	.st0{fill:#000000;}
	.st1{fill:#0DC09D;}
</style>
<path class="st0" d="M41.6,24.7h3.9c0.2,2.1,2.3,3.4,5.1,3.4c2.7,0,4.6-1.3,4.6-3.2c0-1.6-1.2-2.6-4-3.2L48.2,21
	c-4.2-1-6.1-3-6.1-6.2c0-4,3.5-6.7,8.4-6.7c5,0,8.2,2.7,8.3,6.7H55c-0.2-2.1-2-3.4-4.5-3.4c-2.5,0-4.3,1.2-4.3,3.1
	c0,1.5,1.1,2.4,3.9,3l2.6,0.6c4.6,1,6.5,2.9,6.5,6.3c0,4.3-3.4,7-8.9,7C45.1,31.4,41.7,28.8,41.6,24.7z M66.3,8.5v14.2
	c0,3.1,1.9,5.2,5.2,5.2c3.3,0,5.2-2.1,5.2-5.2V8.5h4V23c0,4.9-3.5,8.3-9.3,8.3c-5.7,0-9.3-3.4-9.3-8.3V8.5H66.3z M108.1,8.5V31h-3.6
	V15h-0.1l-6.5,15.8h-2.8L88.5,15h-0.1v16h-3.6V8.5h4.7l6.9,17h0.1l6.9-17H108.1z M135.3,8.5V31h-3.6V15h-0.1l-6.5,15.8h-2.8
	L115.8,15h-0.1v16H112V8.5h4.7l6.9,17h0.1l6.9-17H135.3z M143.3,31h-4V8.5h4V31z M156.9,31h-4V11.9h-6.8V8.5h17.7v3.4h-6.8V31z"/>
<path class="st1" d="M0.7,9.3c5,0.3,9,4.3,9.3,9.3h5.8C15.5,10.4,8.9,3.8,0.7,3.5V9.3z"/>
<path class="st1" d="M10,19.9c-0.3,5-4.3,9-9.3,9.3V35c8.2-0.3,14.8-6.9,15.1-15.1H10z"/>
<path class="st1" d="M23,18.6c0.3-5,4.3-9,9.3-9.3V3.5c-8.2,0.3-14.8,6.9-15.1,15.1H23z"/>
<path class="st1" d="M32.3,29.2c-5-0.3-9-4.3-9.3-9.3h-5.8c0.3,8.2,6.9,14.8,15.1,15.1V29.2z"/>
</svg>
