<?xml version="1.0" encoding="UTF-8"?><svg id="svg8" xmlns="http://www.w3.org/2000/svg" xmlns:xlink="http://www.w3.org/1999/xlink" viewBox="0 0 185.88 38.63"><defs><style>.cls-1{clip-path:url(#clippath);}.cls-2,.cls-3,.cls-4,.cls-5,.cls-6{stroke-width:0px;}.cls-2,.cls-7{fill:none;}.cls-8{clip-path:url(#clippath-1);}.cls-9{clip-path:url(#clippath-3);}.cls-10{clip-path:url(#clippath-2);}.cls-11{stroke-width:.03px;}.cls-11,.cls-3{fill:#211e1e;}.cls-11,.cls-7{stroke:#211e1e;stroke-miterlimit:11.34;}.cls-4{fill:#fddc02;}.cls-5{fill:#fff;}.cls-6{fill:#ee2e4f;}.cls-7{stroke-width:.09px;}</style><clipPath id="clippath"><rect class="cls-2" width="32.98" height="38.63"/></clipPath><clipPath id="clippath-1"><rect class="cls-2" y=".63" width="32.98" height="38"/></clipPath><clipPath id="clippath-2"><rect class="cls-2" y=".63" width="13.98" height="14"/></clipPath><clipPath id="clippath-3"><rect class="cls-2" y="19.63" width="13.98" height="17"/></clipPath></defs><g id="layer1"><g id="g1070"><g class="cls-1"><g id="g133"><path id="path131" class="cls-3" d="m7.63.61h18.47s1.8,0,1.8,0c.86,0,2.27-.04,4.27-.12l.75-.03c-.11,1.55-.13,2.16-.13,2.98v2.38s-.02,2.25-.02,2.25v12.57c0,7.91-1.79,10.6-10.33,14.82-.38.19-4.73,2.36-5.18,2.6l-.43.23-.44.23-.43-.23-.44-.23c-1.79-.94-3.61-1.77-5.03-2.46C2.67,31.73.17,29.01.17,20.61v-12.57l-.02-2.25v-2.38C.13,1.99.11,1.52,0,.45l.75.03c1.96.08,3.43.12,4.28.12h2.61"/></g></g><g class="cls-8"><g id="g137"><path id="path135" class="cls-5" d="m16.39,37.72l3.36-1.65.09-.03-.02-.07v-15.47l-.03-.09.11.02h12.17l.11.03-.03-.13v-6.56l.03-.11-.11.03h-12.17l-.11.02.03-.11V1.3l.02-.11-.09.03h-6.66l-.11-.03.03.11v12.3l.02.11-.1-.02H.86l-.11-.03.03.11v6.62l-.03.07.11-.03h12.07l.1-.02-.02.12v15.41l-.03.12.08.02,3.33,1.64"/></g></g><g class="cls-10"><g id="g141"><path id="path139" class="cls-6" d="m.91,1.22l-.16-.03.03.12v12.32l-.03.09.15-.03h12.02l.1.03-.02-.11V1.28l.02-.09-.1.03H.91"/></g></g><path id="path143" class="cls-6" d="m19.95,1.22l-.15-.03.02.12v12.32l-.02.09.14-.03h12.12l.11.03-.03-.11V1.28l.03-.09-.11.03h-12.11"/><g class="cls-9"><g id="g147"><path id="path145" class="cls-6" d="m12.98,20.43H.83l-.07-.03.03.08v.73c0,6.76,2.26,10.05,9.21,13.41l2.2,1.06.77.36.06.07v-.11s0-15.52,0-15.52l.02-.09-.05.03"/></g></g><path id="path149" class="cls-6" d="m19.88,20.43l-.08-.03.02.07v15.5l-.02.12.08-.09.7-.32c9.43-4.44,11.56-7.09,11.56-14.4v-.78l.03-.11-.11.03h-12.18"/><path id="path151" class="cls-3" d="m2.76,14.3s.06.07.07.08c.04.05.07.08.08.09.02.02.05.05.1.1.02.02.05.05.08.08-.03.02-.05.04-.05.04l-.11.09-.09.09-.03.04v.1c0,.85.22,1.43.7,1.81l.08.07-.08.05h-.1s-.2-.03-.2-.03l-.18-.03-.11-.02-.11.76h-.15l-.11-.76-.11.02c-.09.02-.14.03-.17.03l-.21.02h-.1s-.08,0-.08-.02c0-.02.02-.04.05-.07l.16-.12c.13-.1.22-.22.37-.54.07-.14.11-.26.11-.35,0-.22.04-.4.07-.4l.02-.39v-.14s-.03-.04-.03-.04l-.09-.09-.11-.09-.04-.04s.06-.06.08-.08c.14-.14.16-.16.24-.27"/><path id="path153" class="cls-3" d="m6.75,14.3c.08.11.09.13.24.27.02.02.05.05.08.08l-.04.04-.11.09-.08.09-.05.04.02.14.02.39c.03.55.34,1.2.66,1.37.05.03.09.06.09.07,0,.03-.02.05-.05.05h-.14s-.2-.03-.2-.03l-.18-.03-.1-.02-.11.76h-.14l-.11-.76-.11.02-.18.03-.2.02h-.09s-.02.01-.02.01c-.04,0-.07-.02-.07-.04,0-.02.02-.05.04-.07l.16-.12c.14-.11.18-.16.37-.54.07-.15.11-.27.11-.35,0-.22.03-.4.06-.4l.02-.39v-.14s-.02-.03-.02-.04c-.05-.05-.09-.09-.09-.09l-.11-.09-.04-.04s.06-.06.08-.08c.05-.05.08-.08.09-.1.02-.02.05-.05.09-.09.02-.02.04-.05.07-.08"/><path id="path155" class="cls-3" d="m4.76,16.63l.07.09.07.09s.05.05.09.09l.09.08-.05.04-.09.1-.1.08-.03.04v.1c0,.87.21,1.42.7,1.81l.08.07-.08.06h-.09s-.2-.03-.2-.03l-.18-.04-.11-.02-.11.76h-.14l-.11-.76-.11.02-.18.04-.2.02h-.1s0,.01,0,.01c-.04,0-.07-.02-.07-.04,0-.02.02-.04.05-.07l.16-.12c.34-.26.57-.96.57-1.72v-.1l-.03-.04-.09-.08-.1-.1-.05-.04c.16-.14.24-.22.34-.36"/><path id="path157" class="cls-3" d="m8.75,16.63c.1.14.18.22.34.36l-.05.04-.09.1-.09.08-.03.04v.1c0,.57.16,1.26.36,1.48l.21.24s.05.05.11.09l.1.07-.09.06h-.09s-.2-.03-.2-.03l-.18-.04-.11-.02-.11.76h-.14l-.11-.76-.11.02-.18.04-.2.02h-.09s-.01.01-.01.01c-.04,0-.07-.02-.07-.04,0-.02.02-.04.05-.07l.15-.12c.33-.26.58-.96.58-1.72v-.1l-.03-.04-.09-.08-.09-.1-.05-.04s.07-.06.1-.08c.04-.04.07-.07.09-.09l.07-.09.07-.09"/><path id="path159" class="cls-3" d="m10.75,14.3c.08.11.09.13.24.27.02.02.05.05.09.08l-.04.04-.11.09-.08.09-.04.04v.14s.03.39.03.39c.03.54.35,1.21.66,1.37.05.03.09.06.09.07,0,.03-.02.05-.04.05h-.13s-.21-.03-.21-.03c-.04,0-.1-.01-.18-.03l-.09-.02-.1.76h-.15l-.11-.76-.11.03-.18.02-.2.02h-.09s-.02.01-.02.01c-.04,0-.07-.02-.07-.04,0-.02.02-.04.05-.07l.16-.12c.14-.11.18-.18.37-.54.07-.15.11-.27.11-.35,0-.22.03-.4.06-.4l.02-.39v-.14s-.02-.04-.02-.04l-.09-.09s-.08-.08-.09-.09c0,0-.03-.02-.05-.04.04-.04.07-.06.09-.08.05-.05.08-.08.09-.1.02-.02.05-.05.09-.09.02-.02.04-.05.07-.08"/><path id="path161" class="cls-3" d="m22.09,14.28l.07.09.07.08c.05.06.08.09.09.11.02.02.05.05.09.09l-.05.04-.09.1-.1.08-.03.04v.09c0,.85.29,1.59.7,1.81.06.04.09.06.09.09v.02s-.09.02-.09.02h-.09c-.13,0-.34-.04-.48-.08l-.11.75h-.15l-.1-.75c-.15.05-.36.08-.48.08h-.09c-.06,0-.09-.01-.09-.04,0-.03.03-.06.09-.09.4-.21.69-.97.69-1.81v-.09l-.03-.04-.09-.08-.09-.1-.05-.04s.08-.07.09-.09c.02-.01.05-.05.1-.11l.07-.08.07-.09"/><path id="path163" class="cls-3" d="m26.09,14.28l.07.09.09.08.09.11.08.09-.05.04-.09.1-.1.08-.03.04v.09c0,.84.29,1.59.7,1.81.06.04.09.06.09.09v.02s-.09.02-.09.02h-.09c-.13,0-.34-.04-.48-.08l-.11.75h-.15l-.1-.75c-.17.05-.36.08-.53.08-.11,0-.14,0-.14-.04,0-.03.02-.05.09-.08.09-.04.24-.2.33-.34.16-.27.26-.5.26-.63,0-.23.04-.41.07-.41l.02-.39v-.14s-.02-.03-.03-.04c-.13-.13-.14-.14-.24-.22l.09-.09.1-.11.08-.08.06-.09"/><path id="path165" class="cls-3" d="m24.09,16.61s.06.06.07.08c.04.05.07.08.09.1.01.01.04.05.09.1.02.02.05.04.09.08l-.05.04-.09.11-.1.08-.03.04v.14s.03.39.03.39c.03.57.33,1.2.66,1.37.06.04.09.06.09.09h0s-.08.03-.08.03h-.09c-.13,0-.34-.04-.48-.08l-.11.75h-.15l-.11-.75c-.14.05-.35.09-.53.09-.11,0-.13-.01-.13-.05,0-.03.03-.05.09-.08.08-.04.24-.2.33-.34.17-.28.27-.52.27-.63,0-.23.03-.41.06-.41l.02-.39v-.14s-.03-.04-.03-.04l-.09-.08-.11-.11-.04-.04s.07-.07.08-.08c.15-.14.16-.16.24-.27"/><path id="path167" class="cls-3" d="m28.13,16.61s.06.06.07.08c.04.05.07.08.09.1.01.01.04.04.09.09.02.02.05.04.08.08-.02.02-.03.04-.04.04-.06.06-.09.09-.11.11-.06.05-.09.08-.1.08,0,0-.02.02-.03.04v.14s.03.39.03.39c.03.57.33,1.2.66,1.37.06.04.09.06.09.09h0s-.08.03-.08.03h-.09c-.13,0-.34-.04-.48-.08l-.11.75h-.14l-.12-.75c-.14.05-.35.09-.52.09-.11,0-.14-.01-.14-.05,0-.03.03-.05.09-.08.08-.04.24-.2.33-.34.17-.28.27-.52.27-.63,0-.23.03-.41.06-.41l.02-.39v-.14s-.03-.04-.03-.04l-.09-.08-.11-.11-.04-.04s.07-.07.08-.08c.15-.14.16-.16.24-.27"/><path id="path169" class="cls-3" d="m30.12,14.28l.07.09.09.08.09.11.08.09-.05.04-.09.1-.1.08-.03.04v.09c0,.84.29,1.59.69,1.81.06.04.09.06.09.09v.02s-.09.02-.09.02h-.09c-.13,0-.34-.04-.48-.08l-.11.75h-.15l-.1-.75c-.17.05-.36.08-.53.08-.11,0-.14,0-.14-.04,0-.03.02-.05.09-.08.09-.04.24-.2.33-.34.16-.27.26-.5.26-.63,0-.23.04-.41.07-.41l.02-.39v-.14s-.02-.03-.03-.04c-.05-.05-.07-.07-.08-.08l-.11-.1-.04-.04.08-.09.1-.11.08-.08.06-.09"/><path id="path171" class="cls-3" d="m14.57,25.13c.08.11.09.13.24.27.02.02.05.04.08.08l-.04.04-.11.09-.08.09-.04.04v.14s.03.39.03.39c.02.34.16.79.34,1.04.12.17.25.3.33.34.07.03.09.05.09.09s-.02.04-.15.04c-.16,0-.38-.04-.52-.08l-.1.75h-.15l-.11-.75c-.14.04-.36.08-.48.08h-.09c-.06,0-.09-.01-.09-.04,0-.03.02-.06.09-.09.1-.05.25-.2.32-.34.19-.31.27-.52.27-.63,0-.23.03-.41.07-.41l.02-.39v-.14s-.02-.04-.02-.04l-.1-.09-.09-.09-.05-.04s.06-.07.08-.08c.05-.05.08-.08.09-.1.02-.02.05-.05.09-.09.02-.02.04-.05.07-.08"/><path id="path173" class="cls-3" d="m18.32,25.13c.08.11.1.13.24.27.02.02.05.04.09.08l-.04.04-.11.09-.09.09-.04.04v.14s.03.39.03.39c.02.34.16.79.34,1.04.11.17.24.3.32.34.07.03.1.05.1.09s-.03.04-.15.04c-.16,0-.38-.04-.52-.08l-.11.75h-.15l-.11-.75c-.14.04-.36.08-.48.08h-.1c-.06,0-.09-.01-.09-.04,0-.03.03-.06.09-.09.11-.05.25-.2.33-.34.18-.31.27-.52.27-.63,0-.23.03-.41.06-.41l.02-.39v-.14s-.02-.04-.02-.04l-.19-.19-.05-.04s.07-.07.09-.08c.05-.05.08-.08.09-.1.02-.02.04-.05.08-.09.02-.02.04-.05.07-.08"/><path id="path175" class="cls-3" d="m16.41,28.54l.05.11.1.07.1.11.08.08-.04.04-.11.09s-.04.04-.08.09c-.01,0-.02.02-.04.04v.13s.03.39.03.39c.03.57.35,1.23.66,1.37.07.04.09.05.09.09v.02s-.09.03-.09.03h-.09s-.21-.03-.21-.03c-.04,0-.1-.01-.18-.03l-.1-.02-.11.76h-.14l-.11-.76-.11.02-.18.03-.2.02h-.09s-.01.01-.01.01c-.05,0-.07-.02-.07-.05s.02-.05.09-.09c.1-.05.25-.2.32-.33.19-.31.27-.52.27-.63,0-.23.03-.41.06-.41l.02-.39v-.13s-.02-.04-.02-.04l-.09-.09-.09-.09-.05-.04.09-.08.09-.11.09-.09.07-.09"/><path id="path177" class="cls-3" d="m14.55,32l.07.09.09.09.09.11.07.1-.04.03-.09.09-.09.08-.03.04v.14s.03.39.03.39c.03.57.33,1.2.66,1.37.06.04.09.06.09.09h0s-.09.03-.09.03h-.09c-.09,0-.23-.02-.48-.07l-.11.75h-.14l-.11-.75c-.22.05-.39.07-.53.07-.11,0-.13-.01-.13-.05,0-.03.02-.05.09-.08.09-.04.24-.2.33-.34.17-.28.27-.51.27-.63,0-.23.03-.41.06-.41l.02-.39v-.14s-.02-.03-.03-.04c-.05-.04-.07-.07-.08-.08l-.11-.09-.04-.04.09-.08.09-.11.08-.09.06-.09"/><path id="path179" class="cls-3" d="m18.32,32l.06.09.09.09.08.12.1.07-.04.04-.11.09s-.04.04-.09.08c0,.01-.02.03-.04.04v.14s.03.39.03.39c.02.34.16.79.34,1.04.11.17.24.3.32.34.07.03.1.05.1.09,0,.04-.03.04-.14.04-.14,0-.3-.02-.52-.07l-.11.75h-.15l-.11-.75c-.25.05-.4.07-.48.07h-.1c-.06,0-.09,0-.09-.04,0-.03.03-.06.09-.09.11-.05.25-.2.33-.34.18-.31.27-.51.27-.63,0-.23.03-.41.06-.41l.02-.39v-.14s-.02-.04-.02-.04l-.09-.08-.09-.09-.05-.04.09-.08.09-.11.08-.09.07-.09"/><path id="path181" class="cls-3" d="m16.41,21.71l.06.09.08.08.1.11.08.09-.04.04-.11.1s-.04.04-.08.08c-.01.01-.02.02-.04.04v.14s.03.39.03.39c.03.57.36,1.25.66,1.38.07.03.09.05.09.08,0,.04-.02.05-.13.05-.14,0-.3-.02-.53-.07l-.11.75h-.14l-.11-.75c-.25.05-.4.07-.48.07h-.09c-.06,0-.09-.01-.09-.04,0-.03.03-.06.09-.09.1-.05.25-.2.32-.34.19-.31.27-.51.27-.63,0-.23.03-.41.06-.41l.02-.39v-.14s-.02-.04-.02-.04l-.09-.08-.09-.1-.05-.04.09-.09.09-.11.09-.08.07-.09"/><path id="path183" class="cls-3" d="m14.52,2.53s.06.07.07.08c.04.05.07.08.09.1.01.01.04.04.09.09.02.02.05.05.08.08l-.04.04-.11.09s-.04.04-.09.09c0,0-.02.02-.03.04v.14s.03.38.03.38c.02.37.18.87.34,1.05l.21.24s.05.04.12.09l.09.07-.09.05h-.09s-.2-.03-.2-.03l-.18-.03-.11-.02-.11.72-.13.04-.11-.76-.1.02-.18.03-.2.02h-.11s-.07,0-.07-.02c0-.02.02-.04.04-.07,0,0,.06-.05.16-.12.14-.1.18-.16.37-.54.08-.15.12-.27.12-.35,0-.23.03-.41.06-.41l.02-.38v-.14s-.03-.04-.03-.04l-.08-.09-.11-.09-.04-.04s.07-.06.08-.08c.15-.14.16-.16.24-.27"/><path id="path185" class="cls-3" d="m18.32,2.53c.08.11.1.13.24.27.02.02.05.05.09.08l-.04.04-.11.09-.09.09-.04.04v.14s.03.38.03.38c.03.55.34,1.22.66,1.39.05.03.09.05.09.07,0,.03-.02.05-.04.05h-.13s-.21-.03-.21-.03c-.05,0-.11-.01-.18-.03l-.09-.02-.11.76h-.15l-.11-.76h-.11s-.17.05-.17.05l-.2.02h-.1s-.01.01-.01.01c-.04,0-.07-.02-.07-.04,0-.02.02-.04.05-.07l.15-.12c.14-.11.19-.18.37-.54.08-.15.12-.27.12-.35,0-.23.03-.41.06-.41l.02-.38v-.14s-.02-.04-.02-.04l-.09-.09s-.08-.08-.09-.09c-.01,0-.03-.02-.05-.04.04-.04.07-.06.09-.08.05-.05.08-.08.09-.09.02-.02.04-.05.08-.1.02-.02.04-.05.07-.08"/><path id="path187" class="cls-3" d="m16.39,5.82l.07.08.09.1c.05.05.08.09.09.1.02.02.05.05.08.09l-.05.04-.09.09-.09.08-.03.04v.14s.02.36.02.36c.03.57.34,1.23.67,1.41.06.04.09.06.09.09h0s-.08.03-.08.03h-.09c-.13,0-.34-.04-.48-.09l-.11.76h-.14l-.11-.76c-.14.05-.35.09-.53.09-.11,0-.14,0-.14-.04,0-.03.02-.05.09-.09.09-.04.24-.19.33-.34.16-.27.26-.5.26-.63,0-.23.03-.41.07-.41l.02-.39v-.14s-.02-.03-.03-.04c-.05-.05-.07-.07-.08-.08l-.11-.09-.04-.04.08-.09.1-.1c.05-.05.07-.09.08-.1.02-.02.04-.04.06-.08"/><path id="path189" class="cls-3" d="m14.51,9.09l.07.09.07.09s.05.05.09.09l.1.09s-.05.04-.05.04l-.09.1-.13.13v.1c0,.55.16,1.25.35,1.45l.23.27s.04.04.12.1l.08.07-.08.06h-.1s-.2-.03-.2-.03l-.18-.03-.11-.02-.11.76h-.14l-.11-.76-.11.02-.18.03-.2.02h-.09s-.02.01-.02.01c-.04,0-.07-.02-.07-.04,0-.02.02-.04.05-.07l.16-.12c.35-.28.58-.95.58-1.72v-.1l-.04-.03-.09-.09c-.05-.05-.08-.08-.09-.1,0,0-.03-.02-.05-.04.04-.04.07-.07.1-.09.04-.04.07-.07.09-.09l.07-.09.07-.09"/><path id="path191" class="cls-3" d="m18.3,9.09s.05.07.07.09c.04.05.07.07.08.09.02.01.05.05.09.09.02.02.05.05.09.09-.03.02-.05.04-.05.04l-.22.22v.15s.03.39.03.39c.03.58.26,1.05.66,1.38l.08.07-.08.06h-.1s-.2-.03-.2-.03l-.18-.03-.11-.02-.11.76h-.15l-.12-.79c-.19.04-.2.08-.26.09l-.21.02h-.09s-.01.01-.01.01c-.04,0-.06-.02-.06-.04,0-.02.02-.04.04-.07l.16-.12c.13-.11.18-.16.37-.54.07-.14.11-.27.11-.35,0-.22.03-.4.06-.4l.02-.39v-.15s-.03-.03-.03-.03l-.09-.09-.11-.1-.04-.04s.06-.07.08-.09c.14-.14.16-.16.24-.27"/><path id="path193" class="cls-3" d="m10.43,7.4l.04.16c.04.14.07.26.08.34.13.6.25.76.54.76.17,0,.3-.09.35-.23l.06-.21s.05-.08.1-.08c.11,0,.17.12.17.38,0,.08.03.25.07.52.03.16.04.31.04.46,0,.13-.01.19-.06.33.04.21.06.48.06.64,0,.26-.05.5-.13.62.05.18.05.25.05.4,0,.11-.01.23-.03.35-.05.25-.05.32-.05.36,0,.05,0,.1.02.14.02.06.03.11.03.13,0,.03-.02.05-.03.05l-.21-.08-.23-.13c-.07-.04-.13-.08-.24-.19-.2.18-.27.21-.8.36-.11.03-.18.06-.23.1-.07.05-.11.07-.14.07-.09,0-.13-.15-.13-.45,0-.23.02-.43.07-.59-.16-.06-.29-.09-.38-.09-.02,0-.07,0-.16.02h-.04s-.05-.04-.05-.1c0-.04.03-.14.06-.23l.11-.25c.04-.09.13-.2.25-.3.1-.09.2-.14.27-.16l.38-.07c.23-.04.36-.16.36-.32s-.1-.25-.32-.33l-.45-.16c-.12-.04-.25-.11-.41-.2-.25-.15-.29-.17-.35-.17-.09,0-.14.07-.14.18,0,.19.12.32.3.32.04,0,.07,0,.11-.02.05-.02.09-.03.11-.03.05,0,.07.03.07.08v.04s-.02.18-.02.18c-.02.15-.12.34-.34.63l-.09.13c-.09.34-.3.64-.57.83-.07.05-.11.08-.12.09,0,.01-.04.06-.09.15-.02.04-.09.13-.21.25-.09.1-.18.18-.27.24-.12.09-.19.15-.21.19l-.11.18s-.05.05-.09.05c-.09,0-.18-.1-.23-.27-.04-.12-.07-.16-.15-.16-.04,0-.1.01-.18.03l-.15.02h-.38c-.19,0-.45.05-.58.1-.05.02-.08.04-.11.04-.03,0-.04-.01-.07-.07-.02-.03-.02-.05-.02-.08,0-.19.14-.55.32-.84.11-.18.15-.23.29-.34-.04-.18-.16-.31-.3-.36l-.18-.05s-.04-.03-.04-.05c0-.05.09-.13.24-.21.2-.11.41-.17.57-.17.18,0,.34.07.54.22.29.22.36.26.5.26.23,0,.44-.2.44-.42,0-.14-.07-.3-.28-.56-.29-.38-.38-.57-.38-.86,0-.17.05-.39.12-.49l.11-.16s.04-.07.04-.1c0-.07-.08-.12-.19-.12-.16,0-.48.12-.74.27-.13.07-.21.17-.21.22,0,.03.02.06.04.08l.12.07s.02.02.02.04c0,.02-.02.05-.04.08l-.21.27c-.11.14-.28.32-.44.46-.05.05-.09.08-.11.11,0,0-.03.05-.09.16-.07.14-.27.35-.46.47-.08.05-.13.09-.15.12-.02.02-.04.07-.08.15-.03.05-.07.13-.14.22-.11.15-.19.26-.25.32l-.29.3c-.09.09-.17.27-.29.65-.08.23-.14.37-.18.37-.02,0-.05-.02-.08-.06-.21-.24-.39-.38-.48-.38-.02,0-.06.02-.12.05-.08.05-.17.09-.29.11l-.39.07c-.29.05-.41.12-.58.32-.04.05-.07.07-.09.07-.04,0-.06-.05-.06-.13v-.1s.06-.29.06-.29c.06-.3.13-.53.21-.68l.18-.33c.04-.06.05-.12.05-.17,0-.24-.25-.46-.55-.49-.08,0-.11-.03-.11-.07,0-.05.09-.16.2-.25.21-.16.48-.27.66-.27.11,0,.27.04.48.13l.23.09c.09.04.16.05.23.05.24,0,.48-.22.77-.73.13-.23.19-.39.19-.54,0-.27-.13-.43-.33-.43-.16,0-.33.07-.45.2-.11.11-.16.22-.16.32v.12s0,.03,0,.03c0,.1-.03.15-.09.15-.1,0-.24-.14-.66-.64-.31-.38-.38-.54-.39-.91-.36-.45-.45-.65-.45-.97l.02-.22c-.25-.3-.32-.46-.32-.73,0-.1.02-.16.08-.28-.13-.18-.17-.27-.2-.41l-.05-.22c-.04-.15-.09-.28-.17-.39-.1-.14-.11-.15-.11-.2,0-.13.08-.17.45-.26-.02-.1-.02-.18-.02-.23,0-.06,0-.12.03-.25l.07-.39c.03-.16.05-.27.05-.34,0-.07-.01-.13-.08-.34-.04-.12-.07-.2-.09-.24-.04-.05-.06-.12-.06-.14,0-.04.02-.06.07-.06.11,0,.38.17.66.4.61.5.73.7.81,1.3,0,.05.02.12.03.21.29.21.44.47.44.74,0,.22-.08.47-.21.68l-.21.32c-.06.1-.09.22-.09.35,0,.2.05.38.2.63.16.28.3.4.47.4.27,0,.52-.48.52-1.03v-.26c0-.11,0-.21.02-.35.02-.16.03-.27.03-.3v-.25s.02-.17.02-.17c0-.06-.04-.12-.11-.2l-.23-.25c-.34-.36-.52-.71-.52-.96,0-.32.23-.56.54-.56.06,0,.12.01.22.04v-.07c0-.46.1-.8.22-.8l.05.02.19.17.23.15.06.06c0-.13,0-.14.14-.29.03-.04.08-.11.15-.2.05-.07.09-.13.11-.16.02-.03.03-.06.05-.09.03-.05.05-.08.09-.08s.05.04.09.15c.02.07.04.09.22.25.06.06.11.11.13.14.02.03.04.1.08.21,0,.02.02.05.03.09.08-.1.12-.14.21-.19l.16-.09c.06-.04.1-.05.12-.05s.04.02.05.06c.02.04.05.09.09.16.11.2.15.29.15.38v.23c.34.11.47.29.47.66,0,.27-.14.58-.41.9-.18.21-.2.26-.2.41,0,.78.54,1.23,1.5,1.24h.7c.45.02.72.06,1.14.2.5.16.64.2.79.2.05,0,.1-.02.14-.04.04-.03.06-.06.06-.09,0-.15-.26-.27-1.11-.5-1.73-.49-2.47-1.19-2.47-2.34,0-.89.74-1.57,1.69-1.57.31,0,.78.08,1.05.18l.43.16c.08.03.15.04.22.04.15,0,.22-.12.23-.37,0-.13.04-.18.12-.18.12,0,.31.15.48.39.17.24.29.51.29.69,0,.24-.11.41-.37.55-.23.36-.52.52-.91.52-.3,0-.73-.17-1.45-.58-.25-.14-.38-.19-.51-.19-.18,0-.3.11-.3.27,0,.15.12.25.42.36.46.16.57.22.75.41.54.09.77.19,1.11.44.92.29,1.49.92,1.49,1.64s-.47,1.2-1.13,1.2c-.16,0-.25-.01-.5-.06"/><path id="path195" class="cls-3" d="m30.04,7.4l.04.16c.04.14.06.26.08.34.13.6.25.76.54.76.17,0,.3-.09.35-.23l.06-.21s.05-.07.1-.07c.11,0,.18.13.18.38,0,.1.02.27.06.52.03.18.04.34.04.49,0,.11-.02.17-.06.3l.02.13c.04.21.04.29.04.39,0,.45-.02.58-.13.76.04.17.05.25.05.38,0,.08-.01.19-.04.37l-.04.32v.19c.04.07.05.11.05.13,0,.03-.02.05-.04.05l-.21-.08-.23-.13c-.07-.04-.13-.08-.24-.19-.2.18-.23.2-.47.26-.35.1-.48.14-.55.19-.07.05-.12.07-.14.07-.08,0-.14-.16-.14-.39,0-.34.02-.51.07-.64-.2-.07-.31-.09-.38-.09-.03,0-.04,0-.15.02h-.05s-.05-.04-.05-.1c0-.1.07-.31.17-.48.13-.23.35-.43.52-.46l.38-.07c.22-.04.36-.16.36-.32s-.1-.25-.32-.33l-.44-.16c-.15-.05-.29-.12-.42-.2-.11-.07-.19-.11-.23-.14-.04-.02-.08-.03-.11-.03-.1,0-.15.07-.15.18,0,.18.14.33.3.33.04,0,.07,0,.11-.02.05-.02.08-.03.1-.03.05,0,.08.05.08.11,0,.19-.12.51-.24.66l-.13.16-.09.13c-.04.27-.3.66-.57.83-.07.04-.11.07-.12.09,0,.01-.04.06-.09.15-.02.04-.09.13-.21.25-.09.1-.18.18-.27.24-.12.09-.19.15-.21.19l-.1.18s-.05.05-.08.05c-.09,0-.18-.1-.23-.27-.04-.12-.07-.16-.15-.16-.04,0-.1.01-.18.03l-.15.02h-.37c-.2,0-.46.05-.59.1-.05.02-.08.04-.11.04-.05,0-.08-.05-.08-.16,0-.33.25-.84.59-1.17-.05-.19-.15-.32-.29-.36-.12-.03-.18-.05-.19-.05-.02-.01-.04-.03-.04-.05,0-.07.08-.13.24-.21.3-.14.39-.17.55-.17.19,0,.35.07.55.22.29.22.36.26.5.26.22,0,.44-.2.44-.42,0-.15-.08-.31-.28-.56-.28-.36-.38-.59-.38-.89,0-.2.04-.31.22-.61.03-.05.04-.09.04-.11,0-.06-.09-.11-.2-.11-.11,0-.25.04-.44.13-.32.14-.51.28-.51.36,0,.03.02.07.05.09l.11.07s.02.02.02.04c0,.02-.02.05-.04.08-.02.02-.09.11-.21.27-.15.2-.29.34-.44.46-.06.04-.09.08-.11.11l-.09.16c-.07.13-.28.35-.45.47-.08.06-.13.1-.15.12-.02.02-.05.07-.09.15-.11.19-.28.43-.39.54l-.29.3c-.08.09-.19.33-.3.65-.09.25-.14.37-.18.37-.02,0-.05-.02-.08-.06-.2-.23-.39-.38-.48-.38-.02,0-.06.02-.12.05-.08.05-.18.09-.29.11l-.38.07c-.32.06-.45.13-.59.32-.04.05-.07.07-.09.07-.04,0-.06-.05-.06-.13v-.09s.03-.11.06-.29c.05-.3.13-.55.21-.68l.19-.33c.04-.06.05-.12.05-.17,0-.24-.23-.44-.57-.49-.07-.01-.11-.04-.11-.08,0-.05.08-.14.21-.24.22-.17.47-.27.64-.27.12,0,.27.04.48.13l.23.09c.09.04.16.05.23.05.25,0,.48-.22.78-.73.13-.23.19-.39.19-.54,0-.27-.12-.43-.33-.43-.16,0-.32.07-.45.2-.11.12-.17.23-.17.34v.11s0,.05,0,.05c0,.09-.03.13-.09.13-.08,0-.17-.08-.36-.29-.07-.09-.17-.21-.29-.35-.32-.38-.39-.52-.4-.91-.36-.45-.45-.71-.45-.97v-.22c-.24-.3-.29-.43-.29-.73,0-.14,0-.17.06-.28-.13-.18-.16-.27-.2-.41l-.05-.22c-.04-.15-.09-.28-.17-.39-.09-.14-.11-.16-.11-.2,0-.11.11-.18.37-.25l.09-.02c-.02-.1-.02-.18-.02-.23,0-.06,0-.12.03-.25l.07-.39c.03-.15.04-.27.04-.34,0-.09-.01-.16-.06-.33-.04-.11-.07-.19-.11-.24-.04-.06-.06-.11-.06-.14,0-.04.04-.07.08-.07.03,0,.07.02.11.04.36.2.74.5,1.02.81.24.27.31.48.37,1.07.32.24.45.46.45.8,0,.2-.07.4-.21.62-.13.2-.2.3-.21.32-.06.11-.1.23-.1.36,0,.19.06.37.2.62.16.28.3.4.46.4.27,0,.52-.48.52-1v-.39l.03-.25.02-.3.02-.25v-.14c0-.11-.01-.14-.34-.48-.36-.38-.52-.71-.52-1,0-.28.24-.52.54-.52.06,0,.11.01.22.04v-.34s.07-.27.07-.27c.05-.22.07-.26.15-.26l.05.02.19.17.23.15.06.06c.02-.13.03-.16.14-.29.05-.07.11-.14.15-.2l.11-.16.06-.09c.04-.06.06-.08.09-.08s.05.04.08.16c.01.05.05.09.09.14l.14.11c.11.09.18.23.23.43.08-.11.13-.14.21-.19l.17-.09c.06-.04.1-.05.11-.05s.03.02.05.06c.02.06.05.11.09.16.14.22.15.25.15.39v.09s0,.13,0,.13c.34.09.48.28.48.65,0,.29-.13.58-.4.9-.18.21-.21.29-.21.45,0,.74.56,1.19,1.5,1.2h.7c.45.02.73.07,1.14.2.49.16.64.2.79.2.11,0,.2-.06.2-.13,0-.15-.25-.27-1.1-.51-1.73-.49-2.47-1.19-2.47-2.34,0-.89.74-1.57,1.7-1.57.3,0,.78.08,1.04.18l.43.16c.08.03.15.04.22.04.15,0,.21-.09.23-.37.01-.12.05-.18.13-.18.11,0,.32.17.48.39.16.22.27.52.27.71,0,.22-.12.39-.37.54-.23.36-.52.52-.91.52-.3,0-.81-.2-1.45-.58-.25-.14-.36-.19-.5-.19-.19,0-.31.11-.31.27,0,.15.11.25.43.36.5.18.61.24.75.41.54.09.77.19,1.11.44.96.31,1.49.9,1.49,1.66,0,.69-.47,1.19-1.12,1.19-.17,0-.26-.01-.51-.06"/><path id="path197" class="cls-3" d="m10.63,27.24c.09.23.13.35.14.5l.02.44c.02.44.16.66.44.66.1,0,.19-.03.23-.07l.11-.11.05-.02c.07,0,.11.05.11.14v.17c-.02.08,0,.24.03.48.02.14.03.29.03.42,0,.23-.02.31-.1.51.07.21.12.44.12.64,0,.23-.04.38-.13.51.04.18.05.25.05.36s-.01.24-.04.4c-.04.22-.05.39-.04.5v.03c0,.07-.02.1-.06.1-.04,0-.09-.03-.13-.09-.06-.08-.11-.11-.15-.11-.07,0-.1.04-.2.36-.04.1-.12.23-.25.39-.1.13-.17.23-.19.3-.04.13-.05.2-.06.22-.01.03-.04.05-.06.05h-.02c-.17,0-.37-.37-.57-1.07-.06-.2-.13-.29-.24-.29-.07,0-.15.05-.18.12l-.06.15s-.03.04-.05.04c-.08,0-.21-.16-.29-.35-.06-.16-.1-.34-.1-.48,0-.33.24-.57.98-.99.32-.18.44-.41.44-.82,0-.32-.1-.51-.38-.73-.22-.16-.35-.23-.47-.23-.1,0-.18.07-.18.15,0,.1.05.16.19.21.16.05.23.11.23.19,0,.07-.07.21-.18.38-.12.18-.17.23-.34.35-.05.29-.18.47-.5.68-.06.18-.1.25-.21.39l-.22.29c-.07.09-.14.25-.16.32-.02.16-.04.19-.1.19-.08,0-.25-.15-.43-.37-.1-.13-.13-.19-.14-.35-.11.09-.14.1-.36.13-.13.02-.23.04-.29.07-.16.09-.21.11-.24.11-.04,0-.06-.02-.06-.1v-.23c-.01-.32.11-.69.3-.93-.18-.16-.37-.26-.52-.27-.06,0-.08-.02-.08-.04,0-.04.04-.12.1-.19.08-.1.14-.17.19-.21.15-.13.41-.22.61-.22.14,0,.34.05.6.15.09.04.18.05.25.05.11,0,.18-.07.18-.21,0-.19-.09-.49-.3-.97-.14-.32-.21-.54-.21-.69,0-.37.17-.74.39-.85-.1-.05-.14-.06-.23-.06-.1,0-.19.03-.32.11-.16.09-.24.17-.24.22,0,.02.03.05.09.09.08.06.09.08.09.16,0,.26-.21.61-.52.83-.07.37-.23.59-.57.75-.05.2-.07.26-.23.48-.28.39-.34.51-.39.73-.03.11-.05.16-.09.16-.05,0-.14-.07-.24-.18-.09-.09-.14-.16-.17-.2-.04-.07-.07-.14-.11-.34-.07.02-.1.03-.15.03h-.16s-.11,0-.11,0c-.23,0-.48.05-.6.13-.05.03-.08.04-.09.04-.07,0-.12-.14-.12-.32,0-.38.11-.69.35-1.04-.09-.08-.12-.11-.2-.19-.04-.04-.07-.06-.09-.07l-.12-.06s-.06-.05-.06-.07c0-.05.15-.2.34-.32.2-.13.36-.19.51-.19.17,0,.26.04.48.23.15.13.25.19.32.19.05,0,.11-.04.15-.09.04-.05.05-.11.05-.16,0-.2-.24-.54-.5-.71-.2-.13-.42-.2-.63-.2-.29,0-.54.14-.66.38l-.11.24c-.03.05-.06.09-.1.09-.07,0-.1-.03-.34-.31l-.27-.31c-.09-.1-.14-.19-.17-.27-.02-.08-.04-.13-.05-.14,0-.02-.04-.04-.11-.09-.21-.15-.36-.45-.45-.87,0-.03-.02-.08-.03-.14-.26-.32-.41-.71-.41-1.04,0-.05,0-.07.02-.14-.15-.15-.17-.19-.28-.59-.09-.29-.14-.41-.24-.55-.03-.04-.04-.06-.04-.08,0-.05.09-.1.24-.13.14-.02.15-.03.21-.03l.21.02v-.29c-.01-.17,0-.28.04-.48.02-.1.03-.17.03-.22,0-.02,0-.08-.02-.18-.01-.08-.02-.13-.03-.16-.02-.04-.02-.07-.02-.09,0-.04.02-.05.06-.05.03,0,.07.02.14.05.18.09.34.18.45.27.36.29.65.72.65.99v.08c-.02.09-.03.15-.03.16,0,.04.03.11.07.17l.11.16c.11.14.17.3.17.41,0,.1-.02.14-.19.39-.13.18-.18.32-.18.47,0,.19.07.43.21.66.13.22.27.34.41.34.23,0,.34-.21.37-.77.02-.29.05-.56.09-.8v-.14c0-.06-.01-.1-.1-.2l-.31-.37c-.3-.35-.39-.53-.39-.78,0-.29.19-.49.47-.49h.13s0-.07,0-.07c0-.07.02-.16.05-.29.07-.23.15-.4.2-.4.01,0,.05.02.1.05.02.01.08.04.19.07.06.02.1.04.21.11.05-.18.09-.27.17-.37.14-.18.29-.32.34-.32.03,0,.09.05.17.13l.2.21s.07.11.12.2l.04.1c.05-.04.1-.06.13-.07.08-.05.14-.08.17-.09.13-.06.19-.09.2-.1.06-.04.09-.05.11-.05.04,0,.05.07.13.41.05.24.06.29.07.46.34.05.5.24.5.6,0,.34-.17.68-.53,1.06-.1.11-.12.16-.12.25,0,.93.32,1.22,1.49,1.34.71.07.93.12,1.79.38.45.14.71.19.88.19.2,0,.31-.07.31-.2,0-.2-.14-.26-.98-.43-1.95-.41-2.71-1.07-2.71-2.36,0-.91.68-1.6,1.6-1.6.4,0,.77.12,1.34.45.53.31.64.36.76.36.14,0,.2-.09.2-.32,0-.15.05-.22.14-.22s.21.09.33.22c.17.21.24.31.24.6,0,.38-.2.63-.6.74-.04.05-.07.08-.09.11-.21.24-.41.32-.75.32-.3,0-.68-.12-.93-.3l-.5-.36c-.22-.16-.38-.22-.53-.22-.21,0-.34.13-.34.34s.14.38.37.46l.47.14c.17.05.25.09.45.19.12-.02.17-.02.23-.02.3,0,.61.08.89.22.09.04.15.07.19.08l.27.07c.59.17,1.08.84,1.08,1.49,0,.74-.48,1.2-1.26,1.2h-.24"/><path id="path199" class="cls-3" d="m28.92,27.09c.18.24.44.4.65.4.06,0,.18-.02.28-.04.06-.01.11-.02.14-.02.05,0,.07.02.07.07,0,.04-.03.13-.05.2-.04.08-.05.14-.06.19l-.04.22-.11.19-.15.14-.04.04v.14c0,.25-.08.4-.29.54-.02.01-.04.03-.07.05l-.02.08c-.05.2-.08.32-.11.37-.03.06-.09.16-.2.3-.13.16-.21.3-.27.43-.04.11-.07.13-.14.13-.1,0-.2-.13-.22-.28-.02.03-.04.05-.05.06l-.13.09-.2.14c-.09.06-.14.1-.17.13l-.11.12s-.04.03-.06.03c-.05,0-.11-.09-.16-.27l-.11-.34c-.03-.09-.04-.21-.04-.34,0-.18.01-.23.07-.38-.21.02-.27.04-.38.07-.04.01-.07.02-.09.02-.04,0-.05-.02-.05-.06,0-.02.02-.1.04-.16l.14-.36c.11-.28.45-.53.72-.53.07,0,.15.02.27.05.07.02.12.04.16.04.13,0,.22-.09.22-.2,0-.05-.04-.12-.08-.14-.02,0-.14-.05-.38-.12-.18-.05-.27-.12-.46-.34-.14-.17-.2-.21-.25-.21-.04,0-.06.03-.06.07v.14s.01.06.01.06c0,.29-.09.57-.3.96l-.29.54c-.14.25-.2.45-.2.64,0,.21.09.4.21.43l.16.04s.04.02.05.03c.02.02.03.04.03.06s-.02.05-.05.09c-.02.02-.08.11-.19.24-.18.24-.3.32-.52.39-.13.31-.34.49-.7.61l-.04.07c-.13.22-.4.42-.58.42h-.04c-.02.2-.16.39-.37.54-.14.1-.22.16-.24.18-.01.02-.03.05-.05.09-.05.11-.09.15-.15.15-.11,0-.2-.11-.27-.3-.04.03-.07.05-.09.06-.12.09-.19.13-.2.14-.05.02-.17.06-.37.11-.25.06-.48.17-.54.26l-.09.16-.04.02c-.05,0-.11-.07-.14-.16-.05-.22-.09-.45-.09-.59,0-.38.13-.62.5-1v-.09c0-.58.44-.98,1.09-.98h.11s.36.03.36.03h.04c.2,0,.37-.07.57-.23.26-.21.33-.34.33-.57,0-.07-.02-.16-.1-.42-.05-.18-.08-.34-.08-.5,0-.43.32-.97.75-1.27.11-.08.2-.18.2-.24,0-.02-.01-.04-.03-.04-.03,0-.08.03-.14.08-.05.05-.13.1-.25.16l-.17.08-.19.07c-.06.02-.09.05-.09.09,0,.02,0,.06.02.1.02.04.02.06.02.08,0,.02-.02.06-.05.12l-.14.24c-.15.24-.25.34-.43.42-.12.35-.29.52-.54.56-.2.4-.38.54-.73.58-.05.15-.13.28-.32.48-.07.08-.12.14-.13.17-.08.15-.09.16-.13.16-.05,0-.16-.07-.24-.16-.04-.04-.07-.08-.09-.13l-.09-.17c-.03-.05-.06-.08-.1-.08h-.07s-.23.04-.23.04c-.14.02-.35.14-.42.24l-.13.19s-.03.03-.05.03c-.09,0-.15-.21-.15-.55,0-.3.05-.5.15-.65l.3-.41c.04-.06.06-.12.06-.16,0-.05-.02-.09-.05-.14-.06-.07-.12-.12-.17-.13l-.22-.03s-.05-.02-.05-.04c0-.02.01-.04.03-.07.07-.09.16-.17.27-.23.26-.16.43-.22.61-.22s.37.06.55.18l.3.2s.09.04.14.04c.14,0,.25-.08.35-.27.1-.18.14-.33.14-.49,0-.39-.29-.68-.68-.68-.18,0-.37.07-.55.21-.05.04-.09.08-.11.12l-.08.19s-.05.07-.08.07c-.05,0-.17-.15-.27-.35-.05-.1-.1-.23-.15-.38-.06-.2-.09-.36-.09-.52l.02-.29c-.14-.22-.19-.39-.19-.65,0-.1.01-.17.07-.37-.09-.14-.12-.25-.12-.47v-.13s.04-.15.04-.15l.02-.13c-.1-.13-.13-.22-.23-.68-.05-.26-.09-.38-.14-.44-.02-.03-.03-.05-.03-.06,0-.06.15-.12.31-.12h.15c-.04-.09-.04-.12-.04-.2,0-.13.03-.28.08-.42.05-.16.07-.21.07-.26,0-.13-.02-.25-.05-.32l-.09-.21s-.03-.08-.03-.11c0-.02.02-.03.05-.03.21,0,.6.22.91.52.3.29.41.52.41.96l-.02.23c.29.25.41.46.41.68,0,.16-.05.27-.21.43-.29.28-.35.43-.35.79,0,.56.17.86.48.86.27,0,.48-.29.52-.73l.03-.4c0-.1.02-.23.05-.38.02-.09.03-.22.03-.27,0-.14-.09-.32-.37-.64-.3-.34-.39-.53-.39-.8,0-.32.22-.56.53-.56.07,0,.11.01.2.06,0-.18.01-.22.12-.47.08-.2.17-.35.21-.35.02,0,.04.02.06.04.05.04.09.08.14.11.06.05.1.07.1.07.02.02.06.05.1.1.06-.24.13-.35.32-.54.15-.14.2-.19.23-.19.02,0,.05.02.07.05l.13.17.18.2c.07.08.09.14.13.33l.11-.06.17-.1s.07-.04.13-.08c.03-.02.05-.03.07-.03s.04.03.05.07l.06.24.14.27c.04.08.05.14.05.27v.07h.07c.21,0,.38.24.38.52,0,.38-.3.86-.68,1.11-.04.13-.05.18-.05.28,0,.84.22,1.01,1.51,1.2.32.05.61.11.86.18.04.01.32.1.83.27.28.1.47.14.62.14.16,0,.24-.04.24-.13,0-.14-.21-.27-.86-.53l-.91-.36c-.93-.36-1.37-.93-1.37-1.77,0-.97.73-1.7,1.7-1.7.37,0,.73.07,1.24.27.66.24.7.25.77.25.13,0,.2-.09.22-.27.02-.16.06-.22.14-.22.13,0,.27.12.37.31.09.17.14.37.14.55,0,.35-.18.57-.52.64-.22.29-.5.43-.85.43-.42,0-.62-.08-1.34-.53-.25-.16-.36-.2-.55-.2-.25,0-.44.16-.44.37,0,.19.16.32.5.41.21.05.24.07.35.18.09-.02.12-.03.18-.03.34,0,.76.18,1.12.49.65.2,1.22.9,1.22,1.48,0,.65-.56,1.23-1.19,1.23-.17,0-.51-.05-.81-.13"/><path id="path201" class="cls-4" d="m11.47,12c-.03-.13-.04-.19-.04-.25v-.08s.04-.17.04-.17v-.13c.01-.15-.01-.25-.06-.32l-.13-.17c-.04-.06-.08-.13-.11-.2-.02-.04-.02-.07-.02-.09,0-.05.03-.08.07-.08.03,0,.04,0,.13.06.04.02.08.04.11.04.06,0,.1-.1.1-.28,0-.2-.02-.32-.07-.36l-.16-.18-.14-.12s-.05-.06-.05-.09c0-.05.04-.08.09-.08.05,0,.14.02.23.05h.05s.06-.02.06-.08v-.04s-.04-.22-.04-.22l-.06-.23c-.02-.07-.03-.09-.08-.09h-.03s-.26.05-.26.05h-.04c-.34,0-.71-.29-.82-.65l-.21-.68c-.06-.21-.22-.41-.5-.64-.09-.07-.16-.11-.21-.11l-.19-.02s-.06-.02-.06-.05c0-.04.04-.06.13-.06l.35.03c.13.01.32.06.57.15.31.11.53.15.7.15.53,0,.84-.29.84-.76,0-.33-.17-.7-.43-.93-.15-.13-.29-.23-.35-.23-.03,0-.05.03-.05.06v.13s.01.01.01.01c0,.05-.03.09-.07.09-.05,0-.11-.07-.18-.21-.2-.41-.52-.66-.84-.66-.05,0-.1.02-.1.06,0,.02.02.07.05.15l.08.19c.02.05.04.08.04.1,0,.01-.02.02-.04.02-.05,0-.13-.04-.18-.1l-.16-.17-.14-.21c-.11-.17-.2-.24-.43-.37-.13-.07-.21-.11-.25-.14-.05-.03-.09-.04-.13-.04-.04,0-.05.02-.05.06,0,.03.02.07.04.11.08.12.11.18.11.21,0,.04-.02.07-.05.07-.08,0-.25-.17-.4-.39-.12-.18-.19-.39-.19-.59,0-.45.33-.79.78-.79.23,0,.52.09.79.26l.49.3c.17.11.43.19.57.19.07,0,.21-.02.31-.05.05-.01.09-.03.13-.05.03-.02.05-.04.05-.06s-.01-.04-.03-.04l-.06-.02-.23-.04c-.06,0-.16-.04-.29-.11-.28-.13-.45-.21-.52-.26-.18-.11-.29-.18-.35-.2-.09-.03-.14-.07-.14-.1s.02-.05.05-.05.07.01.11.04c.15.1.29.15.39.15l.45.16c.23.08.55.15.7.15.19,0,.35-.16.35-.35,0-.13-.07-.31-.18-.46-.02-.04-.05-.05-.07-.05-.04,0-.07.03-.07.09v.08s.03.13.03.13c0,.14-.09.25-.21.25-.04,0-.1-.01-.16-.04l-.68-.22c-.57-.18-.84-.24-1.12-.24-.82,0-1.44.56-1.44,1.3,0,.84.59,1.37,2.04,1.87,1.43.49,1.63.61,1.63.98,0,.21-.21.4-.45.4-.1,0-.18,0-.25-.02-.05-.01-.29-.07-.71-.17-.43-.11-.82-.15-1.31-.15-1.03,0-1.61.18-2.1.66-.13.12-.16.14-.31.14h-.07s-.14-.01-.14-.01h-.02c-.12,0-.21.06-.29.19-.11.18-.17.27-.18.29-.03.04-.07.06-.12.06-.09,0-.15-.07-.26-.33-.05-.12-.13-.23-.22-.31l-.21-.19s-.05-.06-.05-.08c0-.02.02-.05.04-.09.1-.15.14-.21.15-.28.03-.14.03-.14.09-.14.06,0,.08.06.09.3,0,.07.03.16.08.29l.12.25s.05.05.09.05c.11,0,.25-.26.29-.53.03-.23.05-.29.1-.29.02,0,.04,0,.05.02.01.02.04.08.09.19.03.05.07.11.14.16.06.05.11.07.13.07h.01c.09,0,.11-.05.13-.25v-.11s-.01-.14-.01-.14v-.1c-.01-.07.01-.11.05-.11.02,0,.05.02.08.04l.11.11c.07.07.14.1.21.1.09,0,.14-.04.14-.09,0-.05-.02-.1-.1-.25l-.07-.14c-.09-.16-.15-.22-.23-.22h-.11s-.13.06-.13.06c-.04.02-.07.02-.08.02-.02,0-.04-.02-.04-.04,0-.09.06-.24.18-.43.09-.13.14-.42.17-.83.04-.55.11-.9.19-.9.05,0,.07.04.07.16v.14s0,.1,0,.1c0,.1.02.18.05.18.09,0,.2-.13.28-.35.04-.09.05-.16.05-.21v-.05s-.22-.39-.22-.39l-.21-.06s-.06-.03-.07-.05v-.26l-.02-.13-.04-.11-.05-.11c-.23.13-.34.2-.42.31-.09.11-.13.15-.17.15-.03,0-.05-.02-.05-.05,0-.03.01-.08.03-.17v-.06c0-.23-.13-.45-.36-.59l-.07.08-.07.11-.13.15s-.07.12-.11.21c-.01.04-.02.08-.02.12v.05c0,.09,0,.11-.05.11h-.03s-.07-.11-.07-.11l-.11-.13-.18-.11-.09-.07s-.04.07-.04.09c-.03.07-.05.13-.05.17v.17s-.02.18-.02.18v.03c0,.09-.02.13-.07.13-.02,0-.07-.02-.13-.05-.05-.03-.1-.04-.15-.04-.16,0-.27.11-.27.29,0,.21.06.41.17.55l.13.18s.11.09.11.06l.02-.22-.03-.18v-.08c0-.07.02-.11.06-.11.06,0,.09.07.13.24l.08.39.09.49c.02.13.06.28.13.42.08.2.14.32.18.37.11.15.13.17.13.2,0,.03-.02.05-.04.05s-.06-.01-.1-.04c-.04-.02-.08-.03-.13-.04h-.08c-.17-.01-.2.13-.2.83,0,.43.09,1.01.2,1.29l.22.56c.04.09.05.18.05.26,0,.77-1.02,1.97-2.13,2.52-.41.21-.55.4-.58.86v.14c.16-.09.23-.11.35-.14.31-.08.38-.12.42-.27l.04-.14c.02-.05.04-.07.29-.2.08-.05.14-.09.17-.14.05-.09.1-.14.13-.14s.04.01.04.04v.04s-.11.3-.11.3v.07c-.01.22.11.4.34.52.04-.24.07-.33.14-.44l.19-.29c.07-.11.1-.24.1-.45,0-.12-.01-.24-.03-.33v-.09c0-.05.02-.08.07-.08.04,0,.07.01.07.03l.04.2s.05.07.1.07c.1,0,.23-.13.37-.37.05-.09.08-.18.08-.28l-.02-.14-.03-.16v-.03c0-.07.04-.12.09-.12.02,0,.04,0,.05.02l.06.24c.02.08.08.14.14.14.07,0,.19-.12.26-.26.06-.13.09-.27.09-.43,0-.23.02-.29.11-.29.03,0,.05.01.05.02l.04.14c.02.05.05.09.08.09.04,0,.16-.13.24-.26.02-.04.03-.07.03-.1,0-.05-.03-.09-.09-.14-.11-.09-.12-.11-.12-.24s.02-.2.12-.37c.05-.09.1-.18.14-.25.13-.26.18-.32.23-.32.04,0,.07.04.07.09,0,.03,0,.06-.02.09-.03.06-.04.1-.04.13,0,.04.04.08.08.08.05,0,.11-.02.18-.06.03-.02.13-.06.29-.12l.35-.13c.06-.02.13-.03.21-.03.06,0,.13,0,.19.02.13.03.21.04.24.04.1,0,.18-.08.18-.18,0-.07-.07-.21-.17-.32-.04-.04-.05-.07-.05-.09v-.04s.05-.04.07-.04c.07,0,.23.18.38.41.91,1.43,1.23,1.77,1.84,1.96.62.19.78.33.78.7,0,.2-.11.43-.33.75-.46.64-.57.9-.57,1.32v.08c.05-.02.09-.04.12-.05.09-.04.14-.07.17-.07l.26-.05c.08-.02.15-.12.15-.21v-.03l-.03-.23v-.03c0-.08.04-.18.09-.22.02-.02.04-.02.05-.02.03,0,.07.03.08.06l.17.36c.07.14.15.21.37.31"/><path id="path203" class="cls-4" d="m3,4.39c-.07,0-.11.07-.12.21l-.02.2c-.02.19-.02.21-.02.25,0,.15.04.26.11.26.07,0,.17-.13.22-.27.03-.09.05-.17.05-.25,0-.07-.02-.15-.05-.24-.04-.11-.1-.17-.16-.17"/><path id="path205" class="cls-4" d="m2.04,2.75v.09c0,.13-.03.29-.14.69-.02.07-.03.14-.03.19,0,.07.03.15.09.24.04.05.07.09.09.1l.13.07.02.15c0,.05,0,.13.03.23.03.1.04.21.04.31,0,.09,0,.13-.03.13-.04,0-.11-.11-.18-.27-.1-.25-.19-.35-.33-.35-.12,0-.19.02-.33.08.03.04.05.07.06.09,0,.01.04.07.09.18l.15.28c.1.2.16.31.18.34.04.06.09.11.14.15.02.01.08.04.17.09.05.03.09.07.09.1,0,.05-.04.08-.09.08h0l-.14-.02h-.08s-.06.03-.06.11c0,.29.23.61.62.9.05.04.09.09.09.11,0,.04-.04.07-.08.07-.02,0-.09-.02-.13-.04-.03-.02-.05-.02-.07-.02-.05,0-.09.04-.09.11,0,.07.06.22.19.47.09.16.21.29.36.35l.47.2s.04.04.04.06c0,.04-.03.07-.07.07h-.09s-.08.02-.08.02h-.14s-.02-.01-.02-.01c-.06,0-.09.01-.09.05,0,.05.06.18.16.34.11.19.21.3.27.3.02,0,.05-.02.07-.05l.11-.24s.11-.11.27-.21c.1-.06.2-.1.29-.12l.19-.03c.05,0,.07-.04.07-.1v-.02l-.03-.2-.02-.22-.02-.2-.02-.23c0-.06-.02-.09-.05-.09-.02,0-.07.04-.09.07-.16.25-.28.34-.46.34-.56,0-.98-.98-.98-2.29,0-.11,0-.26.02-.43.03-.34.03-.42.03-.54,0-.57-.12-.96-.36-1.2l-.15-.15-.09-.11"/><path id="path207" class="cls-4" d="m3.39,10.43c-.14-.02-.21-.04-.3-.07-.02,0-.09-.04-.2-.08-.17-.07-.29-.11-.4-.11-.16,0-.29.05-.44.18l.09.07.21.15.2.16c.05.04.11.06.18.06.2,0,.38-.09.66-.36"/><path id="path209" class="cls-4" d="m7.44,12.34c.06-.13.09-.17.21-.27.29-.25.43-.44.43-.59v-.23c0-.14.02-.18.09-.18.03,0,.05.01.07.03l.05.13s.05.05.09.05c.04,0,.1-.05.15-.13l.11-.14c.05-.07.07-.14.07-.21,0-.04,0-.08-.02-.12,0-.02-.03-.07-.07-.17-.03-.05-.04-.13-.04-.16,0-.07.03-.11.09-.11.03,0,.06.01.07.04l.08.1s.05.04.08.04c.04,0,.08-.04.11-.09l.08-.17s.04-.07.04-.09c0-.04-.04-.07-.1-.09l-.14-.07c-.18-.08-.32-.37-.32-.67,0-.04,0-.08.02-.11l.07-.18c.02-.05.03-.11.03-.17,0-.11-.04-.22-.11-.33-.09-.13-.13-.2-.14-.22-.06-.17-.09-.21-.14-.21h-.05s-.07.05-.07.05l-.12.06-.14.17-.14.07c-.09.05-.17.23-.17.39,0,.27.03.35.39.97.14.24.21.45.21.6,0,.43-.39.74-1.16.93l-.48.11c-.36.09-.57.33-.64.75.15-.07.21-.09.46-.09h.16s.02,0,.02,0c.14,0,.16-.01.25-.14.1-.14.21-.23.35-.29l.17-.07.14-.07h.04s.06,0,.06.03c0,.04-.04.11-.1.18-.12.13-.17.25-.17.41,0,.1.02.16.11.28"/><path id="path211" class="cls-4" d="m6.11,10.71c.12.08.24.19.32.29.1.14.11.15.21.15.04,0,.09,0,.15-.02l.09-.02c.17-.03.23-.06.23-.1,0-.02-.02-.06-.05-.09l-.12-.11-.11-.11c-.07-.07-.22-.12-.35-.12s-.2.02-.38.13"/><path id="path213" class="cls-4" d="m9.52,11.28h.06s.09-.02.09-.02h.09s.05.01.05.01c.23,0,.46-.2.46-.41,0-.07-.07-.11-.19-.11-.28,0-.46.16-.57.53"/><path id="path215" class="cls-4" d="m31.08,12c-.02-.09-.03-.14-.03-.19v-.14c.04-.2.05-.29.05-.41,0-.08-.02-.14-.08-.21l-.13-.17c-.08-.11-.12-.2-.12-.29,0-.06.02-.08.06-.08h.05s.04.03.09.07c.04.02.08.04.11.04.06,0,.09-.1.09-.3,0-.27-.05-.4-.21-.53l-.14-.12s-.04-.05-.04-.09c0-.05.03-.08.08-.08.03,0,.07,0,.12.02l.12.03h.04s.05-.02.05-.08v-.04s-.04-.22-.04-.22c-.03-.23-.07-.32-.14-.32h-.02s-.27.05-.27.05h-.05c-.33,0-.71-.31-.82-.65l-.2-.68c-.06-.21-.24-.43-.5-.64-.09-.07-.16-.11-.22-.11l-.19-.02s-.06-.02-.06-.05c0-.04.04-.06.12-.06.27,0,.55.05.93.18.34.11.54.15.7.15.52,0,.84-.27.84-.73,0-.23-.08-.52-.2-.7-.1-.16-.27-.32-.49-.46-.04-.02-.06-.04-.09-.04-.03,0-.05.03-.05.05v.14s.01.01.01.01c0,.05-.03.09-.07.09-.06,0-.12-.07-.18-.21-.2-.41-.51-.66-.83-.66-.07,0-.11.02-.11.07,0,.03.02.08.05.14.03.05.07.11.09.19.02.04.03.07.03.09s-.02.03-.05.03c-.05,0-.13-.04-.18-.1-.11-.11-.16-.17-.16-.17l-.14-.21c-.11-.16-.22-.26-.42-.37l-.26-.14c-.05-.03-.1-.04-.14-.04-.03,0-.05.02-.05.05s.02.07.05.12c.05.08.1.17.1.21s-.02.07-.05.07c-.07,0-.2-.13-.39-.39-.13-.18-.2-.38-.2-.59,0-.44.34-.79.78-.79.23,0,.51.09.79.26l.5.3c.18.11.43.19.57.19.09,0,.11,0,.3-.05.05-.02.1-.03.14-.05.02-.01.04-.04.04-.06,0-.04-.02-.06-.09-.07-.23-.02-.72-.21-1.04-.41-.18-.12-.3-.18-.34-.2-.09-.03-.14-.07-.14-.11,0-.01.02-.02.04-.02h.06s.46.18.46.18l.44.16c.22.08.55.15.71.15.2,0,.34-.14.34-.34,0-.1-.02-.21-.07-.29-.06-.13-.15-.23-.18-.23-.04,0-.07.04-.07.11v.05s.02.14.02.14c0,.14-.08.23-.2.23-.05,0-.11-.01-.17-.04l-.68-.22c-.59-.19-.82-.24-1.11-.24-.83,0-1.45.56-1.45,1.3,0,.84.57,1.36,2.05,1.87,1.43.5,1.62.61,1.62.99,0,.22-.2.39-.46.39-.09,0-.18,0-.25-.02-.06-.02-.3-.07-.71-.17-.44-.11-.81-.15-1.31-.15-1.04,0-1.54.16-2.09.66-.13.12-.18.14-.32.14h-.07s-.16-.01-.16-.01c-.13,0-.22.06-.3.19l-.17.29s-.07.06-.12.06c-.11,0-.17-.07-.27-.33-.05-.13-.13-.24-.21-.31l-.22-.19s-.05-.05-.05-.08c0-.02.02-.05.05-.1.03-.04.06-.09.09-.15.03-.06.05-.1.05-.13v-.09s.05-.05.09-.05c.07,0,.08.05.09.3,0,.07.03.16.08.29l.12.25s.05.05.09.05c.11,0,.25-.26.29-.53.03-.22.05-.29.1-.29.04,0,.06.02.15.21.03.05.07.11.13.16.05.04.1.07.13.07h0c.09,0,.12-.05.14-.25v-.11s0-.14,0-.14l-.02-.1c0-.07.02-.11.06-.11.02,0,.05.02.08.04l.11.11c.07.07.14.11.21.11.09,0,.14-.04.14-.11,0-.05-.01-.08-.11-.23,0-.01-.03-.06-.07-.14-.09-.18-.13-.22-.21-.22h-.11s-.14.06-.14.06c-.04.02-.07.02-.08.02-.02,0-.04-.02-.04-.04,0-.09.06-.24.18-.43.07-.11.13-.4.18-.83l.05-.49c.04-.3.07-.41.13-.41.02,0,.04,0,.04.02l.04.16v.13c0,.15.02.28.04.28.04,0,.11-.05.17-.14.05-.06.08-.13.11-.21.04-.11.05-.2.05-.27,0-.24-.1-.35-.43-.44-.03,0-.05-.02-.06-.03v-.09s-.01-.18-.01-.18l-.02-.13-.04-.11-.05-.11-.08.05c-.21.13-.27.18-.34.26-.09.12-.13.15-.17.15-.03,0-.05-.02-.05-.05l.04-.18v-.03c0-.23-.13-.45-.36-.62l-.07.08-.07.11-.13.15c-.07.09-.12.2-.12.31v.04s0,.04,0,.04c0,.09-.01.11-.05.11h-.02s-.09-.11-.09-.11l-.11-.13-.19-.11-.09-.07c-.1.22-.11.24-.11.53v.09c0,.09-.03.15-.08.15-.03,0-.07-.02-.13-.05-.05-.03-.1-.04-.16-.04-.15,0-.27.13-.27.31,0,.19.04.32.17.53.08.14.19.25.24.25,0,0,.02-.1.03-.23l-.03-.18v-.08c0-.07.02-.11.06-.11.06,0,.09.07.13.24l.08.39.09.49c.02.13.07.28.13.42.08.2.14.32.18.37.12.15.13.17.13.2,0,.03-.02.05-.05.05-.02,0-.05-.01-.09-.04-.04-.02-.08-.03-.13-.04h-.08c-.17-.01-.21.13-.21.82,0,.44.09,1.02.2,1.3l.22.56c.04.09.05.18.05.26,0,.77-1.04,2-2.13,2.52-.43.2-.55.42-.59,1,.18-.09.26-.11.37-.14.31-.09.38-.13.42-.27l.04-.14c.02-.06.06-.09.27-.2.08-.04.14-.09.17-.14.05-.09.1-.14.13-.14.03,0,.05.02.05.05v.02s-.12.3-.12.3v.07c-.01.22.11.4.34.52.02-.05.03-.1.04-.13.04-.16.07-.27.1-.32l.2-.29c.07-.11.09-.18.09-.45l-.02-.33v-.09c0-.05.02-.08.07-.08.04,0,.07.01.07.03l.03.2s.05.07.11.07c.1,0,.23-.13.37-.37.05-.09.08-.17.08-.25,0-.07-.02-.21-.04-.32v-.06c0-.05.03-.09.08-.09.02,0,.05,0,.05.02l.07.24c.03.08.08.14.14.14.16,0,.33-.33.34-.68.01-.22.04-.3.11-.3.03,0,.05,0,.05.02l.04.14c.02.05.05.09.07.09s.08-.05.15-.13c.04-.05.07-.09.09-.14.02-.04.03-.07.03-.11,0-.05-.01-.07-.09-.13-.08-.06-.12-.13-.12-.22,0-.15.07-.32.25-.64.17-.29.2-.33.23-.33.04,0,.07.04.07.09,0,.03,0,.06-.02.09-.03.06-.04.11-.04.13,0,.04.04.07.08.07.05,0,.11-.02.19-.06.04-.03.14-.07.28-.12.2-.07.32-.11.36-.13.06-.02.14-.04.21-.04.06,0,.12,0,.18.02.12.03.2.04.24.04.09,0,.17-.07.17-.17,0-.04-.03-.12-.06-.18-.05-.09-.09-.14-.1-.15-.04-.05-.06-.07-.06-.09v-.04s.05-.04.07-.04c.08,0,.25.17.39.41.82,1.35,1.22,1.77,1.83,1.96.63.19.78.32.78.7,0,.2-.11.44-.32.75-.42.58-.57.93-.57,1.31v.09c.05-.02.09-.04.12-.05.09-.04.14-.07.17-.07l.26-.05c.08-.02.15-.11.15-.22v-.02l-.02-.23v-.04c0-.13.06-.24.14-.24.03,0,.07.03.08.06l.17.36c.07.14.15.21.37.31"/><path id="path217" class="cls-4" d="m22.46,4.8v.17s-.01.1-.01.1c0,.17.03.25.09.25.07,0,.18-.13.23-.27.03-.09.05-.21.05-.29,0-.05-.01-.1-.05-.2-.05-.11-.09-.17-.15-.17-.09,0-.13.12-.15.41"/><path id="path219" class="cls-4" d="m21.64,2.75v.09c0,.09-.03.27-.07.45-.04.15-.06.23-.07.24-.01.06-.02.13-.02.19,0,.15.07.29.18.34l.11.07.02.15c0,.05,0,.13.03.23.03.11.04.21.04.32,0,.09,0,.12-.03.12-.04,0-.11-.11-.17-.27-.11-.25-.2-.35-.34-.35-.12,0-.19.02-.33.08.11.14.18.26.3.55.17.38.23.45.49.58.06.03.1.07.1.1,0,.05-.04.08-.09.08-.02,0-.09,0-.15-.02h-.08s-.06.03-.06.11c0,.28.24.62.63.9.05.04.09.08.09.11,0,.02-.01.04-.04.05-.02.02-.04.02-.05.02s-.07-.02-.12-.04c-.03-.02-.06-.02-.08-.02-.05,0-.08.05-.08.12,0,.1.07.27.19.46.11.18.23.3.35.35l.47.2s.04.04.04.06c0,.04-.03.07-.07.07h-.08s-.09.02-.09.02h-.13s-.02-.01-.02-.01c-.07,0-.09.01-.09.05,0,.05.05.16.15.34.12.2.2.3.26.3.02,0,.05-.02.07-.05l.11-.24s.11-.1.27-.21c.1-.07.2-.11.29-.12.25-.03.28-.05.28-.15,0-.04-.01-.11-.04-.21,0-.05-.02-.13-.03-.22l-.02-.2-.02-.23c0-.06-.02-.09-.05-.09-.02,0-.06.03-.08.07-.13.2-.31.34-.45.34-.59,0-.99-.93-.99-2.31v-.41s.04-.5.04-.5v-.18c0-.42-.14-.86-.36-1.07l-.14-.15-.1-.11"/><path id="path221" class="cls-4" d="m23,10.43c-.22-.04-.25-.05-.5-.16-.17-.08-.28-.11-.39-.11-.16,0-.29.05-.45.18l.09.07.21.15.2.16c.05.04.11.06.18.06.2,0,.38-.09.66-.36"/><path id="path223" class="cls-4" d="m27.05,12.34c.06-.13.09-.17.21-.27.29-.25.43-.44.43-.59v-.23c0-.14.02-.18.09-.18.03,0,.06.01.07.03l.05.13s.05.05.09.05c.07,0,.13-.05.26-.27.05-.09.08-.15.08-.21,0-.04-.01-.08-.03-.12,0-.02-.03-.07-.07-.17-.02-.05-.04-.13-.04-.16,0-.07.04-.11.1-.11.03,0,.06.01.07.04l.08.1s.02.04.05.04c.04,0,.11-.04.14-.09l.08-.17s.03-.07.03-.1c0-.03-.03-.07-.08-.09l-.15-.07c-.17-.07-.32-.37-.32-.65,0-.03.01-.07.03-.13l.07-.18c.02-.06.03-.12.03-.18,0-.1-.04-.2-.11-.32-.07-.12-.12-.19-.13-.22-.06-.16-.09-.21-.15-.21-.04,0-.07.01-.13.05l-.11.06-.15.17-.14.07c-.09.05-.17.24-.17.39,0,.23.05.35.39.96.14.26.21.45.21.6,0,.43-.44.78-1.15.93-.85.17-1.04.31-1.14.86.15-.07.21-.09.46-.09h.16s.02,0,.02,0c.14,0,.16-.01.25-.14.1-.14.2-.23.34-.29l.17-.07.13-.07h.04s.06,0,.06.03c0,.04-.03.1-.1.18-.1.12-.16.25-.16.34,0,.14.02.21.11.34"/><path id="path225" class="cls-4" d="m25.72,10.71c.12.08.24.19.32.29.1.14.11.15.21.15.04,0,.09,0,.15-.02l.09-.02c.18-.04.23-.06.23-.11,0-.03-.02-.05-.04-.08l-.13-.11-.11-.11c-.07-.07-.22-.12-.33-.12-.13,0-.24.04-.39.13"/><path id="path227" class="cls-4" d="m29.13,11.28h.06s.11-.02.11-.02h.09s.05.01.05.01c.11,0,.16-.01.21-.05.06-.05.13-.13.2-.24.03-.05.04-.09.04-.12,0-.07-.07-.11-.18-.11-.29,0-.46.16-.57.53"/><path id="path229" class="cls-4" d="m10.45,33.48l.06-.13.15-.16c.13-.14.19-.32.19-.55,0-.11-.02-.22-.05-.34-.03-.09-.04-.16-.04-.19,0-.07.05-.13.1-.13.02,0,.05.02.08.05l.16.18c.1.11.13.13.25.16v-.14s.02-.17.02-.17c0-.25-.09-.54-.23-.71-.08-.11-.12-.17-.12-.21s.03-.07.06-.07c0,0,.02,0,.04.02.1.07.15.11.18.11.05,0,.1-.13.1-.27,0-.2-.09-.43-.21-.59-.07-.08-.11-.13-.13-.16-.02-.02-.02-.04-.02-.06,0-.05.04-.08.09-.08.04,0,.06.01.13.05.03.02.06.03.08.03.08,0,.11-.12.11-.43v-.13s-.02-.19-.02-.19c-.01-.22-.03-.26-.13-.26h-.08c-.51,0-.75-.33-.88-1.2-.1-.63-.33-1.08-.62-1.18-.17-.05-.23-.09-.23-.14,0-.03.05-.06.1-.06.04,0,.13.02.2.05.42.17.77.25,1.08.25.5,0,.9-.37.9-.84,0-.36-.17-.72-.48-1.02-.09-.08-.18-.13-.27-.16h-.02s-.05.02-.05.02l.02.15.04.11v.04s-.01.04-.04.04c-.03,0-.06-.02-.08-.04l-.19-.29c-.15-.22-.48-.41-.72-.41-.09,0-.14.04-.14.1,0,.03.03.08.07.12.05.06.09.14.09.17v.04s-.04.04-.05.04h-.01c-.05,0-.07-.02-.3-.28-.19-.21-.57-.42-.78-.42-.03,0-.05.01-.07.03-.02.01-.02.03-.02.04,0,.03.03.07.07.12.07.06.12.13.12.16,0,.02-.03.04-.06.04-.06,0-.2-.09-.45-.29-.39-.31-.57-.6-.57-.94,0-.41.29-.73.66-.73.21,0,.5.11.7.25l.52.39c.23.18.52.27.82.27.07,0,.13-.02.18-.04.05-.02.07-.05.07-.07,0-.02-.04-.03-.09-.05-.19-.04-.34-.11-.44-.19l-.53-.4c-.2-.15-.33-.25-.41-.29-.28-.14-.33-.18-.33-.21,0-.02.03-.03.06-.03.03,0,.06,0,.09.02l.27.11c.09.04.24.13.45.26.56.38.85.5,1.18.5s.55-.23.55-.53c0-.06-.02-.13-.04-.18l-.05-.11s-.05-.07-.06-.05l-.03.04-.03.22s-.01.03-.03.07c-.02.04-.05.07-.07.1-.05.06-.11.07-.19.07-.16,0-.35-.09-.84-.4-.5-.32-.95-.48-1.3-.48-.76,0-1.37.61-1.37,1.36,0,1.05.64,1.53,2.66,1.97.77.17,1.1.39,1.1.73,0,.31-.25.51-.65.51-.12,0-.21,0-.29-.02-.07-.01-.43-.11-1.08-.29-.45-.13-.96-.2-1.4-.2-.79,0-1.32.24-1.69.74-.04.06-.09.1-.11.1-.02,0-.05-.02-.09-.04l-.15-.12c-.1-.08-.27-.14-.38-.14-.08,0-.16.03-.22.09-.05.05-.09.07-.11.07-.06,0-.16-.13-.25-.3-.12-.25-.18-.49-.18-.71,0-.11.04-.18.08-.18.04,0,.06.03.08.09l.08.3c.05.17.14.3.21.3.04,0,.09-.05.16-.13.04-.05.07-.1.08-.14.07-.2.08-.22.13-.22.06,0,.09.04.14.23,0,.04.02.09.07.18.04.08.09.14.13.19.04.04.07.05.11.05.09,0,.18-.16.18-.32v-.05s-.02-.2-.02-.2c0-.07.01-.1.05-.1.02,0,.04.01.07.05.04.06.11.11.18.15.07.03.12.05.15.05.03,0,.07-.02.1-.05.03-.03.04-.06.04-.09s-.04-.08-.15-.19c-.06-.06-.13-.21-.21-.42-.03-.08-.07-.14-.1-.14,0,0-.03,0-.07.02l-.14.05-.09.04h-.04s-.08-.02-.08-.07c0-.04.1-.15.21-.25.09-.07.13-.17.14-.29,0-.18.04-.31.07-.31l.03-.37c.02-.19.09-.54.16-.73.01-.04.03-.06.04-.06.03,0,.05.08.05.16v.16c0,.14.02.2.05.2.05,0,.1-.07.14-.18l.09-.24c.03-.07.04-.14.04-.2,0-.2-.13-.35-.29-.35h-.07s-.07.03-.07.03c-.06,0-.11-.06-.11-.13v-.15s0-.21,0-.21l-.04-.22v-.11s-.11.05-.11.05l-.11.1-.17.14-.14.11s-.05.03-.08.03c-.08,0-.09-.02-.09-.18v-.04c0-.13-.05-.23-.27-.49-.01-.01-.03-.04-.05-.06l-.04.07-.12.19-.12.3-.02.19c0,.05-.03.1-.05.1-.02,0-.05-.03-.1-.07-.16-.18-.21-.22-.45-.3l-.02.07c-.04.12-.06.2-.06.22v.2s-.01.15-.01.15c0,.05-.02.09-.05.09h0s-.02-.02-.06-.05c-.02-.02-.07-.03-.13-.03-.2,0-.32.11-.32.27,0,.13.05.22.24.52.09.13.18.23.23.23.02,0,.05-.07.05-.15l-.02-.13c-.02-.06-.03-.11-.03-.16,0-.06.02-.09.05-.09.09,0,.19.27.23.65l.04.39c.02.14.06.28.13.42.1.2.19.33.28.39.1.07.16.14.16.18,0,.04-.03.06-.05.06,0,0-.07-.02-.21-.07h-.09c-.21-.01-.28.11-.28.47,0,.44.29,1.07.62,1.33l.48.39c.25.2.43.52.43.76,0,.3-.34.61-.91.82l-.35.13c-.27.1-.38.27-.48.78.14-.04.2-.05.29-.05h.2c.14,0,.24-.08.24-.2v-.09s.04-.07.09-.09c.09-.05.14-.07.15-.07l.11-.09s.04-.02.06-.02c.04,0,.06.03.06.06,0,.03,0,.06-.02.1-.04.09-.06.22-.06.36,0,.26.04.4.17.59.01-.07.02-.12.03-.14.02-.05.08-.15.18-.29.16-.22.28-.49.28-.64v-.05s-.04-.24-.04-.24c0-.04.02-.08.05-.11.02-.02.05-.03.07-.03.04,0,.07.03.11.11.02.06.05.09.07.09.04,0,.11-.1.16-.21.04-.08.05-.16.05-.22,0-.04-.01-.08-.03-.13-.02-.05-.04-.09-.04-.12s0-.04.04-.07c.02-.01.04-.02.05-.02s.04,0,.06.02l.09.06s.06.04.08.04c.04,0,.11-.05.15-.12.09-.14.15-.26.15-.3,0-.03-.02-.05-.07-.09-.21-.14-.35-.37-.35-.56,0-.05.01-.1.03-.16l.11-.28c.05-.14.08-.22.09-.22h.03s.05.02.05.07c0,.04,0,.07-.02.12-.03.07-.04.15-.04.2,0,.07.04.11.11.11.05,0,.11-.01.18-.04.32-.14.57-.21.72-.21s.23.03.38.14c.04.03.07.04.1.04.02,0,.04-.02.06-.04.01-.02.02-.04.02-.05,0-.04-.02-.09-.06-.13-.05-.07-.07-.11-.07-.15,0-.03.02-.05.06-.05.16,0,.42.52.67,1.35.19.65.25.71.87,1.07.53.3.73.59.73,1.07s-.13,1.07-.4,1.87c-.09.25-.12.42-.12.56,0,.11.02.22.1.5.04.14.06.21.07.24.01.03.04.08.08.16"/><path id="path231" class="cls-4" d="m8.02,32.02c.06-.14.08-.18.2-.36.17-.26.23-.39.23-.52v-.17c0-.16.03-.23.09-.23.02,0,.04.01.05.03l.05.09s.04.04.07.04.09-.04.12-.09c.07-.11.12-.26.12-.38v-.11s-.02-.12-.02-.12c0-.06.03-.09.09-.09.04,0,.06.02.09.09.02.05.05.09.08.09s.06-.03.09-.07l.08-.13.06-.09.02-.05s-.02-.06-.08-.1c-.2-.14-.28-.36-.29-.75-.01-.3-.03-.49-.05-.58,0-.02-.07-.17-.19-.45-.05-.11-.09-.23-.13-.38-.03-.1-.06-.13-.13-.13-.29,0-.5.25-.5.57,0,.19.08.49.22.86.2.51.25.69.25.87,0,.39-.15.55-.69.75-.6.21-.88.52-.98,1.08.05-.02.08-.03.1-.04.07-.03.12-.04.15-.05l.17-.04c.14-.04.26-.12.29-.2l.04-.15s.03-.06.06-.07l.09-.04.09-.04.02.04-.04.13s-.02.13-.02.25c0,.23.05.37.18.54"/><path id="path233" class="cls-4" d="m2.37,22.29c.02.06.02.1.02.12,0,.04-.02.13-.04.27l-.02.21c0,.18.04.39.09.55.05.15.07.2.07.24v.04s-.03.07-.04.07c-.02,0-.06-.02-.11-.07-.12-.11-.25-.16-.39-.16-.04,0-.11,0-.18.02l.05.12.16.39.22.34.23.16s.04.04.06.06c.02.03.03.05.03.07,0,.02-.02.04-.04.04h-.21s-.05.03-.05.05c0,.04.03.14.09.31l.11.3.18.17.19.14c.06.04.09.09.09.12,0,.03-.02.05-.04.06h-.11s-.05.04-.05.09c0,.08.07.22.21.41.16.22.28.29.46.29h.16c.07,0,.12.04.12.1,0,.05-.03.08-.1.09-.14.03-.19.06-.19.13,0,.03.02.07.05.12l.08.11c.07.1.15.16.2.16.03,0,.09-.03.15-.1.09-.11.2-.2.34-.23.37-.09.44-.13.44-.21,0-.03-.01-.07-.04-.12-.12-.21-.16-.34-.16-.52,0-.13-.03-.22-.08-.22-.02,0-.05.03-.09.08-.09.13-.23.22-.37.22-.36,0-.8-.57-1.02-1.32-.05-.18-.08-.38-.08-.57s.03-.42.08-.64c.07-.3.11-.48.12-.51v-.14c.01-.26-.23-.59-.6-.86"/><path id="path235" class="cls-4" d="m3.13,23.75c-.08.15-.15.48-.15.68,0,.13.04.22.09.22.02,0,.04-.02.05-.05l.12-.21s.04-.07.07-.13c.04-.06.07-.12.07-.16,0-.12-.12-.28-.27-.36"/><path id="path237" class="cls-4" d="m4.29,28.49s.04.04.05.05c.04.04.07.07.08.08.21.21.23.23.34.23.09,0,.28-.05.39-.11.04-.02.07-.05.07-.07,0-.01-.04-.05-.1-.12l-.12-.11c-.09-.08-.22-.15-.28-.15-.12,0-.25.05-.44.18"/><path id="path239" class="cls-4" d="m6.72,30.39c.11.05.15.07.21.11.09.06.15.1.17.11.03.02.09.02.17.02.05,0,.09,0,.13-.02l.22-.08.21-.07c.05-.02.09-.05.09-.08,0-.02-.05-.04-.12-.05-.05-.01-.1-.03-.16-.05-.26-.1-.3-.12-.39-.12-.21,0-.41.1-.54.25"/><path id="path241" class="cls-4" d="m9.38,32.51c.07-.17.12-.2.36-.21.27-.02.53-.5.53-.82,0-.03-.01-.06-.02-.06-.02,0-.04.01-.07.03-.08.05-.13.08-.16.1l-.3.14c-.2.09-.38.36-.38.57,0,.07.01.13.05.25"/><path id="path243" class="cls-4" d="m28.54,30l.04-.11.04-.15s.05-.09.11-.18c.11-.14.16-.32.16-.52,0-.06-.02-.13-.05-.2-.02-.04-.03-.08-.03-.1,0-.01,0-.03.02-.05.02-.02.03-.03.04-.03h0s.07.03.11.07c.04.05.08.09.11.09.05,0,.1-.08.13-.2.02-.06.02-.1.02-.11,0-.05-.04-.18-.09-.29-.02-.04-.03-.08-.03-.11,0-.04.03-.07.06-.07s.08.03.14.09c.03.03.06.04.08.04.07,0,.11-.07.16-.23.03-.1.04-.15.04-.16,0-.03-.02-.05-.04-.05h-.04s-.13.01-.13.01c-.19,0-.46-.13-.59-.29l-.29-.36c-.11-.14-.27-.35-.26-.35l-.24-.16s-.07-.06-.07-.09c0-.04.04-.06.1-.06.05,0,.23.06.54.19.3.13.78.23,1.06.23.5,0,.92-.41.92-.9,0-.27-.12-.52-.42-.87-.05-.06-.15-.13-.19-.13-.04,0-.06.02-.06.06,0,.03.01.07.03.12.01.03.02.07.02.1,0,.05-.02.07-.05.07-.07,0-.13-.11-.19-.3-.07-.23-.2-.38-.52-.54-.12-.06-.28-.12-.33-.12-.02,0-.04.02-.04.05,0,.04.02.08.04.13.04.07.07.14.08.2h0c0,.05-.02.07-.06.07-.07,0-.08-.02-.23-.25-.08-.12-.29-.28-.47-.36-.06-.03-.12-.04-.18-.04h0s-.07.02-.07.04c0,.01.02.04.05.1l.02.06s-.02.06-.05.06c-.07,0-.26-.16-.41-.34-.17-.2-.27-.44-.27-.63,0-.4.38-.76.81-.76.11,0,.2.02.27.05l.37.19.43.29c.25.16.59.29.8.29.07,0,.13-.01.33-.07.11-.03.17-.07.17-.11h0s-.04-.03-.04-.03l-.23-.02c-.13-.01-.42-.14-.65-.29l-.48-.32-.43-.18s-.05-.04-.05-.05.02-.04.05-.04c0,0,.04,0,.12.02l.4.12c.1.03.26.1.48.22.44.23.72.34.93.34.24,0,.42-.17.42-.39,0-.07-.02-.2-.04-.3-.01-.05-.03-.09-.06-.14-.02-.03-.04-.04-.05-.04-.03,0-.05.04-.05.09v.07s0,.06,0,.06c0,.2-.07.26-.29.26-.18,0-.41-.07-.95-.28-.5-.2-.81-.27-1.12-.27-.79,0-1.48.65-1.48,1.38,0,.64.42,1.12,1.29,1.48l.89.37c.74.3,1.01.52,1.01.8,0,.24-.22.39-.57.39-.15,0-.34-.04-.68-.15-.84-.27-1.38-.38-1.86-.38-.78,0-1.34.21-1.78.68-.06.06-.09.08-.14.08-.04,0-.07-.01-.15-.06-.08-.05-.17-.08-.23-.08-.08,0-.2.07-.25.14l-.11.14s-.06.06-.09.06c-.08,0-.21-.13-.3-.29-.05-.09-.09-.18-.11-.27-.01-.07-.02-.18-.02-.29v-.2s.04-.21.04-.21c.02-.1.03-.16.03-.18,0-.02.03-.04.05-.04.05,0,.08.05.08.16v.11c0,.3.11.57.25.57.1,0,.19-.18.27-.55.01-.07.04-.11.08-.11.04,0,.07.05.1.21.02.1.09.24.16.34.04.05.08.08.12.08.09,0,.14-.13.19-.43.02-.12.05-.19.09-.19.02,0,.04.01.04.02.01,0,.04.05.07.12.03.04.07.08.12.1.05.03.09.04.12.04.04,0,.07-.02.1-.04.05-.04.07-.07.07-.09,0-.02-.02-.05-.06-.09-.07-.07-.12-.17-.19-.35-.04-.12-.08-.2-.09-.24-.02-.04-.04-.06-.05-.07h-.03s-.06,0-.06,0c-.01,0-.09.03-.22.06h-.07s-.05,0-.05-.04c0-.03.04-.08.09-.12.27-.21.43-.57.48-1.08.04-.31.07-.43.21-.62.03-.04.05-.06.07-.06.04,0,.06.03.06.09,0,.04-.01.09-.04.15-.02.04-.02.08-.02.13v.04s.02.06.02.06l.12-.04.13-.14c.07-.09.14-.29.14-.43,0-.1-.02-.17-.09-.24-.07-.08-.11-.11-.16-.11h-.07s-.07.01-.07.01c-.07,0-.1-.02-.1-.06l.02-.08v-.12s-.05-.26-.05-.26l-.05-.13-.03-.1-.07.05-.16.09s-.09.07-.13.12c-.15.18-.16.19-.22.19-.04,0-.06-.01-.06-.04v-.04c.03-.1.04-.17.04-.22,0-.18-.13-.46-.3-.61-.22.21-.34.44-.34.66v.13c0,.05-.02.07-.05.07h0s-.05-.02-.07-.05l-.13-.17s-.07-.05-.17-.14c-.02-.02-.05-.04-.09-.07l-.04.08c-.11.21-.14.33-.15.5,0,.14-.02.18-.05.18-.02,0-.04-.01-.07-.02-.16-.09-.18-.1-.24-.1-.19,0-.32.14-.32.34,0,.07.04.2.13.35.09.17.24.33.3.33.02,0,.02-.01.02-.06v-.2s-.03-.14-.03-.14v-.02s.02-.06.05-.06c.09,0,.18.28.25.83.06.49.2.82.41,1.02.05.05.09.09.09.11,0,.02-.02.04-.04.04-.03,0-.08-.02-.14-.05-.04-.02-.08-.03-.11-.03-.11,0-.22.12-.25.25l-.09.6-.07.84c-.01.16,0,.38.07.63.05.23.07.39.07.5,0,.63-.39,1.13-1.04,1.32l-.67.2c-.42.13-.62.4-.68.91.11-.09.14-.1.3-.13l.2-.03c.09-.02.14-.03.18-.05.02-.01.06-.05.12-.11l.18-.2c.07-.08.13-.12.17-.12.02,0,.04.03.04.06,0,.04-.02.1-.07.17-.05.08-.07.17-.07.27,0,.13.04.22.17.41.02-.06.04-.11.04-.13.02-.04.07-.11.16-.22.14-.19.25-.39.25-.48,0-.16.02-.21.06-.21.04,0,.04,0,.06.1,0,.02.02.04.03.06.02.03.05.04.06.04s.04-.02.09-.04c.07-.05.13-.1.17-.15.04-.05.08-.12.1-.19.04-.09.05-.16.05-.2v-.14s.02-.07.04-.07c.02,0,.08.06.11.12.03.04.04.05.07.05h0s.07-.02.1-.04c.13-.13.21-.28.21-.39v-.2s-.05-.16-.05-.16v-.02s.02-.06.05-.06c.05,0,.1.07.17.22.04.07.07.11.1.11.05,0,.09-.04.19-.18l.09-.14s.03-.07.03-.11,0-.07-.03-.11l-.08-.13s-.02-.06-.02-.11c0-.14.05-.3.16-.5.08-.14.12-.22.14-.26.02-.04.04-.06.06-.06.02,0,.04.02.04.05v.12s-.01.17-.01.17c.02.04.04.05.09.05.04,0,.07,0,.11-.02l.27-.09c.06-.02.14-.06.24-.12.41-.23.54-.27.74-.27.13,0,.28.05.5.15.05.02.08.03.11.03s.06-.02.09-.05c.02-.03.03-.05.03-.08,0-.04-.02-.08-.04-.13-.03-.06-.06-.13-.06-.16,0-.03.02-.05.05-.05.02,0,.06.03.08.05.03.05.11.19.24.42.2.35.45.59.68.64l.46.11c.14.03.18.09.18.27,0,.33-.16.61-.42.79l-.38.24c-.14.09-.25.33-.25.53,0,.13.03.36.07.54l.07-.07.18-.11.16-.16.09-.23.08-.21c.04-.1.09-.17.13-.17s.05.06.05.16v.07c0,.15.02.22.14.45"/><path id="path245" class="cls-4" d="m22.33,33.18c.13-.12.15-.13.51-.2.29-.06.42-.19.48-.47.05-.21.07-.25.26-.36.06-.04.11-.07.14-.11.02-.03.04-.04.05-.04.02,0,.04.02.04.05,0,.04-.02.09-.07.17-.03.05-.04.11-.04.2,0,.17.04.28.13.42.07-.14.1-.18.27-.29.21-.15.29-.32.32-.7.02-.16.05-.24.09-.24.02,0,.04.01.05.03l.07.16s.04.04.07.04c.03,0,.09-.03.13-.08l.15-.14c.06-.06.1-.2.13-.44,0-.09.04-.14.07-.14.02,0,.04.02.05.05l.06.21s.05.08.07.08c.02,0,.04-.02.09-.05.05-.05.11-.1.14-.16.05-.07.07-.14.07-.21v-.18s.02-.08.04-.12c.02-.03.04-.04.05-.04.02,0,.05.02.06.05l.04.12s.06.08.1.08c.05,0,.11-.05.2-.17.02-.04.04-.06.06-.08.05-.06.07-.11.07-.14,0-.01-.02-.04-.04-.07-.15-.2-.23-.44-.23-.71,0-.35.13-.64.54-1.19.24-.33.38-.63.38-.84,0-.06-.03-.09-.08-.09-.04,0-.08.01-.13.04-.04.02-.07.03-.08.03-.02,0-.05-.02-.07-.04l-.07-.08-.05-.09s-.05-.05-.09-.05c0,0-.04,0-.08.02h-.09c-.11.01-.15.05-.15.16v.06s0,.05,0,.05c0,.09-.08.23-.19.33l-.2.18c-.25.22-.44.57-.44.8,0,.1.03.26.09.46.09.32.13.46.13.57,0,.5-.77,1.17-2.2,1.89-.72.37-.91.59-.91,1.08v.19"/><path id="path247" class="cls-4" d="m21.64,22.16v.26c0,.05,0,.09-.02.17-.03.14-.04.2-.04.23,0,.2.03.3.14.51.07.11.11.25.11.35,0,.04-.02.07-.05.07-.02,0-.04-.01-.05-.03l-.09-.12c-.07-.09-.13-.11-.3-.11h-.18c.07.19.09.26.13.38.09.34.1.37.29.54.19.17.2.19.2.25,0,.05-.03.09-.07.09h-.07s-.04-.01-.04-.01c-.06,0-.11.11-.11.22,0,.07.03.18.07.27.03.06.05.11.07.13l.11.11s.04.07.04.11c0,.05-.03.09-.07.09-.02,0-.05-.01-.09-.04-.02-.01-.05-.02-.07-.02-.05,0-.07.03-.07.09l.02.16.06.27c.02.06.05.13.12.2.05.06.11.1.16.13.13.06.2.09.21.09.02.02.03.05.03.09s-.03.07-.07.07c-.01,0-.05,0-.11-.02h-.11c-.11,0-.11,0-.11.08,0,.05,0,.11.02.16l.04.17c.04.18.1.27.16.27.02,0,.04-.02.08-.04.15-.11.46-.22.65-.22s.42.02.51.05c.05.02.08.03.1.03.03,0,.04-.03.04-.12l.02-.19.04-.33.03-.24v-.14s-.07.06-.09.07c-.18.17-.29.22-.48.22-.48,0-.76-.54-.76-1.49,0-.39.05-.94.16-1.58.02-.13.04-.23.04-.29,0-.35-.22-.68-.6-.93"/><path id="path249" class="cls-4" d="m22.35,24.51l.09-.09.09-.09c.08-.07.14-.21.14-.32,0-.05-.01-.09-.04-.15-.04-.08-.11-.15-.15-.15-.04,0-.07.09-.08.22l-.02.16-.03.16v.16s0,.11,0,.11"/><path id="path251" class="cls-4" d="m21.43,28.81c.11.04.13.06.24.19.14.17.23.21.42.21.05,0,.1,0,.15-.02l.14-.04.11-.03c.05-.02.08-.04.08-.05s-.08-.09-.21-.18c-.09-.06-.17-.11-.25-.15-.09-.04-.17-.06-.24-.06-.14,0-.29.04-.43.14"/><path id="path253" class="cls-4" d="m22.86,31.89c.18-.08.25-.11.46-.23.18-.1.29-.16.3-.17.2-.1.29-.18.29-.23,0-.07-.12-.11-.32-.11-.41,0-.74.28-.74.62v.12"/><path id="path255" class="cls-4" d="m27.12,29.22c.15-.03.2-.07.27-.07h.19s.07-.02.13-.07c.04-.03.09-.06.15-.11.21-.14.22-.15.22-.2,0-.06-.09-.09-.26-.09-.33,0-.54.16-.7.54"/><path id="path257" class="cls-3" d="m5.58,3.89l-.05-.15-.02-.09c0-.09.04-.13.16-.18.21-.08.27-.11.36-.19l.11-.11h.01s.05.03.05.08c0,.13-.14.38-.29.63-.11.19-.16.3-.2.3-.05,0-.11-.08-.12-.18l-.02-.13"/><path id="path259" class="cls-3" d="m4.96,3.47l.18.09s.07.06.07.1v.07c-.04.09-.02.19-.02.23,0,.19-.15.18-.21.18-.04,0-.02-.02-.1-.11l-.23-.27c-.07-.08-.13-.27-.16-.47v-.03c0-.05.02-.08.06-.08.03,0,.08.02.12.05l.28.23"/><path id="path261" class="cls-3" d="m5.59,4.57l.17-.11.1.02c.12,0,.14.03.14.16,0,.19-.12.27-.33.79-.09.23-.11.37-.25.37-.15,0-.27-.13-.39-.42l-.14-.34c-.1-.23-.14-.38-.14-.46s.06-.13.16-.13c.05,0,.1.02.15.04.08.05.13.07.13.07h.12s.05,0,.05,0h.22"/><path id="path263" class="cls-3" d="m25.22,3.93l-.09-.18-.02-.09c0-.09.04-.13.17-.18.13-.05.28-.13.35-.19l.11-.11h.01s.05.03.05.08c0,.14-.12.35-.27.6-.11.18-.18.34-.22.34-.05,0-.11-.08-.12-.18l.02-.09"/><path id="path265" class="cls-3" d="m24.57,3.47l.18.09c.05.03.08.07.08.13v.04s-.06.19-.06.19l-.03.21s-.03.04-.05.04h0s-.16-.06-.23-.14l-.16-.27s-.09-.13-.14-.29c-.02-.06-.04-.12-.04-.18v-.03c0-.05.02-.08.06-.08.03,0,.08.02.12.05l.28.23"/><path id="path267" class="cls-3" d="m25.21,4.57l.16-.11h.06c.12-.01.25.1.25.22,0,.11-.14.16-.2.31l-.11.47c-.09.23-.2.34-.33.34-.16,0-.28-.13-.39-.42-.05-.13-.1-.25-.14-.34-.09-.2-.13-.36-.13-.44,0-.1.06-.16.15-.16.05,0,.1.02.15.04.08.05.12.07.13.07h.13s.05,0,.05,0h.23"/><path id="path269" class="cls-3" d="m4.7,23.11l-.05-.16v-.05s0-.03.03-.03.08.03.13.07c.05.04.07.04.15.05.29.07.34.13.34.27v.18s-.05.16-.05.16c-.02.07-.04.09-.07.09-.02,0-.21-.13-.23-.16l-.11-.15-.15-.26"/><path id="path271" class="cls-3" d="m5.97,23.37l-.14.24s-.05.06-.05.06h0c-.06,0-.11-.13-.12-.26l-.02-.21c.02-.09.07-.13.2-.14.11-.02.18-.04.21-.07.1-.07.15-.11.17-.11h.02s.05.02.05.05v.02l-.07.18-.23.25"/><path id="path273" class="cls-3" d="m5.7,24.09l.17-.08s.05-.02.08-.02c.08,0,.14.06.14.17,0,.12-.09.28-.22.51-.14.25-.25.42-.35.42-.15,0-.37-.24-.57-.64-.05-.09-.08-.21-.08-.29,0-.13.05-.2.17-.2.05,0,.09.01.12.03l.09.06c.08.06.18.09.27.09.06,0,.13-.02.18-.04"/><path id="path275" class="cls-3" d="m23.95,22.82l.15.09c.09.05.16.09.21.11.16.07.22.09.22.16,0,.02,0,.08-.02.12-.02.05-.03.1-.03.15-.02.14-.1.18-.16.18-.07,0-.14-.11-.26-.32-.05-.09-.13-.28-.17-.42v-.04s.01-.04.04-.04h.02"/><path id="path277" class="cls-3" d="m25.37,23.19l-.24.24c-.09.11-.09.21-.11.23-.02.02-.04.03-.07.03h-.02c-.06,0-.11-.04-.11-.11v-.18s-.02-.18-.02-.18h0c0-.08.04-.12.09-.13l.22-.06.23-.12c.07-.03.09-.04.1-.04.03,0,.05.03.05.06,0,.02,0,.04-.02.07l-.11.18"/><path id="path279" class="cls-3" d="m24.3,23.9l.16.11s.09.04.14.04c.07,0,.16-.02.25-.07l.14-.06s.06-.02.08-.02c.08,0,.15.09.15.2,0,.15-.11.32-.27.55l-.11.24c-.09.13-.16.18-.23.18-.13,0-.18-.07-.37-.45-.13-.27-.19-.43-.19-.55,0-.11.05-.19.14-.19.03,0,.07,0,.12.02"/><path id="path281" class="cls-4" d="m5.36,4.87h-.14s-.04.01-.05.03l-.02.05.05.25.04.22c.02.12.07.17.16.17.11,0,.17-.07.18-.2l.02-.23c.01-.15.02-.23.02-.24,0-.02-.01-.05-.03-.07-.02-.02-.04-.02-.05-.02h0s-.17.03-.17.03"/><path id="path283" class="cls-4" d="m24.96,4.87h-.13s-.04.01-.05.03c-.02.03-.03.05-.03.05l.05.25.04.22c.02.12.04.17.13.17.1,0,.19-.07.2-.2l.02-.23c.02-.15.02-.23.02-.24,0-.02-.01-.05-.03-.07-.02-.02-.04-.02-.05-.02h-.01s-.17.03-.17.03"/><path id="path285" class="cls-4" d="m5.45,24.34l-.12-.02h-.02c-.07,0-.1.04-.1.11,0,.11.08.3.19.46.02.03.05.04.08.04.07,0,.12-.13.15-.34l.03-.16v-.03c0-.06-.02-.09-.07-.09h-.02l-.13.02"/><path id="path287" class="cls-4" d="m24.44,24.48v.2c.02.09.09.18.16.18.1,0,.16-.14.2-.37.02-.11.02-.12.02-.15,0-.08-.03-.1-.13-.1h-.05s-.07,0-.07,0h-.05c-.07,0-.09.05-.09.18v.05"/><path id="path289" class="cls-3" d="m12.61,14.3h1.11c.13-.27.3-.38.56-.38s.43.11.58.38h.91c.11-.24.33-.38.6-.38.25,0,.49.16.57.38h.84c.13-.25.33-.38.56-.38s.43.11.57.32l.04.07h1.18v5.45h-1.03v2.09h-1.21v-2.09h-3.05v2.09h-1.21v-2.11h-1.03v-5.43"/><path id="path291" class="cls-6" d="m13.05,19.32h6.68v-4.58h-6.68v4.58Z"/><path id="path293" class="cls-4" d="m13.74,15.79c-.18,0-.32.14-.32.32s.14.32.32.32.32-.14.32-.32-.14-.32-.32-.32"/><path id="path295" class="cls-7" d="m13.74,15.79c-.18,0-.32.14-.32.32s.14.32.32.32.32-.14.32-.32-.14-.32-.32-.32Z"/><path id="path297" class="cls-4" d="m18.99,15.79c-.18,0-.32.14-.32.32s.14.32.32.32.32-.14.32-.32-.14-.32-.32-.32"/><path id="path299" class="cls-7" d="m18.99,15.79c-.18,0-.32.14-.32.32s.14.32.32.32.32-.14.32-.32-.14-.32-.32-.32Z"/><path id="path301" class="cls-4" d="m13.74,18.28c-.18,0-.32.14-.32.32s.14.32.33.32c.17,0,.3-.14.3-.32s-.14-.32-.32-.32"/><path id="path303" class="cls-7" d="m13.74,18.28c-.18,0-.32.14-.32.32s.14.32.33.32c.17,0,.3-.14.3-.32s-.14-.32-.32-.32h0Z"/><path id="path305" class="cls-4" d="m18.99,18.28c-.18,0-.32.14-.32.32s.14.32.32.32.32-.14.32-.32-.14-.32-.32-.32"/><path id="path307" class="cls-7" d="m18.99,18.28c-.18,0-.32.14-.32.32s.14.32.32.32.32-.14.32-.32-.14-.32-.32-.32Z"/><path id="path309" class="cls-4" d="m14.74,17.32c.43.54.98.8,1.65.8.62,0,1.05-.22,1.55-.8-.5-.52-.97-.73-1.58-.73-.65,0-1.23.27-1.62.73"/><path id="path311" class="cls-3" d="m15.06,17.32c.44-.34.82-.49,1.28-.49s.82.14,1.27.5c-.39.39-.74.54-1.28.54-.48,0-.91-.19-1.27-.55"/><path id="path313" class="cls-4" d="m15.6,17.21c.27.17.48.23.72.23.29,0,.54-.07.77-.23-.25-.12-.5-.18-.76-.18s-.51.06-.73.18"/><path id="path315" class="cls-11" d="m12.95,15.21h6.87v-.23h-6.87v.23Z"/><path id="path317" class="cls-4" d="m14.01,14.68v.66c0,.16.12.27.28.27.19,0,.29-.1.29-.27v-.65c0-.25-.1-.4-.26-.4-.04,0-.09.01-.13.03-.04.02-.06.03-.07.04-.02.02-.05.05-.06.09-.03.06-.04.1-.04.12v.12"/><path id="path319" class="cls-4" d="m16.07,15.22v.12c0,.16.12.27.28.27.19,0,.29-.1.29-.27v-.65c0-.25-.11-.4-.27-.4-.19,0-.31.15-.31.39v.54"/><path id="path321" class="cls-4" d="m18.08,14.68v.66c0,.16.12.27.28.27.18,0,.29-.1.29-.27v-.65c0-.25-.1-.4-.26-.4-.04,0-.09.01-.13.03-.04.02-.06.03-.07.04-.03.02-.05.05-.07.09-.02.06-.04.1-.04.12v.12"/><path id="path323" class="cls-4" d="m13.86,21.03h.63v-.8h-.63v.8Z"/><path id="path325" class="cls-4" d="m13.86,21.46h.63v-.25h-.63v.25Z"/><path id="path327" class="cls-4" d="m18.12,21.03h.63v-.8h-.63v.8Z"/><path id="path329" class="cls-4" d="m18.12,21.46h.63v-.25h-.63v.25Z"/><path id="path331" class="cls-3" d="m52.45.68v.48h-.32c-.47,0-1.25,0-1.25,1.46v6c0,3.68-1.6,5.46-4.89,5.46-3.71,0-5.45-1.48-5.45-4.66V2.63c0-1.46-.79-1.46-1.49-1.46h-.15v-.48h5.55v.48h-.15c-.69,0-1.55,0-1.55,1.46v6.5c0,2.8,1.17,4.16,3.57,4.16s3.58-1.47,3.58-4.24V2.62c0-1.46-.81-1.46-1.4-1.46h-.3v-.48h4.23"/><path id="path333" class="cls-3" d="m58.45,13.32v.48h-4.69v-.48h.19c1.54,0,1.73-1.17,1.73-2.49V2.95c0-1.26-.73-1.79-1.75-1.79h-.17v-.48h3.69l7.98,9.77V3.02c0-1.68-1.18-1.86-1.68-1.86h-.33v-.48h4.73v.48h-.2c-.83,0-1.71.2-1.71,2.49v10.21h-.7s-9.05-10.94-9.05-10.94v7.9c0,1.32.2,2.5,1.78,2.5h.18"/><path id="path335" class="cls-3" d="m83.59,11.02l2.89-8.06c.52-1.37.18-1.8-1.01-1.8h-.24v-.48h3.73v.48h-.08c-.41,0-.88.12-1.24,1.02l-4.37,11.67h-.83l-4.75-11.56c-.38-.96-.82-1.13-1.62-1.13h-.11v-.48h5.42v.48h-.35c-.93,0-1.11.58-.84,1.29l3.4,8.57"/><path id="path337" class="cls-3" d="m105.48,1.3v5.81s1.12,0,1.12,0c2.04,0,2.95-.91,2.95-3.04,0-1.73-1.12-2.85-2.8-2.85-.39,0-.93.03-1.27.09h0Zm2.02-.62c2.91,0,4.35,1.07,4.35,3.27,0,1.87-1.46,2.81-2.61,3.28l-.09.03,3.22,4.9c.52.79.93,1.1,1.82,1.15v.49h-3.36l-3.9-6.16h-1.45v4.08c0,1.48.66,1.6,1.59,1.6h.26v.48h-5.7v-.48h.26c.64,0,1.38-.29,1.38-1.1V2.68c0-1.52-.9-1.52-1.38-1.52h-.26v-.48h5.87"/><path id="path339" class="cls-3" d="m121.13,11.31c0-1.6-1.37-2.23-2.65-2.89-1.5-.78-3.22-1.59-3.22-4.01s1.79-3.86,4.34-3.86c1.04,0,2.22.21,2.74.31l.18,2.55-.49.07c-.23-1.34-.93-2.38-2.43-2.38-1.42,0-2.47.87-2.47,2.44,0,1.48,1.37,2.09,2.64,2.73,1.56.78,3.34,1.59,3.34,4.04,0,2.71-2.41,3.92-4.64,3.92-.89,0-2.12-.18-3.11-.74l-.31-2.84.48-.08c.36,1.89,1.56,2.98,3.14,2.98s2.47-.92,2.47-2.24"/><path id="path343" class="cls-3" d="m130.49.68v.48h-.18c-.75,0-1.44.14-1.44,1.16v9.84c0,1.02.69,1.16,1.44,1.16h.18v.48h-5.48v-.48h.19c.75,0,1.44-.14,1.44-1.16V2.32c0-1.02-.69-1.16-1.44-1.16h-.19v-.48h5.48"/><path id="path345" class="cls-3" d="m75.2.68v.48h-.19c-.75,0-1.44.14-1.44,1.16v9.84c0,1.02.69,1.16,1.44,1.16h.19v.48h-5.48v-.48h.18c.75,0,1.44-.14,1.44-1.16V2.32c0-1.02-.69-1.16-1.44-1.16h-.18v-.48h5.48"/><path id="path347" class="cls-3" d="m184.41,19.63l.05,3.48s-.43.11-.56.14c-.12-1.52-.47-2.77-2.9-2.77h-3.27v6.44h2.81c1.38,0,1.75-.77,1.91-2.1h.56v5.38h-.56c-.09-1.28-.39-2.28-1.9-2.28h-2.82v5.65c0,1.64,1.41,1.64,2.91,1.64,2.69,0,3.94-.17,4.69-2.89.11.03.55.12.55.12l-.75,3.63h-12.21v-.6h.23c.93,0,1.8-.18,1.8-1.45v-12.35c0-1.28-.87-1.46-1.8-1.46h-.23v-.6h11.5"/><path id="path351" class="cls-3" d="m115.31,20.41v7.29s1.4,0,1.4,0c2.56,0,3.69-1.14,3.69-3.82,0-2.17-1.4-3.57-3.5-3.57-.49,0-1.13.03-1.59.11h0Zm2.53-.78c3.64,0,5.45,1.34,5.45,4.1,0,2.34-1.82,3.53-3.27,4.11l-.11.04,4.04,6.14c.65,1,1.18,1.38,2.29,1.45v.61h-4.21l-4.9-7.73h-1.82v5.13c0,1.86.82,2,1.99,2h.33v.6h-7.16v-.6h.33c.8,0,1.73-.36,1.73-1.38v-11.96c0-1.91-1.13-1.91-1.73-1.91h-.33v-.61h7.37"/><path id="path353" class="cls-3" d="m134.11,19.63v.61h-.23c-.94,0-1.8.18-1.8,1.45v12.35c0,1.28.87,1.45,1.8,1.45h.23v.6h-6.88v-.6h.23c.94,0,1.8-.18,1.8-1.45v-12.35c0-1.28-.87-1.45-1.8-1.45h-.23v-.61h6.88"/><path id="path355" class="cls-3" d="m133.34.68h8.68c.44,0,1-.11,1.09-.68h.42l-.33,3.42h-.47c-.03-.79-.14-1.94-1.41-1.94h-2.65v10.13c0,1.58.76,1.71,1.61,1.71h.28v.48h-5.98v-.48h.28c1,0,1.61-.08,1.61-1.67V1.48h-2.68c-1.36,0-1.5.6-1.76,1.93h-.47l.3-3.38h.39c.18.55.65.66,1.11.65"/><path id="path359" class="cls-3" d="m156.95.68v.49c-.75.04-1.21.56-1.55,1.04l-3.33,5.14v4.19c0,1.67.61,1.79,1.61,1.79h.28v.48h-5.98v-.48h.28c1.04,0,1.61-.26,1.61-1.64v-4.03l-3.62-5.17c-.55-.8-.97-1.32-1.84-1.32h-.11v-.48h5.42v.48h-.17c-1.04,0-1.11.55-.67,1.18l2.8,4.34,2.48-3.92c.57-.86.73-1.61-.67-1.61h-.21v-.48h3.7"/><path id="path361" class="cls-3" d="m163.37,6.67c0,3.24,1.43,6.73,4.57,6.73,2.88,0,4.28-2,4.28-6.1,0-3.02-1.61-6.22-4.59-6.22-3.95,0-4.26,4.28-4.26,5.59Zm-2.44.66c0-3.89,2.96-6.94,6.73-6.94,4.12,0,6.99,2.66,6.99,6.48,0,4.18-2.9,7.21-6.9,7.21s-6.82-2.84-6.82-6.75"/><path id="path365" class="cls-3" d="m176.15,13.8v-.48h.19c.75,0,1.44-.14,1.44-1.16V2.32c0-1.02-.69-1.16-1.44-1.16h-.19v-.48h9.17l.03,2.77c-.07.02-.34.09-.44.11-.11-1.12-.36-2.2-1.93-2.2h-3v5.13h2.63c1.09,0,1.24-.86,1.25-1.54h.43v4.2h-.43c-.01-.82-.2-1.86-1.55-1.86h-2.33v4.86c0,1.16.98,1.16,1.85,1.16h.16v.48h-5.85"/><path id="path369" class="cls-3" d="m39.95,27.85c0-2.45.99-4.85,2.7-6.38,1.59-1.42,3.67-2.22,6.02-2.22,2.1,0,3.86.38,5.57,1.18l.17,3.81-.54.07c-.62-2.21-1.65-4.23-5.14-4.23s-5.81,2.84-5.81,7.4c0,4.07,1.8,7.91,6.16,7.91,2.45,0,4.2-.92,5.52-2.61l.43.81c-1.48,1.92-3.78,2.94-6.39,2.94-5.31,0-8.69-3.13-8.69-8.68"/><path id="path371" class="cls-3" d="m75.44,22.81l-.54,10.16c-.1,2.25.6,2.45,2.11,2.51h.14v.6h-5.55v-.6h.21c1.87-.07,1.98-1.11,2.07-2.63l.64-10.41c.09-1.42-.69-2.23-2-2.23h-.19v-.6h4.66c.05.13,5.59,12.47,5.59,12.47,0,0,5.23-12.34,5.29-12.48h4.57v.61h-.09c-1.85,0-2.18.58-2.04,2.9l.64,10.92c.1,1.28.77,1.39,2.03,1.44v.59h-6.83v-.6h.05c1.11-.07,1.91-.11,1.91-1.23l-.02-1.18s-.5-10.53-.5-10.53c0,0-5.63,13.53-5.69,13.66h-.5c-.05-.14-5.95-13.39-5.95-13.39"/><path id="path373" class="cls-3" d="m141.54,20.41v12.93c0,1.75.73,2.03,2.5,2.03,4.16,0,6.05-3.58,6.05-7.09,0-5.46-2.25-7.94-6.88-7.94-.41,0-1.28.04-1.67.07h0Zm-4.84,15.68v-.6h.23c.94,0,1.8-.18,1.8-1.45v-12.35c0-1.28-.87-1.45-1.8-1.45h-.23v-.61h7.36c2.73,0,5.03.68,6.63,2.17,1.57,1.47,2.41,3.55,2.41,6.02,0,2.31-.92,4.54-2.52,6.13-1.61,1.6-3.87,2.14-6.15,2.14h-7.73"/><path id="path375" class="cls-3" d="m167.11,35.24v-4.04c0-.88-.64-1.35-1.86-1.35h-.19v-.59h6.33v.59h-.19c-.89,0-1.36.47-1.36,1.35v4.49c-1.51.49-3.54.87-5.79.87-5.43,0-8.95-3.52-8.95-8.97,0-5.79,4.63-8.44,8.99-8.44,1.95,0,3.96.39,5.23.82l.26,3.93-.55.03c-.68-2.83-1.94-3.94-4.78-3.94-3.82,0-6.14,2.82-6.14,7.36,0,4.17,1.96,8.3,6.32,8.3,1.01.02,2.05-.13,2.67-.41"/><path id="path377" class="cls-3" d="m103.52,27.12c2.07.15,3.18.61,4.1,1.56.72.73,1.1,1.66,1.1,2.75,0,2.58-2.37,4.65-5.45,4.65h-8.06v-.6h.32c.8,0,1.73-.38,1.73-1.4v-11.94c0-1.91-1.13-1.91-1.73-1.91h-.32v-.6h7.31c3.43,0,5.32,1.24,5.32,3.59,0,2.61-2.29,3.57-4.31,3.9m-3.37-6.89v6.61h1.23c2.27,0,3.52-1.1,3.52-3.2,0-2.32-1.1-3.41-3.27-3.41h-1.49Zm0,7.33v5.79c0,1.61.51,2.07,2.18,2.07,2,0,3.52-1.65,3.52-3.89,0-2.53-1.54-3.96-4.12-3.96h-1.58"/><path id="path379" class="cls-3" d="m62.05,22.98l2.3,6.41h-4.61l2.3-6.41Zm.29-3.36l-5.22,14.21c-.39,1.01-1.07,1.63-2.09,1.63h-.05v.62h5.01v-.62h-.22c-1.21,0-2.03-.39-1.5-1.94l1.2-3.32h5.18l1.3,3.62c.38,1.14-.11,1.66-1.35,1.66h-.14v.61h6.38v-.61h-.05c-.85,0-1.43-.45-1.83-1.57l-5.36-14.28h-1.24"/><path id="path381" class="cls-3" d="m99.01.68l.04,2.78s-.34.08-.44.11c-.1-1.21-.38-2.2-2.32-2.2h-2.61v5.13h2.24c1.1,0,1.39-.61,1.52-1.67h.45v4.29h-.45c-.07-1.01-.31-1.81-1.51-1.81h-2.25v4.5c0,1.31,1.13,1.31,2.32,1.31,2.14,0,3.14-.13,3.74-2.3.09.02.44.1.44.1l-.6,2.89h-9.73v-.48h.18c.75,0,1.44-.14,1.44-1.16V2.32c0-1.02-.69-1.16-1.44-1.16h-.18v-.48h9.17"/></g></g></svg>