<?xml version="1.0" encoding="UTF-8"?><svg id="svg3087" xmlns="http://www.w3.org/2000/svg" viewBox="0 0 154.33 157.04"><defs><style>.cls-1{fill:#bf2f38;stroke-width:0px;}</style></defs><g id="g3091"><g id="g3096"><g id="g4202"><g id="g3122"><path id="path3124" class="cls-1" d="m103.05,70.26c-.07-5.39-1.9-16.41-14.79-22.66,13.09,4.16,19.39,15.23,20.04,23.48,13.75,2.74,25.95,9.21,45.77,2.38l.07-.04s-26.07.24-36.97-7.65c5.63.21,12.11-1.06,14.24-4.25,2.26-3.4,2.5-6.9,8.07-7.08,3.13-.1,13.76.69,14.87-14.91-3.4,5.74-7.08,8.11-12.64,6.69-3.55-.9-10.03-3.62-14.66,1.91-3.82,4.57-7.93,6.94-14.48,6.23C115.17,50.82,154.23.11,154.23.11c0,0-50.04,40.16-52.8,42.5-.53-7.33,1.66-10.02,4.6-13.25,2.41-2.64,6.59-6.21,3.26-13.74-2.69-6.09-2.34-9.77,5-15.62-5.84.43-14.76,4.36-13.71,15.09.64,6.48-3.95,7.04-5.63,7.97-4.36,2.41-4.92,9.42-5.07,14.88-.49-1.77-6.83-29.02-9.06-37.84v73.32h.17c8.49-3.34,15.55-3.85,22.06-3.15"/></g><g id="g3174"><path id="path3176" class="cls-1" d="m53.94,39.75c-.57-3.05-.29-9.07,2.69-15.02-10.98,8.29-11.12,15.02-11.12,15.02,0,0,2.12-1.63,8.43,0Zm-5.1-18.13s-13.32,1.91-17.14,2.27c-2.64,1.55-5.66,5.91-5.66,5.91,0,0-3.12.46-9.35,1.59-4.33,2.83-6.94,9.42-1.56,14.8q-1.7-.35-4.18-.78c-5.31,3.4-2.84,9.71,8.21,7.51-3.12-.11-4.68-1.63-4.64-3.61-.07-2.16,4.14-4.85,9.28-3.47-4.89-9.24.53-12.89.53-12.89,0,0-2.87,7.63,3.4,13.88.57-.92,2.44-3.5,7.72-3.61,5.26-.11,8.56,2.48,8.64,5.46.07,2.62-3.26,5.38-7.58,5.38l-.07-6.26s-1.41.5-1.8,1.06c0,.29-.04,5.27-.04,5.27-1.7,0-5.17-.71-7.01-3.65-1.42-.14-9.32-1.31-9.32-1.31l.43,2.09s2.76.46,3.29,3.22c.64,3.34,2.55,6.41,4.25,7.65,3.29-.39,8.75-4.54,18.77-4.39-9.21,1.27-18.55,11.12-32.02,7.36,21.39,7.3,23.59-8.92,50.36-3.83-4.18-2.55-10.41-3.33-10.41-3.33,0,0,3.33-3.61,3.47-9.14.43-.03.99-.07,2.05-.17.36-1.77.6-3.57.6-3.57,0,0-5.84,0-10.75,0-11.94-12.08.51-23.45.51-23.45Zm-29.89-.21c3.36.18,7.45-1.91,7.72-2.09,0,0-1.42,3.58,1.77,3.36,3.46-.23,7.44-2,8-2.27v-4.6c-.31.23-3.68,2.61-7.51,3.47-1.4.31-.92-.92-.78-1.63.14-.71.24-1.29-2.27-.25-10.23,4.25-10.77,1.35-10.77.99-.42.5-.24,2.8,3.83,3.01ZM73.2.09v73.32c-29.5-11.62-41.79,10.91-73.2,0C0,73.75,0,.09,0,.09h14.95v7.91h8.57V.09h8.43v7.91h8.5V.09h8.5v7.91h9.24V.09h15.02"/></g><g id="g3178"><path id="path3180" class="cls-1" d="m101.35,99.82s-.35-.17.32-.73c.08-.07.21.09.6.09.52,0,.79-.17,1.23-.7.65-.79-.71-1.09-1.15-.71-.48.41-.83.84-1.25,1.23,0,0-.7.62.26.82Zm25.25,37.04c-1.17.95-4.78,2.78-5.68,3.2-.9.43-1.19.68-1.86,2-.82,1.61-1.59,4.54-1.38,4.75,2.23-.35,3.82-2.23,3.82-2.23,0,0,.04-.46-.46-1.24-.41-.65.39-1.34.89-.94.38.31.9.38,1.22.11.32-.27,7.28-4.69,7.59-5.2-1.41-1.4-2.5-2.82-2.5-2.82,0,0-.48,1.42-1.64,2.38Zm-27.2-19.41c-2.98-1.2-3.64-2.01-4.2-2.25-.5-.21-2.54.66-2.89,1.54-.92,2.37-2.98,6.25-3.28,6.8-.16.29-.34.64-.3,1.03.04.39.15,1.91.12,2.27-.04.35.02.82.16,1.17.14.35.32,1.88,1.11,3.4,1.73-1.73,1.99-4.29,1.88-3.79,0,.02.55-.93-.83-1.36-.39-.12-.33-1.15.09-1.27.52-.16.78-.3,1.03-1.22.25-.93,1.18-4.24,1.49-4.87.05-.1.13-.27.3-.34.27-.12.58-.21.84-.25.13-.02.38.12.46.2.47.48,2.93,2.47,2.93,2.47,0,0,1.1-.11,1.77-.39-.42-.67-.6-2.3-.67-3.12Zm-3-13.99s-1.04,1.28.13,1.59c.03.37.17,1.1.32,1.49.2.51.53.35.91-.08.37-.42.97-1.23,1.41-1.7.4-.42,1.79-.27,1.22.58-.37.57-.66.72-1.14.82-.38.08-.49-.24-.9.32-.43.59-.89,1-.13,1,.4,0,1.16.37,1.66.29.48-.07.53-.38.58-.81.06-.45-.03-.7.47-.97.64-.36,1.57-1.21,1.86-1.51.32-.34.74-.27,1.17-.27s2.48.25,3.7-1.58c.86-1.29.96-3.05.64-4.65.59.58,1.37,2.42.96,4.14-.74,3.07-2.25,3.24-3.77,3.56-.64.9-2.27,3.22-3.13,7.44-.37.25-3.45,3.22-.88,8.1-.66.22-2.62,1.06-3.78,1.32-.78.17-1.43.22-1.75.59-.35.42-1.17,1.8-.74,2.5.3.49,2.23,4.8,2.39,6.14.16,1.32.64,1.64,1.12,2.07.53.48.88.45,1.62,1.01.75.56,1.38,1.58,2.07,2.12.74.59,1.57.85,2.16.8-.14-2.16-.6-4.29-1.28-4.99-.7-.73-1.57.32-1.79.37-.21.06-.51-.15-.64-.74-.13-.61.43-1.12-.11-1.91-.99-1.48-1.93-3.15-2.04-3.38-.69-1.35.48-1.71.77-1.65.69.16,4.83.72,5.47.77.64.05.99.16,1.28-.16.88-.98,1.38-1.7,1.89-2.71.93.69.29,2.02.02,3.59.27.23,6.27,3.26,14.52,1.06,3.44-.91,3.05-.19,3.38.44,2,3.88,3.42,5.38,5.79,7.28.71.56,1.2,1.48,1.52,2.02.32.53.4,1.48.15,2.09-.32.76-2.16,4.07-2.48,4.53-.6.89-1.39,1.63-2.06,1.99-2.09,1.12-2.61,2.12-2.84,2.9h5.36s.12-.28.06-.95c-.09-.94.76-1.1,1.03-1.15.27-.05.74.16,1.17-.85.8-1.9,3.91-7.19,4.18-7.67.27-.48,1.24-1.76.28-2.32-1.81-1.06-2.87-2.81-3.22-4.77-.14-.78-.05-2.06,1.7-4.25,3.75-4.68.96-14.31-7.4-14.13-4.74.1-7.38-.3-10.46-.92-1.13-.23-1.32-.84-1.08-1.52.25-.71.49-2.12.5-2.69-.81-.75-2.06-1.2-2.66-1.42-.65-.23-.97-.75-.32-.8.65-.05,3.13.22,3.13.22,0,0,.09-1.33-.27-3.28-1.06-.46-2.41-.85-3.82-1.03-.38-.05-.7-.46.25-.6,1.24-.18,2.38.02,3.26-.03.05-.11-.42-2.59-1.3-3.59-.61-.18-.93-.27-3.05-.52-.74-.08-.78-.3-.28-.46.57-.18,1.53-.37,2.73-.29-.46-.63-3.54-6.25-9.93-4.57.71.88,1.06,1.29,1.27,1.89.19.54-.38.71-.9.16-2.02-2.12-3.08-2.07-4.38-2.31.85.82,1.22,1.65,1.51,2.47-1.46,1.04-3.53,3.51-3.83,3.99-.55.91.21,1.4.21,1.4l-3.43,4.18Zm41.3-14.24c-6.54,2.29-5.57,9.33-3.81,12.04,2.31,3.54,4.25,3.61,5.72,7.77,1.15,3.25-.9,4.94-2.92,5.68,3.45,2.13,7.02-.07,8.29-2.2,2.35-3.13-.31-7.19,2.2-9.31.67-.57,1.8-.96,3.33-1.03-1.52-2.16-5.1-1.91-6.53.11-1.01-2.34-3.84-4.38-2.82-8,.67-2.37,4.43-3.26,5.84-1.31.77,1.07.88,3.15-1.38,4.21,1.42-.1,4.11-2.55,2.27-5.88-1.29-2.34-3.47-2.52-5.24-2.52-3.22,0-8.57,3.68-5.15,11.63-1.97-1.75-5.15-7.86.21-11.21Zm16.3-8.28c0-1.17,0,73.41,0,73.41-40.58,9.88-41.75-11.69-73.2,0,0,.95-.01-73.42,0-73.41,28.9-12.11,40.16,10.84,73.2,0"/></g><g id="g3182"><path id="path3184" class="cls-1" d="m26.63,122.84s-1.29.84.32,4.37c1.61,3.52,3.61,6.81.13,10.68,1.97.02,6.27-2.58,1.67-10.32-1.06-1.79-2.2-3.02-2.12-4.73Zm-4.35,1.66c1.06-.07,1.2-1.38,1-2.06-.23-.81-1.57-.91-1.9.12-.32,1.02-.04,2.01-.04,2.01.27.99,1.37,1.26,1.47,1.16-.62-.55-.45-.87-.53-1.23Zm1.02,4.69c-.25,3.12-2.04,3.58-2.04,3.58-3.12-1.43-4.79,2.49-2.18,3.65,3.32,1.47,5.35-2.82,5.55-3.61.56-2.25.61-3.84.36-7.49-.21-3.11.55-3.58,1.07-3.67.52-.09,1.58-.13,2.64,3.11,1.07,3.24,3.37,3.71,3.37,3.71,0,0-3.33-5.42,1.3-10.43,2.16-2.32,6.55-3.65,5.73-6.91,0,0-.68,1.17-2,1.51-1.32.34-3.88.72-3.88.72,0,0,6.14-2.9,7.25-6.23,0,0,1.92,3.2-.64,7.89,0,0,2.43-.87,5.06.31,6.68,2.96,5.97,12.48-2.48,14.75-12.04,3.23-7.66,12.54-.77,13.11-.74-.47-.91-3.27.3-4.94.6-.54,1.68-1.62,2.37.66,1.21,4.03,4.74,4.36,6.38,3.85-.43-.36-1.23-1.59-1.14-2.3.2-1.41,1.96.05,2.61.24,4.74,1.34,7.26.17,7.53-.54-1.06-.22-.88-.1-1.55-.27-.62-.16-1.84-1.02.44-1.55,4.19-.96,6.49-5.28,3.73-8.6-2.63-3.18-5.95-2.69-7.03-2.25,4.54.98,4.77,4.63,2.45,6.49-2.02,1.52-7.03,2.12-8.74-1.24-1.08.78-1.46,2.03-1.28,3.6-.45-.17-2.36-2.88.47-5.11,13.1-8.44,10.98-22.63-.1-28.47l-.14-.06c-10.05-5.78-18.85-.5-18.85-.5,6.22-6.23,16.96-2.52,18.51-1.75,0,0-1.24-1.07-1.89-2.06-.85-1.28-.82-2.5-.82-2.5-4.27,2.38-5.36-1.27-5.36-1.27,0,0-3.7,3.33-6.09.62-2.09-2.37,1.3-5.59,1.3-5.59-21.64,7.1-17.54,19.32-17.54,19.32,0,0-3.13,2.88-3.84,9.81-.8,7.88,3.13,13.48,8.03,11.94,1.12-.35,1.68-.89,1.9-1.48v-.06Zm49.91-48.23s0,74.37,0,73.41c-31.45-11.69-32.62,9.88-73.2,0,0,0,0-74.59,0-73.41,33.04,10.84,44.3-12.11,73.2,0"/></g></g></g></g></svg>