<svg xmlns="http://www.w3.org/2000/svg" viewBox="0 0 56.7 56.7">
    <style>.a { fill: #212529; } .b { fill: #6c757d; }</style>
    <circle cx="28.3" cy="28.3" r="28.3" class="b"></circle>
    <path d="M26 30.3c0-3.7 0-7.3 0-11 0-0.7 0-0.7 0.7-0.7 2.1-0.2 4.1-0.4 6.2-0.4 1.6 0 3.2 0.2 4.7 0.6 1.6 0.4 3.1 1.1 4.4 2.2 0.9 0.8 1.7 1.8 2.2 2.9 1.2 2.5 1.4 5.2 1.1 7.9 -0.1 0.5-0.1 1.1-0.3 1.6 -0.3 1-0.6 2-1.1 3 -0.5 0.9-1.1 1.8-1.9 2.5 -0.5 0.5-1.1 0.9-1.7 1.3 -1.1 0.6-2.2 1.1-3.4 1.4 -0.6 0.2-1.3 0.3-2 0.4 -1.9 0.3-3.7 0.2-5.6 0.2 -1 0-2-0.2-3-0.2 -0.3 0-0.4-0.1-0.4-0.4 0-0.6 0-1.3 0-1.9C26 36.6 26 33.4 26 30.3 26 30.3 26 30.3 26 30.3zM29.1 30.3C29.1 30.3 29.1 30.3 29.1 30.3c0 2.9 0 5.8 0 8.8 0 0.6 0 0.6 0.6 0.6 0.1 0 0.1 0 0.2 0 0.9 0.1 1.7 0 2.6 0 1.5 0 3-0.2 4.5-0.8 1.5-0.6 2.7-1.5 3.6-2.8 0.9-1.2 1.3-2.6 1.5-4 0.2-1.9 0.3-3.8-0.3-5.7 -0.6-1.9-1.6-3.3-3.3-4.4 -1.4-0.9-2.9-1.2-4.5-1.3 -1.4-0.1-2.9-0.1-4.3 0.2 -0.4 0.1-0.5 0.1-0.5 0.6C29.1 24.3 29.1 27.3 29.1 30.3z" class="a"></path>
    <path d="M15.6 30.3c0-3.7 0-7.4 0-11 0-0.6 0-0.6 0.6-0.6 1.1 0 2.1 0 3.2 0 0.4 0 0.5 0 0.5 0.5 0 0.5 0 0.9 0 1.4 0 7 0 14 0 20.9 0 0.5 0 0.5-0.5 0.5 -1.1 0-2.2 0-3.3 0 -0.5 0-0.5 0-0.5-0.5C15.6 37.8 15.6 34.1 15.6 30.3 15.6 30.3 15.6 30.3 15.6 30.3z" class="a"></path>
    <path d="M17.7 16.1c-1.6 0-2.7-1.3-2.6-2.8 0.1-1.6 1.2-2.7 3-2.6 1.5 0.1 2.5 1.1 2.5 2.7C20.4 15 19.3 16.1 17.7 16.1z" class="a"></path>
</svg>
