<svg xmlns="http://www.w3.org/2000/svg" viewBox="0 0 39.8 39.8">
    <style>.a { fill: #6c757d; }</style>
    <path class="a" d="M9.2 10.1c2.2 0 4.4-0.2 6.6 0 3.6 0.4 6.2 2.4 6.8 5.4 0.7 3.8-1.4 7.6-5.2 8.9 -0.7 0.2-0.8 0.4-0.4 1.1 1.8 3 3.8 5.8 6.1 8.4 1.1 1.2 2.3 2.2 4 2.5 0.4 0.1 0.5 0.3 0.5 0.6 0 0.4-0.1 0.7-0.5 0.8 -1.1 0.3-2.3 0.2-3.4-0.1 -1.8-0.4-3.2-1.4-4.3-2.8 -2.2-2.8-4.2-5.9-5.9-9 -0.3-0.5-0.6-0.8-1.2-0.7 -0.8 0.1-1.9-0.4-2.5 0.2 -0.5 0.5-0.1 1.6-0.1 2.4 0 1.7 0 3.4 0 5 0 2.6 0.5 3.1 3 3.4 0.4 0 0.8-0.1 1 0.3 0.3 0.6-0.1 1.1-0.8 1 -3.1-0.2-6.3-0.2-9.4 0 -0.3 0-0.7 0.1-0.8-0.4 0-0.5 0-0.8 0.6-0.9 2.5-0.5 2.8-0.9 2.8-3.5 0-5.9 0-11.8 0-17.7 0-0.4 0-0.7-0.1-1.1 -0.3-1.7-0.7-2.1-2.3-2.4 -0.4-0.1-1 0.1-1.1-0.6 0-0.5 0-0.8 0.7-0.8C5.4 10.1 7.3 10.1 9.2 10.1zM9.7 17.5c0 1.6 0 3.2 0 4.9 0 0.5 0.1 0.7 0.6 0.7 1.5 0 2.9 0.2 4.4-0.1 2.6-0.6 4.3-2.6 4.4-5.4 0.1-3-1.2-4.9-3.9-5.5 -1.7-0.4-3.3-0.3-5-0.1 -0.5 0-0.5 0.4-0.5 0.7C9.7 14.3 9.7 15.9 9.7 17.5z"></path>
    <path class="a" d="M28.3 8.6c0 1.1-0.1 2.2 0.2 3.3 0.4 1.5 1.4 2.3 2.9 2.3 1.6 0 2.6-0.8 3-2.3 0 0 0-0.1 0-0.1 0.4-1.7 0.3-1.9-1.5-1.9 -0.6 0-1.4 0.2-1.3-0.9 0-0.8 0.2-1 1-1C33.7 8 34.9 8 36 8c0.6 0 0.8 0.2 0.8 0.8 0 1.2 0 2.4-0.3 3.5 -0.5 2.4-2.4 3.9-5.1 3.9 -2.7 0-4.5-1.3-5.1-3.8 -0.6-2.5-0.5-5.1 0-7.6 0.4-2.1 1.8-3.4 3.9-3.7 2.2-0.3 4.2 0.1 5.6 2C36 3.4 36.7 3.8 36 4.3c-1 0.6-1.5 0.6-1.9 0 -1.3-1.9-3.9-1.9-5.1-0.1 -0.4 0.6-0.6 1.3-0.6 2.1C28.3 7.1 28.3 7.8 28.3 8.6z"></path>
</svg>
