<svg xmlns="http://www.w3.org/2000/svg" width="555" height="64" viewBox="0 0 555.21 64.00" fill="none" role="img" aria-label="contributor-graphs"><g transform="translate(-2.00,42.92) scale(0.02314,-0.02314)" fill="#2f5fd0"><path d="M1184 0V148H1876V0ZM1876 1480V1332H1417L751 0H173V148H631L1298 1480Z"/></g><g transform="translate(56.41,42.58) scale(0.04600,-0.04600)" fill="#211f1a"><path transform="translate(0,0)" d="M308.22503662109375 -10Q240.6497802734375 -10 189.91207885742188 15.562591552734375Q139.17437744140625 41.12518310546875 111.11178588867188 89.07525634765625Q83.0491943359375 137.02532958984375 83.0491943359375 202.2503662109375V347.7496337890625Q83.0491943359375 413.97467041015625 111.11178588867188 461.42474365234375Q139.17437744140625 508.87481689453125 189.91207885742188 534.4374084472656Q240.6497802734375 560 308.22503662109375 560Q406.37554931640625 560 466.3382873535156 508.099853515625Q526.301025390625 456.19970703125 529.5260620117188 366.62445068359375H426.92401123046875Q423.92401123046875 415.57379150390625 392.3867492675781 442.1609802246094Q360.8494873046875 468.7481689453125 308.22503662109375 468.7481689453125Q252.37554931640625 468.7481689453125 219.46347045898438 437.6110534667969Q186.5513916015625 406.47393798828125 186.5513916015625 348.52459716796875V202.2503662109375Q186.5513916015625 144.52606201171875 219.46347045898438 112.88894653320312Q252.37554931640625 81.2518310546875 308.22503662109375 81.2518310546875Q360.8494873046875 81.2518310546875 392.3867492675781 108.11398315429688Q423.92401123046875 134.97613525390625 426.92401123046875 183.37554931640625H529.5260620117188Q526.301025390625 93.80029296875 466.3382873535156 41.900146484375Q406.37554931640625 -10 308.22503662109375 -10Z"/><path transform="translate(600,0)" d="M300 -8.4500732421875Q232.42474365234375 -8.4500732421875 182.68704223632812 17.887481689453125Q132.9493408203125 44.22503662109375 105.77423095703125 93.72503662109375Q78.59912109375 143.22503662109375 78.59912109375 211.5499267578125V338.4500732421875Q78.59912109375 407.5499267578125 105.77423095703125 456.6624450683594Q132.9493408203125 505.77496337890625 182.68704223632812 532.1125183105469Q232.42474365234375 558.4500732421875 300 558.4500732421875Q368.57525634765625 558.4500732421875 417.8129577636719 532.1125183105469Q467.0506591796875 505.77496337890625 494.22576904296875 456.6624450683594Q521.40087890625 407.5499267578125 521.40087890625 338.4500732421875V211.5499267578125Q521.40087890625 143.22503662109375 494.22576904296875 93.72503662109375Q467.0506591796875 44.22503662109375 417.42547607421875 17.887481689453125Q367.80029296875 -8.4500732421875 300 -8.4500732421875ZM300 82.8017578125Q355.62445068359375 82.8017578125 386.7615661621094 113.66390991210938Q417.898681640625 144.52606201171875 417.898681640625 203.80029296875V346.19970703125Q417.898681640625 405.698974609375 386.7615661621094 436.4486083984375Q355.62445068359375 467.1982421875 300 467.1982421875Q245.37554931640625 467.1982421875 213.73843383789062 436.4486083984375Q182.101318359375 405.698974609375 182.101318359375 346.19970703125V203.80029296875Q182.101318359375 144.52606201171875 213.73843383789062 113.66390991210938Q245.37554931640625 82.8017578125 300 82.8017578125Z"/><path transform="translate(1200,0)" d="M86.1490478515625 0V550H188.52606201171875V445H213.1519775390625L187.40087890625 420.8494873046875Q187.62591552734375 486.299560546875 227.41354370117188 523.1497802734375Q267.201171875 560 335.7510986328125 560Q418.07598876953125 560 466.9634704589844 507.87481689453125Q515.8509521484375 455.7496337890625 515.8509521484375 366.62445068359375V0H412.3487548828125V350.8494873046875Q412.3487548828125 409.3487548828125 382.87408447265625 440.598388671875Q353.3994140625 471.8480224609375 302.5499267578125 471.8480224609375Q250.1505126953125 471.8480224609375 219.90087890625 439.4359436035156Q189.6512451171875 407.02386474609375 189.6512451171875 347.7496337890625V0Z"/><path transform="translate(1800,0)" d="M355 0Q283.3994140625 0 240.82415771484375 41.412811279296875Q198.2489013671875 82.82562255859375 198.2489013671875 152.87628173828125V456.07305908203125H42.499267578125V550H198.2489013671875V705H301.7510986328125V550H524.500732421875V456.07305908203125H301.7510986328125V154.00146484375Q301.7510986328125 127.3516845703125 317.12591552734375 110.63931274414062Q332.500732421875 93.92694091796875 358.37554931640625 93.92694091796875H519.500732421875V0Z"/><path transform="translate(2400,0)" d="M106.1490478515625 0V550H208.52606201171875V442.7496337890625H233.1519775390625L207.40087890625 416.27423095703125Q207.40087890625 482.52459716796875 247.68850708007812 521.2622985839844Q287.97613525390625 560 358.6512451171875 560Q443.97613525390625 560 490.5886535644531 507.4873352050781Q537.201171875 454.97467041015625 537.201171875 359.299560546875V310.499267578125H433.698974609375V357.0491943359375Q433.698974609375 413.99853515625 405.27423095703125 442.1483154296875Q376.8494873046875 470.298095703125 323.22503662109375 470.298095703125Q268.0506591796875 470.298095703125 238.8509521484375 437.9858703613281Q209.6512451171875 405.67364501953125 209.6512451171875 345.0491943359375V0Z"/><path transform="translate(3000,0)" d="M81.62445068359375 0V93.92694091796875H273.698974609375V456.07305908203125H101.62445068359375V550H377.201171875V93.92694091796875H556.1251831054688V0ZM316.12518310546875 646.299560546875Q281.32489013671875 646.299560546875 261.0871887207031 664.2104230608259Q240.8494873046875 682.1212855747768 240.8494873046875 712.6751098632812Q240.8494873046875 744.0253295898438 261.0871887207031 762.3129577636719Q281.32489013671875 780.6005859375 316.12518310546875 780.6005859375Q350.92547607421875 780.6005859375 371.1631774902344 762.3129577636719Q391.40087890625 744.0253295898438 391.40087890625 712.6751098632812Q391.40087890625 682.1212855747768 371.1631774902344 664.2104230608259Q350.92547607421875 646.299560546875 316.12518310546875 646.299560546875Z"/><path transform="translate(3600,0)" d="M338.7510986328125 -10Q268.9508056640625 -10 227.16317749023438 30.32562255859375Q185.37554931640625 70.6512451171875 185.37554931640625 140.40234375L210.3516845703125 107.2503662109375H188.52606201171875V0H86.1490478515625V730H189.6512451171875V572.2503662109375L186.97613525390625 442.7496337890625H210.3516845703125L183.82562255859375 409.59765625Q183.82562255859375 478.798828125 226.77569580078125 519.3994140625Q269.72576904296875 560 338.7510986328125 560Q421.07598876953125 560 470.07598876953125 504.2123718261719Q519.0759887695312 448.42474365234375 519.0759887695312 352.7496337890625V196.47540283203125Q519.0759887695312 101.57525634765625 470.07598876953125 45.787628173828125Q421.07598876953125 -10 338.7510986328125 -10ZM302.4500732421875 79.701904296875Q355.8494873046875 79.701904296875 385.7116394042969 108.23916625976562Q415.57379150390625 136.77642822265625 415.57379150390625 198.37554931640625V351.62445068359375Q415.57379150390625 414.22357177734375 385.7116394042969 442.2608337402344Q355.8494873046875 470.298095703125 302.4500732421875 470.298095703125Q250.1505126953125 470.298095703125 219.90087890625 437.6609802246094Q189.6512451171875 405.02386474609375 189.6512451171875 346.62445068359375V203.37554931640625Q189.6512451171875 144.97613525390625 219.90087890625 112.33901977539062Q250.1505126953125 79.701904296875 302.4500732421875 79.701904296875Z"/><path transform="translate(4200,0)" d="M299.22503662109375 -10Q200.62445068359375 -10 142.38674926757812 47.287628173828125Q84.1490478515625 104.57525634765625 84.1490478515625 203.1505126953125V550H187.6512451171875V203.37554931640625Q187.6512451171875 146.52606201171875 217.40087890625 113.50146484375Q247.1505126953125 80.47686767578125 299.22503662109375 80.47686767578125Q351.8494873046875 80.47686767578125 382.09912109375 113.50146484375Q412.3487548828125 146.52606201171875 412.3487548828125 203.37554931640625V550H515.8509521484375V203.1505126953125Q515.8509521484375 104.3502197265625 456.72576904296875 47.17510986328125Q397.6005859375 -10 299.22503662109375 -10Z"/><path transform="translate(4800,0)" d="M355 0Q283.3994140625 0 240.82415771484375 41.412811279296875Q198.2489013671875 82.82562255859375 198.2489013671875 152.87628173828125V456.07305908203125H42.499267578125V550H198.2489013671875V705H301.7510986328125V550H524.500732421875V456.07305908203125H301.7510986328125V154.00146484375Q301.7510986328125 127.3516845703125 317.12591552734375 110.63931274414062Q332.500732421875 93.92694091796875 358.37554931640625 93.92694091796875H519.500732421875V0Z"/><path transform="translate(5400,0)" d="M300 -8.4500732421875Q232.42474365234375 -8.4500732421875 182.68704223632812 17.887481689453125Q132.9493408203125 44.22503662109375 105.77423095703125 93.72503662109375Q78.59912109375 143.22503662109375 78.59912109375 211.5499267578125V338.4500732421875Q78.59912109375 407.5499267578125 105.77423095703125 456.6624450683594Q132.9493408203125 505.77496337890625 182.68704223632812 532.1125183105469Q232.42474365234375 558.4500732421875 300 558.4500732421875Q368.57525634765625 558.4500732421875 417.8129577636719 532.1125183105469Q467.0506591796875 505.77496337890625 494.22576904296875 456.6624450683594Q521.40087890625 407.5499267578125 521.40087890625 338.4500732421875V211.5499267578125Q521.40087890625 143.22503662109375 494.22576904296875 93.72503662109375Q467.0506591796875 44.22503662109375 417.42547607421875 17.887481689453125Q367.80029296875 -8.4500732421875 300 -8.4500732421875ZM300 82.8017578125Q355.62445068359375 82.8017578125 386.7615661621094 113.66390991210938Q417.898681640625 144.52606201171875 417.898681640625 203.80029296875V346.19970703125Q417.898681640625 405.698974609375 386.7615661621094 436.4486083984375Q355.62445068359375 467.1982421875 300 467.1982421875Q245.37554931640625 467.1982421875 213.73843383789062 436.4486083984375Q182.101318359375 405.698974609375 182.101318359375 346.19970703125V203.80029296875Q182.101318359375 144.52606201171875 213.73843383789062 113.66390991210938Q245.37554931640625 82.8017578125 300 82.8017578125Z"/><path transform="translate(6000,0)" d="M106.1490478515625 0V550H208.52606201171875V442.7496337890625H233.1519775390625L207.40087890625 416.27423095703125Q207.40087890625 482.52459716796875 247.68850708007812 521.2622985839844Q287.97613525390625 560 358.6512451171875 560Q443.97613525390625 560 490.5886535644531 507.4873352050781Q537.201171875 454.97467041015625 537.201171875 359.299560546875V310.499267578125H433.698974609375V357.0491943359375Q433.698974609375 413.99853515625 405.27423095703125 442.1483154296875Q376.8494873046875 470.298095703125 323.22503662109375 470.298095703125Q268.0506591796875 470.298095703125 238.8509521484375 437.9858703613281Q209.6512451171875 405.67364501953125 209.6512451171875 345.0491943359375V0Z"/><path transform="translate(6600,0)" d="M140 283.2489013671875V376.7510986328125H460V283.2489013671875Z"/><path transform="translate(7200,0)" d="M157.3994140625 -180V-89.4486083984375H312.3994140625Q358.27423095703125 -89.4486083984375 384.2615661621094 -64.18630981445312Q410.2489013671875 -38.92401123046875 410.2489013671875 4.27569580078125V47.7496337890625L412.2489013671875 145.62591552734375H390.42327880859375L415.97467041015625 179.62738037109375Q415.97467041015625 112.201171875 374.9620056152344 74.200439453125Q333.9493408203125 36.19970703125 264.698974609375 36.19970703125Q180.1490478515625 36.19970703125 130.92401123046875 91.099853515625Q81.698974609375 146 81.698974609375 241.12518310546875V353.52459716796875Q81.698974609375 448.42474365234375 130.92401123046875 504.2123718261719Q180.1490478515625 560 264.698974609375 560Q333.9493408203125 560 374.9620056152344 520.8368225097656Q415.97467041015625 481.67364501953125 415.97467041015625 414.2474365234375L390.42327880859375 455H411.47393798828125V550H513.0759887695312V3.1505126953125Q513.0759887695312 -81.42474365234375 459.32562255859375 -130.71237182617188Q405.57525634765625 -180 312.7496337890625 -180ZM297.77496337890625 123.57672119140625Q350.3994140625 123.57672119140625 380.37408447265625 155.98880004882812Q410.3487548828125 188.40087890625 410.3487548828125 246.12518310546875V347.7496337890625Q410.3487548828125 405.47393798828125 380.37408447265625 437.8860168457031Q350.3994140625 470.298095703125 297.77496337890625 470.298095703125Q244.1505126953125 470.298095703125 214.67584228515625 439.4359436035156Q185.201171875 408.57379150390625 185.201171875 355.499267578125V238.37554931640625Q185.201171875 185.301025390625 214.67584228515625 154.43887329101562Q244.1505126953125 123.57672119140625 297.77496337890625 123.57672119140625Z"/><path transform="translate(7800,0)" d="M106.1490478515625 0V550H208.52606201171875V442.7496337890625H233.1519775390625L207.40087890625 416.27423095703125Q207.40087890625 482.52459716796875 247.68850708007812 521.2622985839844Q287.97613525390625 560 358.6512451171875 560Q443.97613525390625 560 490.5886535644531 507.4873352050781Q537.201171875 454.97467041015625 537.201171875 359.299560546875V310.499267578125H433.698974609375V357.0491943359375Q433.698974609375 413.99853515625 405.27423095703125 442.1483154296875Q376.8494873046875 470.298095703125 323.22503662109375 470.298095703125Q268.0506591796875 470.298095703125 238.8509521484375 437.9858703613281Q209.6512451171875 405.67364501953125 209.6512451171875 345.0491943359375V0Z"/><path transform="translate(8400,0)" d="M246.82415771484375 -10Q162.499267578125 -10 112.9493408203125 37.5Q63.3994140625 85 63.3994140625 162Q63.3994140625 214.12518310546875 87.18704223632812 252.57525634765625Q110.97467041015625 291.02532958984375 154.11251831054688 312.52532958984375Q197.2503662109375 334.02532958984375 254.301025390625 334.02532958984375H410.3487548828125V375.22503662109375Q410.3487548828125 424.0491943359375 383.0365295410156 448.52386474609375Q355.72430419921875 472.99853515625 301 472.99853515625Q252.1505126953125 472.99853515625 222.28836059570312 454.898681640625Q192.42620849609375 436.798828125 190.42620849609375 403.92401123046875H88.72430419921875Q93.27423095703125 472.52459716796875 150.01193237304688 516.2622985839844Q206.7496337890625 560 301.4500732421875 560Q403.47540283203125 560 458.6631774902344 511.5499267578125Q513.8509521484375 463.099853515625 513.8509521484375 376.19970703125V0H412.2489013671875V102.02532958984375H395.22357177734375L412.1490478515625 121.12518310546875Q412.1490478515625 80.900146484375 392.1490478515625 51.562591552734375Q372.1490478515625 22.22503662109375 335.2615661621094 6.112518310546875Q298.37408447265625 -10 246.82415771484375 -10ZM275.80029296875 75.901611328125Q337.52459716796875 75.901611328125 373.9366760253906 105.98880004882812Q410.3487548828125 136.07598876953125 410.3487548828125 187.2503662109375V259.52459716796875H262.72576904296875Q219.62591552734375 259.52459716796875 193.47613525390625 234.599853515625Q167.32635498046875 209.67510986328125 167.32635498046875 168.6005859375Q167.32635498046875 125.97613525390625 196.02606201171875 100.93887329101562Q224.72576904296875 75.901611328125 275.80029296875 75.901611328125Z"/><path transform="translate(9000,0)" d="M86.1490478515625 -180V550H188.52606201171875V442.7496337890625H210.3516845703125L185.37554931640625 409.59765625Q185.37554931640625 479.12371826171875 227.16317749023438 519.5618591308594Q268.9508056640625 560 338.7510986328125 560Q393.301025390625 560 433.6885070800781 534.8248901367188Q474.07598876953125 509.6497802734375 496.57598876953125 463.19970703125Q519.0759887695312 416.7496337890625 519.0759887695312 353.52459716796875V197.2503662109375Q519.0759887695312 134.2503662109375 496.9634704589844 87.68777465820312Q474.8509521484375 41.12518310546875 434.4634704589844 15.562591552734375Q394.07598876953125 -10 338.7510986328125 -10Q269.72576904296875 -10 227.5506591796875 30.82562255859375Q185.37554931640625 71.6512451171875 185.37554931640625 140.40234375L210.3516845703125 107.02532958984375H186.97613525390625L189.6512451171875 -22.2503662109375V-180ZM302.4500732421875 79.701904296875Q355.8494873046875 79.701904296875 385.7116394042969 108.23916625976562Q415.57379150390625 136.77642822265625 415.57379150390625 198.37554931640625V351.62445068359375Q415.57379150390625 414.22357177734375 385.7116394042969 442.2608337402344Q355.8494873046875 470.298095703125 302.4500732421875 470.298095703125Q250.1505126953125 470.298095703125 219.90087890625 437.6609802246094Q189.6512451171875 405.02386474609375 189.6512451171875 346.62445068359375V203.37554931640625Q189.6512451171875 144.97613525390625 219.90087890625 112.33901977539062Q250.1505126953125 79.701904296875 302.4500732421875 79.701904296875Z"/><path transform="translate(9600,0)" d="M86.1490478515625 0V730H189.6512451171875V550L188.52606201171875 445H213.1519775390625L187.40087890625 420.8494873046875Q187.62591552734375 486.299560546875 227.41354370117188 523.1497802734375Q267.201171875 560 335.7510986328125 560Q418.07598876953125 560 466.9634704589844 507.87481689453125Q515.8509521484375 455.7496337890625 515.8509521484375 366.62445068359375V0H412.3487548828125V351.62445068359375Q412.3487548828125 409.3487548828125 382.87408447265625 440.598388671875Q353.3994140625 471.8480224609375 302.5499267578125 471.8480224609375Q250.1505126953125 471.8480224609375 219.90087890625 439.4359436035156Q189.6512451171875 407.02386474609375 189.6512451171875 347.7496337890625V0Z"/><path transform="translate(10200,0)" d="M277.77496337890625 -8.4500732421875Q215.19970703125 -8.4500732421875 170.01193237304688 10.72503662109375Q124.82415771484375 29.900146484375 100.97393798828125 65.96273803710938Q77.12371826171875 102.02532958984375 77.12371826171875 153.02532958984375H179.9508056640625Q179.9508056640625 117.27569580078125 205.6005859375 97.46347045898438Q231.2503662109375 77.6512451171875 277.77496337890625 77.6512451171875H321.77496337890625Q369.7496337890625 77.6512451171875 396.12445068359375 97.8509521484375Q422.499267578125 118.0506591796875 422.499267578125 154.900146484375Q422.499267578125 188.42474365234375 406.0491943359375 206.51193237304688Q389.59912109375 224.59912109375 355.698974609375 228.59912109375L209.5499267578125 249.02386474609375Q149.72430419921875 257.2489013671875 116.92401123046875 297.32415771484375Q84.12371826171875 337.3994140625 84.12371826171875 401.52459716796875Q84.12371826171875 476 134.63638305664062 517.2250366210938Q185.1490478515625 558.4500732421875 276.42474365234375 558.4500732421875H321.099853515625Q405.82562255859375 558.4500732421875 458.4634704589844 517.9374084472656Q511.101318359375 477.42474365234375 514.201171875 411.17437744140625H410.59912109375Q409.0491943359375 439.0491943359375 384.8994140625 456.698974609375Q360.7496337890625 474.3487548828125 321.099853515625 474.3487548828125H276.42474365234375Q232.900146484375 474.3487548828125 208.700439453125 455.1490478515625Q184.500732421875 435.9493408203125 184.500732421875 402.87481689453125Q184.500732421875 376 198.90087890625 361.02532958984375Q213.301025390625 346.0506591796875 240.6512451171875 342.0506591796875L377.700439453125 323.17584228515625Q450.17584228515625 313.17584228515625 486.52606201171875 270.82562255859375Q522.8762817382812 228.47540283203125 522.8762817382812 155.3502197265625Q522.8762817382812 77.4500732421875 470.6885070800781 34.5Q418.500732421875 -8.4500732421875 321.77496337890625 -8.4500732421875Z"/></g></svg>
