<svg xmlns="http://www.w3.org/2000/svg" viewBox="0 0 400 90" role="img" aria-label="DeckCal">
  <g transform="translate(8 11) scale(3.4)">
    <rect x="3" y="4" width="14" height="13" rx="1.5" ry="1.5" fill="none" stroke="#1f2328" stroke-width="1.4"/>
    <line x1="3" y1="8" x2="17" y2="8" stroke="#1f2328" stroke-width="1.4"/>
    <rect x="6" y="2.5" width="1.2" height="3" fill="#1f2328"/>
    <rect x="12.8" y="2.5" width="1.2" height="3" fill="#1f2328"/>
    <path d="M6 12.2 L10.5 12.2 L10.5 10.5 L13.5 12.8 L10.5 15 L10.5 13.4 L6 13.4 Z" fill="#FFC107"/>
  </g>
  <g transform="translate(86 68)"><g fill="#1f2328" data-text="DeckCal" data-advance="244.480"><path d="M333.401123046875 708Q524.8018798828125 708 617.6022338867188 618.5Q710.402587890625 529 710.402587890625 362Q710.402587890625 253 664.9024047851562 171.5Q619.4022216796875 90 533.0018920898438 45.0Q446.6015625 0 324.401123046875 0Q309.0010986328125 0 283.40106201171875 1.0Q257.801025390625 2 230.30096435546875 2.5Q202.8009033203125 3 180.40087890625 3Q139.4005126953125 3 100.00018310546875 2.5Q60.599853515625 2 36.399658203125 0V20Q69.1995849609375 22 85.69952392578125 28.0Q102.199462890625 34 107.7994384765625 52.0Q113.3994140625 70 113.3994140625 106V602Q113.3994140625 639 107.7994384765625 656.5Q102.199462890625 674 85.49951171875 680.5Q68.799560546875 687 36.399658203125 688V708Q60.599853515625 707 100.00018310546875 705.5Q139.4005126953125 704 178.40087890625 705Q214.200927734375 706 259.20098876953125 707.0Q304.2010498046875 708 333.401123046875 708ZM324.402099609375 690Q278.402099609375 690 264.402099609375 673.0Q250.402099609375 656 250.402099609375 604V104Q250.402099609375 52 264.902099609375 35.0Q279.402099609375 18 325.402099609375 18Q418.0010986328125 18 470.400634765625 57.5Q522.8001708984375 97 544.6000366210938 173.0Q566.39990234375 249 566.39990234375 358Q566.39990234375 470 542.7000732421875 543.5Q519.000244140625 617 466.1007080078125 653.5Q413.201171875 690 324.402099609375 690Z" transform="translate(0.000 0.000) scale(0.064000 -0.064000)"/><path d="M278.400390625 530.60009765625Q366.400390625 530.60009765625 416.3004150390625 477.900146484375Q466.200439453125 425.2001953125 466.200439453125 309H129.201416015625L127.8013916015625 328H350.19921875Q351.7991943359375 377 343.79931640625 418.5Q335.7994384765625 460 318.49969482421875 485.0Q301.199951171875 510 273.2003173828125 510Q234.80078125 510 206.70123291015625 465.40008544921875Q178.6016845703125 420.8001708984375 172.4017333984375 319.60009765625L175.8017578125 314Q174.2017822265625 301.0001220703125 173.601806640625 286.2003173828125Q173.0018310546875 271.4005126953125 173.0018310546875 256.20068359375Q173.0018310546875 187.400634765625 193.20172119140625 142.40087890625Q213.401611328125 97.401123046875 245.3013916015625 76.10137939453125Q277.201171875 54.8016357421875 310.8009033203125 54.8016357421875Q334.4005126953125 54.8016357421875 358.40032958984375 62.10150146484375Q382.400146484375 69.4013671875 405.400146484375 88.40118408203125Q428.400146484375 107.4010009765625 447.4002685546875 141.600830078125L466.2001953125 134.40087890625Q454.8001708984375 98.6007080078125 429.20013427734375 64.20050048828125Q403.60009765625 29.80029296875 364.0 7.900146484375Q324.39990234375 -14 270.399658203125 -14Q201.599853515625 -14 149.6998291015625 16.1998291015625Q97.7998046875 46.399658203125 68.89971923828125 105.49969482421875Q39.9996337890625 164.5997314453125 39.9996337890625 250.600341796875Q39.9996337890625 341.800537109375 70.3997802734375 404.1004638671875Q100.7999267578125 466.400390625 154.80010986328125 498.500244140625Q208.80029296875 530.60009765625 278.400390625 530.60009765625Z" transform="translate(48.512 0.000) scale(0.064000 -0.064000)"/><path d="M282.2001953125 530.60009765625Q319.00048828125 530.60009765625 350.6005859375 522.2000732421875Q382.20068359375 513.800048828125 404.6005859375 499.400146484375Q429.20068359375 484.0001220703125 443.00079345703125 461.699951171875Q456.8009033203125 439.3997802734375 456.8009033203125 411.5994873046875Q456.8009033203125 378.9991455078125 437.0006103515625 359.09881591796875Q417.2003173828125 339.198486328125 386.599853515625 339.198486328125Q355.79931640625 339.198486328125 336.29913330078125 356.998779296875Q316.7989501953125 374.799072265625 316.7989501953125 405.199462890625Q316.7989501953125 434.1998291015625 334.0992431640625 453.20013427734375Q351.3995361328125 472.200439453125 374.7999267578125 478.2005615234375Q366 491.000244140625 346.900390625 499.60003662109375Q327.80078125 508.1998291015625 304.8011474609375 508.1998291015625Q275.40087890625 508.1998291015625 251.40093994140625 492.39959716796875Q227.4010009765625 476.599365234375 209.80120849609375 446.09918212890625Q192.201416015625 415.5989990234375 182.401611328125 371.09918212890625Q172.601806640625 326.599365234375 172.601806640625 268.8001708984375Q172.601806640625 188.0006103515625 192.2017822265625 141.200927734375Q211.8017578125 94.4012451171875 242.90167236328125 74.90142822265625Q274.0015869140625 55.401611328125 309.0013427734375 55.401611328125Q330.2010498046875 55.401611328125 354.20086669921875 63.00146484375Q378.20068359375 70.601318359375 401.8006591796875 89.901123046875Q425.400634765625 109.200927734375 444.4007568359375 144.000732421875L462.6007080078125 137.4007568359375Q451.8006591796875 102.2005615234375 427.40057373046875 66.900390625Q403.00048828125 31.6002197265625 364.0003662109375 8.80010986328125Q325.000244140625 -14 268.60009765625 -14Q204.5999755859375 -14 152.79986572265625 15.599853515625Q100.999755859375 45.19970703125 70.2996826171875 104.89971923828125Q39.599609375 164.5997314453125 39.599609375 254.2001953125Q39.599609375 341.800537109375 70.89971923828125 403.50048828125Q102.1998291015625 465.200439453125 157.39996337890625 497.9002685546875Q212.60009765625 530.60009765625 282.2001953125 530.60009765625Z" transform="translate(80.832 0.000) scale(0.064000 -0.064000)"/><path d="M213.20166015625 783.199951171875V93Q213.20166015625 51 227.20159912109375 36.0Q241.2015380859375 21 275.201416015625 21V0Q257.601318359375 1 222.70111083984375 2.5Q187.8009033203125 4 151.8006591796875 4Q114.6004638671875 4 76.4002685546875 2.5Q38.2000732421875 1 19.199951171875 0V21Q56.19970703125 21 71.6995849609375 36.0Q87.199462890625 51 87.199462890625 93V663.199951171875Q87.199462890625 708.199951171875 72.799560546875 729.699951171875Q58.399658203125 751.199951171875 19.199951171875 751.199951171875V772.199951171875Q51.199951171875 769.199951171875 81.199951171875 769.199951171875Q118.6004638671875 769.199951171875 151.90087890625 772.699951171875Q185.2012939453125 776.199951171875 213.20166015625 783.199951171875ZM536.802001953125 516.60009765625V496.60009765625Q507.4017333984375 491.39990234375 479.4013671875 474.49957275390625Q451.4010009765625 457.5992431640625 423.6005859375 429.1988525390625L325.003173828125 326.401611328125L336.2030029296875 348.4012451171875L512.202392578125 73Q525.6021728515625 53.2001953125 538.5020141601562 39.60015869140625Q551.40185546875 26.0001220703125 570.20166015625 21V0Q556.801513671875 1 528.9012451171875 2.5Q501.0009765625 4 473.20068359375 4Q438.6004638671875 4 403.20025634765625 2.5Q367.800048828125 1 350.199951171875 0V21Q370.199951171875 21 377.59991455078125 30.5999755859375Q384.9998779296875 40.199951171875 375.199951171875 55L271.0006103515625 230.200439453125Q256.8009033203125 252.0001220703125 243.90106201171875 258.4000244140625Q231.001220703125 264.7999267578125 208.8016357421875 265.39990234375V284.9998779296875Q233.6011962890625 287.3997802734375 250.4010009765625 294.099609375Q267.2008056640625 300.7994384765625 282.0006103515625 316.19921875L357.20068359375 391.1990966796875Q390.4007568359375 423.799072265625 390.60076904296875 446.8992919921875Q390.80078125 469.99951171875 369.500732421875 482.69976806640625Q348.20068359375 495.4000244140625 314.0006103515625 496.60009765625V516.60009765625Q341.20068359375 515.60009765625 374.1007080078125 514.3001098632812Q407.000732421875 513.0001220703125 429.80078125 513.0001220703125Q448.40087890625 513.0001220703125 468.8011474609375 513.5001220703125Q489.201416015625 514.0001220703125 507.40167236328125 514.8001098632812Q525.6019287109375 515.60009765625 536.802001953125 516.60009765625Z" transform="translate(112.384 0.000) scale(0.064000 -0.064000)"/><path d="M388.2010498046875 722Q454.2010498046875 722 496.7010498046875 702.5Q539.2010498046875 683 572.2010498046875 657Q592.2010498046875 642 602.7010498046875 653.5Q613.2010498046875 665 617.2010498046875 708H640.2010498046875Q638.2010498046875 669.7999267578125 637.2010498046875 614.9998168945312Q636.2010498046875 560.19970703125 636.2010498046875 469.99951171875H613.2010498046875Q607.401123046875 514.9996337890625 600.2010498046875 545.2999267578125Q593.0009765625 575.6002197265625 580.7007446289062 598.00048828125Q568.4005126953125 620.4007568359375 546.4000244140625 640.0008544921875Q519.4002685546875 670.2001953125 481.80084228515625 684.4999389648438Q444.201416015625 698.7996826171875 403.0020751953125 698.7996826171875Q350.8018798828125 698.7996826171875 312.30194091796875 671.49951171875Q273.802001953125 644.1993408203125 248.502197265625 596.3992309570312Q223.202392578125 548.59912109375 210.70257568359375 485.79925537109375Q198.2027587890625 422.9993896484375 198.2027587890625 352Q198.2027587890625 279.20068359375 211.6025390625 216.7008056640625Q225.0023193359375 154.200927734375 251.5020751953125 107.60076904296875Q278.0018310546875 61.0006103515625 317.70172119140625 34.900390625Q357.401611328125 8.8001708984375 409.0018310546875 8.8001708984375Q446.0013427734375 8.8001708984375 484.80072021484375 22.99993896484375Q523.60009765625 37.19970703125 548.7999267578125 66.3990478515625Q582.0006103515625 96.1990966796875 594.100830078125 137.3995361328125Q606.2010498046875 178.5999755859375 613.2010498046875 248.00048828125H636.2010498046875Q636.2010498046875 154.2003173828125 637.2010498046875 96.7001953125Q638.2010498046875 39.2000732421875 640.2010498046875 0H617.2010498046875Q613.2010498046875 43 603.7010498046875 54.0Q594.2010498046875 65 572.2010498046875 51Q535.2010498046875 25 493.7010498046875 5.5Q452.2010498046875 -14 387.2010498046875 -14Q285.0006103515625 -14 208.10028076171875 29.0Q131.199951171875 72 88.69976806640625 153.0Q46.1995849609375 234 46.1995849609375 348Q46.1995849609375 460 90.19976806640625 544.0Q134.199951171875 628 211.10028076171875 675.0Q288.0006103515625 722 388.2010498046875 722Z" transform="translate(147.584 0.000) scale(0.064000 -0.064000)"/><path d="M164.9996337890625 -7Q121.5994873046875 -7 91.5994873046875 9.50006103515625Q61.5994873046875 26.0001220703125 46.8995361328125 54.400146484375Q32.1995849609375 82.8001708984375 32.1995849609375 117.800048828125Q32.1995849609375 161 52.09954833984375 188.39996337890625Q71.99951171875 215.7999267578125 103.39947509765625 232.59991455078125Q134.7994384765625 249.39990234375 169.69940185546875 260.69989013671875Q204.599365234375 271.9998779296875 235.99932861328125 282.4998779296875Q267.3992919921875 292.9998779296875 287.29925537109375 307.19989013671875Q307.19921875 321.39990234375 307.19921875 344.39990234375V417.2005615234375Q307.19921875 448.7999267578125 297.4993896484375 469.599853515625Q287.799560546875 490.3997802734375 269.19970703125 500.49993896484375Q250.599853515625 510.60009765625 222.999755859375 510.60009765625Q201.5999755859375 510.60009765625 178.7003173828125 504.60015869140625Q155.8006591796875 498.6002197265625 141.2008056640625 482.2005615234375Q166.6011962890625 474.600341796875 181.4012451171875 455.60015869140625Q196.2012939453125 436.5999755859375 196.2012939453125 410.39990234375Q196.2012939453125 379.3995361328125 175.4010009765625 361.49932861328125Q154.6007080078125 343.59912109375 124.400390625 343.59912109375Q91.0001220703125 343.59912109375 74.09991455078125 364.69927978515625Q57.19970703125 385.7994384765625 57.19970703125 414.3997802734375Q57.19970703125 442.39990234375 71.19976806640625 460.60003662109375Q85.1998291015625 478.8001708984375 109.60009765625 494.4002685546875Q135.4002685546875 510.80029296875 174.10040283203125 520.7001953125Q212.800537109375 530.60009765625 258.800537109375 530.60009765625Q303.000732421875 530.60009765625 337.2010498046875 521.10009765625Q371.4013671875 511.60009765625 394.8016357421875 488.3997802734375Q418.801513671875 465.1998291015625 426.00146484375 431.29986572265625Q433.201416015625 397.39990234375 433.201416015625 347.7998046875V73.800048828125Q433.201416015625 48.800048828125 439.101318359375 38.60009765625Q445.001220703125 28.400146484375 458.2010498046875 28.400146484375Q468.0009765625 28.400146484375 477.00091552734375 33.400146484375Q486.0008544921875 38.400146484375 497.20068359375 47L507.8006591796875 30Q486.400634765625 12.7999267578125 462.00030517578125 2.89996337890625Q437.5999755859375 -7 403.9998779296875 -7Q369.3995361328125 -7 348.59942626953125 3.20001220703125Q327.79931640625 13.4000244140625 318.29931640625 32.0999755859375Q308.79931640625 50.7999267578125 308.3992919921875 76.7996826171875Q283.7994384765625 36.5999755859375 248.6995849609375 14.79998779296875Q213.5997314453125 -7 164.9996337890625 -7ZM224.60107421875 49.0009765625Q248.800537109375 49.0009765625 269.300048828125 61.80059814453125Q289.799560546875 74.6002197265625 307.19921875 101.3995361328125V303.39990234375Q297.1993408203125 288 278.79962158203125 276.0999755859375Q260.39990234375 264.199951171875 239.4002685546875 252.09991455078125Q218.400634765625 239.9998779296875 199.5009765625 224.69989013671875Q180.601318359375 209.39990234375 168.40155029296875 186.60003662109375Q156.2017822265625 163.8001708984375 156.2017822265625 129.4005126953125Q156.2017822265625 90.2005615234375 174.901611328125 69.60076904296875Q193.6014404296875 49.0009765625 224.60107421875 49.0009765625Z" transform="translate(192.384 0.000) scale(0.064000 -0.064000)"/><path d="M214.401611328125 783.199951171875V92.9537161834969Q214.401611328125 51 229.9014892578125 36.0Q245.4013671875 21 282.401123046875 21V0Q264.2940787381904 1 227.5474299940952 2.5Q190.80078125 4 153.0006103515625 4Q115.86195725661058 4 77.63099083533655 2.5Q39.4000244140625 1 20.39990234375 0V21Q57.399658203125 21 72.8995361328125 35.982557074968206Q88.3994140625 50.96511414993641 88.3994140625 92.91627395984739V663.2522799469704Q88.3994140625 708.199951171875 74.08372738486842 729.699951171875Q59.76804070723684 751.199951171875 20.39990234375 751.199951171875V772.199951171875Q52.39990234375 769.199951171875 82.39990234375 769.199951171875Q119.8004150390625 769.199951171875 153.100830078125 772.699951171875Q186.4012451171875 776.199951171875 214.401611328125 783.199951171875Z" transform="translate(225.088 0.000) scale(0.064000 -0.064000)"/></g></g>
</svg>
