<svg xmlns="http://www.w3.org/2000/svg" viewBox="-16 -16 854.08 172" width="854.08" height="172"><svg x="0" y="0" width="140" height="140" viewBox="0 0 160 160" overflow="visible"><rect width="160" height="160" rx="36" fill="#4F78DB"></rect><g transform="translate(-14.4,-15.12) scale(1.18)"><rect x="22" y="67" width="116" height="34" rx="17" fill="#fff" opacity=".16"></rect><circle cx="45" cy="52" r="11" fill="none" stroke="#fff" stroke-width="5" opacity=".8"></circle><rect x="66" y="45.5" width="58" height="13" rx="6.5" fill="#fff" opacity=".42"></rect><circle cx="45" cy="84" r="13.5" fill="#fff"></circle><circle cx="45" cy="84" r="6" fill="#4F78DB"></circle><rect x="66" y="77.5" width="58" height="13" rx="6.5" fill="#fff"></rect><circle cx="45" cy="116" r="11" fill="none" stroke="#fff" stroke-width="5" opacity=".8"></circle><rect x="66" y="109.5" width="58" height="13" rx="6.5" fill="#fff" opacity=".42"></rect></g><circle cx="117.5" cy="117.5" r="42.12" fill="#4F78DB"></circle><circle cx="117.5" cy="117.5" r="32.76" fill="#fff"></circle><g transform="translate(81.92,81.92) scale(0.139)" fill="#4F78DB"><path d="M406.3 316.6l-67.9 33.9l-19.4-9.7l-49.1-73.6l58.8 88.2l-67.8 33.9l-155.2-77.6V156.6l67.9-33.9l66.3 99.5l98.5-65.6l67.9-33.9z"></path><path fill="#fff" opacity=".5" d="M173.6 122.7l155.1 232.7l-67.8 33.9l-155.2-232.7zm164.8 33.9v193.9l67.9-33.9V122.7z"></path></g></svg><g transform="translate(190,96.68)"><path d="M8.25 0L8.25 -52.28L17.36 -52.28L17.36 -29.78L16.3 -29.78Q16.3 -37.54 18.28 -42.87Q20.27 -48.21 24.3 -51.02Q28.32 -53.83 34.34 -53.83L34.82 -53.83Q40.93 -53.83 44.96 -51.02Q48.99 -48.21 50.97 -42.87Q52.96 -37.54 52.96 -29.78L49.86 -29.78Q49.86 -37.54 51.9 -42.87Q53.93 -48.21 58.01 -51.02Q62.08 -53.83 68.09 -53.83L68.58 -53.83Q74.69 -53.83 78.76 -51.02Q82.84 -48.21 84.88 -42.87Q86.91 -37.54 86.91 -29.78L86.91 0L75.47 0L75.47 -31.43Q75.47 -37.05 72.65 -40.26Q69.84 -43.46 64.8 -43.46Q59.56 -43.46 56.45 -40.11Q53.35 -36.76 53.35 -30.94L53.35 0L41.9 0L41.9 -31.43Q41.9 -37.05 39.09 -40.26Q36.28 -43.46 31.23 -43.46Q26 -43.46 22.84 -40.11Q19.69 -36.76 19.69 -30.94L19.69 0Z M136.96 0L118.44 -24.35L110.29 -24.35L133.28 -52.28L145.31 -52.28L124.16 -26.77L124.65 -32.69L150.06 0ZM100.69 0L100.69 -70.81L112.13 -70.81L112.13 0Z M176.73 1.75Q171.21 1.75 166.55 -0.29Q161.89 -2.33 158.5 -6.01Q155.1 -9.7 153.21 -14.55Q151.32 -19.4 151.32 -25.12L151.32 -26.97Q151.32 -32.59 153.16 -37.49Q155.01 -42.39 158.3 -46.07Q161.6 -49.76 166.21 -51.85Q170.82 -53.93 176.44 -53.93Q182.46 -53.93 187.26 -51.36Q192.06 -48.79 195.02 -43.5Q197.98 -38.22 198.27 -30.07L194.39 -35.4L194.39 -70.81L205.74 -70.81L205.74 0L196.72 0L196.72 -22.7L199.24 -22.7Q198.95 -14.26 195.79 -8.83Q192.64 -3.39 187.7 -0.82Q182.75 1.75 176.73 1.75ZM178.97 -8.05Q183.23 -8.05 186.82 -9.99Q190.41 -11.93 192.59 -15.67Q194.78 -19.4 194.78 -24.44L194.78 -28.61Q194.78 -33.56 192.55 -37.01Q190.31 -40.45 186.73 -42.29Q183.14 -44.13 178.87 -44.13Q174.12 -44.13 170.48 -41.9Q166.84 -39.67 164.8 -35.6Q162.77 -31.52 162.77 -26.09Q162.77 -20.56 164.85 -16.49Q166.94 -12.42 170.62 -10.23Q174.31 -8.05 178.97 -8.05Z M245 1.84Q238.11 1.84 232.87 -0.44Q227.63 -2.72 224 -6.55Q220.36 -10.38 218.52 -15.18Q216.67 -19.98 216.67 -25.12L216.67 -27.06Q216.67 -32.2 218.61 -37.05Q220.55 -41.9 224.19 -45.74Q227.83 -49.57 233.07 -51.8Q238.3 -54.03 245 -54.03Q251.69 -54.03 256.88 -51.8Q262.07 -49.57 265.76 -45.74Q269.44 -41.9 271.33 -37.05Q273.22 -32.2 273.22 -27.06L273.22 -25.12Q273.22 -19.98 271.38 -15.18Q269.54 -10.38 265.95 -6.55Q262.36 -2.72 257.12 -0.44Q251.88 1.84 245 1.84ZM245 -8.15Q250.33 -8.15 254.12 -10.52Q257.9 -12.9 259.84 -16.98Q261.78 -21.05 261.78 -26.09Q261.78 -31.23 259.79 -35.31Q257.8 -39.38 254.02 -41.71Q250.24 -44.04 245 -44.04Q239.76 -44.04 235.98 -41.71Q232.19 -39.38 230.16 -35.31Q228.12 -31.23 228.12 -26.09Q228.12 -21.05 230.11 -16.98Q232.1 -12.9 235.88 -10.52Q239.66 -8.15 245 -8.15Z M306.93 1.84Q300.14 1.84 295.2 -0.48Q290.25 -2.81 287 -6.74Q283.75 -10.67 282.1 -15.47Q280.45 -20.27 280.45 -25.22L280.45 -26.97Q280.45 -32.11 282.1 -36.91Q283.75 -41.71 287.1 -45.59Q290.44 -49.47 295.34 -51.75Q300.24 -54.03 306.84 -54.03Q313.53 -54.03 318.81 -51.51Q324.1 -48.98 327.3 -44.38Q330.5 -39.77 330.89 -33.56L319.93 -33.56Q319.35 -38.02 315.95 -41.03Q312.56 -44.04 306.84 -44.04Q301.79 -44.04 298.49 -41.71Q295.2 -39.38 293.55 -35.31Q291.9 -31.23 291.9 -26.09Q291.9 -21.05 293.5 -16.98Q295.1 -12.9 298.44 -10.57Q301.79 -8.25 306.93 -8.25Q310.91 -8.25 313.77 -9.65Q316.63 -11.06 318.33 -13.43Q320.03 -15.81 320.42 -18.91L331.47 -18.91Q331.18 -12.61 327.88 -8Q324.59 -3.39 319.15 -0.78Q313.72 1.84 306.93 1.84Z M359.29 1.65Q348.72 1.65 342.85 -2.86Q336.98 -7.37 336.69 -15.23L347.16 -15.23Q347.36 -12.32 350.17 -9.89Q352.98 -7.47 359.39 -7.47Q364.82 -7.47 367.92 -9.6Q371.03 -11.74 371.03 -14.94Q371.03 -17.85 368.7 -19.55Q366.37 -21.24 361.03 -21.73L355.89 -22.31Q347.84 -23.18 343.14 -27.01Q338.43 -30.85 338.43 -37.54Q338.43 -42.78 341.05 -46.37Q343.67 -49.95 348.28 -51.89Q352.89 -53.83 358.9 -53.83Q368.21 -53.83 373.94 -49.71Q379.66 -45.59 379.85 -37.64L369.38 -37.64Q369.28 -40.55 366.61 -42.63Q363.94 -44.72 358.9 -44.72Q354.05 -44.72 351.48 -42.78Q348.91 -40.84 348.91 -37.83Q348.91 -35.11 350.85 -33.56Q352.79 -32.01 357.15 -31.52L362.3 -31.04Q371.12 -30.07 376.31 -26.14Q381.5 -22.21 381.5 -15.23Q381.5 -10.18 378.69 -6.4Q375.88 -2.62 370.88 -0.48Q365.88 1.65 359.29 1.65Z M389.21 -22.21L389.21 -32.11L426.95 -32.11L426.95 -22.21Z " fill="#4F78DB"></path><path d="M478.31 19.4L478.31 -15.52L482.09 -22.31Q481.9 -14.26 478.94 -8.92Q475.98 -3.59 471.13 -0.92Q466.28 1.75 460.27 1.75Q454.74 1.75 450.13 -0.39Q445.52 -2.52 442.22 -6.26Q438.93 -9.99 437.13 -14.89Q435.34 -19.79 435.34 -25.41L435.34 -27.26Q435.34 -32.88 437.13 -37.68Q438.93 -42.49 442.32 -46.17Q445.72 -49.86 450.37 -51.89Q455.03 -53.93 460.65 -53.93Q467.25 -53.93 472.2 -51.12Q477.14 -48.31 480 -42.92Q482.87 -37.54 483.06 -29.88L480.64 -29.88L480.64 -52.28L489.66 -52.28L489.66 19.4ZM462.88 -8.34Q467.25 -8.34 470.79 -10.28Q474.33 -12.22 476.51 -15.96Q478.7 -19.69 478.7 -24.73L478.7 -28.91Q478.7 -33.85 476.46 -37.34Q474.23 -40.84 470.64 -42.68Q467.06 -44.52 462.88 -44.52Q458.03 -44.52 454.4 -42.24Q450.76 -39.96 448.72 -35.84Q446.69 -31.72 446.69 -26.29Q446.69 -20.95 448.77 -16.88Q450.86 -12.8 454.49 -10.57Q458.13 -8.34 462.88 -8.34Z M522.22 1.65Q513.11 1.65 508.11 -4.36Q503.11 -10.38 503.11 -22.02L503.11 -52.28L514.56 -52.28L514.56 -20.47Q514.56 -15.03 517.57 -11.88Q520.57 -8.73 525.72 -8.73Q530.95 -8.73 534.25 -12.08Q537.55 -15.42 537.55 -21.24L537.55 -52.28L549 -52.28L549 0L539.97 0L539.97 -22.31L541.04 -22.31Q541.04 -14.45 539 -9.17Q536.97 -3.88 532.94 -1.12Q528.92 1.65 522.71 1.65Z M566.41 0L566.41 -52.28L577.76 -52.28L577.76 0ZM558.74 -43.55L558.74 -52.28L577.76 -52.28L577.76 -43.55ZM570.09 -59.56Q566.6 -59.56 564.9 -61.4Q563.21 -63.24 563.21 -66.15Q563.21 -68.97 564.9 -70.86Q566.6 -72.75 570.09 -72.75Q573.68 -72.75 575.38 -70.86Q577.08 -68.97 577.08 -66.15Q577.08 -63.24 575.38 -61.4Q573.68 -59.56 570.09 -59.56Z M589.25 0L589.25 -10.57L616.31 -43.07L616.31 -41.52L614.57 -44.04L616.02 -43.36L588.96 -43.36L588.96 -52.28L627.57 -52.28L627.57 -41.71L600.41 -9.21L600.41 -10.57L602.35 -7.95L600.89 -8.92L628.83 -8.92L628.83 0Z " fill="#13161f"></path></g></svg>