<svg xmlns="http://www.w3.org/2000/svg" viewBox="0 0 160 160" width="160" height="160"><rect width="160" height="160" rx="36" fill="#4F78DB"></rect><g transform="translate(-14.4,-15.12) scale(1.18)"><rect x="22" y="67" width="116" height="34" rx="17" fill="#fff" opacity=".16"></rect><circle cx="45" cy="52" r="11" fill="none" stroke="#fff" stroke-width="5" opacity=".8"></circle><rect x="66" y="45.5" width="58" height="13" rx="6.5" fill="#fff" opacity=".42"></rect><circle cx="45" cy="84" r="13.5" fill="#fff"></circle><circle cx="45" cy="84" r="6" fill="#4F78DB"></circle><rect x="66" y="77.5" width="58" height="13" rx="6.5" fill="#fff"></rect><circle cx="45" cy="116" r="11" fill="none" stroke="#fff" stroke-width="5" opacity=".8"></circle><rect x="66" y="109.5" width="58" height="13" rx="6.5" fill="#fff" opacity=".42"></rect></g><circle cx="117.5" cy="117.5" r="42.12" fill="#4F78DB"></circle><circle cx="117.5" cy="117.5" r="32.76" fill="#fff"></circle><g transform="translate(81.92,81.92) scale(0.139)" fill="#4F78DB"><path d="M406.3 316.6l-67.9 33.9l-19.4-9.7l-49.1-73.6l58.8 88.2l-67.8 33.9l-155.2-77.6V156.6l67.9-33.9l66.3 99.5l98.5-65.6l67.9-33.9z"></path><path fill="#fff" opacity=".5" d="M173.6 122.7l155.1 232.7l-67.8 33.9l-155.2-232.7zm164.8 33.9v193.9l67.9-33.9V122.7z"></path></g></svg>