<svg width="1318" height="250" viewBox="0 0 1318 250" fill="none" xmlns="http://www.w3.org/2000/svg">
<path d="M129.075 130.551L129.025 129.031H177.467L177.537 130.211L177.637 131.391L177.737 132.561L177.857 133.741L178.007 134.911L178.167 136.081L178.347 137.251L178.547 138.411L178.768 139.571L178.998 140.731L179.248 141.891L179.518 143.031L179.798 144.181L180.098 145.321L180.428 146.451L180.768 147.581L181.118 148.711L181.498 149.821L181.888 150.941L182.298 152.051L182.718 153.151L183.159 154.251L183.619 155.331L184.099 156.411L184.589 157.481L185.099 158.551L185.629 159.611L186.159 160.661L186.719 161.701L187.29 162.731L187.88 163.761L188.49 164.771L189.11 165.771L189.74 166.761L190.39 167.751L191.06 168.731L191.741 169.691L192.431 170.641L193.141 171.591L193.871 172.521L194.611 173.441L195.362 174.351L196.132 175.251L196.912 176.141L197.702 177.011L198.502 177.861L199.333 178.711L200.163 179.551L201.013 180.371L201.873 181.181L202.743 181.981L203.624 182.761L204.524 183.531L205.434 184.281L206.344 185.021L207.274 185.751L208.215 186.461L209.175 187.171L210.125 187.851L211.105 188.511L212.086 189.171L213.076 189.811L214.086 190.431L215.096 191.041L216.117 191.631L217.147 192.201L218.187 192.771L219.227 193.311L220.288 193.841L221.358 194.341L222.428 194.841L223.508 195.321L224.599 195.781L225.689 196.231L226.779 196.651L227.889 197.071L229.01 197.461L230.12 197.831L231.25 198.191L232.371 198.541L233.511 198.861L234.651 199.171L235.791 199.451L236.952 199.731L238.092 199.981L239.252 200.221L240.413 200.431L241.573 200.641L242.743 200.821L243.903 200.981L245.084 201.131L246.264 201.261L247.424 201.371L248.605 201.461L249.975 201.551V250.001L247.394 249.891L245.864 249.801L244.353 249.701L242.833 249.561L241.313 249.421L239.802 249.261L238.292 249.071L236.782 248.871L235.271 248.651L233.771 248.421L232.271 248.161L230.77 247.891L229.28 247.601L227.779 247.291L226.299 246.961L224.819 246.611L223.338 246.241L221.858 245.861L220.398 245.461L218.937 245.041L217.467 244.611L216.017 244.161L214.576 243.681L213.126 243.191L211.696 242.691L210.265 242.171L208.845 241.621L207.424 241.071L206.014 240.481L204.614 239.891L203.213 239.281L201.823 238.651L200.453 238.011L199.072 237.351L197.712 236.671L196.362 235.981L195.011 235.271L193.671 234.551L192.341 233.801L191.02 233.041L189.71 232.271L188.41 231.481L187.12 230.671L185.839 229.851L184.559 229.011L183.309 228.161L182.058 227.281L180.818 226.401L179.578 225.501L178.367 224.591L177.157 223.661L175.967 222.721L174.777 221.761L173.606 220.791L172.446 219.801L171.296 218.801L170.165 217.781L169.045 216.761L167.935 215.721L166.835 214.661L165.744 213.591L164.674 212.511L163.614 211.421L162.574 210.311L161.533 209.191L160.513 208.061L159.513 206.911L158.523 205.761L157.552 204.591L156.592 203.411L155.642 202.221L154.702 201.011L153.781 199.801L152.881 198.571L152.001 197.331L151.121 196.091L150.271 194.831L149.42 193.561L148.59 192.291L147.78 190.991L146.99 189.691L146.21 188.381L145.439 187.071L144.699 185.741L143.969 184.401L143.249 183.071L142.549 181.711L141.869 180.351L141.198 178.981L140.548 177.601L139.928 176.211L139.308 174.821L138.708 173.421L138.128 172.011L137.557 170.601L137.017 169.181L136.487 167.751L135.977 166.311L135.477 164.871L135.007 163.431L134.547 161.971L134.107 160.521L133.687 159.061L133.276 157.591L132.886 156.111L132.516 154.641L132.166 153.161L131.836 151.671L131.516 150.191L131.216 148.691L130.936 147.191L130.676 145.691L130.436 144.191L130.206 142.681L130.006 141.171L129.816 139.661L129.656 138.151L129.496 136.641L129.365 135.111L129.255 133.601L129.155 132.081L129.075 130.551Z" fill="#F18046"/>
<path d="M129.006 0.0202637L131.596 0.130264L133.107 0.220264L134.637 0.330264L136.148 0.450264L137.668 0.590264L139.178 0.760264L140.699 0.950264L142.199 1.15026L143.709 1.37026L145.22 1.60026L146.72 1.86026L148.221 2.13026L149.711 2.42026L151.201 2.74026L152.692 3.06026L154.172 3.41026L155.652 3.77026L157.123 4.15026L158.593 4.56026L160.063 4.97026L161.514 5.41026L162.974 5.86026L164.424 6.33026L165.865 6.82026L167.305 7.32026L168.736 7.85026L170.156 8.40026L171.576 8.95026L172.977 9.53026L174.387 10.1303L175.777 10.7303L177.168 11.3603L178.548 12.0003L179.918 12.6603L181.289 13.3403L182.649 14.0303L183.989 14.7503L185.33 15.4703L186.65 16.2103L187.98 16.9703L189.291 17.7403L190.591 18.5403L191.881 19.3403L193.171 20.1703L194.432 21.0003L195.702 21.8603L196.942 22.7203L198.193 23.6103L199.423 24.5003L200.633 25.4203L201.844 26.3503L203.044 27.3003L204.224 28.2503L205.404 29.2203L206.555 30.2103L207.705 31.2003L208.845 32.2203L209.976 33.2503L211.086 34.2903L212.176 35.3403L213.266 36.4103L214.337 37.4903L215.397 38.5803L216.447 39.6903L217.467 40.8203L218.498 41.9503L219.498 43.0903L220.488 44.2403L221.468 45.4103L222.429 46.5903L223.379 47.7803L224.309 48.9903L225.219 50.2003L226.13 51.4303L227.02 52.6603L227.89 53.9103L228.75 55.1703L229.59 56.4403L230.421 57.7203L231.231 59.0003L232.031 60.3003L232.811 61.6103L233.571 62.9303L234.322 64.2603L235.042 65.5903L235.772 66.9403L236.462 68.2903L237.142 69.6503L237.812 71.0203L238.463 72.3903L239.093 73.7803L239.703 75.1703L240.303 76.5703L240.883 77.9803L241.453 79.3903L242.003 80.8203L242.534 82.2503L243.044 83.6803L243.534 85.1103L244.014 86.5603L244.474 88.0103L244.914 89.4703L245.344 90.9303L245.744 92.4003L246.124 93.8703L246.505 95.3503L246.855 96.8303L247.185 98.3103L247.505 99.8003L247.805 101.3L248.085 102.79L248.335 104.29L248.585 105.79L248.805 107.3L249.015 108.81L249.205 110.32L249.375 111.83L249.525 113.35L249.655 114.86L249.765 116.39L249.865 117.9L249.935 119.42L249.995 120.94H201.534L201.464 119.77L201.374 118.59L201.263 117.42L201.143 116.24L200.993 115.07L200.833 113.9L200.653 112.74L200.463 111.58L200.243 110.41L200.003 109.26L199.753 108.1L199.483 106.96L199.203 105.81L198.893 104.67L198.573 103.53L198.243 102.41L197.883 101.28L197.503 100.16L197.112 99.0503L196.712 97.9403L196.282 96.8403L195.832 95.7403L195.382 94.6603L194.902 93.5703L194.412 92.5003L193.912 91.4403L193.382 90.3803L192.841 89.3303L192.281 88.2903L191.711 87.2603L191.121 86.2403L190.521 85.2203L189.891 84.2203L189.261 83.2203L188.61 82.2403L187.94 81.2703L187.26 80.3003L186.56 79.3503L185.86 78.4103L185.13 77.4703L184.389 76.5603L183.639 75.6503L182.869 74.7503L182.089 73.8603L181.299 72.9903L180.488 72.1303L179.668 71.2803L178.828 70.4403L177.988 69.6303L177.128 68.8203L176.257 68.0203L175.377 67.2303L174.477 66.4703L173.567 65.7103L172.657 64.9703L171.716 64.2403L170.776 63.5303L169.826 62.8303L168.866 62.1503L167.895 61.4803L166.905 60.8303L165.915 60.1903L164.905 59.5703L163.894 58.9603L162.874 58.3703L161.844 57.8003L160.804 57.2403L159.753 56.6903L158.703 56.1703L157.633 55.6503L156.563 55.1603L155.482 54.6803L154.402 54.2203L153.302 53.7703L152.202 53.3503L151.091 52.9403L149.981 52.5403L148.871 52.1703L147.74 51.8103L146.61 51.4603L145.48 51.1403L144.34 50.8303L143.189 50.5503L142.039 50.2803L140.889 50.0203L139.728 49.7903L138.568 49.5703L137.408 49.3703L136.238 49.1803L135.067 49.0203L133.897 48.8703L132.727 48.7403L131.546 48.6303L130.366 48.5403L129.006 48.4603V0.0202637Z" fill="#F18046"/>
<path d="M120.949 201.551V250.001L118.369 249.891L116.838 249.801L115.328 249.701L113.808 249.571L112.287 249.421L110.777 249.261L109.267 249.071L107.756 248.881L106.246 248.651L104.746 248.421L103.245 248.171L101.745 247.891L100.244 247.601L98.7541 247.291L97.2737 246.961L95.7933 246.611L94.313 246.241L92.8326 245.861L91.3723 245.461L89.9119 245.041L88.4416 244.611L86.9912 244.161L85.5508 243.681L84.1005 243.191L82.6702 242.691L81.2398 242.171L79.8195 241.621L78.3991 241.071L76.9888 240.481L75.5884 239.891L74.1881 239.281L72.7977 238.661L71.4274 238.011L70.0471 237.361L68.6867 236.671L67.3364 235.981L65.9861 235.271L64.6458 234.551L63.3154 233.801L61.9951 233.041L60.6848 232.271L59.3845 231.481L58.0942 230.671L56.8138 229.851L55.5335 229.011L54.2832 228.161L53.0329 227.291L51.7826 226.411L50.5523 225.501L49.342 224.591L48.1317 223.661L46.9414 222.721L45.7512 221.761L44.5809 220.791L43.4206 219.801L42.2703 218.801L41.14 217.781L40.0198 216.761L38.9095 215.721L37.7992 214.661L36.7189 213.591L35.6487 212.511L34.5884 211.421L33.5482 210.311L32.5079 209.191L31.4977 208.061L30.4874 206.911L29.4972 205.761L28.527 204.591L27.5567 203.411L26.6165 202.221L25.6763 201.021L24.766 199.801L23.8558 198.571L22.9756 197.341L22.0954 196.091L21.2452 194.831L20.395 193.561L19.5648 192.291L18.7546 190.991L17.9644 189.691L17.1842 188.381L16.414 187.071L15.6738 185.751L14.9436 184.411L14.2235 183.071L13.5233 181.711L12.8431 180.351L12.183 178.981L11.5228 177.601L10.9027 176.211L10.2825 174.821L9.68236 173.421L9.10222 172.011L8.54208 170.601L7.99195 169.181L7.46182 167.751L6.95169 166.311L6.45157 164.881L5.98146 163.431L5.52135 161.981L5.08124 160.521L4.66114 159.061L4.25104 157.591L3.86094 156.111L3.49085 154.641L3.14077 153.161L2.81068 151.671L2.49061 150.191L2.19053 148.691L1.91047 147.191L1.6504 145.701L1.41034 144.191L1.18029 142.681L0.980239 141.171L0.790193 139.661L0.630154 138.151L0.470115 136.641L0.340083 135.121L0.230056 133.601L0.130032 132.081L0.0500122 130.551L0 129.031H48.4418L48.5118 130.211L48.6018 131.391L48.7119 132.571L48.8319 133.741L48.9819 134.911L49.142 136.081L49.322 137.251L49.5221 138.411L49.7421 139.581L49.9722 140.731L50.2222 141.891L50.4923 143.031L50.7824 144.181L51.0724 145.321L51.4025 146.451L51.7426 147.581L52.0927 148.711L52.4728 149.831L52.8629 150.941L53.273 152.051L53.6931 153.151L54.1332 154.251L54.5933 155.331L55.0734 156.411L55.5635 157.481L56.0737 158.561L56.6038 159.611L57.1339 160.661L57.6941 161.701L58.2642 162.731L58.8543 163.761L59.4645 164.771L60.0846 165.771L60.7148 166.761L61.365 167.751L62.0351 168.731L62.7153 169.701L63.4055 170.641L64.1156 171.591L64.8458 172.521L65.586 173.441L66.3362 174.351L67.1064 175.251L67.8865 176.141L68.6767 177.011L69.4869 177.871L70.3071 178.711L71.1373 179.551L71.9875 180.381L72.8478 181.191L73.708 181.981L74.5982 182.761L75.4984 183.531L76.4086 184.281L77.3188 185.021L78.2491 185.751L79.1893 186.461L80.1495 187.171L81.0998 187.851L82.08 188.511L83.0602 189.171L84.0505 189.811L85.0607 190.441L86.071 191.041L87.0912 191.631L88.1215 192.201L89.1617 192.771L90.202 193.311L91.2622 193.841L92.3325 194.351L93.4028 194.841L94.483 195.321L95.5733 195.781L96.6636 196.231L97.7538 196.661L98.8641 197.071L99.9844 197.461L101.095 197.831L102.225 198.191L103.345 198.541L104.485 198.861L105.626 199.171L106.766 199.451L107.926 199.731L109.067 199.981L110.227 200.221L111.387 200.431L112.547 200.641L113.718 200.821L114.888 200.981L116.058 201.131L117.229 201.261L118.399 201.371L119.579 201.461L120.949 201.551Z" fill="#F18046"/>
<path d="M120.949 0V48.45L119.769 48.53L118.599 48.61L117.419 48.73L116.248 48.85L115.078 48.99L113.908 49.15L112.747 49.33L111.577 49.53L110.417 49.74L109.257 49.98L108.106 50.23L106.956 50.5L105.816 50.78L104.676 51.09L103.535 51.41L102.405 51.75L101.285 52.11L100.154 52.48L99.0441 52.87L97.9339 53.28L96.8336 53.71L95.7433 54.15L94.6631 54.6L93.5728 55.08L92.5025 55.57L91.4323 56.08L90.382 56.6L89.3318 57.15L88.2915 57.71L87.2613 58.27L86.231 58.86L85.2208 59.47L84.2205 60.09L83.2203 60.73L82.24 61.38L81.2598 62.04L80.2996 62.72L79.3393 63.42L78.3991 64.13L77.4689 64.85L76.5487 65.6L75.6384 66.35L74.7482 67.11L73.858 67.89L72.9878 68.69L72.1176 69.5L71.2674 70.32L70.4372 71.15L69.617 72L68.8068 72.85L68.0166 73.73L67.2264 74.61L66.4662 75.5L65.706 76.41L64.9658 77.33L64.2357 78.26L63.5255 79.2L62.8253 80.15L62.1351 81.12L61.475 82.09L60.8248 83.08L60.1847 84.06L59.5645 85.07L58.9544 86.08L58.3642 87.1L57.7841 88.13L57.2239 89.17L56.6838 90.22L56.1537 91.28L55.6436 92.34L55.1434 93.41L54.6733 94.49L54.2132 95.58L53.7631 96.67L53.343 97.77L52.9329 98.88L52.5328 99.99L52.1527 101.11L51.7926 102.23L51.4525 103.37L51.1325 104.5L50.8224 105.64L50.5323 106.78L50.2623 107.93L50.0022 109.09L49.7721 110.24L49.5521 111.41L49.352 112.57L49.172 113.73L49.0019 114.9L48.8619 116.07L48.7319 117.24L48.6219 118.42L48.5318 119.6L48.4418 120.97H0L0.110027 118.37L0.200049 116.86L0.300073 115.34L0.430105 113.82L0.570139 112.31L0.74018 110.79L0.930227 109.28L1.12027 107.77L1.34033 106.26L1.58039 104.76L1.83045 103.26L2.11051 101.76L2.40059 100.27L2.71066 98.78L3.04074 97.29L3.39083 95.81L3.75091 94.32L4.13101 92.85L4.5311 91.38L4.95121 89.92L5.38131 88.46L5.84142 87.01L6.31154 85.56L6.80166 84.12L7.30178 82.68L7.83191 81.25L8.37204 79.82L8.93218 78.41L9.51232 77L10.1025 75.59L10.7126 74.2L11.3328 72.82L11.9829 71.43L12.6431 70.06L13.3132 68.69L14.0134 67.34L14.7236 65.99L15.4538 64.65L16.1939 63.33L16.9541 62.01L17.7243 60.7L18.5145 59.39L19.3247 58.1L20.1449 56.82L20.9851 55.55L21.8353 54.29L22.7055 53.04L23.5857 51.79L24.486 50.57L25.4062 49.35L26.3264 48.15L27.2766 46.94L28.2369 45.77L29.2071 44.59L30.1874 43.43L31.1876 42.28L32.2079 41.14L33.2281 40.02L34.2784 38.91L35.3286 37.82L36.3989 36.73L37.4791 35.66L38.5694 34.6L39.6797 33.55L40.7999 32.52L41.9402 31.5L43.0705 30.49L44.2308 29.51L45.4011 28.53L46.5814 27.56L47.7716 26.62L48.9819 25.69L50.1922 24.77L51.4225 23.86L52.6528 22.97L53.9031 22.1L55.1634 21.24L56.4338 20.4L57.7041 19.58L58.9944 18.77L60.2947 17.97L61.605 17.19L62.9153 16.43L64.2457 15.68L65.586 14.95L66.9263 14.23L68.2766 13.53L69.647 12.85L71.0173 12.19L72.3876 11.54L73.778 10.9L75.1683 10.29L76.5687 9.69L77.969 9.11L79.3894 8.55L80.8097 8L82.24 7.47L83.6704 6.95L85.1107 6.47L86.5611 5.98L88.0114 5.52L89.4718 5.09L90.9322 4.66L92.4025 4.25L93.8729 3.87L95.3432 3.5L96.8336 3.14L98.314 2.81L99.8043 2.49L101.295 2.2L102.795 1.92L104.295 1.66L105.796 1.42L107.306 1.19L108.817 0.99L110.327 0.8L111.837 0.63L113.358 0.47L114.868 0.35L116.388 0.23L117.909 0.14L119.429 0.06L120.949 0Z" fill="#F18046"/>
<path d="M1100.98 249.999V179.569H1096.12C1093.89 183.629 1090.65 187.529 1086.39 191.269C1082.13 195.019 1076.71 198.109 1070.13 200.539C1063.54 202.969 1055.39 204.189 1045.66 204.189C1033.09 204.189 1021.54 201.149 1011 195.069C1000.46 188.989 992.05 180.229 985.77 168.769C979.48 157.319 976.35 143.489 976.35 127.269V122.709C976.35 106.499 979.54 92.6691 985.93 81.2091C992.31 69.7591 1000.77 60.9891 1011.31 54.9091C1021.85 48.8291 1033.3 45.7891 1045.66 45.7891C1060.25 45.7891 1071.45 48.4291 1079.25 53.6891C1087.05 58.9591 1092.88 64.9391 1096.73 71.6291H1101.59V45.7891H1132.29V249.979H1100.98V249.999ZM1054.47 176.829C1068.25 176.829 1079.5 172.469 1088.21 163.759C1096.92 155.049 1101.28 142.579 1101.28 126.369V123.629C1101.28 107.619 1096.87 95.2591 1088.06 86.5391C1079.24 77.8291 1068.04 73.4691 1054.47 73.4691C1040.9 73.4691 1030 77.8291 1021.18 86.5391C1012.36 95.2591 1007.96 107.619 1007.96 123.629V126.369C1007.96 142.589 1012.37 155.049 1021.18 163.759C1030 172.479 1041.09 176.829 1054.47 176.829Z" fill="white"/>
<path d="M1235.96 204.189C1221.57 204.189 1208.55 201.149 1196.9 195.069C1185.24 188.989 1176.02 180.169 1169.24 168.619C1162.45 157.069 1159.06 143.189 1159.06 126.969V123.019C1159.06 106.809 1162.45 92.9793 1169.24 81.5193C1176.03 70.0693 1185.25 61.2593 1196.9 55.0693C1208.55 48.8893 1221.57 45.7993 1235.96 45.7993C1250.35 45.7993 1262.61 48.4393 1272.74 53.6993C1282.87 58.9693 1291.03 65.9593 1297.21 74.6793C1303.39 83.3993 1307.39 93.0193 1309.22 103.559L1278.82 109.939C1277.8 103.249 1275.68 97.1693 1272.44 91.6993C1269.2 86.2293 1264.64 81.8693 1258.76 78.6293C1252.88 75.3893 1245.48 73.7693 1236.57 73.7693C1227.66 73.7693 1220 75.7493 1213.01 79.6993C1206.02 83.6493 1200.49 89.3293 1196.44 96.7193C1192.38 104.119 1190.36 113.089 1190.36 123.619V126.359C1190.36 136.899 1192.38 145.919 1196.44 153.419C1200.49 160.919 1206.02 166.599 1213.01 170.439C1220 174.289 1227.85 176.219 1236.57 176.219C1249.74 176.219 1259.77 172.829 1266.67 166.039C1273.56 159.249 1277.92 150.589 1279.74 140.049L1310.14 147.039C1307.71 157.379 1303.4 166.909 1297.22 175.619C1291.04 184.339 1282.88 191.279 1272.75 196.439C1262.61 201.609 1250.35 204.189 1235.97 204.189H1235.96Z" fill="white"/>
<path d="M330.02 204.19V45.8096H360.72V65.8696H365.58C368.42 60.5996 372.98 55.9396 379.26 51.8896C385.54 47.8396 394.05 45.8096 404.8 45.8096C415.55 45.8096 424.91 48.0896 431.7 52.6496C438.49 57.2096 443.6 63.0396 447.05 70.1296H451.91C455.35 63.2396 460.37 57.4696 466.96 52.7996C473.54 48.1396 482.92 45.8096 495.08 45.8096C504.81 45.8096 513.42 47.7896 520.92 51.7396C528.42 55.6896 534.4 61.5696 538.86 69.3696C543.32 77.1696 545.55 86.8496 545.55 98.3996V204.19H514.24V100.83C514.24 91.7096 511.76 84.6696 506.79 79.6996C501.82 74.7396 494.78 72.2496 485.66 72.2496C475.93 72.2496 468.13 75.3896 462.25 81.6696C456.37 87.9496 453.43 96.9696 453.43 108.73V204.19H422.12V100.83C422.12 91.7096 419.64 84.6696 414.67 79.6996C409.7 74.7396 402.66 72.2496 393.54 72.2496C383.81 72.2496 376.01 75.3896 370.13 81.6696C364.25 87.9496 361.31 96.9696 361.31 108.73V204.19H330H330.02Z" fill="white"/>
<path d="M634.529 203.85C623.179 203.85 613.049 201.31 604.129 196.25C595.209 191.19 588.219 183.99 583.149 174.67C578.079 165.35 575.549 154.2 575.549 141.23V45.8096H606.859V139.1C606.859 152.07 610.099 161.65 616.589 167.83C623.069 174.01 632.089 177.1 643.649 177.1C656.419 177.1 666.699 172.8 674.509 164.18C682.309 155.57 686.209 143.16 686.209 126.94V45.8096H717.519V204.19H686.819V178.62H681.959C679.119 184.7 674.059 190.43 666.759 195.8C659.459 201.17 648.719 203.86 634.539 203.86L634.529 203.85Z" fill="white"/>
<path d="M747.521 204.19V0H778.831V204.19H747.521Z" fill="white"/>
<path d="M915.029 204.19V45.8096H946.339V204.19H915.029Z" fill="white"/>
<path d="M885.03 71.47V45.81H865.56L848.45 62.92H840.26V0H808.83V173.98C808.83 183.13 811.52 190.46 816.92 195.95C822.31 201.44 829.67 204.19 839.04 204.19H885.02V177.95H849.1C843.2 177.95 840.25 174.9 840.25 168.8V71.48H885.01L885.03 71.47Z" fill="white"/>
</svg>
