<svg width="1532" height="250" viewBox="0 0 1532 250" fill="none" xmlns="http://www.w3.org/2000/svg">
<path d="M0 46.08C39.45 48.7 71.06 80.39 73.54 119.88H119.61C117.05 54.92 64.93 2.7 0 0V46.08Z" fill="#0DC09D"/>
<path d="M73.8 130.389C71.18 169.839 39.49 201.449 0 203.929V249.999C64.96 247.439 117.18 195.319 119.88 130.389H73.8Z" fill="#0DC09D"/>
<path d="M176.197 119.61C178.817 80.16 210.507 48.55 249.997 46.07V0C185.037 2.56 132.817 54.68 130.117 119.61H176.197Z" fill="#0DC09D"/>
<path d="M250.001 203.919C210.551 201.299 178.941 169.609 176.461 130.119H130.391C132.951 195.079 185.071 247.299 250.001 249.999V203.919Z" fill="#0DC09D"/>
<path d="M329.998 204.52V46.1299H360.698V71.0599H365.558C368.398 64.9799 373.458 59.3099 380.758 54.0399C388.058 48.7699 398.898 46.1399 413.288 46.1399C424.638 46.1399 434.718 48.6799 443.538 53.7399C452.358 58.8099 459.298 65.9499 464.358 75.1699C469.418 84.3899 471.958 95.4899 471.958 108.46V204.52H440.648V110.89C440.648 97.9199 437.408 88.3499 430.918 82.1599C424.428 75.9799 415.518 72.8899 404.168 72.8899C391.198 72.8899 380.808 77.1499 373.008 85.6599C365.208 94.1699 361.308 106.54 361.308 122.75V204.53H329.998V204.52Z" fill="#160F26"/>
<path d="M1078.41 204.59V0.290039H1109.72V204.59H1078.41Z" fill="#160F26"/>
<path d="M1217.24 204.591C1202.24 204.591 1188.92 201.501 1177.26 195.321C1165.6 189.141 1156.44 180.271 1149.75 168.721C1143.06 157.171 1139.72 143.491 1139.72 127.681V123.121C1139.72 107.311 1143.06 93.6814 1149.75 82.2314C1156.44 70.7814 1165.61 61.9114 1177.26 55.6314C1188.91 49.3514 1202.24 46.2114 1217.24 46.2114C1232.24 46.2114 1245.61 49.3514 1257.37 55.6314C1269.12 61.9114 1278.35 70.7814 1285.03 82.2314C1291.72 93.6814 1295.06 107.311 1295.06 123.121V127.681C1295.06 143.491 1291.72 157.171 1285.03 168.721C1278.34 180.271 1269.12 189.141 1257.37 195.321C1245.61 201.501 1232.24 204.591 1217.24 204.591ZM1217.24 176.621C1231.02 176.621 1242.22 172.211 1250.83 163.401C1259.44 154.581 1263.75 142.381 1263.75 126.771V124.031C1263.75 108.431 1259.49 96.2114 1250.98 87.4014C1242.47 78.5814 1231.22 74.1814 1217.24 74.1814C1203.26 74.1814 1192.56 78.5914 1183.95 87.4014C1175.33 96.2214 1171.03 108.431 1171.03 124.031V126.771C1171.03 142.381 1175.33 154.591 1183.95 163.401C1192.56 172.221 1203.66 176.621 1217.24 176.621Z" fill="#160F26"/>
<path d="M1337.36 178.281L1316.07 46.2112H1347.38L1366.23 183.621H1371.09L1392.5 71.1212C1395.25 56.6712 1407.88 46.2112 1422.6 46.2112C1437.34 46.2112 1449.98 56.7012 1452.71 71.1812L1473.85 183.611H1478.71L1497.56 46.2012H1528.87L1507.58 178.271C1505.14 193.431 1492.05 204.581 1476.69 204.581C1461.64 204.581 1448.73 193.871 1445.94 179.091L1424.91 67.4812H1420.05L1399.02 179.091C1396.23 193.881 1383.32 204.581 1368.27 204.581C1352.91 204.581 1339.82 193.431 1337.38 178.271L1337.36 178.281Z" fill="#160F26"/>
<path d="M980.178 8.76881C974.778 14.2588 972.088 21.5888 972.088 30.7388V204.589H1003.52V72.8288H1048.41V46.2788H1026.71L1009.01 63.9788H1003.52V35.9288C1003.52 29.8288 1006.46 26.7788 1012.37 26.7788H1048.29V0.528809H1002.3C992.928 0.528809 985.558 3.27881 980.178 8.76881Z" fill="#160F26"/>
<path d="M898.579 168.529V85.2891H867.139V174.019C867.139 183.179 869.829 190.499 875.229 195.999C880.619 201.489 887.899 204.239 897.059 204.239H938.569V177.679H907.129C901.419 177.679 898.579 174.629 898.579 168.519V168.529Z" fill="#160F26"/>
<path d="M709.996 161.601C701.296 171.981 688.456 177.051 674.926 177.051H579.566C566.946 177.051 556.416 173.131 547.976 165.301C547.456 164.811 546.937 164.321 546.447 163.801C545.947 163.281 545.466 162.761 544.996 162.241C543.866 160.941 542.826 159.581 541.866 158.161C537.756 151.991 535.406 144.651 534.816 136.151C534.756 135.341 534.727 134.521 534.697 133.691H650.387V121.791C650.387 106.531 647.336 93.2012 641.226 81.8012C635.116 70.4012 626.616 61.5012 615.736 55.0912C604.836 48.6812 592.166 45.4712 577.736 45.4712C563.306 45.4712 549.856 48.7212 538.666 55.2412C533.066 58.4912 528.076 62.3812 523.676 66.9212C523.126 67.4812 522.576 68.0612 522.046 68.6512C520.446 70.4212 518.947 72.2712 517.517 74.1912C515.627 76.7712 513.867 79.5212 512.267 82.4212C505.857 94.0212 502.646 107.651 502.646 123.321V126.981C502.646 142.651 505.857 156.281 512.267 167.881C518.677 179.481 527.576 188.481 538.976 194.891C550.366 201.301 563.706 204.511 578.966 204.511H672.346C680.876 204.511 698.716 202.971 709.296 197.051C721.036 190.471 728.296 182.501 740.216 168.291L744.746 161.811L727.556 137.421L710.007 161.601H709.996ZM534.996 109.591C535.306 107.501 535.696 105.481 536.216 103.551C536.716 101.611 537.326 99.7612 538.046 97.9912C540.416 92.1012 543.937 87.1112 548.577 83.0312C555.997 76.5112 565.606 73.2612 577.426 73.2612C589.246 73.2612 598.796 76.5112 606.116 83.0312C613.446 89.5512 617.607 98.4012 618.637 109.591H555.757L539.686 125.661H534.387C534.307 121.041 534.386 115.081 534.996 109.591Z" fill="#160F26"/>
<path d="M898.582 45.76V0H867.142V45.76H837.572C829.042 45.76 811.202 47.3 800.622 53.22C788.882 59.8 779.352 68.27 767.432 82.48L754.272 100.61C748.752 92.65 744.302 86.24 742.212 83.29C731.482 68.16 721.042 60.31 709.292 53.73C698.712 47.8 681.872 46.27 673.342 46.27H667.482V73.74H675.932C689.472 73.74 701.302 78.81 710.002 89.19L735.712 126.17L735.602 126.32L751.322 148.63L764.642 167.79C776.562 182 786.092 190.47 797.832 197.05C808.412 202.98 826.252 204.51 834.782 204.51H840.642V177.04H832.192C818.652 177.04 805.522 172.21 797.122 161.59C793.892 157.51 782.522 141.28 770.842 124.49L795.902 88.67C804.602 78.29 821.442 72.31 834.972 72.31H942.092V45.75H898.582V45.76Z" fill="#160F26"/>
</svg>
