<?xml version="1.0" encoding="utf-8"?>
<!-- Generator: Adobe Illustrator 22.0.0, SVG Export Plug-In . SVG Version: 6.00 Build 0)  -->
<svg version="1.1" id="Layer_1" xmlns="http://www.w3.org/2000/svg" xmlns:xlink="http://www.w3.org/1999/xlink" x="0px" y="0px"
	 viewBox="0 0 512 512" style="enable-background:new 0 0 512 512;" xml:space="preserve">
<style type="text/css">
	.st0{fill:#1B3571;}
	.st1{fill:#FCFCFC;}
	.st2{fill:#DDC019;}
</style>
<path class="st0" d="M453.1,5.1H58.9C29.2,5.1,5.1,29.2,5.1,58.9v394.2c0,29.7,24.1,53.8,53.8,53.8h394.2
	c29.7,0,53.8-24.1,53.8-53.8V58.9C506.8,29.2,482.8,5.1,453.1,5.1z"/>
<path class="st1" d="M203.2,59.9H85.7c-10.8,0-19.6,8.8-19.6,19.6v274.2c0,10.8,8.8,19.6,19.6,19.6h39.2c10.8,0,19.6-8.8,19.6-19.6
	V295h58.8c64.8,0,117.5-52.8,117.5-117.5S268,59.9,203.2,59.9z M203.2,216.6h-58.8v-78.4h58.8c21.5,0,39.2,17.6,39.2,39.2
	S224.8,216.6,203.2,216.6z"/>
<path class="st2" d="M363.5,468.2c14.7,0,26.7-11.9,26.7-26.7h-53.3C336.8,456.3,348.8,468.2,363.5,468.2z M453.3,405.8
	c-8.1-8.7-23.1-21.7-23.1-64.3c0-32.4-22.7-58.3-53.3-64.7v-8.7c0-7.4-6-13.3-13.3-13.3s-13.3,6-13.3,13.3v8.7
	c-30.6,6.4-53.3,32.3-53.3,64.7c0,42.7-15.1,55.7-23.1,64.3c-2.5,2.7-3.6,5.9-3.6,9.1c0,6.8,5.4,13.3,13.4,13.3h160
	c8,0,13.3-6.5,13.4-13.3C456.9,411.7,455.8,408.5,453.3,405.8z"/>
</svg>
