<svg width="1331" height="800" viewBox="0 0 1331 800" fill="none" xmlns="http://www.w3.org/2000/svg">
<g clip-path="url(#clip0_3_2)">
<path d="M130.941 317.835L76.6439 223.79C83.3813 219.986 90.6043 217.114 98.1146 215.255L138.266 284.798C140.54 288.737 144.285 291.61 148.677 292.787C153.07 293.964 157.75 293.348 161.688 291.074C165.627 288.801 168.5 285.056 169.677 280.663C170.854 276.271 170.238 271.59 167.964 267.652L137.401 214.715C139.476 215.166 141.527 215.632 143.609 216.294C147.965 217.604 152.662 217.13 156.668 214.977C160.674 212.823 163.66 209.167 164.97 204.811C166.28 200.456 165.806 195.758 163.653 191.753C161.499 187.747 157.843 184.76 153.487 183.45C137.797 178.763 121.317 177.32 105.051 179.211C88.7851 181.102 73.075 186.287 58.8787 194.449L24.8493 214.096C20.911 216.369 18.0373 220.114 16.8603 224.507C15.6833 228.9 16.2995 233.58 18.5732 237.518C20.847 241.456 24.5921 244.33 28.9846 245.507C33.3772 246.684 38.0574 246.068 41.9957 243.794L46.9454 240.936L101.242 334.981C103.516 338.92 107.261 341.793 111.654 342.97C116.046 344.147 120.727 343.531 124.665 341.258C128.603 338.984 131.477 335.239 132.654 330.846C133.831 326.454 133.215 321.773 130.941 317.835Z" fill="#24B064"/>
<g clip-path="url(#clip1_3_2)">
<path d="M1197.9 336.908L1183.03 280.302C1228.83 261.548 1254.88 211.419 1241.98 162.211C1227.93 108.662 1173.14 76.6258 1119.56 90.6357C1066.02 104.686 1033.97 159.499 1048 213.037C1060.91 262.226 1108.19 293.184 1157.32 287.041L1172.18 343.665L1197.9 336.908Z" fill="#78A3AD"/>
<path d="M1068.41 207.703C1057.34 165.403 1082.66 122.103 1124.94 111.022C1167.25 99.9323 1210.48 125.234 1221.6 167.537C1232.68 209.818 1207.39 253.08 1165.07 264.218C1122.74 275.267 1079.49 249.983 1068.41 207.703Z" fill="white" fill-opacity="0.5"/>
<path d="M1225.61 397.612L1205.7 321.269C1200.61 301.86 1153.14 315.243 1158.01 333.767L1177.93 410.11C1180 417.974 1192.37 421.562 1205.51 418.07C1218.67 414.638 1227.67 405.465 1225.61 397.612Z" fill="#F79329"/>
<mask id="mask0_3_2" style="mask-type:luminance" maskUnits="userSpaceOnUse" x="1157" y="311" width="69" height="109">
<path d="M1225.61 397.612L1205.7 321.269C1200.61 301.86 1153.14 315.243 1158.01 333.767L1177.93 410.11C1180 417.974 1192.37 421.562 1205.51 418.07C1218.67 414.638 1227.67 405.465 1225.61 397.612Z" fill="white"/>
</mask>
<g mask="url(#mask0_3_2)">
<path d="M1179.99 409.473C1182.58 405.827 1187.74 402.751 1190.86 401.136C1200.19 396.299 1209.99 393.507 1220.48 396.405C1231.15 399.335 1228.01 406.828 1221.69 412.586C1214.06 419.53 1205.03 422.822 1194.62 422.727C1192.18 422.714 1188.88 422.781 1186.58 421.868C1180.99 419.584 1175.68 415.597 1179.99 409.473Z" fill="#855C52"/>
</g>
</g>
<path d="M1054.4 546.159L1042.33 521.153C1042.39 520.206 1042.44 519.255 1042.44 518.3C1042.44 489.954 1012.96 463.829 963.37 442.911V460.304C958.534 458.385 953.499 456.517 948.253 454.711V446.603C877.379 421.043 771.87 404.825 654.012 404.825C551.039 404.825 457.483 417.205 388.221 437.379V465.625H388.219V431.437C317.259 453.987 273.265 485.314 273.265 519.952C273.265 525.412 274.366 530.79 276.482 536.065L269.254 548.932C269.254 548.932 263.462 556.444 273.66 572.294C282.654 586.271 327.708 640.979 351.487 669.629C361.701 684.316 368.628 693.363 369.233 692.488C370.188 691.102 362.882 663.527 342.598 632.065C333.132 615.17 321.83 592.782 315.044 576.246C333.986 588.236 445.274 644.275 672.276 644.047C904.27 643.815 1007.39 571.196 1018.71 561.31C1014.75 577.199 1001.24 609.343 990.464 631.948C972.758 664.279 966.344 692.426 967.168 693.818C967.692 694.696 973.733 685.377 982.644 670.275C1003.38 640.732 1042.66 584.336 1050.51 569.97C1059.41 553.685 1054.4 546.159 1054.4 546.159Z" fill="#A52B00"/>
<path d="M1124.49 546.02L1045.15 487.574C1044.4 484.974 1043.66 482.373 1042.89 479.793L1068.95 442.039C1071.61 438.199 1072.14 433.207 1070.42 428.828C1068.69 424.47 1064.9 421.346 1060.43 420.581L1016.36 413.102C1014.65 409.617 1012.86 406.186 1011.07 402.783L1029.58 360.395C1031.49 356.078 1031.09 351.06 1028.56 347.141C1026.04 343.204 1021.77 340.904 1017.22 341.083L972.499 342.708C970.184 339.692 967.832 336.705 965.432 333.771L975.71 288.339C976.752 283.727 975.436 278.896 972.223 275.545C969.028 272.206 964.385 270.823 959.97 271.906L916.408 282.615C913.588 280.122 910.72 277.662 907.82 275.25L909.387 228.609C909.555 223.888 907.354 219.401 903.575 216.78C899.798 214.144 895.005 213.748 890.874 215.706L850.236 235.027C846.963 233.149 843.671 231.29 840.344 229.49L833.163 183.529C832.434 178.873 829.439 174.917 825.244 173.111C821.059 171.294 816.268 171.883 812.596 174.647L776.364 201.832C772.795 200.647 769.211 199.512 765.585 198.425L749.968 154.84C748.38 150.397 744.718 147.134 740.252 146.216C735.802 145.307 731.224 146.848 728.138 150.296L697.639 184.415C693.954 183.992 690.262 183.605 686.563 183.284L663.014 143.608C660.63 139.59 656.417 137.144 651.875 137.144C647.346 137.144 643.125 139.59 640.757 143.608L617.202 183.284C613.501 183.605 609.794 183.992 606.114 184.415L575.615 150.296C572.525 146.848 567.931 145.307 563.493 146.216C559.033 147.146 555.365 150.397 553.786 154.84L538.157 198.425C534.536 199.512 530.952 200.655 527.377 201.832L491.157 174.647C487.474 171.873 482.679 171.286 478.489 173.111C474.308 174.917 471.301 178.873 470.576 183.529L463.39 229.49C460.068 231.29 456.776 233.139 453.495 235.027L412.861 215.706C408.734 213.74 403.916 214.144 400.157 216.78C396.384 219.401 394.177 223.888 394.347 228.609L395.909 275.25C393.015 277.662 390.153 280.122 387.318 282.615L343.764 271.906C339.341 270.832 334.702 272.206 331.499 275.545C328.278 278.896 326.973 283.727 328.008 288.339L338.265 333.771C335.887 336.716 333.532 339.692 331.223 342.708L286.499 341.083C281.986 340.948 277.678 343.204 275.156 347.141C272.629 351.06 272.246 356.078 274.127 360.395L292.655 402.783C290.856 406.186 289.069 409.617 287.346 413.102L243.283 420.581C238.804 421.335 235.031 424.457 233.289 428.828C231.561 433.207 232.122 438.199 234.763 442.039L260.829 479.793C260.628 480.46 260.442 481.132 260.242 481.801L186.546 560.086C186.546 560.086 175.25 568.937 191.693 589.74C206.193 608.091 280.644 680.836 319.964 718.945C336.57 738.293 347.948 750.274 349.136 749.238C351.012 747.593 341.164 712.391 308.454 671.089C283.238 634.033 250.513 577.04 258.187 570.471C258.187 570.471 266.916 559.39 284.429 551.414C283.767 550.907 285.07 551.926 284.429 551.414C284.429 551.414 654.024 721.905 996.858 554.298C1036.02 547.273 1059.73 568.253 1059.73 568.253C1067.91 572.993 1046.73 631.597 1029.32 670.39C1005.64 714.44 1002.17 748.812 1004.18 750.004C1005.45 750.761 1014.06 737.651 1026.35 716.787C1056.68 674.534 1114 593.985 1124.49 574.419C1136.39 552.237 1124.49 546.02 1124.49 546.02Z" fill="#F74C00"/>
<path d="M962.896 524.145C962.896 524.145 1016.07 521.679 1085.93 450.683L1095.83 428.704C1095.83 428.704 987.409 320.856 1155.94 246.413C1155.94 246.413 1141.19 270.525 1145.52 363.685C1145.52 363.685 1196.33 346.036 1211.23 263.745C1211.23 263.745 1285.35 361.469 1130.73 453.122C1130.73 453.122 1058.19 569.411 955.925 558.272L962.896 524.145Z" fill="#F74C00"/>
<path d="M721.997 457.169C721.997 457.169 758.932 416.726 795.868 457.169C795.868 457.169 824.89 511.096 795.868 538.056C795.868 538.056 748.381 575.804 721.997 538.056C721.997 538.056 690.339 508.397 721.997 457.169Z" fill="black"/>
<path d="M764.761 472.173C764.761 487.919 755.479 500.687 744.029 500.687C732.581 500.687 723.299 487.919 723.299 472.173C723.299 456.423 732.581 443.655 744.029 443.655C755.479 443.655 764.761 456.423 764.761 472.173Z" fill="white"/>
<path d="M557.148 446.127C557.148 446.127 620.503 418.075 637.796 480.689C637.796 480.689 655.91 553.669 585.766 557.788C585.766 557.788 496.322 540.56 557.148 446.127Z" fill="black"/>
<path d="M588.968 473.206C588.968 489.445 579.396 502.615 567.587 502.615C555.783 502.615 546.208 489.445 546.208 473.206C546.208 456.962 555.783 443.795 567.587 443.795C579.396 443.795 588.968 456.962 588.968 473.206Z" fill="white"/>
<path d="M638.317 583.303L719.113 576.819C719.113 576.819 716.375 589.825 705.834 599.588C705.834 599.588 678.044 630.058 646.161 597.055C646.161 597.055 640.944 591.426 638.317 583.303Z" fill="black"/>
<path d="M314.796 508.519C314.129 508.519 313.475 508.568 312.823 508.62C286.589 502.649 212.85 483.435 193.359 452.257C193.359 452.257 292.586 339.385 137.499 267.238L155.556 392.116C155.556 392.116 107.747 360.167 97.43 290.77C97.43 290.77 -18.993 375.264 148.814 456.244C148.814 456.244 164.034 513.431 310.163 559.059L310.27 558.624C311.741 558.896 313.247 559.059 314.796 559.059C328.604 559.059 339.799 547.747 339.799 533.788C339.799 519.832 328.604 508.519 314.796 508.519Z" fill="#F74C00"/>
<g clip-path="url(#clip2_3_2)">
<path d="M1172.18 287.041L1183.03 280.302C1228.83 261.548 1254.88 211.419 1241.98 162.211C1227.93 108.662 1173.14 76.6259 1119.56 90.6357C1066.02 104.686 1033.97 159.499 1048 213.037C1060.91 262.226 1108.19 293.184 1157.32 287.041L1168 287.041L1172.18 287.041Z" fill="#78A3AD"/>
<path d="M1068.41 207.703C1057.34 165.403 1082.66 122.103 1124.94 111.022C1167.25 99.9323 1210.48 125.234 1221.6 167.537C1232.68 209.818 1207.39 253.08 1165.07 264.218C1122.74 275.267 1079.49 249.983 1068.41 207.703Z" fill="white" fill-opacity="0.5"/>
</g>
<path d="M167.472 382.539L133.443 402.186C129.504 404.459 124.824 405.076 120.431 403.899C116.039 402.722 112.294 399.848 110.02 395.91C107.746 391.971 107.13 387.291 108.307 382.899C109.484 378.506 112.358 374.761 116.296 372.487L150.326 352.84C164.152 344.92 175.482 333.284 183.032 319.252C190.582 305.22 194.049 289.353 193.041 273.451L188.408 196.27C186.997 174.009 191.852 151.799 202.421 132.157C212.99 112.515 228.851 96.2267 248.206 85.1401L282.235 65.4931C286.174 63.2194 290.854 62.6032 295.246 63.7802C299.639 64.9572 303.384 67.8309 305.658 71.7691C307.931 75.7074 308.548 80.3876 307.371 84.7802C306.194 89.1727 303.32 92.9178 299.382 95.1916L265.352 114.839C251.526 122.759 240.196 134.395 232.646 148.427C225.096 162.459 221.628 178.326 222.637 194.228L227.269 271.409C228.68 293.67 223.826 315.88 213.257 335.522C202.688 355.164 186.827 371.452 167.472 382.539ZM397.105 230.161C394.832 226.223 391.086 223.349 386.694 222.172C382.301 220.995 377.621 221.611 373.683 223.885L368.733 226.743L314.436 132.698C312.162 128.759 308.417 125.886 304.025 124.709C299.632 123.532 294.952 124.148 291.014 126.422C287.075 128.695 284.202 132.44 283.025 136.833C281.848 141.225 282.464 145.906 284.738 149.844L339.035 243.889C332.297 247.693 325.074 250.565 317.564 252.424L277.398 182.856C275.125 178.918 271.38 176.044 266.987 174.867C262.594 173.69 257.914 174.306 253.976 176.58C250.038 178.854 247.164 182.599 245.987 186.991C244.81 191.384 245.426 196.064 247.7 200.002L278.278 252.964C276.202 252.513 274.151 252.047 272.069 251.385C267.714 250.075 263.017 250.549 259.011 252.702C255.005 254.856 252.018 258.512 250.708 262.868C249.398 267.223 249.872 271.921 252.026 275.926C254.179 279.932 257.836 282.919 262.191 284.229C277.881 288.916 294.362 290.359 310.628 288.468C326.893 286.577 342.604 281.392 356.8 273.23L390.829 253.583C394.768 251.31 397.641 247.565 398.818 243.172C399.995 238.779 399.379 234.099 397.105 230.161Z" fill="#24B064"/>
</g>
<defs>
<clipPath id="clip0_3_2">
<rect width="1331" height="800" fill="white"/>
</clipPath>
<clipPath id="clip1_3_2">
<rect width="279.383" height="279.383" fill="white" transform="translate(1108.96 49.9518) rotate(30.3134)"/>
</clipPath>
<clipPath id="clip2_3_2">
<rect width="279.383" height="279.383" fill="white" transform="translate(1108.96 49.9518) rotate(30.3134)"/>
</clipPath>
</defs>
</svg>
