<?xml version="1.0" encoding="UTF-8" standalone="no"?>
<svg
   xml:space="preserve"
   width="2068.758"
   height="2005.702"
   viewBox="0 0 547.359 530.675"
   version="1.1"
   id="svg2"
   sodipodi:docname="logo.svg"
   inkscape:version="1.4.2 (ebf0e940, 2025-05-08)"
   xmlns:inkscape="http://www.inkscape.org/namespaces/inkscape"
   xmlns:sodipodi="http://sodipodi.sourceforge.net/DTD/sodipodi-0.dtd"
   xmlns="http://www.w3.org/2000/svg"
   xmlns:svg="http://www.w3.org/2000/svg"><defs
     id="defs2" /><sodipodi:namedview
     id="namedview2"
     pagecolor="#ffffff"
     bordercolor="#000000"
     borderopacity="0.25"
     inkscape:showpageshadow="2"
     inkscape:pageopacity="0.0"
     inkscape:pagecheckerboard="0"
     inkscape:deskcolor="#d1d1d1"
     inkscape:zoom="0.40217366"
     inkscape:cx="1036.8655"
     inkscape:cy="1003.2979"
     inkscape:window-width="1832"
     inkscape:window-height="1186"
     inkscape:window-x="0"
     inkscape:window-y="30"
     inkscape:window-maximized="0"
     inkscape:current-layer="svg2" /><rect
     style="fill:#ffffff;stroke-width:0.294214;fill-opacity:1"
     id="rect2"
     width="268.48239"
     height="268.48239"
     x="250.17102"
     y="-130.43436"
     transform="matrix(0.72165617,0.69225166,-0.72165617,0.69225166,0,0)" /><path
     d="M102.051 422.12c-2.948-.687-5.555-3.378-6.125-6.324a13 13 0 0 0-.535-1.852c-.491-1.277-1.668-5.232-1.88-6.32-.096-.492-.397-1.385-.669-1.984s-.5-1.327-.509-1.618c-.008-.29-.245-1.005-.526-1.587s-.515-1.242-.52-1.466-.24-.86-.523-1.415c-.283-.554-.596-1.383-.697-1.841-.1-.46-.405-1.25-.677-1.757-.271-.507-.493-1.107-.493-1.333s-.232-.864-.514-1.419c-.283-.554-.597-1.383-.697-1.841-.101-.459-.394-1.31-.652-1.893-.257-.582-.79-1.951-1.184-3.043-.393-1.091-.928-2.46-1.188-3.042s-.561-1.356-.668-1.72a5 5 0 0 0-.557-1.183c-.199-.287-.361-.709-.361-.937s-.236-.876-.524-1.44a17 17 0 0 1-.831-1.975c-.17-.52-.47-1.182-.667-1.47-.198-.286-.36-.705-.36-.93 0-.224-.221-.822-.492-1.33-.27-.507-.878-1.814-1.349-2.906-.868-2.01-1.497-3.4-3.054-6.747a1553 1553 0 0 1-1.716-3.704c-3.503-7.592-12.62-24.905-14.142-26.855-.17-.218-.7-1.162-1.177-2.097a40 40 0 0 0-1.904-3.26c-.57-.858-1.036-1.609-1.036-1.668 0-.126-2.265-3.729-4.649-7.395a60 60 0 0 1-1.433-2.298c-.675-1.198-4.679-7.148-5.745-8.539a65 65 0 0 1-1.988-2.778c-.54-.806-2.003-2.776-3.249-4.377s-2.952-3.803-3.791-4.894c-2.64-3.433-7.718-9.593-9.271-11.243-.82-.873-2.251-2.48-3.18-3.572-9.667-11.381-12.108-12.875-18.024-11.028-.654.205-2.024.46-3.042.566-1.019.106-2.235.353-2.702.547s-1.42.428-2.117.52c-.697.091-2.1.409-3.119.705-3.961 1.152-6.408 1.89-7.805 2.354-.8.266-1.872.561-2.381.656-.51.096-1.164.322-1.455.503-.291.18-.887.413-1.323.515-.437.103-1.39.409-2.117.68-.728.27-2.216.814-3.307 1.207-1.092.393-2.474.94-3.072 1.214-.598.275-1.23.5-1.406.5s-.877.226-1.559.502c-7.073 2.86-12.139.264-9.511-4.873a7.8 7.8 0 0 0 .581-1.714c.098-.51.339-1.343.535-1.852.195-.51.673-1.997 1.06-3.307.388-1.31.924-2.977 1.192-3.704s.809-2.454 1.202-3.837c.394-1.382 1-3.443 1.349-4.58.348-1.137.633-2.293.633-2.57s.222-1.073.493-1.77c.271-.696.577-2.035.68-2.975s.348-2.09.542-2.555.439-1.662.542-2.657.36-2.227.57-2.737c.21-.509.552-2.275.758-3.924s.502-3.471.658-4.048c.58-2.152-.903-3.67-10.3-10.548a223 223 0 0 1-4.068-3.043 60 60 0 0 0-2.73-1.984c-5.627-3.795-9.35-6.196-11.29-7.281a27 27 0 0 1-1.853-1.199 119 119 0 0 0-2.577-1.747c-.8-.527-1.753-1.158-2.117-1.404-.564-.38-3.396-2.029-7.1-4.133a400 400 0 0 1-2.028-1.162 134 134 0 0 0-3.043-1.668c-1.091-.582-2.118-1.163-2.281-1.291-.47-.368-4.105-2.32-5.127-2.754-.51-.216-1.105-.5-1.323-.63-2.15-1.29-18.089-9.01-18.6-9.01-.182 0-.593-.183-.91-.406-.319-.223-1.03-.564-1.581-.759-.55-.194-1.913-.786-3.027-1.314-1.114-.529-2.113-.961-2.22-.961s-.684-.233-1.282-.516a84 84 0 0 0-2.94-1.287c-2.19-.912-3.196-1.297-9.921-3.804-.8-.298-1.991-.752-2.646-1.008-2.857-1.117-5.96-2.198-7.972-2.776-.674-.194-1.567-.527-1.984-.74a8 8 0 0 0-1.686-.58 10 10 0 0 1-1.72-.545c-.914-.407-3.72-1.33-7.143-2.35a132 132 0 0 1-3.572-1.116c-.655-.222-1.965-.551-2.91-.73-.946-.18-1.958-.456-2.25-.614-.29-.157-1.124-.373-1.852-.48a14 14 0 0 1-2.513-.655 14.5 14.5 0 0 0-2.381-.658c-3.078-.509-6.082-3.29-6.085-5.636-.002-1.464 2.528-4.833 3.612-4.811.24.005 3.942-1.108 5.912-1.777a37 37 0 0 1 2.646-.754c1.448-.348 3.02-.823 5.292-1.598a52 52 0 0 1 2.513-.768 68 68 0 0 0 5.292-1.714c.728-.267 1.74-.558 2.249-.645a8 8 0 0 0 1.72-.538c.436-.208 1.33-.55 1.984-.762 1.207-.389 2.032-.666 3.704-1.244.51-.176 1.462-.493 2.117-.704.655-.212 1.7-.615 2.322-.896s1.319-.51 1.548-.51c.228 0 .79-.177 1.25-.393.458-.215 1.488-.621 2.288-.901 3.208-1.123 3.863-1.375 4.498-1.729.364-.203 1.11-.453 1.657-.555s1.054-.284 1.127-.401.757-.42 1.519-.672 1.624-.61 1.915-.795.977-.418 1.524-.518 1.055-.279 1.128-.397.756-.419 1.518-.67c.762-.25 1.621-.616 1.908-.813.287-.198.69-.359.897-.359.206 0 .865-.232 1.463-.516s1.98-.885 3.071-1.336c2.754-1.137 4.202-1.785 5.344-2.391.539-.286 1.104-.52 1.257-.52s1.915-.784 3.916-1.744a470 470 0 0 1 4.961-2.349c2.541-1.162 3.875-1.81 4.63-2.251.219-.127 2.422-1.26 4.895-2.518 2.474-1.257 5.57-2.878 6.88-3.602s2.738-1.497 3.175-1.72 1.27-.69 1.852-1.038 1.594-.937 2.249-1.307c1.283-.725 1.352-.768 3.99-2.454.966-.619 1.851-1.125 1.965-1.125s.815-.398 1.558-.885c.743-.486 2.243-1.458 3.335-2.158 2.506-1.609 6.648-4.363 8.202-5.455.654-.46 1.964-1.37 2.91-2.022 2.545-1.754 4.739-3.382 7.755-5.756a305 305 0 0 1 4.096-3.17c1.66-1.248 1.74-1.486 1.41-4.234-.14-1.164-.39-3.367-.556-4.895s-.48-3.406-.698-4.175c-.219-.768-.562-2.315-.764-3.44-.342-1.901-.816-3.993-1.482-6.54a95 95 0 0 1-.657-2.778c-.209-.946-.553-2.137-.765-2.646-.212-.51-.494-1.521-.627-2.249a21 21 0 0 0-.647-2.513c-.223-.655-.718-2.263-1.1-3.572s-.822-2.739-.976-3.175a66 66 0 0 1-.756-2.382c-.26-.873-.6-1.944-.755-2.38-1.89-5.33-1.884-6.447.043-8.456 1.653-1.722 2.696-1.815 6.269-.556.654.23 1.488.581 1.852.779.363.197 1.137.51 1.72.695.582.185 1.293.498 1.58.696s.696.359.908.359.871.231 1.463.514c.591.282 1.611.71 2.266.949l2.25.824c.581.214 1.542.62 2.133.903.592.283 1.247.518 1.455.523.21.005.856.239 1.438.52s1.275.515 1.539.52 1.038.234 1.72.509 2.251.804 3.488 1.176c1.237.373 2.844.87 3.572 1.104s2.037.588 2.91.784 2.064.541 2.646.766 1.552.415 2.155.421 1.853.244 2.778.529c5.377 1.652 7.672 1.136 11.236-2.528 7.8-8.018 13.019-13.811 16.375-18.18a321 321 0 0 1 3.18-4.021c1.166-1.454 2.454-3.092 2.861-3.64.407-.55 1-1.289 1.319-1.644C43.126 13.187 53.314-1.8 58.206-10.183c.297-.51.836-1.402 1.197-1.984s.896-1.475 1.187-1.985.644-1.104.783-1.323c.592-.933 6.082-10.876 6.94-12.567 3.935-7.767 6.233-12.529 8.298-17.198.387-.873.864-1.945 1.062-2.382.197-.436.725-1.686 1.172-2.778.446-1.091.938-2.21 1.092-2.485.155-.276.494-1.11.754-1.853s.74-2.005 1.065-2.805.826-2.11 1.112-2.91.617-1.575.734-1.72.333-.682.481-1.191c.272-.935 1.135-3.169 1.79-4.63.392-.875 1.255-3.309 1.83-5.16.203-.655.684-2.024 1.07-3.043a59 59 0 0 0 1.094-3.175c.218-.727.61-1.918.873-2.645a72 72 0 0 0 1.027-3.175c.302-1.019.743-2.448.98-3.175.236-.728.59-1.978.787-2.778s.54-1.991.764-2.646c.814-2.388 1.928-6.142 2.668-8.986 2.275-8.747 13.057-6.816 14.286 2.56.092.696.333 1.743.537 2.325s.547 1.832.762 2.778a85 85 0 0 0 1.86 6.68l.83 2.514c.228.691.53 1.733.67 2.315s.476 1.654.745 2.381c.768 2.083 1.1 3.058 1.618 4.763.6 1.973 1.208 3.836 1.815 5.556l.93 2.646c.256.728.618 1.926.805 2.664.187.737.493 1.628.681 1.978s.43.997.54 1.437c.108.44.44 1.395.737 2.123s.8 2.037 1.119 2.91 1.112 2.838 1.764 4.366a320 320 0 0 1 1.666 3.969c.265.655.788 1.89 1.161 2.744.374.854.68 1.665.68 1.802s.308.926.686 1.754.913 2.011 1.19 2.63l1.01 2.248c1.88 4.193 7.836 16.278 9.029 18.323.424.727.95 1.68 1.17 2.117.218.436.513.972.655 1.19.141.218 1.35 2.243 2.685 4.498 2.504 4.23 2.778 4.676 4.783 7.805 2.672 4.17 8.651 12.89 11.551 16.844 1.646 2.244 9.028 11.646 9.315 11.864.096.072 1.636 1.918 3.42 4.1 1.786 2.183 4.41 5.22 5.832 6.748a311 311 0 0 1 3.991 4.365c6.949 7.847 9.537 8.95 16.12 6.864a16.5 16.5 0 0 1 2.514-.534c1.322-.156 3.107-.634 8.334-2.229 5.126-1.564 5.943-1.828 8.202-2.65 1.237-.45 2.666-.927 3.175-1.059.51-.132 1.398-.483 1.974-.779s1.232-.543 1.455-.548.884-.239 1.466-.52 1.198-.515 1.369-.52c.375-.011 3.889-1.404 4.99-1.978.431-.225.876-.41.988-.41.113-.002 1.244-.494 2.514-1.095 5.281-2.497 10.022.608 7.868 5.154-.218.458-.583 1.488-.813 2.289-1.155 4.024-1.442 4.999-1.83 6.217-.232.728-.65 2.097-.931 3.043-.28.946-.699 2.315-.931 3.043a39 39 0 0 0-.67 2.38c-.26 1.102-1.04 3.716-1.856 6.219-.261.8-.557 2.05-.658 2.778-.1.727-.357 1.74-.57 2.249s-.498 1.7-.634 2.646c-.135.945-.418 2.255-.627 2.91-.448 1.402-1.158 6.732-1.383 10.38-.155 2.524.544 4.701 1.511 4.701.108 0 1.206.804 2.44 1.786 3.047 2.424 6.242 4.748 11.448 8.326 3.719 2.556 14.086 9.384 15.346 10.107.436.25 1.234.715 1.772 1.032 4.86 2.866 13.965 7.886 16.749 9.235.582.282 1.296.644 1.587.805.291.16 1.363.69 2.381 1.174 1.019.485 2.09 1.019 2.382 1.186 1.009.58 3.452 1.783 6.085 2.997 1.455.67 3.42 1.584 4.366 2.029s2.077.967 2.513 1.16c.437.194 1.471.656 2.299 1.027.828.372 1.617.676 1.754.676.22 0 1.697.615 4.15 1.729 2.284 1.037 3.93 1.71 4.18 1.71.156 0 .766.226 1.358.503 1.25.584 3.843 1.653 5.177 2.134.51.184 1.7.63 2.646.993.946.362 2.255.811 2.91.998s1.607.52 2.117.74c.509.22 1.76.694 2.778 1.054 3.101 1.095 3.654 1.293 5.027 1.8 3.46 1.28 5.925 2.157 7.011 2.494 2.194.68 3.83 1.21 4.63 1.498.437.157 1.572.491 2.523.743.95.251 1.963.58 2.249.73.286.152 1.056.362 1.71.47.656.107 1.633.418 2.173.692s1.254.5 1.588.503c.333.003 1.095.228 1.693.5.598.271 1.61.58 2.249.685s1.578.367 2.087.582c.93.392 2.205.777 5.16 1.558 7.256 1.917 6.6 9.653-.926 10.913-.8.134-1.991.429-2.646.654s-2.262.723-3.572 1.105c-1.31.383-2.738.822-3.175.977a53 53 0 0 1-2.513.765c-.946.265-2.316.675-3.043.911s-2.157.673-3.175.973a74 74 0 0 0-3.175 1.012c-2.004.71-3.838 1.323-5.16 1.723-2.475.749-4.667 1.517-5.717 2.003-.598.277-1.287.504-1.532.504-.244 0-.886.224-1.426.497s-1.399.587-1.908.697c-.51.11-1.34.422-1.848.693-.507.272-1.04.494-1.186.494-.144 0-.86.228-1.591.506-.73.277-2.221.834-3.312 1.237a76 76 0 0 0-3.095 1.214c-.61.266-1.222.483-1.36.483-.264 0-3.4 1.372-4.582 2.005-.386.207-.84.376-1.009.376s-.983.312-1.81.693a271 271 0 0 1-5.475 2.47c-5.198 2.257-24.578 12.013-25.532 12.854-.219.193-.695.478-1.059.633-.363.155-1.256.633-1.984 1.06-.727.429-1.68.96-2.116 1.183-.437.222-1.27.702-1.852 1.068a95 95 0 0 1-1.985 1.208c-.509.3-1.462.896-2.116 1.325-.655.43-1.37.863-1.588.964-.374.173-1.734 1.028-5.887 3.702l-3.572 2.3a342 342 0 0 0-8.1 5.402c-.893.62-1.92 1.332-2.285 1.583-.935.645-6.727 5.056-10.857 8.27-3.415 2.657-3.96 3.246-3.955 4.273.007 1.554 1.02 8.89 1.428 10.338.216.768.466 1.991.555 2.719s.387 2.097.661 3.043c.275.945.69 2.493.923 3.44 1.569 6.363 1.849 7.32 3.83 13.096.25.728.79 2.395 1.199 3.704s.964 2.94 1.231 3.621c.268.682.49 1.515.493 1.852s.242 1.132.53 1.766c1.953 4.304-2.187 7.416-7.282 5.475-2.339-.891-5.207-1.906-6.747-2.388a75 75 0 0 1-3.043-1.065c-3.328-1.244-5.537-2.01-6.615-2.295a17 17 0 0 1-1.984-.68c-.51-.22-1.521-.555-2.249-.745a56 56 0 0 1-2.513-.728c-2.87-.924-4.997-1.477-6.345-1.65-.798-.103-1.872-.335-2.387-.517-.516-.182-1.709-.416-2.652-.52-.942-.104-2.754-.417-4.026-.695-4.756-1.039-5.386-.88-8.339 2.084-6.298 6.326-16.592 18.138-21.371 24.522a41 41 0 0 1-1.132 1.456c-.36.422-1.977 2.555-4.02 5.304-.654.882-1.67 2.224-2.259 2.982a62 62 0 0 0-2.046 2.835c-.537.8-1.355 1.99-1.817 2.646-.886 1.253-5.427 8.018-5.966 8.885-.173.28-.947 1.517-1.72 2.751-.773 1.235-1.551 2.544-1.73 2.91s-.443.846-.586 1.064c-.515.785-5.774 9.68-6.336 10.716a146 146 0 0 1-1.254 2.249c-1.41 2.469-7.468 14.365-8.825 17.33-2.304 5.036-2.914 6.44-2.914 6.706 0 .141-.314.893-.697 1.67s-.909 1.89-1.167 2.472c-.259.582-.793 1.772-1.188 2.646s-.956 2.123-1.248 2.778-.755 1.63-1.027 2.169c-.272.538-.495 1.133-.496 1.323 0 .19-.195.701-.43 1.138-.486.898-1.243 2.76-1.978 4.866-.274.785-.604 1.559-.734 1.72-.129.161-.322.71-.428 1.22-.107.508-.355 1.223-.551 1.587s-.73 1.673-1.186 2.91a198 198 0 0 1-1.3 3.44c-1.16 2.928-1.67 4.32-1.874 5.106-.121.466-.59 1.859-1.041 3.096a98 98 0 0 0-1.192 3.44c-.203.654-.74 2.202-1.192 3.439s-.937 2.725-1.078 3.307-.492 1.616-.78 2.298c-.287.682-.523 1.515-.524 1.852-.01 2.176-3.051 5.627-5.422 6.151-.436.096-.972.216-1.19.266-.219.05-.848-.015-1.398-.143m20.383-129.434c.764-.222 2.431-.481 3.704-.577 1.272-.096 3.088-.395 4.034-.664s2.363-.565 3.15-.658c.787-.092 1.739-.323 2.116-.512.378-.189 1.28-.488 2.006-.666s1.44-.418 1.588-.533c.147-.116.744-.364 1.326-.55 1.898-.61 4.97-2.182 7.673-3.927 9.94-6.418 17.473-16.98 19.988-28.027.275-1.207.56-2.29.632-2.409.512-.827 1.443-9.53 1.603-14.976.239-8.146-.205-7.663 7.278-7.918 10.212-.349 14.461-.826 19.315-2.17 3.28-.908 4.14-1.179 4.934-1.556.459-.217.923-.395 1.03-.395.944 0 8.52-4.454 10.837-6.372 8.694-7.193 14.056-15.272 16.93-25.51.204-.728.556-1.974.782-2.77.226-.795.412-1.759.412-2.14s.18-1.279.401-1.993c1.746-5.649 1.922-47.406.228-54.16a80 80 0 0 1-.756-3.44c-.725-3.729-2.77-9.967-3.877-11.83a31 31 0 0 1-.761-1.455c-1.408-2.836-5.526-8.498-8.125-11.17-2.15-2.21-5.38-4.702-9.203-7.102-.993-.624-5.869-3.026-6.145-3.028-.113-.001-.562-.19-.999-.42-4.94-2.605-12.674-3.781-25.003-3.805-7.13-.014-6.764.533-7.104-10.59-.254-8.314-.832-12.511-2.045-14.857-.207-.4-.377-.942-.378-1.203s-.296-1.072-.654-1.8c-.358-.727-.655-1.442-.66-1.587-.088-2.227-5.606-10.254-10.187-14.817-3.68-3.666-4.268-4.12-9.002-6.943-10.427-6.22-20.01-7.865-45.64-7.833-24.31.03-31.47 1.23-43.525 7.292C48.81 44.406 41.282 52.802 37.63 62.71c-2.441 6.62-2.988 9.979-3.145 19.314-.166 9.903-.026 9.655-5.442 9.661C17.19 91.7 8.613 92.967 3 95.534c-.458.21-.916.38-1.017.38-.264 0-5.694 2.663-6.483 3.18l-2.646 1.725c-5.18 3.377-9.457 7.75-13.063 13.352a106 106 0 0 1-1.217 1.852c-.842 1.237-4.166 8.326-4.838 10.319-3.275 9.718-3.755 14.217-3.763 35.322-.008 20.334.45 24.399 3.973 35.233 1.488 4.578 5.82 12.126 9.427 16.423 2.155 2.57 6.77 6.805 8.9 8.172.83.53 1.841 1.196 2.25 1.478 1.214.838 6.824 3.682 8.253 4.183 4.165 1.462 6.237 2.063 8.19 2.375 1.002.16 1.903.341 2.003.403.733.453 7.528.921 13.363.921 8.794 0 7.989-.84 8.12 8.467.106 7.456.34 9.295 1.941 15.227.355 1.317.646 2.558.646 2.757 0 1.227 3.027 7.74 4.86 10.459 1.218 1.805 3.598 5.138 4 5.6.148.17.915 1.122 1.706 2.117 1.399 1.758 4.727 4.928 6.142 5.85.386.25 1.339.884 2.117 1.407 2.46 1.653 7.631 4.465 8.24 4.481.176.005.915.301 1.642.659.728.358 1.502.656 1.72.662.219.006.873.242 1.455.523.583.28 1.275.515 1.539.52s1.038.235 1.72.512c2.068.84 7.126 1.858 10.764 2.168 1.892.161 3.548.36 3.681.44 1.11.678 33.466.663 35.81-.015m-31.341-15.913c-3.376-.194-7.008-.538-8.07-.764a58 58 0 0 0-3.122-.578c-.655-.091-1.876-.396-2.713-.677-.838-.28-1.662-.51-1.832-.51-4.404 0-14.79-7.755-18.94-14.142-5.17-7.957-5.4-9.342-5.619-33.88-.206-23.115-.053-27.357 1.167-32.411 3.088-12.794 11.452-20.766 24.894-23.727 3.175-.7 3.175-.7 29.766-.865 29.369-.184 26.998-.046 33.205-1.935 10.562-3.216 19.07-10.729 23.844-21.059a85 85 0 0 1 1.2-2.516c.37-.69 1.888-5.44 2.547-7.974 1.276-4.9 1.473-6.804 1.63-15.743.204-11.592-.245-10.942 7.738-11.207 7.912-.263 14.319.47 18.339 2.1 13.6 5.514 20.8 15.322 22.419 30.538.419 3.936.414 35.295-.006 39.72-1.48 15.59-10.22 27.436-23.604 31.994-6.014 2.048-3.71 1.939-44.185 2.095-34.685.135-36.692.168-37.52.62-4.816 2.629-5.051 8.537-.459 11.526 1.07.696 1.07.696 20.565.829 24.282.164 21.634-1.25 21.547 11.509-.155 22.84-11.659 35.342-33.962 36.909-6.524.458-22.04.538-28.829.148m-69.44-61.787c-1.405-.115-2.657-.273-2.783-.351s-1.124-.266-2.22-.418c-8.33-1.159-18.382-7.472-22.912-14.39-1.964-2.999-4.781-9.232-5.364-11.868-.149-.673-.386-1.526-.527-1.896-1.588-4.178-2.214-36.667-.87-45.169.67-4.233 1.703-7.905 3.091-10.98 3.221-7.137 6.336-10.902 12.711-15.37 8.203-5.748 9.85-5.93 54.06-5.93 38.4 0 35.723.15 37.92-2.115 2.765-2.851 2.194-7.307-1.25-9.758-1.32-.94-3.426-1.04-22.869-1.1-22.004-.066-19.888.915-19.849-9.201.068-17.62 4.73-26.237 18.076-33.417 1.92-1.032 7.692-2.695 11.695-3.368 12.074-2.031 41.601-1.413 49.61 1.04 13.462 4.12 22.404 14.128 23.857 26.7.51 4.404.506 46.402-.004 50.005-2.107 14.892-10.633 24.558-24.912 28.24-2.513.65-2.513.65-28.575.758-29.355.123-28.269.06-35.586 2.083-12.267 3.393-25.112 17.19-26.978 28.98a27 27 0 0 1-.559 2.513c-.59 2.114-.957 6.859-1.144 14.817-.251 10.633-1.204 11.298-14.619 10.195m266.343 129.972c-7.114-1.029-16.45-6.894-20.046-12.593-1.382-2.19-1.459-2.327-2.468-4.41-1.618-3.34-1.96-4.123-1.96-4.475 0-.186-.244-1.141-.543-2.123-1.446-4.763-.114-13.95 2.766-19.067l1.115-1.984c.63-1.126 3.28-4.303 4.64-5.565 12.012-11.146 30.678-9.417 41.521 3.845 2.85 3.485 5.562 8.588 6.067 11.413.12.675.407 1.78.637 2.457.461 1.358.569 6.866.171 8.752-.478 2.266-1.112 4.527-1.448 5.159a7.4 7.4 0 0 0-.539 1.45c-1.023 4.278-7.89 11.422-13.648 14.198-3.263 1.573-3.903 1.792-8.063 2.758-1.486.345-6.342.455-8.202.185m-378.487-.868c-8.086-1.479-15.441-6.22-19.239-12.404-17.354-28.257 15.754-59.157 42.122-39.312 9.86 7.421 15.16 26.298 9.426 33.574-.124.158-.376.753-.56 1.324-.661 2.05-3.25 5.88-5.622 8.316-6.798 6.98-16.744 10.217-26.127 8.502M287.334 19.183c-1.882-.211-5.195-1.084-6.952-1.832-.615-.261-1.296-.549-1.515-.639-1.096-.452-3.682-2.07-5.703-3.569-3.083-2.287-5.462-5.113-8.054-9.568-.231-.397-1.144-2.407-1.967-4.333-.241-.564-.61-1.933-.82-3.043a331 331 0 0 0-.674-3.472c-.366-1.815-.192-4.601.512-8.202.747-3.815 1.35-5.445 3.668-9.922 1.06-2.043 5.68-7.134 7.67-8.446a97 97 0 0 0 2.061-1.41c5.58-3.94 15.989-5.724 22.061-3.78.929.297 1.837.54 2.019.54.326 0 2.31.838 4.627 1.956 6.154 2.969 14.817 12.88 14.817 16.953 0 .212.258 1.015.574 1.784.848 2.066.87 12.052.033 14.1-.299.727-.627 1.828-.73 2.445-.103.618-.288 1.185-.41 1.26-.122.076-.367.583-.543 1.127-.336 1.032-2.08 4.106-3.487 6.148-1.282 1.858-4.916 5.336-6.951 6.653-6.918 4.475-13.018 6.058-20.236 5.25m-379.677-.663c-2.532-.712-4.853-1.63-6.615-2.618l-1.984-1.113c-10.792-6.046-16.655-22.733-12.226-34.798 2.872-7.824 9.924-15.397 16.23-17.43.563-.181 1.15-.43 1.306-.552.155-.123.93-.356 1.72-.52.79-.162 1.972-.483 2.627-.711 2.063-.72 10.508-.63 12.635.134.91.327 1.78.595 1.935.595.267 0 1.877.703 4.51 1.97 13.476 6.486 19.723 23.197 14 37.453-1.007 2.509-.95 2.404-3.003 5.556-1.39 2.133-5.161 5.999-7.074 7.251l-1.836 1.203c-1.243.814-3.875 2.018-7.408 3.389-2.629 1.02-11.464 1.133-14.817.19"
     style="fill:#f2c641"
     transform="translate(170.659 108.397)"
     id="path1" /><path
     d="M91.093 276.773c-3.376-.194-7.008-.538-8.07-.764a58 58 0 0 0-3.122-.578c-.655-.091-1.876-.396-2.713-.677-.838-.28-1.662-.51-1.832-.51-4.404 0-14.79-7.755-18.94-14.142-5.17-7.957-5.4-9.342-5.619-33.88-.206-23.115-.053-27.357 1.167-32.411 3.088-12.794 11.452-20.766 24.894-23.727 3.175-.7 3.175-.7 29.766-.865 29.369-.184 26.998-.046 33.205-1.935 10.562-3.216 19.07-10.729 23.844-21.059a85 85 0 0 1 1.2-2.516c.37-.69 1.888-5.44 2.547-7.974 1.276-4.9 1.473-6.804 1.63-15.743.204-11.592-.245-10.942 7.738-11.207 7.912-.263 14.319.47 18.339 2.1 13.6 5.514 20.8 15.322 22.419 30.538.419 3.936.414 35.295-.006 39.72-1.48 15.59-10.22 27.436-23.604 31.994-6.014 2.048-3.71 1.939-44.185 2.095-34.685.135-36.692.168-37.52.62-4.816 2.629-5.051 8.537-.459 11.526 1.07.696 1.07.696 20.565.829 24.282.164 21.634-1.25 21.547 11.509-.155 22.84-11.659 35.342-33.962 36.909-6.524.458-22.04.538-28.829.148m-69.44-61.787c-1.405-.115-2.657-.273-2.783-.351s-1.124-.266-2.22-.418c-8.33-1.159-18.382-7.472-22.912-14.39-1.964-2.999-4.781-9.232-5.364-11.868-.149-.673-.386-1.526-.527-1.896-1.588-4.178-2.214-36.667-.87-45.169.67-4.233 1.703-7.905 3.091-10.98 3.221-7.137 6.336-10.902 12.711-15.37 8.203-5.748 9.85-5.93 54.06-5.93 38.4 0 35.723.15 37.92-2.115 2.765-2.851 2.194-7.307-1.25-9.758-1.32-.94-3.426-1.04-22.869-1.1-22.004-.066-19.888.915-19.849-9.201.068-17.62 4.73-26.237 18.076-33.417 1.92-1.032 7.692-2.695 11.695-3.368 12.074-2.031 41.601-1.413 49.61 1.04 13.462 4.12 22.404 14.128 23.857 26.7.51 4.404.506 46.402-.004 50.005-2.107 14.892-10.633 24.558-24.912 28.24-2.513.65-2.513.65-28.575.758-29.355.123-28.269.06-35.586 2.083-12.267 3.393-25.112 17.19-26.978 28.98a27 27 0 0 1-.559 2.513c-.59 2.114-.957 6.859-1.144 14.817-.251 10.633-1.204 11.298-14.619 10.195"
     style="fill:#3b559a"
     transform="translate(170.659 108.397)"
     id="path2" /></svg>
