<svg xmlns="http://www.w3.org/2000/svg" viewBox="0 0 160 160" width="160" height="160"><rect width="160" height="160" rx="36" fill="#490086"></rect><g transform="translate(-14.4,-15.12) scale(1.18)"><rect x="22" y="67" width="116" height="34" rx="17" fill="#fff" opacity=".18"></rect><circle cx="45" cy="52" r="11" fill="none" stroke="#fff" stroke-width="5" opacity=".82"></circle><rect x="66" y="45.5" width="58" height="13" rx="6.5" fill="#fff" opacity=".45"></rect><circle cx="45" cy="84" r="13.5" fill="#fff"></circle><circle cx="45" cy="84" r="6" fill="#490086"></circle><rect x="66" y="77.5" width="58" height="13" rx="6.5" fill="#fff"></rect><circle cx="45" cy="116" r="11" fill="none" stroke="#fff" stroke-width="5" opacity=".82"></circle><rect x="66" y="109.5" width="58" height="13" rx="6.5" fill="#fff" opacity=".45"></rect></g><circle cx="117.5" cy="117.5" r="42.12" fill="#490086"></circle><circle cx="117.5" cy="117.5" r="32.76" fill="#fff"></circle><g transform="translate(97.24,95.82) scale(1.6796)" fill="#490086"><path fill-rule="evenodd" clip-rule="evenodd" d="M15.22 7.77 12.06.94 8.91 7.77l-.15.29L7 6.3a1.18 1.18 0 1 0-1.68 1.68l1.75 1.74-.2.1-.04.02L0 13l6.83 3.16.24.11-1.75 1.76A1.18 1.18 0 1 0 7 19.7l1.76-1.76.15.3 3.15 6.82 3.16-6.83.12-.24 1.71 1.71a1.18 1.18 0 1 0 1.68-1.67L17 16.3l.29-.15L24.13 13 17.3 9.84 17 9.7l1.73-1.73a1.18 1.18 0 1 0-1.68-1.67L15.35 8a4.15 4.15 0 0 1-.12-.21l-.01-.03Zm-3.17.36-.42.9a7.27 7.27 0 0 1-3.55 3.55l-.9.42.9.42a7.27 7.27 0 0 1 3.55 3.55l.42.9.42-.9a7.27 7.27 0 0 1 3.55-3.55l.9-.42-.9-.42a7.27 7.27 0 0 1-3.55-3.55l-.42-.9Z"></path><path d="M22.27 4.43a1.18 1.18 0 1 0-1.67-1.68l-.57.57a1.18 1.18 0 0 0 1.68 1.67l.56-.56ZM4.2 5.18c-.46.46-1.2.46-1.67 0l-.56-.56a1.18 1.18 0 0 1 1.67-1.68l.57.57c.46.46.46 1.2 0 1.67Zm0 15.64a1.18 1.18 0 0 0-1.67 0l-.56.56a1.18 1.18 0 0 0 1.67 1.68l.57-.57c.46-.46.46-1.2 0-1.67Zm18.07.75a1.18 1.18 0 0 1-1.67 1.68l-.57-.57a1.19 1.19 0 0 1 1.68-1.67l.56.56Z"></path></g></svg>