<svg xmlns="http://www.w3.org/2000/svg" viewBox="-16 -16 870.91 172" width="870.91" height="172"><svg x="0" y="0" width="140" height="140" viewBox="0 0 160 160" overflow="visible"><rect width="160" height="160" rx="36" fill="#490086"></rect><g transform="translate(-14.4,-15.12) scale(1.18)"><rect x="22" y="67" width="116" height="34" rx="17" fill="#fff" opacity=".18"></rect><circle cx="45" cy="52" r="11" fill="none" stroke="#fff" stroke-width="5" opacity=".82"></circle><rect x="66" y="45.5" width="58" height="13" rx="6.5" fill="#fff" opacity=".45"></rect><circle cx="45" cy="84" r="13.5" fill="#fff"></circle><circle cx="45" cy="84" r="6" fill="#490086"></circle><rect x="66" y="77.5" width="58" height="13" rx="6.5" fill="#fff"></rect><circle cx="45" cy="116" r="11" fill="none" stroke="#fff" stroke-width="5" opacity=".82"></circle><rect x="66" y="109.5" width="58" height="13" rx="6.5" fill="#fff" opacity=".45"></rect></g><circle cx="117.5" cy="117.5" r="42.12" fill="#490086"></circle><circle cx="117.5" cy="117.5" r="32.76" fill="#fff"></circle><g transform="translate(97.24,95.82) scale(1.6796)" fill="#490086"><path fill-rule="evenodd" clip-rule="evenodd" d="M15.22 7.77 12.06.94 8.91 7.77l-.15.29L7 6.3a1.18 1.18 0 1 0-1.68 1.68l1.75 1.74-.2.1-.04.02L0 13l6.83 3.16.24.11-1.75 1.76A1.18 1.18 0 1 0 7 19.7l1.76-1.76.15.3 3.15 6.82 3.16-6.83.12-.24 1.71 1.71a1.18 1.18 0 1 0 1.68-1.67L17 16.3l.29-.15L24.13 13 17.3 9.84 17 9.7l1.73-1.73a1.18 1.18 0 1 0-1.68-1.67L15.35 8a4.15 4.15 0 0 1-.12-.21l-.01-.03Zm-3.17.36-.42.9a7.27 7.27 0 0 1-3.55 3.55l-.9.42.9.42a7.27 7.27 0 0 1 3.55 3.55l.42.9.42-.9a7.27 7.27 0 0 1 3.55-3.55l.9-.42-.9-.42a7.27 7.27 0 0 1-3.55-3.55l-.42-.9Z"></path><path d="M22.27 4.43a1.18 1.18 0 1 0-1.67-1.68l-.57.57a1.18 1.18 0 0 0 1.68 1.67l.56-.56ZM4.2 5.18c-.46.46-1.2.46-1.67 0l-.56-.56a1.18 1.18 0 0 1 1.67-1.68l.57.57c.46.46.46 1.2 0 1.67Zm0 15.64a1.18 1.18 0 0 0-1.67 0l-.56.56a1.18 1.18 0 0 0 1.67 1.68l.57-.57c.46-.46.46-1.2 0-1.67Zm18.07.75a1.18 1.18 0 0 1-1.67 1.68l-.57-.57a1.19 1.19 0 0 1 1.68-1.67l.56.56Z"></path></g></svg><g transform="translate(190,96.14)"><path d="M26.38 1.65Q15.81 1.65 9.94 -2.86Q4.07 -7.37 3.78 -15.23L14.26 -15.23Q14.45 -12.32 17.27 -9.89Q20.08 -7.47 26.48 -7.47Q31.91 -7.47 35.02 -9.6Q38.12 -11.74 38.12 -14.94Q38.12 -17.85 35.79 -19.55Q33.47 -21.24 28.13 -21.73L22.99 -22.31Q14.94 -23.18 10.23 -27.01Q5.53 -30.85 5.53 -37.54Q5.53 -42.78 8.15 -46.37Q10.77 -49.95 15.37 -51.89Q19.98 -53.83 26 -53.83Q35.31 -53.83 41.03 -49.71Q46.75 -45.59 46.95 -37.64L36.47 -37.64Q36.38 -40.55 33.71 -42.63Q31.04 -44.72 26 -44.72Q21.15 -44.72 18.58 -42.78Q16.01 -40.84 16.01 -37.83Q16.01 -35.11 17.95 -33.56Q19.89 -32.01 24.25 -31.52L29.39 -31.04Q38.22 -30.07 43.41 -26.14Q48.6 -22.21 48.6 -15.23Q48.6 -10.18 45.78 -6.4Q42.97 -2.62 37.98 -0.48Q32.98 1.65 26.38 1.65Z M80.46 0.68Q73.96 0.68 69.5 -1.12Q65.04 -2.91 62.71 -7.18Q60.38 -11.45 60.38 -18.72L60.48 -67.51L71.25 -67.51L71.25 -17.75Q71.25 -13.68 73.43 -11.49Q75.61 -9.31 79.59 -9.31L88.32 -9.31L88.32 0.68ZM51.75 -43.75L51.75 -52.28L88.32 -52.28L88.32 -43.75Z M129.98 0L129.98 -15.62L128.14 -15.62L128.14 -33.17Q128.14 -38.12 125.62 -40.59Q123.09 -43.07 118.15 -43.07Q115.43 -43.07 112.13 -42.97Q108.83 -42.87 105.63 -42.78Q102.43 -42.68 100.01 -42.49L100.01 -52.28Q102.24 -52.48 104.81 -52.62Q107.38 -52.77 110.14 -52.86Q112.91 -52.96 115.43 -52.96Q123.38 -52.96 128.62 -50.92Q133.86 -48.89 136.43 -44.47Q139 -40.06 139 -32.69L139 0ZM113.01 1.36Q107.28 1.36 103.01 -0.63Q98.75 -2.62 96.42 -6.45Q94.09 -10.28 94.09 -15.62Q94.09 -21.24 96.76 -24.93Q99.43 -28.61 104.37 -30.46Q109.32 -32.3 116.21 -32.3L129.3 -32.3L129.3 -24.83L115.92 -24.83Q110.77 -24.83 108.06 -22.36Q105.34 -19.89 105.34 -15.91Q105.34 -11.93 108.06 -9.55Q110.77 -7.18 115.92 -7.18Q118.92 -7.18 121.64 -8.29Q124.35 -9.41 126.15 -12.03Q127.94 -14.65 128.14 -19.4L131.05 -15.62Q130.56 -10.09 128.38 -6.35Q126.2 -2.62 122.37 -0.63Q118.53 1.36 113.01 1.36Z M152.8 0L152.8 -52.28L161.92 -52.28L161.92 -30.36L161.53 -30.36Q161.53 -41.71 166.48 -47.29Q171.42 -52.86 181.12 -52.86L182.97 -52.86L182.97 -42.78L179.47 -42.78Q172.1 -42.78 168.17 -38.9Q164.25 -35.02 164.25 -27.74L164.25 0Z M191.65 0L191.65 -70.81L203.09 -70.81L203.09 0ZM184.76 -62.08L184.76 -70.81L203.09 -70.81L203.09 -62.08Z M220.31 0L220.31 -52.28L231.66 -52.28L231.66 0ZM212.65 -43.55L212.65 -52.28L231.66 -52.28L231.66 -43.55ZM224 -59.56Q220.51 -59.56 218.81 -61.4Q217.11 -63.24 217.11 -66.15Q217.11 -68.97 218.81 -70.86Q220.51 -72.75 224 -72.75Q227.59 -72.75 229.28 -70.86Q230.98 -68.97 230.98 -66.15Q230.98 -63.24 229.28 -61.4Q227.59 -59.56 224 -59.56Z M266.53 20.47Q262.85 20.47 259.06 20.18Q255.28 19.89 251.98 19.4L251.98 9.8Q255.47 10.28 259.35 10.62Q263.23 10.96 266.73 10.96Q273.52 10.96 277.64 9.22Q281.76 7.47 283.65 3.83Q285.54 0.19 285.54 -5.53L285.54 -15.71L288.55 -22.7Q288.26 -15.13 285.4 -9.99Q282.54 -4.85 277.78 -2.23Q273.03 0.39 267.11 0.39Q261.68 0.39 257.22 -1.65Q252.76 -3.69 249.56 -7.32Q246.36 -10.96 244.56 -15.81Q242.77 -20.66 242.77 -26.09L242.77 -27.94Q242.77 -33.47 244.61 -38.22Q246.45 -42.97 249.75 -46.51Q253.05 -50.05 257.61 -51.99Q262.17 -53.93 267.7 -53.93Q274.19 -53.93 279.09 -51.17Q283.99 -48.4 286.76 -43.07Q289.52 -37.73 289.81 -30.07L287.29 -29.78L287.29 -52.28L296.31 -52.28L296.31 -6.21Q296.31 3.3 293.26 9.17Q290.2 15.04 283.65 17.75Q277.1 20.47 266.53 20.47ZM269.93 -9.7Q274.19 -9.7 277.69 -11.59Q281.18 -13.48 283.31 -17.02Q285.45 -20.56 285.45 -25.51L285.45 -29.49Q285.45 -34.34 283.26 -37.68Q281.08 -41.03 277.59 -42.73Q274.1 -44.43 270.02 -44.43Q265.37 -44.43 261.78 -42.29Q258.19 -40.16 256.2 -36.23Q254.21 -32.3 254.21 -27.06Q254.21 -21.73 256.25 -17.8Q258.29 -13.87 261.83 -11.79Q265.37 -9.7 269.93 -9.7Z M310.35 0L310.35 -70.81L321.8 -70.81L321.8 -29L319.47 -29Q319.47 -36.76 321.46 -42.34Q323.45 -47.92 327.57 -50.88Q331.69 -53.83 338 -53.83L338.48 -53.83Q347.7 -53.83 352.4 -47.63Q357.11 -41.42 357.11 -29.78L357.11 0L345.66 0L345.66 -31.43Q345.66 -37.05 342.46 -40.26Q339.26 -43.46 334.12 -43.46Q328.59 -43.46 325.19 -39.77Q321.8 -36.08 321.8 -30.17L321.8 0Z M392.41 0.68Q385.91 0.68 381.45 -1.12Q376.99 -2.91 374.66 -7.18Q372.33 -11.45 372.33 -18.72L372.43 -67.51L383.2 -67.51L383.2 -17.75Q383.2 -13.68 385.38 -11.49Q387.56 -9.31 391.54 -9.31L400.27 -9.31L400.27 0.68ZM363.7 -43.75L363.7 -52.28L400.27 -52.28L400.27 -43.75Z M406.04 -22.21L406.04 -32.11L443.78 -32.11L443.78 -22.21Z " fill="#490086"></path><path d="M495.14 19.4L495.14 -15.52L498.92 -22.31Q498.73 -14.26 495.77 -8.92Q492.81 -3.59 487.96 -0.92Q483.11 1.75 477.09 1.75Q471.57 1.75 466.96 -0.39Q462.35 -2.52 459.05 -6.26Q455.75 -9.99 453.96 -14.89Q452.17 -19.79 452.17 -25.41L452.17 -27.26Q452.17 -32.88 453.96 -37.68Q455.75 -42.49 459.15 -46.17Q462.54 -49.86 467.2 -51.89Q471.86 -53.93 477.48 -53.93Q484.08 -53.93 489.03 -51.12Q493.97 -48.31 496.83 -42.92Q499.7 -37.54 499.89 -29.88L497.46 -29.88L497.46 -52.28L506.49 -52.28L506.49 19.4ZM479.71 -8.34Q484.08 -8.34 487.62 -10.28Q491.16 -12.22 493.34 -15.96Q495.52 -19.69 495.52 -24.73L495.52 -28.91Q495.52 -33.85 493.29 -37.34Q491.06 -40.84 487.47 -42.68Q483.88 -44.52 479.71 -44.52Q474.86 -44.52 471.23 -42.24Q467.59 -39.96 465.55 -35.84Q463.51 -31.72 463.51 -26.29Q463.51 -20.95 465.6 -16.88Q467.69 -12.8 471.32 -10.57Q474.96 -8.34 479.71 -8.34Z M539.05 1.65Q529.94 1.65 524.94 -4.36Q519.94 -10.38 519.94 -22.02L519.94 -52.28L531.39 -52.28L531.39 -20.47Q531.39 -15.03 534.4 -11.88Q537.4 -8.73 542.55 -8.73Q547.78 -8.73 551.08 -12.08Q554.38 -15.42 554.38 -21.24L554.38 -52.28L565.83 -52.28L565.83 0L556.8 0L556.8 -22.31L557.87 -22.31Q557.87 -14.45 555.83 -9.17Q553.8 -3.88 549.77 -1.12Q545.75 1.65 539.54 1.65Z M583.24 0L583.24 -52.28L594.59 -52.28L594.59 0ZM575.57 -43.55L575.57 -52.28L594.59 -52.28L594.59 -43.55ZM586.92 -59.56Q583.43 -59.56 581.73 -61.4Q580.04 -63.24 580.04 -66.15Q580.04 -68.97 581.73 -70.86Q583.43 -72.75 586.92 -72.75Q590.51 -72.75 592.21 -70.86Q593.91 -68.97 593.91 -66.15Q593.91 -63.24 592.21 -61.4Q590.51 -59.56 586.92 -59.56Z M606.08 0L606.08 -10.57L633.14 -43.07L633.14 -41.52L631.4 -44.04L632.85 -43.36L605.79 -43.36L605.79 -52.28L644.4 -52.28L644.4 -41.71L617.24 -9.21L617.24 -10.57L619.18 -7.95L617.72 -8.92L645.66 -8.92L645.66 0Z " fill="#13161f"></path></g></svg>