<svg xmlns="http://www.w3.org/2000/svg" viewBox="0 0 400 90" role="img" aria-label="Type Deck">
  <g transform="translate(67.5 60) scale(0.01953 -0.01953)" fill="#1f2328">
    <path transform="translate(0 0)" d="M465 0V1194H47.5V1443H1184.5V1194H767V0Z"/>
    <path transform="translate(1232 0)" d="M262.5 -353Q220 -353 180.0 -349.0Q140 -345 114 -340.5V-123.5Q129.5 -126.5 154.5 -129.75Q179.5 -133 212 -133Q277.5 -133 315.75 -111.25Q354 -89.5 373 -35.5L385.5 -0.5L7 1072H327.5L569.5 175.5L531 234H585.5L546.5 175.5L788.5 1072H1096.5L729 -19.5Q687 -145.5 623.5 -218.5Q560 -291.5 471.0 -322.25Q382 -353 262.5 -353Z"/>
    <path transform="translate(2336 0)" d="M95 -350V1072H387V884.5H393.5Q423 950 470.5 996.75Q518 1043.5 581.5 1068.75Q645 1094 721 1094Q857 1094 955.0 1027.5Q1053 961 1105.75 836.0Q1158.5 711 1158.5 536.5V535.5Q1158.5 361.5 1106.0 236.75Q1053.5 112 956.5 45.0Q859.5 -22 725 -22Q648.5 -22 583.75 2.75Q519 27.5 470.75 73.25Q422.5 119 393 182.5H387V-350ZM624.5 220Q697.5 220 750.75 258.5Q804 297 832.75 367.75Q861.5 438.5 861.5 535.5V536.5Q861.5 635 832.5 705.75Q803.5 776.5 750.25 814.25Q697 852 624.5 852Q554 852 500.0 813.5Q446 775 415.75 704.25Q385.5 633.5 385.5 536V535Q385.5 438.5 416.0 367.75Q446.5 297 500.0 258.5Q553.5 220 624.5 220Z"/>
    <path transform="translate(3551 0)" d="M583 -22Q419 -22 300.75 45.5Q182.5 113 119.0 238.0Q55.5 363 55.5 534V535Q55.5 705.5 119.0 831.0Q182.5 956.5 298.25 1025.25Q414 1094 571 1094Q728 1094 842.5 1027.25Q957 960.5 1019.25 839.5Q1081.5 718.5 1081.5 556.5V466.5H199V650.5H943.5L805 478.5V591Q805 685 776.0 748.5Q747 812 695.5 844.0Q644 876 576 876Q508 876 455.5 843.0Q403 810 373.25 746.25Q343.5 682.5 343.5 591V477.5Q343.5 389 373.25 326.0Q403 263 458.0 229.5Q513 196 589 196Q649 196 693.0 214.75Q737 233.5 764.75 262.5Q792.5 291.5 802.5 322L804.5 328H1072.5L1070 316.5Q1057.5 257.5 1022.75 197.75Q988 138 928.5 88.0Q869 38 783.25 8.0Q697.5 -22 583 -22Z"/>
    <path transform="translate(5093 0)" d="M120 0V1443H671Q887.5 1443 1041.25 1359.75Q1195 1276.5 1277.0 1117.25Q1359 958 1359 729V727Q1359 498 1277.25 335.0Q1195.5 172 1041.75 86.0Q888 0 671 0ZM422 249.5H635Q770 249.5 862.75 303.75Q955.5 358 1003.25 464.0Q1051 570 1051 726V728Q1051 878.5 1002.25 982.5Q953.5 1086.5 860.5 1140.0Q767.5 1193.5 635 1193.5H422Z"/>
    <path transform="translate(6527 0)" d="M583 -22Q419 -22 300.75 45.5Q182.5 113 119.0 238.0Q55.5 363 55.5 534V535Q55.5 705.5 119.0 831.0Q182.5 956.5 298.25 1025.25Q414 1094 571 1094Q728 1094 842.5 1027.25Q957 960.5 1019.25 839.5Q1081.5 718.5 1081.5 556.5V466.5H199V650.5H943.5L805 478.5V591Q805 685 776.0 748.5Q747 812 695.5 844.0Q644 876 576 876Q508 876 455.5 843.0Q403 810 373.25 746.25Q343.5 682.5 343.5 591V477.5Q343.5 389 373.25 326.0Q403 263 458.0 229.5Q513 196 589 196Q649 196 693.0 214.75Q737 233.5 764.75 262.5Q792.5 291.5 802.5 322L804.5 328H1072.5L1070 316.5Q1057.5 257.5 1022.75 197.75Q988 138 928.5 88.0Q869 38 783.25 8.0Q697.5 -22 583 -22Z"/>
    <path transform="translate(7664 0)" d="M584.5 -22Q421.5 -22 302.75 45.75Q184 113.5 119.75 239.0Q55.5 364.5 55.5 537V538Q55.5 709.5 120.25 834.25Q185 959 303.25 1026.5Q421.5 1094 582 1094Q727.5 1094 834.75 1039.5Q942 985 1002.5 892.0Q1063 799 1068.5 683L1069 676H797.5L796 685Q783 761.5 729.75 813.25Q676.5 865 586 865Q514.5 865 462.0 825.5Q409.5 786 381.0 712.5Q352.5 639 352.5 536.5V535.5Q352.5 431 381.0 357.5Q409.5 284 462.25 245.5Q515 207 587 207Q675 207 728.5 256.25Q782 305.5 796.5 387L798 396H1070L1069.5 389.5Q1062.5 272.5 1001.5 179.5Q940.5 86.5 834.25 32.25Q728 -22 584.5 -22Z"/>
    <path transform="translate(8780 0)" d="M104.5 0V1443H396.5V0ZM779 0 448 473.5 632.5 696 1115.5 0ZM361 315.5V643H402.5L764.5 1072H1095.5L601 508.5H536Z"/>
  </g>
  <g transform="translate(275.5 9) scale(3)" fill="#1f2328">
    <path d="M6 17h3l2-4V7H5v6h3zm8 0h3l2-4V7h-6v6h3z"/>
  </g>
</svg>
