<?xml version="1.0" encoding="utf-8"?>
<!-- Generator: Adobe Illustrator 27.2.0, SVG Export Plug-In . SVG Version: 6.00 Build 0)  -->
<svg version="1.1" id="Lager_1" xmlns="http://www.w3.org/2000/svg" xmlns:xlink="http://www.w3.org/1999/xlink" x="0px" y="0px"
	 viewBox="0 0 929.5 1114.9" style="enable-background:new 0 0 929.5 1114.9;" xml:space="preserve">
<style type="text/css">
	.st0{fill:none;}
	.st1{fill:#FFFFFF;}
</style>
<g>
	<rect class="st0" width="929.5" height="1114.9"/>
	<g>
		<g>
			<g>
				<path class="st1" d="M268.9,534.9l-6.7-1.2c-0.1,0-0.3-0.1-0.6-0.1c-0.5-0.1-1-0.2-1.3-0.2c-1.4,0-2.5,1-2.5,2.3
					c0,1.1,0.6,2,1.6,2.4c0.3,0.1,0.6,0.2,0.9,0.2c0.2,0,0.5,0,0.7-0.1l7.9-1.9V534.9z"/>
				<path class="st1" d="M267.2,525.6c-0.1-0.2-0.2-0.3-0.3-0.5c-0.5-0.8-1.1-1.8-2.5-1.8s-2.5,1.1-2.5,2.5c0,1.5,1.3,2.3,2.2,2.8
					l6,3.7l0.9-1L267.2,525.6z"/>
				<path class="st1" d="M274.3,540.5c2.6,0,4.6-2.1,4.6-4.8c0-2.5-2.1-4.6-4.7-4.6s-4.7,2.1-4.7,4.7
					C269.5,538.4,271.7,540.5,274.3,540.5"/>
				<path class="st1" d="M274.9,540.9h-1.4l-1.4,6.9c-0.1,0.4-0.3,1.3-0.3,1.8c0,1.2,1.2,2.4,2.4,2.4c1.4,0,2.6-1.1,2.6-2.4
					c0-0.4-0.1-1-0.3-1.8L274.9,540.9z"/>
				<path class="st1" d="M284,548c1.4,0,2.5-1.1,2.5-2.5s-1-2-1.9-2.6c-0.1-0.1-0.2-0.1-0.3-0.2l-5.9-3.8l-1,0.9l4.5,6.9
					C282.3,547.4,282.8,548,284,548"/>
				<path class="st1" d="M288.2,538.1c1.3,0,2.5-1.1,2.5-2.4c0-1.3-1.2-2.4-2.5-2.4c-0.5,0-1.4,0.2-1.8,0.3l-6.7,1.3v1.4l6.8,1.6
					c0.2,0,0.3,0.1,0.5,0.1l0,0v-0.2v0.2C287.2,538,287.7,538.1,288.2,538.1"/>
				<path class="st1" d="M284.5,528.5L284.5,528.5c1-0.6,2-1.2,2-2.7c0-1.3-1.1-2.5-2.4-2.5c-1.6,0-2.2,1-2.7,2
					c-0.1,0.1-0.1,0.2-0.2,0.3l-3.7,5.8l1,1l5.7-3.7C284.2,528.6,284.4,528.6,284.5,528.5"/>
				<path class="st1" d="M274.9,530.5l1.4-6.8c0-0.1,0.1-0.3,0.1-0.5c0.1-0.5,0.3-1,0.3-1.4c0-1.3-1.2-2.5-2.6-2.5
					c-1,0-1.9,0.6-2.3,1.6c-0.3,0.7-0.2,1.1,0,1.7l1.7,7.8h1.4V530.5z"/>
				<path class="st1" d="M264.1,542.8L264.1,542.8c-0.1,0.1-0.2,0.1-0.4,0.2c-0.8,0.5-1.8,1.2-1.8,2.5s1,2.4,2.4,2.4
					c1.2,0,1.8-0.5,2.4-1.4l4.3-6.7l-1.1-0.9L264.1,542.8z"/>
				<path class="st1" d="M643.8,534.8l-6.7-1.2c-0.1,0-0.3-0.1-0.5-0.1c-0.5-0.1-1-0.2-1.4-0.2c-1.2,0-2.5,0.9-2.5,2.3
					c0,1.1,0.6,2,1.6,2.4c0.3,0.1,0.6,0.2,0.9,0.2s0.6-0.1,0.9-0.1l7.8-1.9L643.8,534.8L643.8,534.8z"/>
				<path class="st1" d="M642.1,525.6c-0.1-0.2-0.2-0.3-0.3-0.5l0,0c-0.5-0.8-1.1-1.8-2.5-1.8s-2.5,1.1-2.5,2.5
					c0,1.5,1.2,2.2,2.2,2.8l6,3.8l0.9-1L642.1,525.6z"/>
				<path class="st1" d="M649.1,540.4c2.6,0,4.6-2.2,4.6-4.8c0-2.5-2.1-4.6-4.7-4.6c-2.6,0-4.7,2.1-4.7,4.7
					C644.4,538.3,646.5,540.4,649.1,540.4"/>
				<path class="st1" d="M649.7,540.9h-1.4l-1.4,6.9c0,0.1,0,0.2-0.1,0.3h0.2h-0.2c-0.1,0.5-0.3,1.1-0.3,1.5c0,1.2,1.2,2.4,2.4,2.4
					c1.4,0,2.6-1.1,2.6-2.4c0-0.5-0.2-1.2-0.3-1.7L649.7,540.9z"/>
				<path class="st1" d="M663,533.2c-0.5,0-1.5,0.2-1.8,0.3l-6.7,1.3v1.4l6.7,1.6c0.1,0,0.3,0.1,0.4,0.1c0.4,0.1,0.9,0.2,1.4,0.2
					c1.3,0,2.5-1.2,2.5-2.4C665.5,534.3,664.3,533.2,663,533.2"/>
				<path class="st1" d="M659.5,542.9L659.5,542.9c-0.2-0.1-0.3-0.2-0.4-0.2l-5.9-3.8l-1,0.9l4.5,6.9c0.5,0.8,1.1,1.3,2.2,1.3
					c1.4,0,2.5-1.1,2.5-2.5C661.4,544,660.4,543.4,659.5,542.9"/>
				<path class="st1" d="M659.4,528.4L659.4,528.4c1-0.6,1.9-1.2,1.9-2.7c0-1.3-1.1-2.5-2.4-2.5c-1.6,0-2.2,1-2.7,1.9
					c-0.1,0.1-0.2,0.3-0.2,0.4l-3.7,5.8l1,1l5.7-3.7C659.1,528.6,659.2,528.5,659.4,528.4"/>
				<path class="st1" d="M639,542.7L639,542.7c-0.1,0.1-0.2,0.2-0.4,0.2c-0.8,0.5-1.9,1.2-1.9,2.5s1.1,2.4,2.4,2.4
					c1.2,0,1.8-0.5,2.4-1.4l4.3-6.7l-1.1-0.9L639,542.7z"/>
				<path class="st1" d="M649.8,530.4l1.4-6.7c0-0.1,0.1-0.2,0.1-0.4c0.1-0.5,0.3-1.1,0.3-1.4c0-1.3-1.2-2.5-2.6-2.5
					c-1,0-2,0.7-2.3,1.6c-0.3,0.7-0.2,1.2,0,1.8l1.7,7.7L649.8,530.4L649.8,530.4z"/>
				<path class="st1" d="M431.3,148.5l3.4-13.6c0.5,1,1.9,3.8,6.3,12.5L431.3,148.5z M365,142.4L365,142.4c0.7-0.2,1.6-0.5,2.1-0.5
					c1.6-0.2,2.1,0.3,2.8,1.9c0.7,1.7,1.2,3.1,3.8,10.9l3.4,10l0.3,0.8c1.5,4.6,2.9,8.5,3.3,10.7c0.3,1.6,0.4,2.5-0.2,2.9l-1.8,0.9
					c-0.2,0.1-0.9,0.3-1,0.9c-0.1,0.5,0.2,0.9,0.4,1s0.4,0.2,0.6,0.2c0.3,0,0.6-0.1,0.9-0.2l6.7-2.5l7.8-2.5c0.6-0.2,1-0.5,1.2-0.8
					c0.1-0.2,0.1-0.5,0-0.8c-0.3-0.7-1.1-0.7-1.5-0.5l-2.7,0.7c-0.6,0.1-1.5,0-2.3-1.9c-0.9-2.2-2.3-6.3-4-11.1l-1.4-4.1
					c2.1,1.5,16.5,10,19.7,11.3c3.1,1.3,5.1,2,8.3,1.2l3.8-1.2c0,0,3.3-0.9,9.2-1.6l6-0.5c0.4,0,0.9-0.1,1.2-0.5
					c0.2-0.2,0.2-0.5,0.2-0.8s-0.1-0.5-0.3-0.7c-0.3-0.2-0.7-0.2-1.2-0.2l-0.9,0.1c-0.7,0.1-1.2,0-1.5-0.2c-0.2-0.2-0.3-0.4-0.4-0.8
					c-0.1-0.6,0.1-1.9,0.4-3.4l2.1-8.5v-0.1l12.6-1.4l0,0l0,0l5.9,11.5c0.1,0.1,0.1,0.2,0.1,0.3v0.1v0.1c0,0,0,0-0.1,0h-0.1
					c-0.3,0.1-1.2,0.3-1.1,1.2s1.1,0.8,2.1,0.8l11-1.1c2-0.2,2.5-0.4,2.9-0.8v-0.1c0.1-0.2,0.2-0.4,0.2-0.5c0-0.2-0.1-0.4-0.2-0.5
					c-0.2-0.3-0.5-0.5-1.2-0.4h-2.3c-1.2-0.2-2.8-0.9-5.3-5.3l-18.1-33.3c-0.7-1.2-1.3-2-2.2-1.9c-1,0.1-1.3,1.1-1.8,2.9l-10.2,37.3
					c-0.5,1.9-1.1,3.6-2.2,4.5c-1.2,0.6-4,0.3-4,0.3c-3-0.1-6.1-1.5-9-2.9l-0.5-0.3c-2.6-1.2-16.1-8.4-19.7-10.7
					c1.5-3.2,6.5-13.2,7.5-15.2c1.3-2.6,2.7-4.5,4.3-5.9c0.9-0.7,2.1-1.3,2.8-1.6c0.3-0.1,0.5-0.2,0.7-0.4c0.3-0.2,0.4-0.5,0.4-0.8
					c0-0.5-0.5-1-1-1h-0.1c-0.3,0-0.6,0.1-0.8,0.2l-6.3,2.3l-5.6,1.7c-0.2,0.1-0.4,0.1-0.5,0.2c-0.4,0.1-0.6,0.5-0.6,0.9
					c0,0.3,0.1,0.6,0.3,0.7c0.3,0.4,0.8,0.4,1.3,0.3c0.2,0,0.4,0,0.5,0.4c0,0.1,0,0.2,0,0.4c0,0.8-0.5,2.1-1.1,3.6l-0.3,0.7
					c-0.5,1.2-2.1,4.8-4.5,9.8l-2.3,5.1l-0.5-1.6c-2.8-8.1-3.2-9.5-3.7-11.3c-0.2-0.7-0.3-1.2-0.3-1.6c0-0.7,0.3-1.1,0.9-1.5
					l1.4-0.7c0.2-0.1,0.6-0.2,0.9-0.6h0.1v-0.5c0-0.3-0.1-0.6-0.4-0.8l-0.1-0.1c-0.3-0.2-0.8-0.1-1.5,0.1l-6.5,2.4l-7.7,2.4
					c-0.5,0.2-1.7,0.6-1.4,1.6C363.5,142.5,364.1,142.7,365,142.4"/>
				<path class="st1" d="M458,644.4c-4.3-0.1-8.1-1.8-11-4.8c-3.7-3.9-5.6-9.7-5.4-16.4c0.2-6.3,1.8-10.9,4.8-13.8
					c2.8-2.6,6.3-3.1,8.7-3.1c0.2,0,0.3,0,0.5,0c4,0.1,7.6,1.7,10.4,4.7c3.6,3.8,5.4,9.5,5.2,16l0,0c-0.2,5.3-1.7,17.5-12.8,17.5
					C458.3,644.4,458.1,644.4,458,644.4 M457.5,602.4L457.5,602.4c-16.6-0.5-24.5,11.2-24.9,22.2c-0.2,5.8,1.7,11.6,5.2,15.8
					c4.1,4.9,10.2,7.7,17.6,7.9c0.4,0,0.7,0,1,0c6.5,0,12.3-2.1,16.6-6.2c4.5-4.2,7.1-10.3,7.3-17
					C480.8,611.6,472,602.9,457.5,602.4"/>
				<path class="st1" d="M535.3,635.2L535.3,635.2c-0.5,0.1-2.9,0.5-3.7,0.6c-1.5,0.1-1.8-0.4-2.4-2.1c-0.8-2.4-2-7.2-3.3-12.4
					l-2.5-10.3c-1.7-6.7-2.7-11.5-3.1-13.6l-0.2-0.9c-0.2-0.6-0.4-1.1-0.7-1.3c-0.2-0.2-0.5-0.2-0.8-0.1c-0.6,0.1-1.1,0.7-1.6,1.2
					c-1.6,1.9-10.2,11.3-10.6,11.6l-0.1,0.1c-0.2,0.2-0.6,0.7-0.4,1.5c0,0.1,0.2,0.5,0.8,0.7c0.4,0.1,0.9,0,1.3-0.3l1.4-1.1
					c1-0.9,3.5-2.9,4.1-3c0.2-0.1,0.3-0.1,0.7,1.4v0.1c0.1,0.4,0.4,1.7,1.8,7.2l2.2,8.9c1.3,5.4,2.5,10,2.8,12.4
					c0.3,1.7,0.1,2.2-1.2,2.9c-1,0.5-3.7,1.3-4.2,1.5c-0.3,0.1-0.5,0.2-0.6,0.4s-0.2,0.5-0.1,0.9c0.1,0.3,0.3,0.8,1.1,0.8
					c0.2,0,0.5,0,0.6-0.1l9.4-2.6l9.3-2.1c0.4-0.1,0.9-0.3,1.1-0.7c0.2-0.5,0.2-0.8,0-1.1C536.1,635.2,535.4,635.2,535.3,635.2"/>
				<path class="st1" d="M541.9,600.9c-0.5-0.4-0.9-0.8-1.2-1.3l0,0l-0.1-0.1c-0.2-0.3-0.3-0.6-0.5-0.9c-0.3-0.8-0.5-1.7-0.5-2.6
					c0-0.8,0.1-1.5,0.4-2.2c0.6-1.5,1.8-2.6,3.7-3.4c3.1-1.3,6.3,0.2,7.7,3.6c1.9,4.6-0.1,7.9-1.6,9.5c-3.8-0.5-6.2-1.2-7.8-2.4
					L541.9,600.9L541.9,600.9z M562.1,622.2c-0.7,1.8-2.2,3.1-4,3.9c-4,1.7-8.6-0.4-10.4-4.7c-2.2-5.4,0.1-9.9,1.8-12.1
					c5.4,0.8,10.4,1.5,12.5,6.5C562.9,618,562.9,620.3,562.1,622.2 M554.7,603.4L554.7,603.4c1.4-1.5,5.7-6.6,3.1-12.7
					c-0.9-2.2-2.4-3.8-4.5-4.6c-2.8-1.2-6.5-0.9-10.4,0.7c-8.6,3.5-9.6,9.5-9.6,11.9c0,1.2,0.2,2.5,0.7,3.5c1.6,3.9,5.1,6,11,6.7
					c-0.5,0.6-1,1.2-1.5,1.8c-2.4,3-3.6,6.2-3.6,9.3c0,1.6,0.3,3.1,0.9,4.5c1.2,2.8,3.2,4.8,5.8,5.9c1.5,0.6,3.1,0.9,4.9,0.9
					c2.4,0,5-0.6,7.6-1.7c5.8-2.4,8.3-6,9.4-8.7c1.3-3.1,1.3-6.5,0.1-9.5C565.8,604.8,558.2,603.8,554.7,603.4"/>
				<path class="st1" d="M602.3,604.7L602.3,604.7c-0.3-0.1-0.5,0-0.7,0.1c-0.4,0.2-2.5,1.3-3.3,1.6c-1.5,0.5-1.9,0.1-2.9-1.3
					c-1.4-1.9-3.8-5.8-6.3-9.9l-6-9.9l-7-12.2l-0.4-0.7c-0.4-0.6-0.7-0.9-1.1-1c-1.1-0.2-1.8,1.5-1.9,1.8
					c-0.9,2.2-6.5,13.9-6.7,14.3c-0.3,0.6-0.3,1.1,0,1.6c0.3,0.4,0.7,0.5,0.9,0.5c0.7,0,1.1-0.7,1.2-0.7c0.1-0.1,0.3-0.4,1.1-1.6
					c0.6-0.9,2.3-3.5,3-4l0.3-0.1c0.2,0.2,0.5,0.7,0.8,1.2l8.6,14.1c2.5,4.1,5.3,8.7,6.4,11.1c0.7,1.5,0.8,2.1-0.3,3.2
					c-0.8,0.7-3.1,2.3-3.6,2.6c-0.4,0.3-0.7,0.9-0.3,1.5c0.2,0.3,0.5,0.5,0.8,0.5c0.4,0,0.8-0.2,1-0.3l8.3-5.2l8.2-4.8
					c0.5-0.2,0.8-0.5,0.9-0.9c0.1-0.4-0.1-0.8-0.1-0.8C602.8,604.9,602.5,604.8,602.3,604.7"/>
				<path class="st1" d="M625.7,585c-0.1,1.5-0.7,2.6-1.8,3.5c-1.2,1-2.7,1.5-4.4,1.3c-4.3-0.4-10.1-4.5-15.5-11
					c-5.2-6.3-7.9-11.8-7.6-15.6c0.1-1.4,0.7-2.6,1.7-3.5s2.3-1.3,3.7-1.3c0.2,0,0.4,0,0.7,0c5.1,0.5,11.4,5.9,15.6,10.9
					C623.4,575.7,626.1,581.2,625.7,585 M607.1,552.7L607.1,552.7c-3.7-0.3-7.2,0.8-10.3,3.5c-8.2,6.9-7.3,17.6,2.6,29.4
					c5.3,6.3,11.5,9.9,17.1,9.9c3.2,0,6.3-1.2,9-3.5c3.2-2.8,5-6.1,5.4-9.9c0.5-5.9-2.3-12.6-8-19.5
					C620.6,559.9,614.4,553.4,607.1,552.7"/>
				<path class="st1" d="M209.9,330.4c2-9.3,11.5-14.1,23.1-11.6c15.8,3.4,15.6,12.4,14.8,16.2c-2.1,9.8-11.9,14.8-23.9,12.3
					C209.2,344.1,208.8,335.3,209.9,330.4 M223.8,356.4L223.8,356.4c1.7,0.4,3.4,0.6,5.2,0.6c4.1,0,8-1,11.3-2.9
					c5.6-3.2,9.4-8.7,10.9-15.9c1.5-6.9,0.5-13.2-2.9-18.5c-3.3-5.2-8.8-8.8-15.4-10.2c-6.2-1.3-11.8-0.5-16.4,2.5
					c-5,3.2-8.5,8.7-10,16c-1.6,7.4-0.5,14.1,3.3,19.4C213,351.9,218.1,355.2,223.8,356.4"/>
				<path class="st1" d="M222,285.9L222,285.9c0.4-0.1,0.7-0.6,0.9-1l0.9-1.6c1-1.3,1.7-1.3,3.4-0.7c1.7,0.7,3.1,1.3,11,5l9.1,4.3
					c4.3,2,8.7,4.1,10.8,5.4c1.4,0.9,2.1,1.5,1.9,2.2c0,0.1-0.3,0.8-0.5,1.3c-0.1,0.3-0.2,0.5-0.2,0.5l0,0c-0.2,0.6-0.3,0.9-0.2,1.2
					c0,0.1,0.2,0.4,0.5,0.5c0.1,0.1,0.2,0.1,0.4,0.1c0.1,0,0.3,0,0.4-0.1c0.4-0.1,0.7-0.5,1-1.1l1.6-3.6l1.3-2.9l4-8l3.4-6.9
					c1.2-2.6,1.3-3.4,0-4.6c-1.4-1.2-5.1-3.4-5.7-3.7c-0.5-0.2-1.4-0.6-1.8,0.3c-0.3,0.6-0.1,1.2,0.7,1.6c0.9,0.5,1.9,1.7,2.2,2.6
					c0.7,1.7-0.1,3.5-1.4,6.3c-1.9,4-2.8,5-3.8,5.5c-1.2,0.5-5.2-1.3-11.1-4.1l-10.8-5.1c-6.4-3-7.7-3.6-9.2-4.4
					c-1.9-1-2.1-1.6-1.8-2.6l0.8-2.1c0.2-0.4,0.4-0.9,0.2-1.3c-0.1-0.2-0.3-0.4-0.5-0.6c-1-0.4-1.5,0.7-1.7,1.2l-3.1,7.1l-3.5,7
					c-0.3,0.8-0.4,1.2-0.3,1.6C221,285.7,221.4,286.1,222,285.9"/>
				<path class="st1" d="M343.9,178.1l3.3,0.4c5.6,0.7,7.7,2.4,9.1,4.8c1.5,2.5,0.9,6.4-3.1,8.8c-1.9,1.1-5.7,2.6-9.3-0.8
					c-0.8-0.7-1.5-1.6-1.8-2.1c-0.2-0.3-0.5-0.7-0.9-0.9c-0.3-0.1-0.5,0-0.8,0.1c-1,0.5-0.3,1.9-0.1,2.4l3.6,6.6
					c0.6,1,1,1.4,1.9,1.4c0.2,0,0.3,0,0.6,0c2.6-0.3,5-1.2,8.1-3c3.2-1.9,5.5-4.2,6.9-6.9c0.9-1.8,1.3-3.6,1.3-5.5
					c0-2.9-1.1-5.2-1.8-6.3c-2.8-4.8-7-6.9-15.9-8.1l-2-0.2c-5.5-0.6-7.7-1.5-9-3.7c-0.5-0.9-0.8-1.8-0.8-2.7c0-1.9,1.3-3.8,3.5-5.1
					c2.9-1.7,5-1.2,6.3-0.7c1.7,0.6,2.7,1.9,2.9,2.3c0.3,0.5,0.6,0.8,1,0.9c0.3,0.1,0.9,0,1.2-0.7c0.1-0.4-0.1-1-0.6-1.9l-2.9-5.2
					l-0.4-0.8c-0.5-0.8-1.4-0.5-1.7-0.4c-1.8,0.5-4.1,1.3-7.2,3.1c-3.8,2.2-6.4,5.4-7.2,8.8c-0.7,2.7-0.3,5.5,1.2,8
					C331.9,174.8,336.1,177,343.9,178.1"/>
				<path class="st1" d="M510.9,169.9c0.4,0,0.7-0.1,0.9-0.2c0.4-0.3,0.4-0.9,0.3-1.2l-0.1-0.1c-0.2-0.3-0.6-0.5-1.1-0.6l-2.8-0.7
					c-1.3-0.4-1.5-1.1-1.4-2.6c0.2-2.4,0.9-6.8,1.8-11.9l1.7-10.3c1.4-8.3,1.7-10.1,2.1-11.9c0.5-2.1,1-2.4,2.1-2.4l1.7,0.1
					c1,0.2,1.5-0.1,1.6-0.9v-0.1l-0.1-0.4l-0.1-0.1c-0.2-0.3-0.6-0.5-1.4-0.6l-6.9-1l-7.3-1.4c-0.8-0.1-1.4-0.1-1.7,0.1
					c-0.2,0.1-0.3,0.3-0.3,0.6c-0.1,0.4,0,0.7,0.2,0.9c0.2,0.2,0.6,0.4,1,0.5c0.5,0.1,1.2,0.2,1.9,0.5c0.9,0.4,1.2,1.2,1,2.9
					c-0.2,1.8-0.4,3.2-1.7,11.1l-1.8,10.8c-0.9,5.3-1.6,9.9-2.3,12.2c-0.5,1.8-0.9,2.1-1.6,2.1l-2-0.1c-1-0.1-1.5,0.1-1.6,0.7
					c-0.1,0.4,0,1.1,1.5,1.4l7.1,1l8.8,1.6C510.5,169.9,510.7,169.9,510.9,169.9"/>
				<path class="st1" d="M579.2,197c0,0.4,0.2,0.8,0.4,1.2c1.4,2.2,3.2,4.1,6.2,6.1c3.1,2.1,6.1,3.2,9.1,3.3c0.1,0,0.2,0,0.4,0
					c5.6,0,8.8-3.4,10.2-5.4c3.2-4.6,3.3-9.3,0.6-17.8l-0.6-1.9c-1.7-5.3-1.8-7.6-0.4-9.7c1.8-2.7,5.1-3,8.2-0.8
					c2.8,1.9,3.2,4,3.3,5.4c0.1,1.8-0.6,3.3-0.8,3.6c-0.1,0.1-0.6,0.8-0.4,1.4c0.1,0.3,0.2,0.5,0.4,0.6c0.2,0.2,0.7,0.4,1.3-0.1
					c0.3-0.2,0.6-0.5,0.9-1.1l3.5-4.8l0.6-0.8c0.5-0.8-0.1-1.4-0.3-1.7c-1.1-1.3-2.8-3.2-5.8-5.2c-3.6-2.5-7.5-3.5-11-2.9
					c-2.8,0.5-5.1,2-6.8,4.4c-2.9,4.2-3.2,9-0.8,16.4l1,3.2c1.7,5.4,1,8-0.5,10.2c-1.7,2.4-5.5,3.5-9.2,0.9
					c-1.9-1.3-4.8-4.1-3.2-8.8c0.3-1,0.8-2,1.1-2.5c0.2-0.3,0.5-0.7,0.4-1.2c0-0.3-0.2-0.5-0.4-0.7c-0.9-0.6-1.8,0.6-2.2,1l-4.5,6
					C579.5,196,579.2,196.4,579.2,197"/>
				<path class="st1" d="M651.8,208.1c0.5,0.6,1.8,2,4.5,4.9c2.4,2.5,2.9,4.1,2.9,5c0,0.5-0.2,0.9-0.5,1.3l-0.4,0.5
					c-0.4,0.5-0.7,0.9-0.7,1.3c0,0.3,0.1,0.5,0.3,0.8c0.6,0.6,1.4,0.1,1.8-0.2l0.1-0.1l0.1-0.1l0,0c0.7-0.6,3.5-3.3,4.7-4.4
					c0.4-0.4,0.8-0.8,0.8-1.3c0-0.2-0.1-0.5-0.3-0.7l-1.3-0.9c-0.1-0.1-1.7-1.5-2.8-2.4l-15.8-16.5c-1.3-1.3-2.7-3-3.7-4.3
					c-0.5-0.6-0.7-1.1-0.9-1.5l-0.4-0.6l-0.1-0.1c-0.6-0.6-1.5-0.1-1.9,0.2c-0.3,0.2-4.9,3.1-5.7,3.8c-0.4,0.4-0.6,0.7-0.6,1.1v0.1
					c0.1,0.5,0.4,0.7,0.6,0.8c0.6,0.3,1.2-0.1,1.3-0.1c0.3-0.2,0.9-0.4,1.9-0.6c1.3-0.2,2.4,0.6,4.6,2.7l5.7,5.5
					c-2.4,2.4-16.3,15.9-16.5,16l-0.6,0.6c-3.4,3.3-6.4,6.2-8.2,7.6c-1.4,1.1-2.2,1.4-2.7,1l-1.6-1.3c-0.7-0.7-1.3-0.8-1.7-0.4
					c-0.2,0.2-0.3,0.4-0.3,0.7c0,0.6,0.5,1.2,0.7,1.4l5.1,5l6.1,6.6c0.4,0.4,0.9,0.7,1.3,0.7c0.4,0,0.6-0.2,0.7-0.3
					c0.2-0.2,0.3-0.5,0.3-0.6c0-0.4-0.2-0.7-0.5-1.1l-1.9-2.2c-0.3-0.4-0.4-0.7-0.4-1.1c0-0.7,0.5-1.4,1-2c1.6-2,5.1-5.4,8.5-8.7
					C647.5,212.3,650.8,209.1,651.8,208.1"/>
				<path class="st1" d="M646,257L646,257c-1.6,0.9-2.2,0.8-2.6,0.4l-1.3-1.5c-0.2-0.3-0.5-0.7-1-0.8c-0.2,0-0.5,0-0.6,0.1
					c-0.3,0.2-0.4,0.4-0.5,0.7c-0.1,0.7,0.5,1.4,0.5,1.4l4.2,5.8l4.9,7.5c0.4,0.6,0.8,0.9,1.3,0.9c0.2,0,0.4-0.1,0.6-0.2
					c0.3-0.2,0.8-0.7,0-1.8l-1.4-2.5c-0.6-1.2-0.2-1.9,0.9-2.8c1.9-1.5,5.4-3.9,10.2-7.2l10.3-6.9c5.6-3.8,6.7-4.6,8.2-5.4
					c1.8-1.1,2.4-0.9,3.2-0.2l1.1,1.3c0.7,1,1.3,0.9,1.8,0.6c0.2-0.1,0.3-0.3,0.4-0.6c0.1-0.4-0.1-0.9-0.5-1.5l-4-5.7l-4-6.2
					c-0.3-0.5-1-1.6-1.9-1.1c-0.3,0.1-0.4,0.4-0.5,0.6c-0.1,0.6,0.3,1.2,0.3,1.2c0.4,0.7,0.7,1.3,0.9,1.7c0.4,1,0,1.7-1.4,2.8
					c-1.3,1-2.5,1.8-8.2,5.7l-10.7,7.3C651.5,253.6,648.1,255.9,646,257"/>
				<path class="st1" d="M689.2,266.5c0.3-0.1,1-0.1,2,0.1c1.3,0.2,2.1,1.4,3.4,4.1l3.4,7.2c-3,1.3-20.1,8.9-20.9,9.2l-0.2,0.1
					c-4.7,2.1-8.8,3.9-11,4.6c-1.7,0.5-2.5,0.5-2.9,0c0,0,0,0-1-1.8c-0.2-0.5-0.6-0.8-1-0.9c-0.5-0.1-0.9,0.2-0.9,0.3
					c-0.5,0.4-0.2,1.1,0,1.7l3.1,6.5l3.5,8.3c0.2,0.6,0.6,0.9,1,1.1h0.1c0.1,0,0.1,0,0.2,0c0.4,0,0.6-0.2,0.7-0.3
					c0.4-0.5,0.2-1.3,0.1-1.5l-1-2.7c-0.1-0.2-0.1-0.4-0.1-0.6c0-0.9,0.7-1.4,1.8-2c2.1-1.2,6.1-3,10.9-5.1l2.1-0.9
					c4.7-2.1,16.6-7.3,19-8.4c0.3,0.9,1.2,2.9,2.5,6.2c0.7,1.8,1.1,3.3,1.1,4.4c0,1.4-0.6,2-1.1,2.3l-0.6,0.3
					c-0.6,0.3-1.1,0.7-1.1,1.3c0,0.2,0,0.3,0.1,0.5c0.4,0.9,1.3,0.5,1.8,0.4c0.1,0,6.1-2.5,6.1-2.5c0.7-0.3,1.1-0.5,1.2-0.9v-0.1
					v-0.6l-0.9-1.4c-0.1-0.1-1-1.9-1.8-3.4l-9.1-20.7c-0.7-1.5-1.5-3.6-2-5.3c-0.3-0.8-0.3-1.3-0.3-1.8l-0.1-0.7v-0.1
					c-0.3-0.8-1.3-0.6-1.9-0.5c-0.5,0.1-5.7,1.2-6.6,1.6c-0.3,0.1-1.3,0.6-0.9,1.6C687.9,266.4,688.4,266.6,689.2,266.5"/>
				<path class="st1" d="M692.6,324.6c-7.3,1.3-11.8,3.9-14.3,8c-3.2,5.2-2.1,11.1-1.6,13.6c0.6,3.3,1.9,7.6,6.4,11.3
					c2.7,2.2,6,3.2,10.3,3.2c2.3,0,4.7-0.3,8-0.9l6.2-1.1c8.4-1.6,9.9-1.8,11.7-2c2.1-0.3,2.6,0.1,3,1.1l0.5,1.5
					c0.1,0.6,0.3,1,0.7,1.3c0.3,0.1,0.9,0.2,1.3-0.3c0.3-0.4,0.2-0.9,0.1-1.5l-1.3-6.3c0-0.2-0.7-4.4-1-6.5
					c-0.1-0.5-0.2-0.8-0.3-1.1c-0.2-0.4-0.6-0.6-1-0.5s-0.5,0.2-0.6,0.4c-0.3,0.4-0.2,0.8-0.1,1.3l0.2,2c0,1.6-0.6,2.1-2.3,2.5
					s-3,0.7-10.6,2.1l-8.3,1.5c-6.1,1.1-10.8,1.7-14.1-0.6c-3.1-2.1-4-5.5-4.2-6.8c-0.3-1.9-0.5-4.4,1-7.1c1.9-3.4,5.5-5.3,12.6-6.7
					l8.2-1.5c8.4-1.6,9.8-1.8,11.6-2c2.1-0.3,2.6,0.1,3,1.1l0.5,1.6c0.1,0.2,0.3,0.9,0.7,1.1c0.2,0.1,0.4,0.1,0.5,0.1
					c0.3,0,0.5-0.2,0.7-0.4c0.3-0.4,0.2-0.9,0-1.6l-1.4-6.9l-1.3-8.2c-0.1-0.5-0.3-1.8-1.4-1.6c-1,0.2-0.8,1.3-0.8,1.7
					c0.1,0.7,0.2,1.7,0.2,2.1c0,1.6-0.6,2.1-2.3,2.5s-3.1,0.7-11.5,2.2L692.6,324.6z"/>
				<path class="st1" d="M725.1,378.9c-0.6-0.2-5.6-1.5-6.6-1.5c-0.6,0-1,0.1-1.3,0.3c0,0-0.3,0.5-0.2,1c0.1,0.4,0.4,0.7,1,0.9
					s1.2,0.5,1.8,1c0.9,0.7,1.2,1.7,1.2,4.5v0.7c0,0-0.1,6.1-0.2,7.9c-3.1-0.1-19.5-0.9-23-1.1h-0.2c-5-0.2-9.4-0.4-11.7-0.8
					c-1.7-0.3-2.5-0.6-2.6-1.3l-0.1-2.1c0-0.1,0-0.1,0-0.2c0-0.5-0.2-0.9-0.5-1.1c-0.5-0.3-1,0-1,0l-0.1,0.1
					c-0.3,0.3-0.5,0.7-0.5,1.4l-0.2,7.2l-0.6,9c0,0.6,0.1,1.1,0.4,1.4c0.2,0.2,0.8,0.4,1.3,0c0.3-0.2,0.4-0.6,0.4-1.1l0.4-2.9
					c0.3-1.4,1.2-1.6,2.7-1.6c2.2-0.1,6.2,0,10.7,0.2l1.4,0.1c16.8,0.8,21.5,1,22.9,1.1c-0.1,0.8-0.2,2.6-0.5,6.6
					c-0.4,5.2-2,6-3,6.1h-0.6c-0.6,0-1.7,0-1.7,1.1c0,0.9,0.9,1,1.4,1.1c0.1,0,1.9,0.1,3.6,0.3c2.9,0.2,3,0.2,3,0.2
					c0.2,0,0.3,0,0.5,0c0.4,0,0.8,0,1-0.3l0.3-0.6l-0.2-1.7c0-0.1,0-0.8-0.1-3.9l1.1-22.6c0.1-1.8,0.3-4,0.5-5.7
					c0.1-0.7,0.3-1.2,0.5-1.6l0.3-0.7v-0.1C726.6,379.3,725.7,379,725.1,378.9"/>
				<path class="st1" d="M719.3,435.4c-0.5-0.4-1-0.4-1.2-0.2c-0.3,0.2-0.5,0.5-0.7,1.1c-0.2,0.7-0.5,1.6-0.7,2
					c-0.7,1.5-1.5,1.6-3.2,1.3s-3-0.6-10.4-2.5l-11.4-2.9c-4.7-1.2-9.2-2.3-11.4-3.2c-1.3-0.5-2.3-1-2.3-1.8l0.3-2
					c0.1-0.6,0.1-1-0.1-1.3c-0.4-0.5-1-0.4-1.3-0.3c-0.3,0.2-0.6,0.6-0.8,1.3l-0.9,3.8l-0.7,3.1l-1.6,5.7l-2.6,9.6
					c-0.6,2.1-0.8,3,0.9,4c1.1,0.6,4.8,2,6.1,2.3c0.4,0.1,1,0.3,1.4,0s0.4-0.7,0.4-0.9c-0.1-0.6-0.8-1-1-1.1
					c-2.1-0.9-2.9-1.7-3.1-3.1c-0.3-1.6,0.3-3.9,0.7-5.2c1.4-5.8,2.4-5.8,5.7-5.1l12.9,3.3h0.1c-0.4,1.5-1.7,6.6-2.1,7.5
					c-0.6,1.5-1.3,2.2-2.4,2.2l-1.5-0.2l-0.5-0.1c-0.7-0.1-1.1,0.4-1.3,0.8c-0.2,1,0.8,1.3,1.3,1.4c0.2,0,2.6,0.8,3.6,1.2
					c0.2,0.1,2.1,0.8,3.4,1.3l0.5,0.2c0.3,0.1,0.6,0.1,0.8-0.1c0.2-0.1,0.4-0.3,0.4-0.6c0.1-0.5-0.2-1-0.5-1.4
					c-0.4-0.6-0.3-1.3-0.1-2.6c0.1-0.8,0.9-4.1,2.1-8.7h0.1l13.9,3.5h0.1c-0.4,1.4-1.8,6.7-2.2,7.6c-1,2.7-1.8,2.8-2.5,2.8
					c-0.6,0.1-1.3,0-1.9-0.1h-0.1h-0.3c-0.7-0.1-1,0.4-1.1,0.5v0.1c0,0.1,0,0.1,0,0.2l0,0c-0.1,0.8,0.6,1.2,0.8,1.3l2.5,0.8l1.1,0.3
					l3,1.2l0.5,0.2h0.1c0.1,0,0.2,0,0.3,0c0.5,0,0.8-0.3,0.9-0.8v-0.6v-0.3l0.3-2.4c0.2-0.9,2.5-10.1,3.3-13.1l1.1-3.8l1.3-4.8
					C719.6,436.3,719.6,435.9,719.3,435.4L719.3,435.4z"/>
				<path class="st1" d="M705.6,482.3L705.6,482.3c-0.4-0.3-4.6-3.6-5.5-4c-0.5-0.2-0.9-0.3-1.2-0.2c-0.5,0.2-0.7,0.7-0.7,1
					c0,0.5,0.4,0.9,0.6,1.1c0.1,0,0.6,0.4,1.2,1.5c0.2,0.4,0.3,0.8,0.3,1.2c0,0.9-0.5,2.2-1.3,4l-0.2,0.4c-1,2.2-2.5,5.6-3.1,6.8
					l-11.2-5.4c-7.4-3.6-9-4.4-9.4-4.5l0,0l-0.7-0.3c-4.4-2.1-8.2-4-10.1-5.3c-1.3-0.8-1.9-1.4-1.9-2c0-0.1,0-0.2,0-0.2l0.7-1.9
					c0.2-0.3,0.3-0.6,0.3-0.9c0-0.1,0-0.2,0-0.3v-0.1l-0.1-0.1c-0.4-0.4-0.9-0.5-1.1-0.4h-0.1c-0.4,0.1-0.7,0.5-1,1.1l-1.9,4.1
					l-1.1,2.4l-1.2,2.4l-2.8,5.6c-0.3,0.5-0.5,1.5,0.3,2c0.2,0.1,0.5,0.1,0.7,0.1c0.3-0.1,0.6-0.4,0.8-0.9l1.5-2.5
					c0.7-1.1,1.6-1,3.1-0.4c2.2,0.8,6.2,2.7,10.7,4.9l0.3,0.1c0,0,0,0,5.3,2.6l0.9,0.5c5.2,2.5,12.6,6.1,14.5,7
					c-0.4,0.7-1.3,2.4-3.1,5.8c-2.4,4.7-4.2,4.8-5.1,4.4l-0.6-0.2c-0.6-0.2-1.6-0.6-2,0.3c-0.4,0.8,0.5,1.4,0.8,1.6l0.1,0.1l0,0
					c0.5,0.3,1.9,1,5.7,3h0.1c0.4,0.2,0.8,0.4,1.2,0.4s0.6-0.2,0.8-0.5v-0.1v-0.1c0.1-0.2,0.2-0.9,0.2-0.9l0.1-0.6
					c0.1-0.3,0.4-1,1.4-3.5l9.9-20.4c0.8-1.6,1.8-3.5,2.7-5c0.4-0.6,0.8-1,1.1-1.2l0.6-0.6l0.1-0.1
					C706.8,483.3,706,482.7,705.6,482.3"/>
				<path class="st1" d="M295.8,229.9L295.8,229.9c3.4,3.6,4.1,4.8,3.5,5.7c-0.4,0.7-1.2,1.5-1.6,1.8c-0.4,0.4-0.6,0.7-0.6,1.2
					c0,0.4,0.3,0.9,0.9,0.9h0.1l0,0c0.5,0,0.9-0.3,1.4-0.8l3.7-3.7l0.6-0.7l5.3-4.8c0.4-0.4,1.3-1.3,0.6-2.1
					c-0.7-0.7-1.5,0.1-1.8,0.3c-0.5,0.5-1.3,1.2-2.3,1.7c-1,0.4-2.6-0.5-5.2-3.1l-16.1-16.1c0.2,0,0.4,0,0.7,0
					c2.6,0.2,10.6,0.8,17.9,1l23.8,0.6c0.9,0,1.9,0,2.5-0.5h0.3V211c0.1-0.2,0.2-0.4,0.2-0.6c0-0.1,0-0.3-0.1-0.4
					c-0.1-0.4-0.5-0.9-0.9-1.4L304.3,182c-2.2-2.4-2.3-3.3-1.8-4.2l1.1-1.3c0.5-0.4,0.7-0.8,0.7-1.2c0-0.3-0.1-0.5-0.3-0.7
					s-0.4-0.3-0.7-0.3c-0.5-0.1-1,0.4-1.4,0.8l-3.2,3.2L298,179l-5.1,4.6c-0.6,0.6-1,1-1,1.5v0.1l0.2,0.6l0.5,0.3h0.2l0,0
					c0.4,0,0.7-0.2,1.1-0.6c0.6-0.5,1.5-1.4,2.2-1.7c1.1-0.4,2-0.2,4.4,2.3l17.3,17.4c-1.2-0.1-3.2-0.2-4.2-0.2c-0.4,0-0.6,0-0.6,0
					l-12.2-0.5c-12.3-0.3-25.3-1.1-25.5-1.1h-0.8c-1.1-0.1-1.8-0.1-2.4,0.4c-0.9,0.9,0.3,2.2,0.8,2.7L295.8,229.9z"/>
				<path class="st1" d="M244.1,241.1c0.2,0.3,0.5,0.5,0.9,0.5c0.2,0,0.4-0.1,0.5-0.1c0.3-0.1,0.5-0.3,0.7-0.7
					c0.4-0.6,0.8-1.1,1.3-1.5c0.7-0.7,1.6-0.6,3.1,0.3c1.4,0.9,2.7,1.7,8.6,5.8l9.8,6.8c4.3,3,8.1,5.6,9.9,7.1
					c1.4,1.2,1.5,1.7,1.3,2.3l-1,1.8c-0.3,0.5-0.4,0.9-0.4,1.2c0,0.3,0.3,0.8,1.1,0.8h0.1c0.4-0.1,0.8-0.3,1.2-0.9l3.9-6l5.2-7.2
					c0.4-0.5,0.5-1,0.4-1.4c-0.1-0.3-0.2-0.5-0.4-0.6s-0.4-0.2-0.7-0.1s-0.7,0.3-0.9,0.8l-1.8,2.2c-0.9,1-1.7,0.8-2.9,0.2
					c-2-1.1-5.4-3.4-9.7-6.4l-9-6.2c-7-4.8-8.4-5.8-9.9-6.9c-1.7-1.3-1.8-1.9-1.3-2.9l0.8-1.5c0.5-0.8,0.5-1.4-0.1-1.8
					c-0.2-0.1-0.4-0.2-0.7-0.2c-0.5,0.1-0.8,0.5-1.2,1l-3.8,5.8l-4.3,6c-0.4,0.6-0.6,1-0.6,1.3c0,0.1,0,0.1,0,0.3L244.1,241.1
					L244.1,241.1z"/>
				<path class="st1" d="M223.8,397.9c-0.1,0.1-0.1,0.2-0.5,0.2l-17.4,0.5c-0.2,0-0.2,0-0.2,0v-0.1c-0.2-0.5-0.2-1.3-0.3-2.9
					c-0.1-2,0.7-4.1,2.1-5.6c1.7-1.8,4.2-2.8,7.5-2.9c0.2,0,0.4,0,0.6,0c4.6,0,6.7,1.8,7.6,2.9c0.7,0.9,0.9,1.6,1,3.7
					C224.2,395.3,224.1,396.9,223.8,397.9 M229.2,405.8c5.1-0.2,9.6-0.3,11.9-0.1c1.7,0.2,2.5,0.4,2.7,1.1l0.3,2
					c0,0.5,0.1,0.9,0.4,1.2c0.1,0.1,0.3,0.3,0.6,0.3c0.2,0,0.4-0.1,0.5-0.1c0.6-0.3,0.7-1.1,0.7-1.6l-0.4-6.9l-0.1-8.4
					c0-0.3,0-1-0.5-1.4c-0.2-0.2-0.4-0.3-0.7-0.2c-0.3,0-0.5,0.1-0.7,0.3s-0.3,0.6-0.3,0.9l-0.1,2.8c-0.1,1.2-0.7,1.6-2.6,1.8
					c-2.3,0.3-6.6,0.5-11.7,0.7H228l-0.1-4.9c0-0.4,0.1-0.5,0.1-0.6l3.7-2.9l4-3c4.5-3.5,7-5.8,8.3-8.3c0.8-1.6,1-3.3,0.9-6.4
					l-0.2-5.4c0-0.6-0.1-0.9-0.3-1.2l-0.2-0.2l-0.1-0.1l0,0c-0.2-0.1-0.3-0.2-0.5-0.2c-0.1,0-0.3,0-0.3,0.1
					c-0.2,0.1-0.8,0.3-0.7,1.2l-0.1,1.6c-0.1,0.8-0.5,3.1-3.5,6.2c-2.9,3-6.9,6.3-11.9,10.6l-2.3,2c-0.1-0.1-0.2-0.2-0.3-0.4
					l-0.3-0.4c-4.1-4.4-7.9-6.4-12.4-6.2c-4.3,0.1-7.2,2.9-8.2,4.4c-2.1,3.4-2.3,7.4-2.2,10.9l0.4,8l0.1,7.8c0,0.5,0,1.8,1.1,1.8
					c1.1-0.1,1-1.2,1-1.6c0-0.8,0-1.7,0.1-2.1c0.3-1.6,1-2,2.7-2.1c1.7-0.2,3.3-0.2,11.1-0.5L229.2,405.8z"/>
				<path class="st1" d="M236.4,449.9l-13.9-1.6c1-0.7,3.8-2.6,11.5-7.9L236.4,449.9z M270.7,496.3c1.5-0.5,2.5-0.7,2.9-0.1l1.1,1.7
					c0.3,0.5,0.6,0.8,0.9,0.9h0.1c0.6,0.1,0.9-0.2,1-0.4c0.4-0.6-0.1-1.4-0.2-1.7l-3.4-6.3l-3.5-7.4c-0.3-0.5-0.6-0.9-1-1
					c-0.3-0.1-0.5-0.1-0.8,0.1s-0.5,0.5-0.5,0.9c0,0.2,0.1,0.5,0.2,0.7l0,0c0.1,0.2,0.3,0.8,1,2.5l0,0c0.1,0.2,0.1,0.4,0.1,0.5
					c0,0.7-0.5,1.4-1.7,2.1c-2.1,1.2-6.1,3.3-10.4,5.4c0,0-2.4,1.2-3.9,1.9c1.1-2.3,7.7-17.7,8.6-21s1.3-5.3,0.1-8.4l-1.7-3.5
					c-0.5-0.8-1-2.2-1.1-2.5l-1.5-5.4l-0.3-1.1l-1.3-5.9c-0.1-0.4-0.3-0.9-0.7-1.1c-0.2-0.1-0.5-0.2-0.8-0.1c-1,0.3-0.7,1.2-0.6,1.6
					l0.2,0.8c0.4,1.6-0.2,1.9-0.8,2s-1.9,0.2-3.4,0l-8.7-1h-0.1l-3.1-12.3v-0.1l0,0l10.6-7.4c0.1-0.1,0.3-0.1,0.4-0.1h0.1
					c0,0,0.1,0.1,0.3,0.5c0.3,0.5,0.7,0.6,1.2,0.5c0.9-0.2,0.7-1.2,0.5-2.2l-2.6-10.8l-0.2-0.6c-0.3-1.4-0.5-2-1.2-2.1
					c-0.4-0.1-0.7,0.1-0.8,0.2c-0.4,0.4-0.4,1-0.3,1.2l0.4,2.3c0,1.2-0.5,2.9-4.6,6l-30.6,22.3c-1.2,0.9-1.8,1.6-1.6,2.4
					c0.3,1,1.3,1.1,3.1,1.4l38.3,5c2,0.3,3.7,0.6,4.9,1.7c0.4,0.3,0.7,2.2,0.7,3.8c0.3,3-0.8,6.3-1.7,9.3l-0.2,0.6
					c-0.8,2.8-6.2,17.1-7.9,20.9c-3.3-1.1-13.8-4.6-16.1-5.4c-2.8-1-4.8-2.1-6.4-3.5c-0.8-0.8-1.6-1.9-1.9-2.5
					c-0.2-0.4-0.4-0.8-0.8-0.9h-0.1l-0.7,0.1l-0.4,0.4l-0.1,0.1c-0.1,0.4,0,0.7,0.2,1.3l3.1,5.9l2.5,5.3c0.3,0.6,0.5,0.8,0.9,0.9
					h0.1h0.5l0.2-0.1c0.7-0.4,0.5-1.2,0.5-1.5c0-0.2-0.1-0.3,0.4-0.6c0.7-0.3,2.6,0.1,4.4,0.6l0.3,0.1c1.3,0.3,5.2,1.5,8.9,2.7
					l1.3,0.4c3,0.9,4.6,1.4,5.4,1.7l-0.9,0.4c-0.6,0.3-1.1,0.6-1.1,0.6l-0.8,0.4c-6.3,3.1-7.8,3.8-9.3,4.5c-1.9,0.8-2.5,0.6-3.2-0.2
					c0-0.1-0.4-0.7-0.6-1c-0.1-0.1-0.1-0.2-0.2-0.3l0,0c-0.5-1.1-1.3-0.9-1.6-0.7c-0.9,0.5-0.4,1.6-0.2,2.1l3.2,6.1l3.4,7.2
					c0.3,0.6,0.6,1,1,1.2h0.1l0.5-0.1h0.1c0.6-0.3,0.7-0.9,0.3-1.8c-0.3-0.7-0.7-1.5-0.8-2c-0.4-1.6,0.1-2.2,1.6-3
					c1.5-0.9,2.7-1.5,10.3-5.3l9.6-4.8C264.2,499.2,268.4,497.1,270.7,496.3"/>
				<path class="st1" d="M316.3,563.5c-0.5,1.5-2,5.9-4.4,13l-0.1,0.2l-7.6-6L316.3,563.5z M315,600.5c-0.7-1-1.3-2.7,0.1-7.5
					l11-36.3c0.4-1.3,0.6-2.3-0.2-2.9c-0.8-0.6-1.7-0.1-3.3,0.7l-33.6,19c-2.8,1.6-4.5,2.1-6.4,1l-1.4-1h-0.1
					c-0.5-0.2-0.9-0.2-1.3,0s-0.5,0.7-0.5,0.8v0.1c0,0.4,0.3,0.7,0.8,1.2l4.4,3.4l0.9,0.7l4.6,3.9c0.3,0.3,0.9,0.7,1.4,0.4
					c0.5-0.2,0.6-0.6,0.6-0.8c0.1-0.6-0.4-1.1-0.6-1.2l-0.7-0.5c-0.6-0.4-0.9-0.9-0.9-1.2s0.1-0.5,0.3-0.8c0.4-0.5,1.5-1.3,2.7-2.1
					l7.5-4.4c0,0,0,0,0.1,0l9.9,8l0,0c0,0,0,0,0,0.1l-4,12.3c0,0.2-0.1,0.3-0.2,0.3l-0.1,0.1l0,0h-0.1l0,0h-0.1
					c-0.7-0.4-1.2-0.4-1.6,0.1c-0.6,0.7,0.2,1.4,0.9,2l8.5,7.1c1.4,1.1,2,1.5,2.5,1.5c0,0,0.1,0,0.2,0c0.5-0.1,0.6-0.4,0.7-0.6
					c0.1-0.6-0.3-1.1-0.5-1.3L315,600.5z"/>
				<path class="st1" d="M380,590.3l1.5,0.6c1.2,0.6,1.7,0.1,1.9-0.2c0.5-1-0.6-1.5-1.2-1.8l-4.1-2l-0.9-0.4l-6.1-3.3
					c-0.1-0.1-0.2-0.1-0.3-0.2c-0.6-0.3-1.2-0.6-1.6-0.1c-0.3,0.3-0.4,0.7-0.3,0.9c0.1,0.6,0.7,1,0.8,1c0.6,0.3,1.8,0.9,2.4,1.5
					c0.3,0.4,0.5,0.8,0.5,1.3c0,0.7-0.3,1.8-1.2,3.6c-0.4,0.8-8.6,17.8-10.7,22.1c-0.5-1.6-1.4-4.7-1.4-4.7l-3.5-11.7
					c-3.8-11.8-7.4-24.3-7.4-24.4l-0.2-0.7c-0.3-1.2-0.7-1.9-1.3-2.2c-0.3-0.1-0.6-0.1-0.7,0c-0.5,0.2-1,0.7-1.5,1.7l-15.9,29.9
					c-2.3,4.3-3.1,5.4-4.2,5.2c-0.8-0.1-1.7-0.6-2.3-0.9c-0.4-0.2-0.8-0.4-1.3-0.2c-0.6,0.3-0.7,0.9-0.6,1.2
					c0.1,0.5,0.6,0.7,1.2,1.1l4.7,2.3l0.8,0.4l1.3,0.8l4.9,2.6c0.7,0.4,1.2,0.5,1.6,0.3c0.6-0.2,0.7-0.7,0.7-1.2
					c-0.1-0.3-0.4-0.6-1-0.9c-0.7-0.3-1.6-0.9-2.3-1.6c-0.7-0.8-0.4-2.7,1.2-5.9l9.8-20.5l0.2,0.6c1.2,4.4,3,11.1,5.1,17.3l3.3,10.3
					l4,12.4c0.3,1,0.7,1.9,1.5,2.3c0.1,0,0.2,0.1,0.3,0.1c0.9,0,1.7-1.3,1.8-1.5l17-31.8C378.1,590.5,378.9,590.1,380,590.3"/>
				<path class="st1" d="M430.8,602.6l-4.4-1.1l-1-0.2l-6.6-2c-0.8-0.2-1.4-0.3-1.8,0c0,0-0.5,0.3-0.4,0.9c0,0.8,0.8,1,1.2,1.1
					c0.6,0.2,2,0.5,2.6,1s0.8,1,0.8,1.9c0,0.7-0.1,1.5-0.5,3l-0.1,0.2c-0.5,2.1-4.8,19.2-6,23.6c-0.8-1.4-2.3-4.2-2.4-4.4l-5.8-10.6
					c-5.5-9.6-11.4-20.7-12.2-22.4l-0.4-0.8c-0.5-0.9-0.8-1.6-1.5-1.8c-1.2-0.3-1.7,1.3-1.9,2.1l-9.5,32.5c-1.3,4.4-1.9,5.9-3.1,6
					c-0.7,0-1.5-0.1-2.4-0.4c-0.3-0.1-1.3-0.4-1.6,0.4c-0.1,0.2-0.2,0.5-0.1,0.8c0.2,0.4,0.7,0.7,1.5,0.9l6,1.4l6.8,2
					c0.7,0.2,1.3,0.4,1.8-0.1c0.3-0.4,0.3-0.8,0.2-1c-0.2-0.6-1-0.8-1.1-0.9c-0.9-0.3-1.8-0.6-2.6-1.1c-0.9-0.6-0.9-2.5,0-6.1
					l5.5-22.1l0.3,0.6c1.5,2.9,4.9,9.7,8.4,15.8l5.2,9.2l6.6,11.5c0.4,0.7,0.9,1.6,1.7,1.9l0.3,0.1h0.1c0.4,0.1,0.7-0.1,1-0.4
					c0.3-0.3,0.5-0.8,0.7-1.5l10.2-34.6c0.9-3.2,1.6-3.7,2.7-3.7l1.6,0.3c0.7,0.1,1.2,0.1,1.5-0.3c0.3-0.3,0.3-0.8,0.3-0.9
					C432.2,603.1,431.6,602.9,430.8,602.6"/>
				<path class="st1" d="M523.6,173.1l0.1-0.1L523.6,173.1l4.9,1.8l0.9,0.3l6.5,2.8c0.5,0.2,1.7,0.7,2.2-0.4c0.1-0.2,0.1-0.5,0-0.7
					c-0.2-0.5-0.9-0.8-1-0.8c-0.8-0.3-1.7-0.7-2.5-1.4s-0.6-2.6,0.6-6l7.8-21.3l0.2,0.6c1.1,3,3.8,10.2,6.7,16.7l4.2,9.8l5.3,12.1
					c0.4,0.8,0.8,1.8,1.7,2.2h0.7h0.1c0.5-0.2,0.9-0.7,1.2-1.7l13.8-33.3c1.3-3,2-3.5,3.1-3.4l1.6,0.4c0.6,0.2,1,0.3,1.4,0.1
					l0.2-0.1l0.4-1l-0.1-0.2c-0.2-0.4-0.6-0.7-1.4-1l-4.3-1.6l-0.9-0.3l-6.4-2.7c-0.7-0.3-1.9-0.7-2.3,0.3c0,0.1-0.1,0.3-0.1,0.4
					c0,0.7,0.8,1,1.1,1.1c0.8,0.3,1.9,0.8,2.5,1.3c0.5,0.5,0.7,0.9,0.7,1.5c0,0.8-0.3,1.8-0.9,3.4c-1.7,4.6-7.2,19.5-8.5,23
					c-0.3-0.8-0.9-2.1-1.8-4.5l-4.7-11.4c-3.9-8.8-7.7-18.3-9.6-23.2l-0.4-1.1c-0.4-1-0.6-1.7-1.3-2c-0.3-0.1-0.6-0.1-0.8,0
					c-0.6,0.3-1,1.1-1.3,1.8l-12.9,31.3c-1.9,4.6-2.6,5.7-3.7,5.6c-0.6-0.1-1.4-0.3-2.3-0.6c-1.2-0.5-1.6,0-1.7,0.4
					C521.9,172.5,523,172.9,523.6,173.1"/>
				<path class="st1" d="M594.5,403.4c-0.1,0-0.1,0-0.2,0.1C594.4,403.4,594.5,403.4,594.5,403.4"/>
				<path class="st1" d="M658.2,343c-13.1-24.4-42.8-16.8-47-15.2c-13.9,5.3-21,18-22.1,31.6c-12.3-16.8-7.3-38.3-7.2-39.7
					c0.5-3.5,0.8-8.8,0.5-11c1-0.4,4-1.8,6.1-3.9c11.4-11.7,0.4-14.9-4.9-8.3c0.6-8.7-4-5.2-6.5-4.2c-0.2-6.2-4.6-2.9-5.6-1.4
					c-2.7-9.1-9.8-1.8-11.8,1.4c-11.6-3.1-13.2,1.9-13.3,1.9c5.2,1.7,5.8,2.7,5.9,4c0.1,1.6-2.4,3.8-5.9,3.9
					c0.2,0.5,6.7,2.6,9.3-0.9c2.7-3.8,0.3-6.4,0-6.4c2.9,0.3,5.3,0.8,7.7,1.6c9.7,3.1,12.8,4.6,13.3,13.4c0.2,4.2-0.8,9.4-1.5,12.5
					c-1.6,7.7-1.3,20.9,0,27.8c2,10.5,14.3,31.5,19,21.6c2.1-4.3,3-13.9,6.6-23.6c4.3-11.6,15.7-18.5,32-15.2
					c23.8,6.7,23.5,26,21.6,30.3c0,0,0.4-14-12.1-18.2c2.6,5.5,3.6,16.7,1,25.1c1-8-4-19.4-18.9-22.9c11.1,20.1,1.5,45.9,0.5,46.9
					c17.8-14.5,8.6-35.6,8.6-35.6s9.3,9,3.9,28.8c14.5-9.9,10.8-33.5,10.9-33.3c3.4,5.9,4.1,9.6,2.8,20.6c0-0.3,2.9-0.1,7-12.2
					C662.3,350.2,658.2,343,658.2,343z"/>
				<path class="st1" d="M589,413.5c9.7-0.4,18.9-5.2,23.3-8.8c-17.1,4.6-31.1,2.1-37.5-0.6c-11.3-4.7-23.8-21.5-25.8-24.8
					c-4.1-6.8-5.9-20.8-2.7-33.5c2.4-9.8,11.2-29.7,11.5-34.6c0.6-4.5-3.8-5.9-4.2-6.1c-0.1,0-0.1-0.1-0.2,0
					c-16.4,6.4-13.4,17.1-7.9,16.5c0.1,1.1-0.2,3.9,2.4,4.8c-1,3-9.6,17.8-10.1,28.5c-1.4,27.4,12.6,38.2,15.8,42.8
					c6.8,9.8-0.9,16.7-4.5,17.5s-6.4,1-9.4,0.1c-2.4-0.7-5.9-2-8.4-2c-4.3,0.1-6.2,3.3-7.4,5.4c0,0,4.3-0.2,7.6,0.2
					c3.4,0.4,3.6,0.5,4.7,0.9c0,3.5-0.5,5.5-0.9,6.5s-0.1,2.2-0.1,2.2c3.3-0.8,7.2-3.5,7.6-7.1c6.5,1,9.4,1.1,13.3,3.3
					c0-1.4,1.3-3.8,2.9-5.3c2.2-2.1,10-4,10.1-3.9c11.1,8.5,5.7,32.7,5.1,33.7c-0.6,1.1-2.7,1.9-7.3,1.2c-0.8,0.6-1.4,0.5-2.3,2.1
					c-3.5-0.4-10.3-1.3-14.4,0.2c-5.8,2.2-11.6,7.5-12.8,9.6c-0.5,0.9-1.8,3-0.2,3.8c1.3,0.6,7.7,0.4,10.7,0.3
					c2.6-0.1,41.7,0,44.9-0.2c7.5-0.1,15.7-1.1,16.6-1.5c2-0.6,1.7-1.6,1.7-1.6c-0.1-0.7-3.1-6.8-12-7.6c-9.8-1.8-17-1.7-17.4-2
					c1.1-1.2,3-2.4,3.3-3.6c0.4-1.7-0.1-12.5,0.2-17C586.4,421.7,587.7,418,589,413.5"/>
				<path class="st1" d="M365.1,398.5c-7.7,4.5-22.7,10.9-22.7,10.9c-5.4-0.1-15.8-11.5-20-21c-4.2-9.4-4.5-31.4-4.5-37.4h73.4
					c0,0-12.8,4-15.1,18.9C373.9,384.8,379,390.3,365.1,398.5z M331.4,426.1c3-9.1,29.9-17.7,37.7-21.7
					c6.3,19.1-30.5,16.8-32.8,36.2C329.1,432.3,331.4,426.1,331.4,426.1z M276.1,349.3c-0.8-5.8-0.1-16.3,9-22.6
					c10-7,25.9-8,36.3-5.3c5.1,1.3,3.8,3.2,2.6,3c-9.5-1.8-18-1.3-26.9,2.5c-17.5,7.5-19.1,29.5,4.1,35.5c0.9,3.4,1,4.2,2,8.4
					C282.7,369.5,276.9,355.1,276.1,349.3z M404.6,344.6c-1.5-4.3-113.3-1.9-113.3-1.9s3-19.4,34-13.6c12.4,2.3,15.8,8.4,35.1,8.4
					c1.1,0,1.3-2,0.3-2.2c-5.8-0.9-5.3-3.2-4.6-4.4c0.9-1.7,5.8,0.9,7.3,0.6c0.4-0.1,0.8-1.1,1-1.9c0.1-0.5-0.2-1-0.7-1.4
					c-10.1-5.9-15.7-6.7-23.3-5.2c-3,0.6-12.6-3.3-16-4.4c-13.3-4.1-32-3.6-41.8,3.3c-12.1,8.5-20.8,24.6-7.9,43.7
					c5.4,8,16.5,11.6,30.6,12.9c6.1,27.4,25,33.8,28.7,35.5c0.1,0.1-7.1,3.5-9.5,9.3c-0.9,2.1-3.4,14,10.5,22.9
					c-1.4,5.3-6.4,9.4-11.4,11c-3.3,1-6.1,0.9-8.2,2.9c-1.6,1.5-1.8,6-1.8,6.3c20.3,0,40.2,0,60.5,0c0.6-3.8-0.6-6.6-4.9-7.7
					c-6-2.2-5.7-1.1-11.4-5.5c-6.1-4-5.5-21-5.2-23c0.8-1.5,14.9-5.8,19.5-12.2c4.7-6.4,3.7-11.9,1.9-16.2c12.5-9,9.7-27.5,10.7-32
					c1.7-7.8,5.2-9.8,11.1-12c3.3-1.3,8.1-0.8,9.3-1.9C406.1,354.9,406.2,346.5,404.6,344.6"/>
			</g>
			<path class="st1" d="M480.8,421.4c-0.1-4.3-0.1-5.2-0.2-10.4c20.7-7.5,32.4-15.6,35.6-28.3c9.1-36.4-32.3-42.8-36.5-43.9
				c-0.1-2.8-0.1-4.7-0.2-6.8c26.2-8,34.9-21.5,33.5-35.5c-0.6-6.5-2.5-21.2-35.6-29.4c-0.6-21-1.7-28.6-4.1-32.4
				c-2.4-3.8-5.4-4.9-7.8-5c-7.6-0.2-10.6,10.1-11.8,19.4c0,0.1,0,0.1,0,0.2c-0.5,3.9-0.9,8.5-1.2,13.8c-3.2-0.7-6.1-1.4-9.2-3.7
				c-4.1-3.2-2.2-7.9-0.3-10.5c7.8-8.9,11-20.1,11.1-23.7s0.2-5.3-1-8.6c-0.9-2.8-2.4-4-4.1-4.7c0.7-1.4,1-2.8,2-3.7
				c3.7-3.5,2.9-2.4,8.8-9.1c0.4-1-0.5-1.3-0.9-0.8c-2.8,2.7-6.7,4.2-7.7,4.6c-3.3,1.3-0.9-4.9-0.4-8.7c0.1-1-0.9-0.8-1.2-0.4
				c-1.7,2.8-2.3,4.4-3.5,9.3c-0.9,3.7,1.4,4.9-0.5,8c-1.5,0-2.5,0.1-4.4,0.9c-4,1.8-18.1,13.9-15.2,28.2c1.3,4.4-3,11.5-3.9,15.1
				c-4.4,18.4,15.2,30.9,29.5,33.7c0,0.1,0,0.3,0,0.4c-0.2,3.3-0.2,5.8-0.4,12c-19.1,4.3-29.3,11-34.7,21.5
				c-3.2,6.2-3.7,16.9,0,23.3c7.4,12.7,18.9,17.4,33,23.5c0,2.8-0.3,13.2-0.3,13.2c-15.8,4.2-29.6,9.1-36.6,20.5
				c-4.6,7.4-3.1,20.9,1.4,28.1c5.7,9.3,15.8,14.7,33.7,20.4c-0.1,3-0.2,10.5-0.3,12.4c-11.5,3.5-18.3,10.4-20.5,18.9
				c-4.3,17.9,7.7,27,19.6,33l-0.7,27.9c-0.3,4.4-0.4,8.6-0.3,12.4c0.1,1.4,1.3,4.3,8,5.8c5.3,1.2,8.4,1.3,15.1,1.1
				c6.6-0.2,12.3-1.9,13.8-5.2c0.6-1.2,0.4-3.1,0.4-4.5l-0.6-39.2l-0.7-27.2c14.2-3.7,31-10.6,34.8-24.1
				C523.6,438,501.5,427,480.8,421.4z M464.6,245.8c0.3-5.7,5.4-6.3,5.8-1.1c0.9,12.6,1.2,27.8,1.6,52.4c-3.3,0.9-8.1,1.7-8.1,1.7
				S463.9,253.4,464.6,245.8z M429.3,255.7c2.1-9,3.9-12.8,3.2-15.9c-2.3-11.5,7.9-19.5,10.1-21.2c2-1.5,4.6-1.1,5.3,0.6
				c1.7,3.9,0.8,12.5-9.7,26.3c-2.3,3-10.6,18.5,13.9,23.7c-0.2,4.2-0.3,7.6-0.3,11.8C437.9,278.4,426.9,266.4,429.3,255.7z
				 M425.5,330.4c0-16.3,33.2-21.4,48.2-24.5c12.9-2.6,12.7-17,4.6-21c0,0-0.3-6.7-0.4-11.2c12.8,2.5,23.2,8.6,26.8,16.1
				c4.7,9.8-0.9,22.1-12.4,28.7c-10.4,5.9-27,7.9-36.9,9.7c-9.9,1.7-12.4,11.5-5,14.6c0,3.6-0.3,8.9-0.5,13.1
				C437.1,352.5,425.5,344.9,425.5,330.4z M473.3,377.9l-9.7,1.7v-44.2l8.8-1.9L473.3,377.9z M421.3,414.4c0.1-22,54-27.6,53.8-27.8
				c13.4-1.8,15.5-19.8,5.2-23.3c-0.1-4.6-0.3-10.3-0.4-16.4c11.9,2.2,29.8,9.9,29.8,24.2c0,12.9-6.6,20.6-19.7,25.9
				c-11.1,4.5-24.4,7-37.1,10.4c-11.8,3.2-8.5,13.4-4.4,15.9c0,0-0.3,10.7-0.5,14.8C438.4,436.6,421.2,431.1,421.3,414.4z
				 M474.4,458.6l-10.8,1.9v-45.6l10.2-2.5L474.4,458.6z M462.1,547.5l0.5-56.8l12-2c0,0,0.7,55.4,0.7,58.4
				C475.3,549.8,461.8,550.5,462.1,547.5z M502.5,470c-5.3,4.9-19.7,9.3-38.9,12c-14.7,2-17.8,8.5-16.6,12.4
				c-0.1,2.8-0.2,7.2-0.3,10.1c-4.1-2.1-11.1-8.2-10.6-15.5c1.6-19.7,22.4-18.9,40.7-22.3c18.3-3,18.5-22.4,4.4-25.7
				c0-4.2-0.1-8.3-0.2-12.1c16.1,3.3,22.8,9,26.7,15.7C513.3,454.1,510.3,462.9,502.5,470z"/>
		</g>
		<g>
			<g>
				<path class="st1" d="M171.3,843l-25.7-61.8h-0.4V843h-24V721.8h24v56.4h0.3l26.3-56.4h23.8l-28,56.2l30.7,65H171.3L171.3,843z"
					/>
				<path class="st1" d="M238.2,844.7c-22.7,0-34.2-10.9-34.2-29.8c0-24.3,18-31.9,43.3-35.2v-3.2c0-9-5.3-13.2-13.6-13.2
					c-7.9,0-15,2.3-20.1,4.9l-4.8-15c5.5-3,15-7.1,29.3-7.1c17.8,0,31.2,8.8,31.2,34.9v56.6C262.5,842.1,253,844.7,238.2,844.7z
					 M247.4,793.5c-14.6,1.9-21.8,6.9-21.8,20.6c0,9.7,4.8,15.1,13.8,15.1c3.2,0,6.3-0.9,8.1-1.6v-34.1H247.4z"/>
				<path class="st1" d="M327.7,765.1c-5.3-2.6-11.3-2.5-15.6-0.4v78.2h-22.8v-89.7c8.6-5.1,20.8-7.9,42.6-6.9L327.7,765.1z"/>
				<path class="st1" d="M372.4,844.7c-23.3,0-34.7-21.1-34.7-49.3s11.4-49.1,34.7-49.1c23.4,0,34.7,21,34.7,49.1
					C407.1,823.6,395.8,844.7,372.4,844.7z M372.4,763.2c-10.1,0-11.8,14.4-11.8,31.7s1.9,31.4,11.8,31.4c10.2,0,12-14.1,12-31.2
					C384.4,777.8,382.6,763.2,372.4,763.2z"/>
				<path class="st1" d="M425.1,843V711.5l23.1-6.8V843H425.1z"/>
				<path class="st1" d="M480.2,732.5c-6.7,0-12.2-5.6-12.2-12.3c0-6.9,5.5-12.3,12.2-12.3c6.9,0,12.5,5.5,12.5,12.3
					C492.7,726.9,487.1,732.5,480.2,732.5z M468.9,843v-95h22.9v95H468.9z"/>
				<path class="st1" d="M556,843v-67.1c0-8.3-3.4-12.9-11.5-12.9c-4.8,0-7.1,0.5-9.5,1.8V843h-22.8v-89.7
					c7.5-4.2,18.3-7.1,32.8-7.1c23.2,0,34,9.5,34,29.6v67.1L556,843L556,843z"/>
				<path class="st1" d="M617.8,844.7c-10.8,0-18.2-2.3-23.6-7l5.6-16.8c2.7,2.5,8.3,5.3,14.5,5.3c6,0,9.9-3.5,9.9-8.8
					c0-6.9-3-9.7-11.5-16c-9-6.7-16.9-15-16.9-27.5c0-16.2,10.7-27.7,26.6-27.7c10.2,0,17.8,2.6,23.3,7.1l-5.5,14.6
					c-2.3-2.1-6.7-4.6-12.5-4.6c-5.6,0-9.1,4.2-9.1,9c0,6.2,4.4,9.9,12.8,16c9.9,7.4,16.9,14.3,16.9,28.2
					C648.3,832.8,635.4,844.7,617.8,844.7z"/>
				<path class="st1" d="M711.5,843l-24.1-49.7H687V843h-22.7V711.5l22.7-6.8v86.8h0.4l24.3-43.5h22.6l-26.4,43.5l28.3,51.5H711.5z"
					/>
				<path class="st1" d="M777.2,844.7c-22.7,0-34.2-10.9-34.2-29.8c0-24.3,18-31.9,43.4-35.2v-3.2c0-9-5.3-13.2-13.6-13.2
					c-7.9,0-14.9,2.3-20.1,4.9l-4.8-15c5.5-3,15-7.1,29.2-7.1c17.8,0,31.2,8.8,31.2,34.9v56.6C801.5,842.1,792,844.7,777.2,844.7z
					 M786.4,793.5c-14.7,1.9-21.8,6.9-21.8,20.6c0,9.7,4.7,15.1,13.7,15.1c3.2,0,6.4-0.9,8.1-1.6V793.5z"/>
			</g>
			<g>
				<path class="st1" d="M157.9,992V870.8H182V992H157.9z"/>
				<path class="st1" d="M246.8,992v-67.1c0-8.3-3.3-12.9-11.4-12.9c-4.8,0-7.1,0.5-9.5,1.8V992h-22.7v-89.7c7.6-4.2,18.3-7,32.8-7
					c23.3,0,34,9.5,34,29.6V992H246.8z"/>
				<path class="st1" d="M308.7,993.7c-10.8,0-18.2-2.3-23.6-7.1l5.6-16.7c2.6,2.5,8.3,5.3,14.4,5.3c6,0,9.9-3.5,9.9-8.8
					c0-6.9-3-9.7-11.5-16c-9-6.6-16.9-14.9-16.9-27.5c0-16.2,10.7-27.7,26.6-27.7c10.2,0,17.8,2.6,23.3,7l-5.5,14.6
					c-2.3-2.1-6.7-4.6-12.5-4.6c-5.6,0-9.1,4.2-9.1,9c0,6.2,4.4,9.9,12.8,16c9.9,7.4,16.9,14.3,16.9,28.2
					C339.1,981.7,326.3,993.7,308.7,993.7z"/>
				<path class="st1" d="M383.5,993.2c-15.5,0-24-10.6-24-27.3v-51.8H351V897h8.5v-20.6l22.9-7.2V897h12.5v17.1h-12.5v49.3
					c0,8.8,3,11.8,7.7,11.8c2.1,0,3.5-0.5,4.8-0.9v16.4C393.5,991.8,388.8,993.2,383.5,993.2z"/>
				<path class="st1" d="M421.9,881.5c-6.7,0-12.1-5.6-12.1-12.3c0-6.9,5.4-12.3,12.1-12.3c6.9,0,12.5,5.5,12.5,12.3
					C434.4,875.8,428.8,881.5,421.9,881.5z M410.6,992v-95h22.9v95H410.6z"/>
				<path class="st1" d="M482.5,993.2c-15.5,0-23.9-10.6-23.9-27.3v-51.8h-8.4V897h8.4v-20.6l22.9-7.2V897H494v17.1h-12.5v49.3
					c0,8.8,3,11.8,7.8,11.8c2.1,0,3.5-0.5,4.7-0.9v16.4C492.5,991.8,487.8,993.2,482.5,993.2z"/>
				<path class="st1" d="M542.6,993.7c-21.2,0-33.3-9.2-33.3-32.9V897h22.9v66.4c0,7.6,3.7,12.3,11.1,12.3c3.5,0,6.7-0.9,9.1-2.3
					v-76.5h23.1v89.3C568.7,990.7,557.5,993.7,542.6,993.7z"/>
				<path class="st1" d="M624,993.2c-15.5,0-24-10.6-24-27.3v-51.8h-8.4V897h8.4v-20.6l22.9-7.2V897h12.5v17.1h-12.5v49.3
					c0,8.8,3,11.8,7.8,11.8c2.1,0,3.5-0.5,4.7-0.9v16.4C634,991.8,629.3,993.2,624,993.2z"/>
				<path class="st1" d="M669.6,954.9c1.4,13.7,7.4,20.6,18.7,20.6c9.7,0,16.2-2.6,19.9-5l5.1,16c-6,4.2-15.4,7.1-28,7.1
					c-25,0-38.4-18.5-38.4-49.5c0-28.5,13-49,35.6-49c24,0,35.6,20.4,33.8,53.9L669.6,954.9z M681.9,911.8c-8.5,0-14,11.6-13.8,28.4
					l25.7-3.2C693.9,920.9,690.4,911.8,681.9,911.8z"/>
				<path class="st1" d="M761,993.2c-15.5,0-24-10.6-24-27.3v-51.8h-8.5V897h8.5v-20.6l22.9-7.2V897h12.5v17.1h-12.5v49.3
					c0,8.8,3,11.8,7.7,11.8c2.1,0,3.5-0.5,4.8-0.9v16.4C771,991.8,766.3,993.2,761,993.2z"/>
			</g>
		</g>
	</g>
</g>
</svg>
