<svg xmlns="http://www.w3.org/2000/svg" viewBox="0 0 245.33 294.67"><defs><style>.a,.b{fill:#86005e;}.b{fill-rule:evenodd;}.c{fill:none;}</style></defs><title>KI-Logo_vert</title><path class="a" d="M204.7,449.37,197.91,433h-.09v16.32H191.5v-32h6.32v14.88h.09l6.93-14.88h6.27l-7.39,14.83,8.09,17.16Z" transform="translate(-159.67 -226)"/><path class="a" d="M222.37,449.83c-6,0-9-2.88-9-7.86,0-6.42,4.75-8.41,11.44-9.3v-.84c0-2.37-1.39-3.48-3.58-3.48a11.65,11.65,0,0,0-5.3,1.3l-1.26-4a15.63,15.63,0,0,1,7.72-1.86c4.69,0,8.23,2.32,8.23,9.21V448C228.79,449.13,226.27,449.83,222.37,449.83Zm2.41-13.53c-3.86.51-5.77,1.81-5.77,5.44,0,2.56,1.26,4,3.63,4a6.3,6.3,0,0,0,2.14-.42Z" transform="translate(-159.67 -226)"/><path class="a" d="M246,428.81a4.79,4.79,0,0,0-4.13-.09v20.64h-6V425.7c2.28-1.35,5.48-2.1,11.25-1.82Z" transform="translate(-159.67 -226)"/><path class="a" d="M257.79,449.83c-6.14,0-9.16-5.58-9.16-13s3-13,9.16-13,9.16,5.53,9.16,13S264,449.83,257.79,449.83Zm0-21.52c-2.65,0-3.11,3.81-3.11,8.37s.51,8.28,3.11,8.28,3.16-3.72,3.16-8.23S260.49,428.3,257.79,428.3Z" transform="translate(-159.67 -226)"/><path class="a" d="M271.7,449.37V414.65l6.09-1.79v36.5Z" transform="translate(-159.67 -226)"/><path class="a" d="M286.24,420.22A3.26,3.26,0,0,1,283,417a3.23,3.23,0,0,1,3.21-3.25,3.26,3.26,0,1,1,0,6.51Zm-3,29.15V424.31h6v25.06Z" transform="translate(-159.67 -226)"/><path class="a" d="M306.24,449.37V431.65c0-2.18-.89-3.39-3-3.39a5,5,0,0,0-2.5.46v20.64h-6V425.7a17.66,17.66,0,0,1,8.65-1.86c6.13,0,9,2.51,9,7.81v17.71Z" transform="translate(-159.67 -226)"/><path class="a" d="M322.55,449.83c-2.84,0-4.79-.6-6.23-1.86l1.48-4.42a6,6,0,0,0,3.82,1.4,2.33,2.33,0,0,0,2.61-2.32c0-1.82-.8-2.55-3-4.23s-4.46-4-4.46-7.25c0-4.28,2.83-7.3,7-7.3a9.48,9.48,0,0,1,6.14,1.86l-1.45,3.86a4.92,4.92,0,0,0-3.3-1.21,2.33,2.33,0,0,0-2.41,2.37c0,1.63,1.17,2.61,3.39,4.23,2.61,1.95,4.46,3.77,4.46,7.44C330.59,446.67,327.2,449.83,322.55,449.83Z" transform="translate(-159.67 -226)"/><path class="a" d="M347.28,449.37l-6.37-13.11h-.09v13.11h-6V414.65l6-1.79v22.92h.09l6.41-11.48h6l-7,11.48,7.48,13.58Z" transform="translate(-159.67 -226)"/><path class="a" d="M364.63,449.83c-6,0-9-2.88-9-7.86,0-6.42,4.75-8.41,11.45-9.3v-.84c0-2.37-1.41-3.48-3.59-3.48a11.67,11.67,0,0,0-5.3,1.3l-1.25-4a15.61,15.61,0,0,1,7.72-1.86c4.7,0,8.22,2.32,8.22,9.21V448C371,449.13,368.52,449.83,364.63,449.83ZM367,436.3c-3.87.51-5.77,1.81-5.77,5.44,0,2.56,1.25,4,3.62,4a6.36,6.36,0,0,0,2.15-.42Z" transform="translate(-159.67 -226)"/><path class="a" d="M201.17,488.68v-32h6.36v32Z" transform="translate(-159.67 -226)"/><path class="a" d="M224.64,488.68V471c0-2.19-.88-3.4-3-3.4a5,5,0,0,0-2.51.47v20.64h-6V465a17.71,17.71,0,0,1,8.64-1.86c6.14,0,9,2.51,9,7.81v17.72Z" transform="translate(-159.67 -226)"/><path class="a" d="M241,489.14c-2.84,0-4.79-.61-6.23-1.87l1.48-4.42a6,6,0,0,0,3.81,1.4,2.33,2.33,0,0,0,2.61-2.33c0-1.81-.79-2.55-3-4.23s-4.46-3.94-4.46-7.24c0-4.28,2.83-7.3,7-7.3a9.49,9.49,0,0,1,6.14,1.86l-1.44,3.86a5,5,0,0,0-3.3-1.2,2.33,2.33,0,0,0-2.41,2.37c0,1.63,1.16,2.6,3.39,4.23,2.61,2,4.47,3.77,4.47,7.44C249,486,245.61,489.14,241,489.14Z" transform="translate(-159.67 -226)"/><path class="a" d="M260.72,489c-4.1,0-6.32-2.79-6.32-7.21V468.13h-2.23v-4.52h2.23v-5.44l6-1.9v7.34h3.3v4.52h-3.3v13c0,2.32.78,3.11,2,3.11a4,4,0,0,0,1.25-.23v4.32A6.16,6.16,0,0,1,260.72,489Z" transform="translate(-159.67 -226)"/><path class="a" d="M270.85,459.52a3.25,3.25,0,1,1,3.3-3.25A3.3,3.3,0,0,1,270.85,459.52Zm-3,29.16V463.61h6v25.06Z" transform="translate(-159.67 -226)"/><path class="a" d="M286.84,489c-4.09,0-6.32-2.79-6.32-7.21V468.13h-2.23v-4.52h2.23v-5.44l6-1.9v7.34h3.3v4.52h-3.3v13c0,2.32.79,3.11,2,3.11a4,4,0,0,0,1.25-.23v4.32A6.17,6.17,0,0,1,286.84,489Z" transform="translate(-159.67 -226)"/><path class="a" d="M302.7,489.14c-5.58,0-8.79-2.42-8.79-8.7V463.61h6v17.53c0,2,1,3.25,2.93,3.25a4.93,4.93,0,0,0,2.41-.6V463.61h6.09v23.57C309.58,488.34,306.64,489.14,302.7,489.14Z" transform="translate(-159.67 -226)"/><path class="a" d="M324.17,489c-4.09,0-6.32-2.79-6.32-7.21V468.13h-2.23v-4.52h2.23v-5.44l6-1.9v7.34h3.3v4.52h-3.3v13c0,2.32.79,3.11,2,3.11a3.93,3.93,0,0,0,1.25-.23v4.32A6.11,6.11,0,0,1,324.17,489Z" transform="translate(-159.67 -226)"/><path class="a" d="M336.21,478.91c.38,3.63,1.95,5.44,4.92,5.44a9.88,9.88,0,0,0,5.26-1.31l1.35,4.23a12.85,12.85,0,0,1-7.4,1.87c-6.59,0-10.13-4.88-10.13-13.06,0-7.53,3.44-12.93,9.39-12.93,6.32,0,9.39,5.39,8.93,14.22Zm3.26-11.39c-2.24,0-3.68,3.07-3.64,7.48l6.79-.84C342.63,469.94,341.7,467.52,339.47,467.52Z" transform="translate(-159.67 -226)"/><path class="a" d="M360.34,489c-4.09,0-6.32-2.79-6.32-7.21V468.13h-2.23v-4.52H354v-5.44l6-1.9v7.34h3.3v4.52h-3.3v13c0,2.32.79,3.11,2,3.11a4,4,0,0,0,1.26-.23v4.32A6.2,6.2,0,0,1,360.34,489Z" transform="translate(-159.67 -226)"/><path class="b" d="M266.71,318.44c-.41-1.13-17.61-.89-23.82-.85-2,0-6.54.16-6.54.16s1.31-5.48,9.49-4c3.28.61,5.26,2.69,9.33,2.21-.05-.25,0-.23-.12-.37-.25-.47-1.34-.29-1.35-1,1-.4,4.7,1.42,5.15,1.35-2.29-.9-1.68-1-1.72-1a1.34,1.34,0,0,1,1.84.37c-.53-1.5-2-.32-3.31-.61a9.45,9.45,0,0,0-1.72-.37c.66-.62,1.33-.12,1.72,0,.08-.16.13-.1.24-.21-.35-1.54-4.27-2.51-6.26-1.84-.61.2-3.27-.95-4.18-1.23-3.51-1.09-8.45-.95-11,.86-3.2,2.23-5,7.53-2.09,11.53,1.7,2.34,4.74,3.1,8.47,3.44-.43.43-.5.87-.25,1.84a8.06,8.06,0,0,0,3.07,4.79c.54.43,1.73.76,2.09,1.35a10.85,10.85,0,0,1,.61,1.59l2,.12c0,.17-.05,1.64-.05,1.64a4.54,4.54,0,0,0-2.34,1.73c-.28.53-1.57,3.27,2.34,4.76a4.53,4.53,0,0,1-3,2.9c-.87.27-1.6.25-2.17.77a3.09,3.09,0,0,0-.48,1.67h16a1.61,1.61,0,0,0-1.29-2c-1.57-.58-1.47-.28-2.8-1.48,1.62-1.82,0-3.47-1.51-3.77v-2.17l1.71-.84a8.92,8.92,0,0,0,3.37-2.46,4.76,4.76,0,0,0,.51-4.27c3.89-4.46,1.79-5.7,1.89-6.14.48-2,1.35-5.25,3.95-6a14.76,14.76,0,0,1,2.85-.25C266.91,319.86,267.06,318.87,266.71,318.44Zm-22.3-.09v1.6h-1.19c0-.54-.08-1.07-.12-1.6Zm-2.3.12a7.08,7.08,0,0,1,.12,1.47h-1.17a5.88,5.88,0,0,0-.06-1.56C241.24,318.44,242,318.47,242.1,318.47Zm-3.14-.09c.29,0,.91-.08,1.2,0,.08.53.05,1.17.14,1.7-.36,0-1,.19-1.19.06C239.11,319.71,238.93,319,239,318.39Zm-1.83.18c.29,0,.65-.06.94,0,.08.53.05,1,.14,1.51a1.92,1.92,0,0,1-.93-.1A13.89,13.89,0,0,1,237.13,318.57Zm1.51,2.48.74.85V322a6.25,6.25,0,0,1-2.46-1Zm-5.52-1.6a6.78,6.78,0,0,1,2.15-5.76c3.06-2.51,5.87-3.16,13.8-1,1.18.32,2-.21,3.1,0a2.8,2.8,0,0,1,1.29.39,2.47,2.47,0,0,0,0,.36s-1.22-.46-1.65-.14c-.08,0-.36.36.24.74a1.53,1.53,0,0,1,1.6-.08.81.81,0,0,0-.12,1.35c-2.94-.06-4.46-1.12-6.5-2a13.07,13.07,0,0,0-8.71.12c-4.61,2-5,9.23,1.5,9.53.2.71.48,1.75.78,2.64A7.63,7.63,0,0,1,233.12,319.45ZM245,333.22v0a9.39,9.39,0,0,1-2.64-3.14c-.42-.92-.77-1.51-.41-1.89,1.28-1,2.06,3.41,3,5C245,333.21,245,333.22,245,333.22Zm-.2-3.36c-.22-1.16-.09-2.29.87-2.25,1.6-.1,2,3.93,2.55,6.13.23.08-1,0-1,0S245.47,333.22,244.81,329.86Zm3.12-.61c0-1.69,1.38-2.35,1.95-2,1,.67.22,6.38,0,6.63-.28,0-.75,0-.75,0S247.74,330.44,247.93,329.25Zm-.45,6.47a11,11,0,0,1-.32-1.1,62.18,62.18,0,0,0,8.12,0,3.55,3.55,0,0,1-.66,1.1A40.54,40.54,0,0,1,247.48,335.72Zm4.9-1.87H251c.1-2.63-.19-4.28.56-5.42.33-.63,1.52-1.6,2.25-.66C254.19,329,253.18,332,252.38,333.85Zm4.16-6.32c1.17.25.64,4.64-2.09,6.31l-1,0C254.18,331.89,254.58,327.25,256.54,327.52Zm-3.07,8.93a13.09,13.09,0,0,1-4,1.53c0-.45,0-1.5,0-1.5Zm.45,10.67c.75,1.31,4,1.53,3.32,2H244.81s0-.11.05-.39c6-1.54,3.14-5.82,7.4-7.53.12-.05,0,4,0,4-.18.84.46,1.42-2.58,3C249.69,348.29,253.21,347.79,253.92,347.12Zm-5.5-3s-1.71-2.07-.28-3.62c2.24-2.43,7.5-2.42,8.25-6,.21-.08,1.72-1,1.81-1C259.16,339.64,249.65,338.94,248.42,344.1Zm8.31-10.43a1.12,1.12,0,0,1-1,.2s1.73-1.19,2.46-5c.57-1.32,1.34-1.27,1.7-1C261.54,328.82,257.81,333.22,256.74,333.66Zm2.86-7c-.82.17-1.31.28-1.74,1-.33-.62-.25-.62-1.23-1a2.15,2.15,0,0,0-2.17,1c-.09-.56-.84-1-1.59-1.18-1.39,0-1.5.56-2.06,1.18a1.75,1.75,0,0,0-1.72-1.22,2,2,0,0,0-2,1.51c-.44-.48-.37-1.2-1.79-1.26a1.66,1.66,0,0,0-1.63,1.18,6.36,6.36,0,0,0-1.31-1c-.08-.37-.73-4.42-1.8-5.52a1.58,1.58,0,0,1,1.41.31c1.14.62,1.65,4.36,1.65,4.36l.81-.54a18.46,18.46,0,0,0-.56-4.07c.31,0,1-.09,1.3.32.62.67.89,3.33.89,3.33l.75-.53s-.2-2-.34-3.3a1.16,1.16,0,0,1,1.11.44,7.41,7.41,0,0,1,.68,2.42l.69-.68s-.2-1.12-.32-2.21c5.72-.09,12.49-.14,13.51.07A12.51,12.51,0,0,0,259.59,326.62Zm6.2-6.81c-1.15.29-13.72-.46-20.24.14v-1.6c9.16-.42,20.19.34,20.19.34A2.14,2.14,0,0,1,265.79,319.81Z" transform="translate(-159.67 -226)"/><path class="b" d="M333,317.86c-3.46-6.45-10.62-4.63-11.7-4.12-3.08.87-6.08,5.06-6,9.2-3.91-4.17-2.07-12.24-2-12.61a5,5,0,0,0,0-1.82,2.12,2.12,0,0,0,1.57-1c2.46-3.56.45-4.05-1-2.31.16-2.31-1.06-1.37-1.72-1.11-.05-1.64-1.22-.76-1.47-.37-.72-2.42-2.67-.34-3.19.49a3.52,3.52,0,0,0-3.44.37c2.1.52,1.93,1.1,2,1.1-.25.77-.94,1-2,1a2,2,0,0,0,2.46-.25c.93-1.39-.89-1.85-.89-1.93a12.1,12.1,0,0,1,2.86.58c2.34.6,4,1.61,4.17,3.92a12.63,12.63,0,0,1-.49,3.19,17.92,17.92,0,0,0,0,7c.54,2,3,8,4.31,5.39.55-1.12.58-3.06,1.52-5.64a7.78,7.78,0,0,1,9-4.72c7.58,1.58,6.63,7.65,6.4,8.34a9.44,9.44,0,0,1-.74,1.52s1.24-5.2-2.81-6.07c1.06,1.1,1.87,6.07-.51,8.1,2.13-4,.35-8.33-3.6-9.25,1.62,1.61,3.6,5.39,1.47,8.34.3-2.64.2-6.35-4.51-7.22,6.68,3.83,2.24,11.07,2.24,11.15,5.9-5.69,3-9.94,3-9.94s3.19,2.25-.09,8.92a7.18,7.18,0,0,0,3.47-7.83c1.8,1.19.47,5.35.47,5.43a7.31,7.31,0,0,0,1.86-3.08A6.55,6.55,0,0,0,333,317.86Z" transform="translate(-159.67 -226)"/><path class="b" d="M308.13,306.9c.16.09,1.1-.66,1.1-.74a5.08,5.08,0,0,0-1.84-.49C307.45,305.93,307.75,306.77,308.13,306.9Z" transform="translate(-159.67 -226)"/><path class="b" d="M313,348h.37a6.55,6.55,0,0,1-.37,1c1-.07,1.26-.36,1.47-.87,0-.83-.54-.91-1-1.35,0-.08.54-.54.62-.86s-.56-1.8-.37-2.46.71-.57.86-1.22l-.73-.12c-.58-2.77,1.31-4,1.58-6.36a6.15,6.15,0,0,0,3.82-.39,22.77,22.77,0,0,1-7.7-1.83c-2.33-.78-6.44-5.58-7-6.45a11.85,11.85,0,0,1-1.29-8.53c.64-2.58,3.76-8.41,3.93-9.57-.13-1.17-1.71-1.79-2-1.84a1.58,1.58,0,0,0,.25.61c-3.89,1.5-2.95,4.34-1.47,4.17.05.24-.48.94.62,1.23-.26.78-2.7,4.65-2.82,7.48-.34,7.86,3.87,10.14,4.42,11,1.81,3-.54,4.82-1.61,5-1.42.28-2.31.55-3,.34s-.92-1-1.47-.95c-1.15.06-1.26,1-2,1.43,0,.2,1.54-.85,1.46-.32a3.74,3.74,0,0,0-.49,2.21c.4-.23.13-.34.37-.74s.88-.64,1.23-1l1.1.12.12.12a2.19,2.19,0,0,1-.86,2v.24a2.2,2.2,0,0,0,1.72-1.84,7.26,7.26,0,0,1,3.93.74c.09-.33-.05-.69.12-1,.73-.56,1.57-.37,2.54-.88a3.77,3.77,0,0,0,.78-.6s.17,0,.17,0c3.06,2.37,1.22,8.74,1.12,9.07a1.59,1.59,0,0,1,.35.19,1.59,1.59,0,0,0,.08.16l.05,0a12.24,12.24,0,0,0,.3-8.5c-.63-1.46-3.45-4-4.66-5.16v-.12c.53.45,4.22,3,6.82,3.31a14.84,14.84,0,0,1-1.05,4.2,12.71,12.71,0,0,0,.12,2.3c-.15.64-.08,1.66-.3,2.47,0,.29.09.59.09.87-.18.38-.77.38-.9,1a.78.78,0,0,1-.48-.37l-.44-.34v0h0a2,2,0,0,1-1.88.24,5,5,0,0,0-.86,1c-.92-.11-2.48-.77-3.56-.37a11.81,11.81,0,0,0-3.39,2.67s-.47.68,0,.89a14.05,14.05,0,0,0,2.83.09c.69,0,4,0,4.78-.21.62-.12,2.92-.09,2.21-.49-.45-.3-3.92-.24-3.92-.24a23.21,23.21,0,0,1-2.79-.12c.92-1.63,3.63-1.71,3.75-1.62a2.49,2.49,0,0,1,0,.75h.24c.3-.68.73-.82,1.11-1.36a2.3,2.3,0,0,1,.74.13c-.44.88.65,1.81.65,1.77.27-.25-.11-.82.09-1.15s.62-.33.86-.61C312.84,347.13,312.82,347.56,313,348Z" transform="translate(-159.67 -226)"/><path class="b" d="M321.46,321.61a5.84,5.84,0,0,1,2.39,2.59,4.39,4.39,0,0,1-.84,5.07c3.41-2.12,2.95-8.31-.89-9.11a5.2,5.2,0,0,1,2.32,3.48C324.43,323.73,323,321.56,321.46,321.61Z" transform="translate(-159.67 -226)"/><path class="b" d="M307.26,326.4c-.19-.16-2.21-2.38-1.21-7.6C306,318.81,303,323.75,307.26,326.4Z" transform="translate(-159.67 -226)"/><path class="b" d="M317.22,333.3c-.38.13-3.4.7-7-3.23C310.21,330.14,312.66,335.34,317.22,333.3Z" transform="translate(-159.67 -226)"/><path class="b" d="M317.22,333.3l0,0Z" transform="translate(-159.67 -226)"/><path class="b" d="M310.3,327.53c-.06.09,2.42,6.74,8,4.56C317.87,332.22,314.14,332.78,310.3,327.53Z" transform="translate(-159.67 -226)"/><path class="b" d="M318.34,332.09l.05,0Z" transform="translate(-159.67 -226)"/><path class="b" d="M317.44,329.45l-.05,0Z" transform="translate(-159.67 -226)"/><path class="b" d="M317.44,329.45c.41.26,3.35,2.61,2.11,9C319.64,338.43,322.84,332.08,317.44,329.45Z" transform="translate(-159.67 -226)"/><path class="b" d="M318.51,328.74l0,0Z" transform="translate(-159.67 -226)"/><path class="b" d="M318.51,328.74c.46.2,3.7,2.1,3.38,8.6C322,337.31,324.25,330.58,318.51,328.74Z" transform="translate(-159.67 -226)"/><path class="b" d="M318.51,327.73h0Z" transform="translate(-159.67 -226)"/><path class="b" d="M318.54,327.73c.37.07,4.68,1.44,5.18,7.66C323.81,335.35,325.13,328.31,318.54,327.73Z" transform="translate(-159.67 -226)"/><path class="b" d="M308.29,325.9s-1.37-1.74-.86-5.3C307.38,320.6,305.64,323.89,308.29,325.9Z" transform="translate(-159.67 -226)"/><path class="b" d="M318.32,347.4c-1.21,0-1.63.65-1.59.73,1.08.26,2.68.35,3.83,1.21a4.35,4.35,0,0,1,.71,0A3.32,3.32,0,0,0,318.32,347.4Z" transform="translate(-159.67 -226)"/><path class="b" d="M312.31,349.61v.25c.86,0,2.25.21,3.06.24a27.23,27.23,0,0,0,5.46-.43c.35,0,.44-.21.44-.3l-3.55-.12C317.1,349.67,313.39,349.41,312.31,349.61Z" transform="translate(-159.67 -226)"/><polygon class="b" points="151.86 119.59 151.79 119.66 152.14 120.01 152.31 120.08 152.33 120.01 152.27 119.76 151.86 119.59"/><path class="b" d="M286.77,339.47c-.07-1.43-.07-3.24,0-4.66,4.46-.51,7.48-2.91,8.53-6.2,3.25-10.27-7.42-11.43-8.4-12,0-.9.08-1.77,0-2.67,6.85-.88,9.27-7.11,5.61-12.54-1.55-2.3-6.54-3.19-6.62-3.19-.06-3.28-.44-7.85-1.53-9.71a2.4,2.4,0,0,0-1.67-.72c-3.75-.1-2.94,9.37-3.08,9.75-1.67-.21-3.07-.84-3.66-2.24a2.81,2.81,0,0,1,.18-2.4c2.26-.12,3.11-3,3-5.73,0-.89-.34-2.23,0-2.82,0-1.43-.56-.81-1.23-1.51-.18-.27.24-.94.49-1.18a24,24,0,0,1,3.2-2.7c-.91.27-3,2.16-3.32,2.19-1.15.24.54-4.28.5-4.28a24.88,24.88,0,0,0-1.27,3.6c-.26,1.05.84,1.3,0,2.3-.15.19-.52,0-.86.12s-5.54,4.72-4.12,7.64a1.91,1.91,0,0,1,.32,1.44c-.26.83-1,1.52-1.23,2.45-1.58,5.88,3.41,8.26,7.79,8.73,0,0,0,2.52,0,3.79-4.43.48-8,2.14-9.66,5.39a7.17,7.17,0,0,0,0,6.14c1.95,3.35,4.85,4.76,8.58,6.38,0,.74,0,3.35,0,3.63-4,.83-8,2.44-9.84,5.45a7.3,7.3,0,0,0,0,7c1.51,2.44,6,5,9.45,5.4,0,.78.11,3.46,0,3.8a8.44,8.44,0,0,0-5.4,4.66c-1.65,5,2.09,7,5.28,8.59,0,4-.59,8.31-.49,11.29a3.77,3.77,0,0,0,2.09,1.85c.41.19,1.62-.3,2.45-.25a.78.78,0,0,1,.62.25c.77.73,4.19-.52,4.66-1.59.1-.24,0-2.28,0-3.2,0-2.41-.08-4.5-.12-6.91a20.77,20.77,0,0,0,2.57-3.05c3.32-5-2.07-4.74-2.94-4.64,0-.62-.05-1.19,0-1.8,4.42-.86,8.13-2,9.2-6.28C297.93,341.17,289.95,339.55,286.77,339.47Zm-5-50.4a1.31,1.31,0,0,1,1.78-.51c1.31.76,1.47,7,1.62,9.06.1,1.36.46,7.33.12,8.34-1,.23-4.26.79-4.26.79S280,292.36,281.77,289.07Zm-3.23,12.73c.07-.9.66-1.92.52-2.09-.32-.17-2.77,1.11-2.85,1.11.24-.71,1.69-2.15,1.29-2.19-.18-.16-3.25.35-3.86.35,0,0,2.13-1.16,2-1.35s-2.77-1-2.9-1.1c.42-.17,1.67-.43,1.64-.64,0-.37-1-1.1-1.64-1.45.42-.14,1.6-.3,1.7-.56.08-.64-.69-.9-1-1.65-.06,0,1.35-1.51.71-1.78-2.2-.91,2.44-7.25,2.79-7.22a1.89,1.89,0,0,1,1.37.51c0,1.15-.62,1.57-.87,2.46a9.66,9.66,0,0,0-.47,3,4.87,4.87,0,0,0,.86-.89,3.52,3.52,0,0,1,.51-2.18c.91,3.56-1.08,6.29-2.74,6.43h0s-.07.12-.07.12h0a5.12,5.12,0,0,0-.33,1c-.27,1,0,4.18,4.27,4.5,0,1.07.09,2.12,0,3.07C279.2,301.35,278.58,301.8,278.54,301.8Zm-4,19.05s2.37-1.68,2.27-2c-.2-.6-4.83-.81-5.28-1.19-.38-.6,3-.13,3.07-.61.21-.43-2.94-3.15-2.94-3.19,1.29.42,3.45,2,3.93,1.54s-2.09-4.65-2.09-4.73c1.14,1.14,3.32,3.12,3.72,2.93s-1-4-.77-4.16c1,.32,3.19,3.2,3.69,3s-.74-3.21-.74-3.33c1.37.7,4.6,3.44,5,3.29.46-.51-2.07-3.74-2.07-3.78,1.64.57,7.15,2.36,7.37,2.09s-4.3-3.4-4.3-3.44c6.56-.24,6.63-.65,6.63-.74.17-.55-4.94-1.84-5-1.84a23.72,23.72,0,0,0,3.8-1.6c-.42-.72-3.43-.4-4.54-.37-.08-1.18-.16-2.47-.24-3.65,3.06.2,6.17,2.23,6.87,4.63,1.05,3.6.46,6.68-2.59,8.41-2.74,1.55-8.84,1.63-10.17,1.93-3,.71-2.34,2.54-1.42,3.66a6.6,6.6,0,0,1-.05,2.34C278.59,320.58,274.89,321.42,274.55,320.85Zm6.78,6.93c-.21,0-1,.16-1.2.16,0-2.62.18-12-.06-12.71,1.57-.37,4.07-.47,5.83-.91,0,2.58.13,11.86.13,12.39-.26.37-3.19,1-4,1-.14-1.17-.31-8.56-.31-8.56a7.6,7.6,0,0,1-.37,1.3C281.3,322.7,281.37,327.74,281.33,327.78Zm-5.08,16a6.76,6.76,0,0,0,.81-2.38c-.57-.16-6.13.09-6.13.05.88-.42,3.13-1.19,3.07-1.47.12-.63-3.87-2.51-4.17-2.95,1.43.19,3.94,1,4,.61s-2.33-4.13-2.33-4.17c1.48.71,3.74,2.86,4.09,2.66s-1.15-4.05-1.15-4.13c1,.65,3,2.77,3.32,2.57s-.62-3.52-.62-3.68c1.11,1.07,2.93,2.86,3.23,2.75s-.28-3.69-.28-3.73c1.49,1,3.56,3.34,4.05,3.25.45-.27-.74-3.23-.74-3.27,1.09.3,4.6,2.81,5.09,2.46.47-.79-2.27-3.26-2.27-3.3,1.47.21,5.59,1,6,.37.2-.64-4.26-2.41-4.3-2.45.87-.24,5.23-1.52,4.88-2.11s-5.38,0-5.12-.35c0-.61,2.87-2.08,2.81-2.54-.43-.73-2.66.18-3.79.21,0-1.52.11-3.05.12-4.42,3.2.34,6.05,1.83,7.24,4.3A8.07,8.07,0,0,1,290.2,333c-2.93,1.19-7.47.82-10.79,1.72-3.12.84-2.3,3.53-1.22,4.17V343A16.11,16.11,0,0,1,276.25,343.76Zm9.77,4.42c-.08.22,0,.13-.12.25-.72.57-2.59.65-3.8.61-.08-2.78-.18-13.16,0-13.69,1.09-.16,3.72-.42,3.8-.42C285.95,337.22,286.24,347.83,286,348.18Zm-4.33.88a11.13,11.13,0,0,1-1.56.35c0-2.15-.09-13,.35-13.65.15-.25.79-.31.88-.31C281.38,340.61,281.71,344.2,281.7,349.06Zm-.21,26.37-1.48.13a24,24,0,0,0-.37-8.22c-.12-.51.51-1.95.43-2.22-.13-.5-.33-1-.41-1.36a2.72,2.72,0,0,1,.14-1.15,49.51,49.51,0,0,0,.34-5.76s.21-.71,1.68-.83C281.82,356,282.18,369.32,281.49,375.43Zm1.47.49c-.31,0-.25-5.15-.25-6.34.48-1.12,3.56-4.09,3.56-4.09s.07,6.71.11,9.1C285.64,375.74,283,376.15,283,375.92ZM287.67,362c-.07-.34-.53-.83-.46-1.11.09-.66,1.12-1.48,1-1.89-.29-.3-.81-.2-1.36-.11,0-.46,0-.68,0-1.13,1.38,0,3,0,3,1.63,0,1.28-2.68,4.14-4.64,6.11-.91.91-2.81,3.07-2.85,3.07a2.09,2.09,0,0,1,.25-1.35c.18-.47,1.25-1,1.33-1.19.11-.34-.32-.44-.25-.63.28-.45,1.77-1,2-1.19a6,6,0,0,0,0-1C285.84,362.54,287.55,362.23,287.67,362Zm-5.29-6.08s3.48-.41,3.53-.37c0,1.38.31,4.82-.12,6a23.74,23.74,0,0,1-3.19,4.16C282.6,363.28,282.38,355.92,282.38,355.92Zm10.47-3.62a20.88,20.88,0,0,1-10.4,2.65c-5.1.1-5,2.84-3.93,3.4a15.62,15.62,0,0,1,0,1.78c-.7,0-2.76.09-2.92.09,0,0,1.3-1,1.23-1.42s-2.62-.67-2.58-.79c.05-.4,2.19-.58,2.31-.89.09-.47-2.47-1.65-2.43-1.81.33-.16,3.07.53,3.45.18s-2-2.35-2-2.38c1.4.24,3.4,1.31,3.54,1.1s-1-2.49-1-2.57a23.16,23.16,0,0,0,3.53,2c.22-.15-1-2.29-1-2.33.77.22,4.35,2.59,4.71,2.47s-1.76-3-1.76-3.09c1,.41,5.5,2.14,5.77,1.84s-2.7-2.42-2.7-2.46c1.6,0,5.55-.12,5.63-.52s-4.28-1.34-4.41-1.44,5.07-1.77,4.77-2.15a28,28,0,0,0-5.13-.3c.2-.48,3.73-2.49,3.56-2.7s-3.7.61-4.23.61c-.1-.83-.06-2.26-.07-3.29,2.73,0,6.25,1.21,7.36,2.92C296.27,346.27,295.21,350.7,292.85,352.29Z" transform="translate(-159.67 -226)"/><path class="a" d="M230.6,368.45l-1.95.48a.53.53,0,0,1-.39,0,.55.55,0,0,1-.34-.52.51.51,0,0,1,.54-.48,4.23,4.23,0,0,1,.48.08l1.65.29Zm.42-1.09-1.46-.91c-.26-.15-.55-.3-.55-.65a.51.51,0,0,1,.53-.53c.37,0,.47.28.64.54l.93,1.44Zm.09,2.16L230,371.18a.55.55,0,0,1-.53.31.49.49,0,0,1-.5-.5c0-.34.28-.46.52-.62l1.46-.95Zm1,0a1.11,1.11,0,1,1,1.1-1.15A1.12,1.12,0,0,1,232.14,369.53Zm-.09-2.64-.42-1.92a.62.62,0,0,1,0-.41.5.5,0,0,1,.48-.34.56.56,0,0,1,.56.54,3.46,3.46,0,0,1-.09.45l-.36,1.68Zm.15,3,.39,1.71a2.52,2.52,0,0,1,.08.45.54.54,0,0,1-1.07,0,2.53,2.53,0,0,1,.08-.45l.35-1.71Zm.93-2.67.92-1.44c.17-.28.28-.55.66-.55a.53.53,0,0,1,.52.52c0,.38-.27.49-.56.67l-1.42.91Zm.12,2.18,1.48.95c.25.16.52.28.52.63a.53.53,0,0,1-.54.53.49.49,0,0,1-.45-.28l-1.12-1.73Zm.42-1.13,1.67-.33a2.83,2.83,0,0,1,.46-.07.54.54,0,0,1,.54.51.54.54,0,0,1-.53.51,3.29,3.29,0,0,1-.47-.07l-1.67-.39Z" transform="translate(-159.67 -226)"/><path class="a" d="M329.51,368.44l-1.95.48a.5.5,0,0,1-.38,0,.55.55,0,0,1-.34-.52.5.5,0,0,1,.54-.48,3.66,3.66,0,0,1,.47.08l1.66.29Zm.41-1.09-1.45-.91c-.25-.15-.56-.31-.56-.65a.52.52,0,0,1,.54-.52c.36,0,.46.28.64.54l.93,1.44Zm.1,2.16-1.07,1.66a.55.55,0,0,1-.52.31.49.49,0,0,1-.51-.49c0-.34.29-.46.53-.63l1.45-.95Zm1,0a1.12,1.12,0,0,1-1.12-1.11,1.11,1.11,0,1,1,1.12,1.11Zm-.09-2.65-.42-1.92a.57.57,0,0,1,0-.41.5.5,0,0,1,.48-.34.56.56,0,0,1,.56.53,3,3,0,0,1-.09.46l-.36,1.68Zm.15,3,.39,1.71a2.77,2.77,0,0,1,.08.46.56.56,0,0,1-.56.52.56.56,0,0,1-.51-.52,3,3,0,0,1,.08-.46l.35-1.71Zm.93-2.67.92-1.44c.17-.28.28-.54.67-.54a.53.53,0,0,1,.51.52c0,.38-.27.49-.56.67l-1.42.91Zm.12,2.18,1.48.95c.26.16.52.28.52.63a.53.53,0,0,1-.53.53.49.49,0,0,1-.46-.28L332,369.5Zm.42-1.13,1.68-.33a3.07,3.07,0,0,1,.46-.07.53.53,0,0,1,.53.51.55.55,0,0,1-.52.51,2.88,2.88,0,0,1-.47-.07l-1.68-.39Z" transform="translate(-159.67 -226)"/><path class="a" d="M263.74,273.3l-.72.18c-.32.05-.57-.14-.76-.58s-.62-1.7-1.07-3l-.46-1.35s.06,0,.06,0h0l.21.16c.43.31,4.36,2.64,5.2,3a3,3,0,0,0,2.1.33l1-.31a16.84,16.84,0,0,1,2.46-.44l1.59-.14c.16,0,.27-.06.25-.2s-.09-.13-.26-.11l-.22,0a.66.66,0,0,1-.49-.08.42.42,0,0,1-.14-.3,3,3,0,0,1,.12-.93l.56-2.24c0-.09,0-.12.11-.12l3.34-.38a.13.13,0,0,1,.14.08l1.56,3a.28.28,0,0,1,0,.13.15.15,0,0,1,0,.14.15.15,0,0,1-.09.06h0c-.14,0-.22.07-.21.18s.17.11.42.09h.07l2.83-.29c.45-.05.61-.09.67-.16h0a.11.11,0,0,0,0-.08.08.08,0,0,0,0-.06c0-.06-.12-.07-.2-.05h-.63c-.35,0-.8-.25-1.49-1.47l-3-5.56-1.75-3.23c-.19-.32-.3-.46-.45-.44s-.24.22-.36.66l-2.68,9.84a2.25,2.25,0,0,1-.65,1.27,2.67,2.67,0,0,1-1.12.1,6.63,6.63,0,0,1-2.42-.78l-.14-.07c-.73-.34-4.56-2.4-5.3-2.89.31-.65,1.74-3.54,2-4.11a4.93,4.93,0,0,1,1.17-1.59,2.87,2.87,0,0,1,.77-.44.35.35,0,0,0,.14-.08A.12.12,0,0,0,266,261a.13.13,0,0,0-.13-.13h0a.48.48,0,0,0-.19,0l-1.66.61-1.48.46-.12.05a.13.13,0,0,0-.09.12.12.12,0,0,0,.05.1c0,.05.13.05.22,0s.22,0,.28.21a.43.43,0,0,1,0,.13,3.9,3.9,0,0,1-.33,1.07l0,.1c-.15.38-.7,1.55-1.18,2.58l-.73,1.57h0l-.23-.67c-.73-2.13-.86-2.52-1-3a1.86,1.86,0,0,1-.08-.46.54.54,0,0,1,.32-.51l.38-.18s.14-.05.16-.13h0a.09.09,0,0,0,0,0h0a.12.12,0,0,0-.06-.1h0c-.06,0-.15,0-.3,0l-1,.37-.71.26-.64.2-1.37.44c-.2.07-.32.14-.28.26s.18.1.31.06a3,3,0,0,1,.57-.15c.51-.06.69.14.87.59s.31.83,1,3l.88,2.56c.44,1.31.83,2.44,1,3.06.08.41.13.75-.13.9l-.49.23c-.11,0-.18.08-.19.15a.16.16,0,0,0,.06.15c.07,0,.15,0,.29,0l1.12-.41.67-.25.65-.21,1.41-.45c.19-.06.27-.15.23-.26S263.74,273.3,263.74,273.3ZM276.3,266s0,0,0,0l-2.76.32h0a.08.08,0,0,1,0-.07l1-3.84c0-.08,0-.13.06-.13s.05.06.07.1L276.3,266A0,0,0,0,1,276.3,266Z" transform="translate(-159.67 -226)"/><path class="a" d="M280.47,386.13a5.83,5.83,0,0,0-6.43,5.73,5.75,5.75,0,0,0,5.9,6.11,6,6,0,0,0,6.45-6C286.51,388.5,284.24,386.25,280.47,386.13Zm.13,11.08a4.18,4.18,0,0,1-3-1.32,6.13,6.13,0,0,1-1.45-4.43,5.19,5.19,0,0,1,1.32-3.72,3.48,3.48,0,0,1,2.52-.86,4,4,0,0,1,2.83,1.28,5.93,5.93,0,0,1,1.4,4.31C284.1,396.84,281.65,397.24,280.61,397.21Z" transform="translate(-159.67 -226)"/><path class="a" d="M301.19,395s-.08.08-.2.11l-1.8.41-.66.14-.69.19-1.8.49c-.15,0-.26,0-.29-.09s0-.18.09-.2a9.3,9.3,0,0,0,1.14-.4c.41-.2.46-.41.39-.9-.11-.65-.41-1.88-.76-3.31l-.58-2.32h0l-.49-1.92c-.09-.35-.13-.5-.33-.45a6.23,6.23,0,0,0-1.14.82l-.37.29c-.27.19-.36,0-.36,0a.31.31,0,0,1,.1-.26c.06,0,2.38-2.57,2.82-3.09a.79.79,0,0,1,.35-.29c.08,0,.19,0,.26.28l0,.19c.1.49.38,1.8.83,3.64l.67,2.71c.34,1.35.66,2.64.87,3.28.16.45.28.65.76.63a8.49,8.49,0,0,0,1-.15S301.31,394.77,301.19,395Z" transform="translate(-159.67 -226)"/><path class="a" d="M309.68,388.46c-.73-1.77-2.74-2-3.82-2.09l.2-.21a3,3,0,0,0,.79-3.2,2,2,0,0,0-1.11-1.15,3.49,3.49,0,0,0-2.65.19,3.36,3.36,0,0,0-2.44,3,2.36,2.36,0,0,0,.17.88c.43,1,1.4,1.58,3.08,1.72a5.42,5.42,0,0,0-.58.66,3.86,3.86,0,0,0-.92,2.37,2.93,2.93,0,0,0,.23,1.14,2.66,2.66,0,0,0,1.45,1.49,4.18,4.18,0,0,0,3.2-.19C309.69,392.09,310.32,390,309.68,388.46Zm-3.83-2.08.58.07-.59-.06Zm-3.6-1.19.06.08a1.91,1.91,0,0,1-.14-.26,2,2,0,0,1-.15-.73,1.59,1.59,0,0,1,.12-.62,1.83,1.83,0,0,1,1-1,1.64,1.64,0,0,1,2.2,1,2.4,2.4,0,0,1-.48,2.68,4.58,4.58,0,0,1-2.18-.67,2.35,2.35,0,0,0,.54.32A1.84,1.84,0,0,1,302.25,385.19Zm1.64,2.43-.47-.06.48.05Zm3.2,4.75a2.24,2.24,0,0,1-2.91-1.32,3.31,3.31,0,0,1,.53-3.37c1.48.21,2.9.41,3.47,1.79A2.11,2.11,0,0,1,307.09,392.37Z" transform="translate(-159.67 -226)"/><path class="a" d="M318.62,387.09,317,388l-.57.34-.61.38-1.58,1c-.13.08-.23.11-.3,0a.15.15,0,0,1,0-.22,10,10,0,0,0,1-.71c.33-.32.31-.53.1-1-.3-.6-1-1.73-1.7-2.93l-1.24-2-.65-1.06-.38-.62c-.13-.21-.21-.35-.31-.38l-.14,0a5.84,5.84,0,0,0-.84,1.1l-.29.42s-.18.27-.35.06a.28.28,0,0,1,0-.27c0-.06,1.52-3.17,1.78-3.78,0,0,.16-.43.36-.4s.14.09.21.21l.11.19,1.86,3.21,1.44,2.39c.72,1.19,1.41,2.33,1.8,2.87.28.38.45.53.92.38a9,9,0,0,0,.89-.44.15.15,0,0,1,.21.08S318.87,387,318.62,387.09Z" transform="translate(-159.67 -226)"/><path class="a" d="M324,375.58c-.6-.71-2.19-2.39-4.08-2.56a3.54,3.54,0,0,0-2.63.88c-2.1,1.76-1.84,4.52.71,7.57,1.74,2.08,4.41,3.61,6.72,1.69a3.67,3.67,0,0,0,1.38-2.54C326.24,379.12,325.52,377.37,324,375.58Zm.48,6.84c-1.43,1.2-3.82-.63-5.43-2.56-1.4-1.68-2.13-3.17-2-4.2a1.42,1.42,0,0,1,.5-1,1.64,1.64,0,0,1,1.26-.37c1.4.13,3.08,1.59,4.2,2.92C325,379.61,325.54,381.55,324.49,382.42Z" transform="translate(-159.67 -226)"/><path class="a" d="M225.18,311.48a6.24,6.24,0,0,0-4-2.65,5.51,5.51,0,0,0-4.23.64,6.3,6.3,0,0,0-2.59,4.14,5.82,5.82,0,0,0,4.48,7.35,5.76,5.76,0,0,0,7.08-4.71A6.2,6.2,0,0,0,225.18,311.48Zm.12,4c-.57,2.65-3.22,4-6.45,3.33-4-.86-4.11-3.25-3.82-4.6.55-2.53,3.12-3.83,6.26-3.15C225.56,312,225.51,314.45,225.29,315.48Z" transform="translate(-159.67 -226)"/><path class="a" d="M218.33,302.37c.06,0,.1-.08.15-.19l.25-.42c.31-.41.58-.4,1-.22s.83.35,2.9,1.33l2.41,1.13c1.25.58,2.34,1.09,2.87,1.43.35.22.63.43.56.73l-.18.51a.32.32,0,0,0,0,.23.12.12,0,0,0,.17.07c.06,0,.12-.1.18-.23l.41-1,.24-.53.12-.25,1-2.1.89-1.83c.33-.71.3-.83,0-1.05a11.35,11.35,0,0,0-1.48-.95c-.15-.07-.25-.1-.31,0s0,.2.14.26a1.9,1.9,0,0,1,.64.73c.2.49,0,1-.36,1.76-.52,1.1-.78,1.37-1.07,1.5s-1.32-.28-3-1.09l-2.46-1.15c-2-1-2.41-1.13-2.82-1.36s-.63-.48-.54-.85l.21-.55c.07-.15.1-.27,0-.33s-.2.06-.28.24l-.5,1.13-.32.74-.34.68-.58,1.17c-.07.16-.09.25-.07.31A.13.13,0,0,0,218.33,302.37Z" transform="translate(-159.67 -226)"/><path class="a" d="M251.5,269c0-.08,0-.2-.15-.41l-.75-1.38-.12-.21c-.07-.11-.18-.09-.29-.06a7.47,7.47,0,0,0-1.86.79,3.83,3.83,0,0,0-1.85,2.24,2.6,2.6,0,0,0,.3,2c.66,1.12,1.75,1.69,3.75,2l.87.11c1.53.19,2.1.67,2.49,1.32a1.83,1.83,0,0,1-.86,2.49,2.08,2.08,0,0,1-2.61-.22,3.28,3.28,0,0,1-.51-.59c0-.07-.13-.23-.28-.15s0,.3,0,.46l0,.06.91,1.68c.17.29.25.34.53.3a5.2,5.2,0,0,0,2.1-.78,4.32,4.32,0,0,0,1.76-1.76,3.12,3.12,0,0,0,.34-1.39,3.16,3.16,0,0,0-.45-1.6c-.73-1.23-1.8-1.77-4.1-2.07l-.52-.06c-1.5-.17-2.1-.43-2.47-1a1.54,1.54,0,0,1-.22-.78,1.73,1.73,0,0,1,1-1.45,1.9,1.9,0,0,1,1.77-.2,1.8,1.8,0,0,1,.84.65c.07.11.12.17.18.18A.16.16,0,0,0,251.5,269Z" transform="translate(-159.67 -226)"/><path class="a" d="M294.72,271.72a.4.4,0,0,1-.27,0l-1.63-.31-.69-.13-.7-.1-1.18-.17c-.21,0-.3-.11-.29-.22s.17-.11.28-.09l.54,0c.3,0,.43-.25.54-.66.17-.61.37-1.76.61-3.23l.46-2.71c.37-2.2.43-2.59.48-3.07s-.05-.77-.35-.89a2.13,2.13,0,0,0-.52-.15c-.13,0-.25-.06-.23-.21s.17-.11.4-.08l1.09.21.83.16.72.1,1.1.16c.16,0,.25.06.29.11l0,.07c0,.15-.15.15-.28.12l-.45,0c-.38,0-.55.19-.68.74s-.19.93-.55,3.14l-.44,2.62c-.23,1.4-.44,2.6-.49,3.26,0,.42,0,.69.46.81l.74.18a.33.33,0,0,1,.21.1S294.79,271.66,294.72,271.72Z" transform="translate(-159.67 -226)"/><path class="a" d="M322.32,275.23c.13.09.26,0,.42-.28l.93-1.26.15-.19c.07-.11,0-.2-.07-.29a7.31,7.31,0,0,0-1.51-1.35,3.8,3.8,0,0,0-2.81-.74,2.58,2.58,0,0,0-1.7,1.12c-.74,1.08-.8,2.3-.2,4.22l.26.84c.47,1.47.28,2.18-.15,2.81a1.82,1.82,0,0,1-2.61.26,2.07,2.07,0,0,1-.9-2.46,3.14,3.14,0,0,1,.32-.7c0-.07.16-.23,0-.32s-.29.08-.39.22l-1.19,1.58a.65.65,0,0,0-.15.34.49.49,0,0,0,.1.26,5.19,5.19,0,0,0,1.59,1.58,4.32,4.32,0,0,0,2.33.85,3.07,3.07,0,0,0,2.67-1.36c.81-1.17.85-2.38.15-4.58l-.17-.5c-.47-1.43-.49-2.09-.08-2.68a1.56,1.56,0,0,1,2.34-.25,1.89,1.89,0,0,1,.92,1.53,1.81,1.81,0,0,1-.24,1S322.17,275.15,322.32,275.23Z" transform="translate(-159.67 -226)"/><path class="a" d="M322.08,286.72c.09-.09.2,0,.28.09l.43.34c.25.18.57,0,.87-.26.5-.38,1.34-1.21,2.33-2.16l4.44-4.33-1.6-1.55c-.6-.58-.92-.81-1.32-.74a1.76,1.76,0,0,0-.55.18s-.26.13-.31-.09c0-.05,0-.11.12-.2s1.35-.91,1.47-1,.28-.14.35-.07l.08.16a1.35,1.35,0,0,0,.24.43c.28.35.66.78,1,1.13l4.17,4.28.78.69.13.09.21.15c.09.09,0,.19-.14.33l-1.28,1.19c-.1.08-.21.15-.29.07a.15.15,0,0,1,0-.11c0-.07.05-.14.15-.25l.11-.13a.6.6,0,0,0,.15-.42,2.3,2.3,0,0,0-.79-1.42s-1.27-1.37-1.27-1.39h0l-4.43,4.31c-1,1-1.84,1.8-2.26,2.3a1,1,0,0,0-.3.61.58.58,0,0,0,.13.36l.49.59a.32.32,0,0,1,.12.21.11.11,0,0,1,0,.08c-.08.07-.2,0-.33-.1L324,288.91l-.48-.51-.5-.49-.86-.84S321.94,286.83,322.08,286.72Z" transform="translate(-159.67 -226)"/><path class="a" d="M338,288.23c.1-.06.22.07.33.24l.61.94.46.71.42.6.64.9c.09.13.17.29.07.36s-.21,0-.29-.12l-.29-.35c-.27-.27-.53-.26-1,0s-.74.46-2.54,1.68l-2.33,1.57c-1.23.83-2.2,1.49-2.7,1.9-.32.27-.46.5-.27.89l.38.67c.12.18.08.26,0,.29s-.2,0-.31-.15l-.9-1.4-.37-.58-.42-.58-.69-1s-.22-.26,0-.36.2,0,.26.14l.36.41c.21.21.47.14.85-.06.56-.29,1.52-.94,2.73-1.75l2.29-1.55c1.86-1.26,2.2-1.49,2.58-1.78s.53-.57.41-.88a2.23,2.23,0,0,0-.25-.48S337.88,288.31,338,288.23Z" transform="translate(-159.67 -226)"/><path class="a" d="M334.31,303.61l.28.47c.17.24.48.2.91.06.61-.19,1.69-.67,3-1.23l5.64-2.48-1-2c-.36-.75-.58-1.08-1-1.15a1.7,1.7,0,0,0-.58,0c-.1,0-.21,0-.25-.09s0-.19.18-.25,1.58-.39,1.72-.41.31,0,.35.06l0,.18a1.44,1.44,0,0,0,.07.49c.14.43.35,1,.55,1.4l2.41,5.46.49.91.09.13.14.22v.09c0,.06-.1.1-.25.17l-1.62.66c-.12,0-.25.07-.29,0a.14.14,0,0,1,0-.07c0-.08.08-.14.24-.22l.15-.08a.75.75,0,0,0,.35-.72,3.32,3.32,0,0,0-.3-1.22s-.71-1.7-.71-1.75h0l-5.65,2.49c-1.26.56-2.35,1-2.92,1.37-.29.16-.54.33-.54.65a.64.64,0,0,0,0,.2l.26.73s.12.33-.13.29a.39.39,0,0,1-.17-.22l-.63-1.52-.28-.66-.3-.65-.5-1.07c-.06-.13-.11-.25,0-.29S334.18,303.33,334.31,303.61Z" transform="translate(-159.67 -226)"/><path class="a" d="M349.46,314.84c.16,0,.13-.16.09-.37l-.23-1.09-.15-.73-.13-.8-.22-1.37c0-.21-.09-.34-.21-.32s-.13.16-.1.3a3.16,3.16,0,0,1,.06.58c0,.51-.24.66-.71.78s-.86.19-3,.59l-2.27.42c-1.88.34-3.05,1-3.7,2.05a4.87,4.87,0,0,0-.42,3.49,4.57,4.57,0,0,0,1.64,2.9c1.29,1,3,.9,4.74.58l1.64-.3c2.21-.41,2.61-.48,3.09-.54s.79,0,.92.38l.13.42c0,.13.06.2.11.24a.15.15,0,0,0,.18,0c0-.05,0-.14,0-.31l-.27-1.26-.09-.42-.27-1.72c0-.2-.09-.32-.21-.3s-.13.15-.1.3l.05.54c0,.51-.24.66-.71.78s-.86.19-3.14.61l-1.85.34c-1.59.29-2.88.47-3.82-.18a3,3,0,0,1-1.17-1.88,2.81,2.81,0,0,1,.27-2c.52-.94,1.51-1.47,3.42-1.82l2.17-.4c2.19-.41,2.58-.48,3.06-.54s.79,0,.92.38l.13.42S349.33,314.87,349.46,314.84Z" transform="translate(-159.67 -226)"/><path class="a" d="M349.26,327.08a1.81,1.81,0,0,1,.51.28c.3.23.36.58.36,1.29v.18l0,2.23-6.2-.29c-1.36-.07-2.53-.12-3.15-.22-.45-.07-.75-.17-.79-.46l0-.54a.37.37,0,0,0,0,0c0-.28-.23-.18-.23-.18a.38.38,0,0,0-.08.28l0,1.18,0,.71,0,.72-.11,1.64a.39.39,0,0,0,.06.27.14.14,0,0,0,.17,0,.3.3,0,0,0,.07-.22l.1-.76c.09-.46.44-.51.83-.54.65,0,1.84,0,3.22.07L350,333h0s-.15,1.88-.15,1.88c-.1,1.48-.61,1.71-.91,1.72h-.16c-.22,0-.32,0-.33.17h0c0,.11.13.14.25.16l1.75.13c.17,0,.26,0,.31,0l0-.08,0-.25,0-.17s0-1,0-1l.28-6c0-.49.08-1.06.14-1.5a1.44,1.44,0,0,1,.15-.47l.06-.17c0-.11-.1-.16-.29-.21s-1.48-.39-1.72-.4a.32.32,0,0,0-.23,0S349,327,349.26,327.08Z" transform="translate(-159.67 -226)"/><path class="a" d="M338.64,339.52a.29.29,0,0,1,0,.23l-.07.54c0,.3.3.46.69.61.58.23,1.71.51,3,.85l2.63.67.09,0c2.16.54,2.54.64,3,.73s.74.05,1-.4a3.44,3.44,0,0,0,.19-.55c0-.12.06-.19.12-.22a.16.16,0,0,1,.18,0c0,.06,0,.15,0,.32l-.32,1.18,0,.09-.23.82,0,.17c-.2.8-.82,3.22-.87,3.47l-.07.65V349c0,.11-.14.07-.18.07l-.14-.06-.78-.31-.29-.09-.66-.22s-.16-.08-.14-.2v0s0-.11.17-.09H346a1.7,1.7,0,0,0,.54,0c.27,0,.48-.11.76-.83.09-.25.51-1.78.58-2.06v-.06l-.11-.05-3.69-.94h-.13l0,.06c-.33,1.28-.53,2.12-.56,2.33a1,1,0,0,0,.05.77c.09.12.14.2.12.27s0,.12-.16.08l-.13,0-.91-.33-1-.31c-.12,0-.29-.07-.25-.22a.17.17,0,0,1,.18-.11l.14,0,.4,0c.35,0,.59-.2.76-.66.1-.28.49-1.75.57-2.06v0l-.11-.05-1.16-.3-.61-.16-1.66-.42c-1-.22-1.26-.1-1.65,1.43a3.91,3.91,0,0,0-.18,1.41c.08.41.32.66.9.92,0,0,.34.15.14.31a.37.37,0,0,1-.26,0,12.59,12.59,0,0,1-1.58-.6c-.37-.2-.33-.35-.18-.9l.55-2.06.13-.45.43-1.51.2-.84.23-1a.4.4,0,0,1,.14-.26A.14.14,0,0,1,338.64,339.52Z" transform="translate(-159.67 -226)"/><path class="a" d="M344.21,353.32a.32.32,0,0,1,.22,0c.22.11,1.32,1,1.43,1s.23.22.18.31l-.12.13a1.36,1.36,0,0,0-.32.37,14.81,14.81,0,0,0-.73,1.33l-2.61,5.37-.39,1,0,.16-.07.25c-.05.11-.18.07-.36,0l-1.56-.8c-.11-.07-.21-.14-.16-.25s.16-.11.37,0l.15.06c.27.11.84.09,1.52-1.23,0,0,.85-1.65.87-1.65h0L337,356.65c-1.24-.61-2.31-1.13-2.92-1.34-.36-.13-.71-.22-1,.16l-.39.67c-.09.19-.18.2-.23.17s0-.35,0-.35l.75-1.48.33-.63.29-.65.5-1.09c.06-.13.12-.2.19-.22a.19.19,0,0,1,.17.07.18.18,0,0,1,0,0,.42.42,0,0,1-.06.18l-.18.51a.39.39,0,0,0,0,.11c0,.23.23.43.56.63a32.11,32.11,0,0,0,2.85,1.48l5.54,2.69.92-2a3.09,3.09,0,0,0,.35-1.11.77.77,0,0,0-.1-.38,1.53,1.53,0,0,0-.36-.45.28.28,0,0,1-.11-.19A.14.14,0,0,1,344.21,353.32Z" transform="translate(-159.67 -226)"/><path class="a" d="M238.42,290.13c.08,0,.16-.06.27-.17l1-1,.18-.18.32-.28,1.07-1c.14-.13.25-.27.15-.37s-.2,0-.3.09a2.28,2.28,0,0,1-.63.46c-.32.15-.78-.11-1.52-.85l-4.48-4.48.5,0c.94.07,2.89.22,4.73.26l2.82.07,3.46.08a1,1,0,0,0,.6-.11h0a.14.14,0,0,0,.05-.12.17.17,0,0,0,0-.06.92.92,0,0,0-.22-.32l-6.43-7c-.58-.63-.69-.93-.47-1.29l.29-.34c.14-.13.17-.24.1-.31s-.24,0-.37.14l-.85.85-.19.2-.4.35-1,.86c-.14.13-.22.23-.23.31l0,.08.09,0a.3.3,0,0,0,.2-.11,2.45,2.45,0,0,1,.64-.48c.38-.14.67,0,1.29.63l4.76,4.8,0,0h-.15l-1.46-.07-3.23-.14c-3.24-.08-6.69-.29-6.72-.29h-.21c-.26,0-.43,0-.53.06s.05.37.21.53l6,6.57c.89,1,1.14,1.32.94,1.66a2.57,2.57,0,0,1-.43.52.32.32,0,0,0-.13.2S238.31,290.14,238.42,290.13Z" transform="translate(-159.67 -226)"/><path class="a" d="M236.28,292.92c-.05,0-.14,0-.26.14l-.48.6c-.29.32-.56.27-.93.07-.56-.32-1.53-1-2.75-1.82l-2.18-1.51c-1.89-1.3-2.23-1.54-2.62-1.84s-.54-.58-.38-.93l.22-.39c.07-.11.13-.22,0-.31s-.21.07-.3.19l-.6.92-.41.62-.5.69-.64.89a.69.69,0,0,0-.15.29v0h0a.12.12,0,0,0,.12.1l.07,0a.36.36,0,0,0,.14-.13,2,2,0,0,1,.35-.41c.24-.22.53-.21,1,.06s.72.46,2.51,1.7l2.32,1.6c1.17.8,2.18,1.5,2.66,1.92.33.28.49.49.37.77l-.26.47a.33.33,0,0,0-.08.22s0,.1.15.09.14-.07.22-.19l.65-1,.39-.59.42-.57,1-1.34C236.36,293.11,236.38,293,236.28,292.92Z" transform="translate(-159.67 -226)"/><path class="a" d="M224.63,334.82l-.07-1.23,0-.61v-.46l0-1.76c0-.21-.06-.32-.18-.31s-.13.08-.13.2l0,.73c0,.42-.31.54-.79.6-.63.1-1.83.13-3.22.18h-.21l-.08,0,0-.08v-1.31a.31.31,0,0,1,.09-.26l1-.76,1.05-.8a7.29,7.29,0,0,0,2.15-2.14,3.12,3.12,0,0,0,.24-1.63l0-1.43a.47.47,0,0,0-.05-.24l0,0h0a.11.11,0,0,0-.09,0h0c-.05,0-.11.06-.1.2l0,.42a3,3,0,0,1-1,1.71c-.78.8-1.85,1.7-3.21,2.85l-.64.55-.07-.07-.19-.21a4,4,0,0,0-3.17-1.6,2.65,2.65,0,0,0-2,1.1,4.85,4.85,0,0,0-.56,2.8l.11,2.13v.6l0,1.46c0,.22,0,.35.16.35s.15-.14.15-.29a3.09,3.09,0,0,1,0-.58c.09-.51.34-.62.82-.66s.89-.06,3.18-.13l2.67-.09c1.38,0,2.57-.08,3.21,0,.41,0,.75.11.82.4l.08.54a.32.32,0,0,0,.07.23h0a.12.12,0,0,0,.08,0l.06,0C224.6,335.1,224.63,335,224.63,334.82Zm-5.69-2.73c0,.1-.09.13-.25.13l-4.58.14c-.12,0-.17,0-.2-.11a3.29,3.29,0,0,1-.08-.79,2.26,2.26,0,0,1,.59-1.57,2.84,2.84,0,0,1,2.08-.8,2.58,2.58,0,0,1,2.27.81,1.5,1.5,0,0,1,.29,1.05A3.87,3.87,0,0,1,218.94,332.09Z" transform="translate(-159.67 -226)"/><path class="a" d="M227.88,348.61l-.39-1.41-.09-.31-.35-1.56c0-.14-.09-.27-.23-.23s-.11.12-.07.27l.06.22c.1.39,0,.61-.29.69a3,3,0,0,1-.94,0l-2.29-.26c-.09,0-.12,0-.13-.09l-.83-3.26a.13.13,0,0,1,.06-.16l2.8-2a.24.24,0,0,1,.18-.06h0c.11,0,.14.07.2.2a.14.14,0,0,0,.16.08c.11,0,.08-.18,0-.42v-.07l-.67-2.77c-.11-.44-.14-.61-.25-.64s-.17.23-.17.23l.09.62c0,.35-.14.83-1.26,1.68l-5.1,3.73-3,2.18c-.29.22-.42.36-.38.5s.25.21.71.28l10.11,1.33a2.22,2.22,0,0,1,1.35.48c.21.17.24,1.1.24,1.1a6.6,6.6,0,0,1-.45,2.5l0,.15c-.23.77-1.75,4.84-2.14,5.64-.7-.22-3.71-1.24-4.35-1.47a5.08,5.08,0,0,1-1.74-.94,2.86,2.86,0,0,1-.53-.7c0-.1-.09-.15-.14-.16h-.11l-.07.07a.34.34,0,0,0,.05.24l.83,1.55.66,1.41c.05.11.1.16.15.18h.1c.1-.05.09-.15.06-.26s0-.22.16-.3a2.45,2.45,0,0,1,1.25.15l.09,0c.39.1,1.62.48,2.7.81l1.68.51h0l0,0-.77.4c-1.86.93-2.25,1.12-2.68,1.3s-.77.2-1-.11l-.23-.36c0-.05-.1-.2-.24-.14s-.08.19,0,.37l.49.92.37.69.29.62.61,1.29c.08.16.13.23.2.25h.1c.12-.06.07-.2,0-.31a3,3,0,0,1-.22-.54c-.13-.49,0-.7.47-.94s.76-.42,2.72-1.4l2.53-1.27c1.22-.62,2.28-1.14,2.88-1.35.39-.13.73-.22.91,0l.29.46c.05.1.1.16.16.17.32,0,.1-.37.1-.37l-.56-1-.33-.63-.3-.63-.64-1.33c-.08-.17-.19-.24-.29-.2a.12.12,0,0,0-.07.11.36.36,0,0,0,0,.14l.28.68a.61.61,0,0,1,0,.17c0,.24-.17.46-.5.66-.54.32-1.57.84-2.77,1.43l-1.32.66h0a.15.15,0,0,0,0-.05s.13-.24.13-.24c.24-.47,2-4.68,2.27-5.55a3,3,0,0,0,0-2.12l-.43-.92A4.76,4.76,0,0,1,227.88,348.61Zm-5.58-2.73a.08.08,0,0,1-.06,0l-3.94-.44c-.08,0-.13,0-.14,0s0-.05.09-.08l3.29-2.24s0,0,0,0a.06.06,0,0,1,0,.05l.69,2.69a.09.09,0,0,1,0,0S222.3,345.88,222.3,345.88Z" transform="translate(-159.67 -226)"/><path class="a" d="M243.24,386l-.46-.44c-.21-.29-.38-.75,0-2.09l1.84-6.11,1-3.47c.1-.35.12-.53,0-.62s-.33,0-.73.21l-8.88,5c-.78.44-1.27.59-1.83.26l-.38-.27c-.26-.12-.28.09-.28.09s.06.12.17.22l1.16.88.26.19,1.22,1c.1.08.17.13.22.1.22-.11,0-.32,0-.32l-.18-.14c-.32-.25-.37-.48-.18-.72a3,3,0,0,1,.75-.57l2-1.17c.07,0,.11,0,.16,0l2.62,2.11a.13.13,0,0,1,0,.16l-1.06,3.25a.26.26,0,0,1-.13.17h0l-.08,0-.08,0h0c-.12-.08-.2-.11-.27,0s0,.2.24.36l0,0,2.2,1.81c.36.28.5.37.58.36S243.24,386,243.24,386Zm.16-10.42-1.28,3.76s0,0,0,0a.05.05,0,0,1-.05,0l-2.17-1.72s0,0,0,0,0,0,0-.06l3.41-2c.06,0,.11-.07.13,0S243.42,375.55,243.4,375.6Z" transform="translate(-159.67 -226)"/><path class="a" d="M257.26,380.94c.07-.07.19,0,.37.11l1.14.62.46.25.25.11,1.09.52c.16.09.32.18.25.31s-.16.09-.33,0l-.42-.17c-.41-.08-.66.13-1.06.88L254.52,392s-.21.4-.41.33a.88.88,0,0,1-.31-.53l-1.07-3.27-.87-2.71c-.57-1.75-1.09-3.65-1.33-4.56l-.14-.48h0l-2.74,5.71c-.45.94-.54,1.45-.29,1.71a2.29,2.29,0,0,0,.64.45c.11.06.17.11.19.16a.14.14,0,0,1-.09.15c-.06,0-.16,0-.32-.08l-1.29-.7-.35-.2-.22-.11-1.24-.6c-.14-.07-.23-.12-.25-.2a.13.13,0,0,1,.08-.17.32.32,0,0,1,.23.05,2.41,2.41,0,0,0,.63.24c.39.07.64-.28,1.25-1.44l4.19-7.88c.12-.23.22-.36.32-.39s.2-.11.35.49l.06.2s.95,3.35,1.95,6.44l.93,3.08.42,1.4,0,.09,0,.09,0-.06,3-6.08a2.36,2.36,0,0,0,.33-1,.64.64,0,0,0-.16-.41,2.37,2.37,0,0,0-.67-.44S257.09,381.11,257.26,380.94Z" transform="translate(-159.67 -226)"/><path class="a" d="M273.38,386.5l-.44-.07c-.42,0-.62.25-.86,1.07l-2.69,9.13a.9.9,0,0,1-.15.35.17.17,0,0,1-.13.07H269a1,1,0,0,1-.39-.45l-1.74-3-1.37-2.42c-.91-1.59-1.8-3.33-2.22-4.17l-.25-.46h0l-1.52,6.15c-.25,1-.24,1.54.05,1.73a2.42,2.42,0,0,0,.72.31s.33.09.17.29-.17,0-.33,0l-1.4-.42-.39-.12-.24-.06-1.35-.33c-.41-.09-.29-.26-.29-.26s.17-.1.29-.06a2.84,2.84,0,0,0,.67.1c.39,0,.57-.41.93-1.67l2.5-8.57c.06-.22.16-.5.35-.45s.21.19.32.42l.1.19c.22.43,1.76,3.35,3.22,5.9l1.52,2.8s.66,1.21.74,1.38h0l0,.07v0h0l1.65-6.57a3.76,3.76,0,0,0,.14-.83.67.67,0,0,0-.27-.59,2.31,2.31,0,0,0-.74-.29c-.15,0-.21-.09-.21-.18a.15.15,0,0,1,.06-.12c.07,0,.2,0,.38,0l1.24.38.51.15.28.06,1.16.29c.16,0,.3.09.3.15S273.75,386.58,273.38,386.5Z" transform="translate(-159.67 -226)"/><path class="a" d="M301.63,273.88c-.06.14-.24.09-.41,0l-1.34-.57-.38-.17-.25-.09-1.28-.47c-.18-.07-.32-.14-.26-.28s.19-.07.29,0a2.69,2.69,0,0,0,.65.18c.39,0,.61-.34,1.1-1.55l3.41-8.25c.08-.21.21-.49.39-.42s.19.21.28.46l.08.2s1.27,3.26,2.56,6.22l1.24,3s.57,1.4.57,1.41h0l0,.06v0l0-.06c0-.08,2.33-6.28,2.33-6.28a2.85,2.85,0,0,0,.24-.94.64.64,0,0,0-.21-.49,2.43,2.43,0,0,0-.71-.37c-.13-.05-.2-.11-.2-.18a.18.18,0,0,1,0-.06c.05-.13.24-.07.44,0l1.19.51.5.21.25.09,1.13.41c.15.06.25.12.28.19l-.06.16a.38.38,0,0,1-.27,0l-.43-.12c-.41,0-.64.19-1,1l-3.65,8.79c-.08.22-.16.33-.25.37h-.12c-.16-.06-.27-.29-.37-.5L306.11,273,305,270.46c-.74-1.68-1.43-3.51-1.76-4.4l-.18-.47h0l-2.18,5.95c-.36,1-.39,1.5-.13,1.73a2.41,2.41,0,0,0,.69.38S301.68,273.74,301.63,273.88Z" transform="translate(-159.67 -226)"/><rect class="c" width="245.33" height="294.67"/></svg>