<?xml version="1.0" encoding="UTF-8"?> <!-- Generator: Adobe Illustrator 22.0.1, SVG Export Plug-In . SVG Version: 6.00 Build 0) --> <svg xmlns="http://www.w3.org/2000/svg" xmlns:xlink="http://www.w3.org/1999/xlink" version="1.1" id="Layer_1" x="0px" y="0px" viewBox="0 0 633 926" style="enable-background:new 0 0 633 926;" xml:space="preserve"> <style type="text/css"> .st0{fill:#467FB8;} .st1{fill:#264691;} .st2{fill:#A5C2CC;} .st3{fill:#AACAD3;} .st4{fill:#1B2443;} </style> <g> <path class="st0" d="M50.8,155.3H25.6c-3.9,0-7-3.1-7-7v-25.2c0-3.9,3.1-7,7-7h25.2c3.9,0,7,3.1,7,7v25.2 C57.8,152.2,54.7,155.3,50.8,155.3z"></path> <path class="st1" d="M339.5,170.6h-44.8c-6.9,0-12.5-5.6-12.5-12.5v-44.8c0-6.9,5.6-12.5,12.5-12.5h44.8c6.9,0,12.5,5.6,12.5,12.5 v44.8C351.9,165,346.4,170.6,339.5,170.6z"></path> <path class="st2" d="M426.8,68.9h-33.6c-5.2,0-9.3-4.2-9.3-9.3V26c0-5.2,4.2-9.3,9.3-9.3h33.6c5.2,0,9.3,4.2,9.3,9.3v33.6 C436.2,64.7,432,68.9,426.8,68.9z"></path> <path class="st0" d="M432.4,170.6h-44.8c-6.9,0-12.5-5.6-12.5-12.5v-44.8c0-6.9,5.6-12.5,12.5-12.5h44.8c6.9,0,12.5,5.6,12.5,12.5 v44.8C444.9,165,439.3,170.6,432.4,170.6z"></path> <path class="st0" d="M515.6,62.4h-25.2c-3.9,0-7-3.1-7-7V30.2c0-3.9,3.1-7,7-7h25.2c3.9,0,7,3.1,7,7v25.2 C522.6,59.3,519.4,62.4,515.6,62.4z"></path> <path class="st2" d="M612.7,161.9h-33.6c-5.2,0-9.3-4.2-9.3-9.3v-33.6c0-5.2,4.2-9.3,9.3-9.3h33.6c5.2,0,9.3,4.2,9.3,9.3v33.6 C622.1,157.7,617.9,161.9,612.7,161.9z"></path> <path class="st0" d="M55,347.8H21.4c-5.2,0-9.3-4.2-9.3-9.3v-33.6c0-5.2,4.2-9.3,9.3-9.3H55c5.2,0,9.3,4.2,9.3,9.3v33.6 C64.4,343.6,60.2,347.8,55,347.8z"></path> <path class="st2" d="M153.6,263.5h-44.8c-6.9,0-12.5-5.6-12.5-12.5v-44.8c0-6.9,5.6-12.5,12.5-12.5h44.8c6.9,0,12.5,5.6,12.5,12.5 v44.8C166,258,160.5,263.5,153.6,263.5z"></path> <path class="st1" d="M153.6,356.5h-44.8c-6.9,0-12.5-5.6-12.5-12.5v-44.8c0-6.9,5.6-12.5,12.5-12.5h44.8c6.9,0,12.5,5.6,12.5,12.5 V344C166,350.9,160.5,356.5,153.6,356.5z"></path> <path class="st0" d="M251,363.5h-53.7c-8.3,0-15-6.7-15-15v-53.7c0-8.3,6.7-15,15-15H251c8.3,0,15,6.7,15,15v53.7 C266,356.8,259.3,363.5,251,363.5z"></path> <path class="st0" d="M344,270.5h-53.7c-8.3,0-15-6.7-15-15v-53.7c0-8.3,6.7-15,15-15H344c8.3,0,15,6.7,15,15v53.7 C358.9,263.8,352.2,270.5,344,270.5z"></path> <path class="st2" d="M344,363.5h-53.7c-8.3,0-15-6.7-15-15v-53.7c0-8.3,6.7-15,15-15H344c8.3,0,15,6.7,15,15v53.7 C358.9,356.8,352.2,363.5,344,363.5z"></path> <path class="st2" d="M436.9,270.5h-53.7c-8.3,0-15-6.7-15-15v-53.7c0-8.3,6.7-15,15-15h53.7c8.3,0,15,6.7,15,15v53.7 C451.9,263.8,445.2,270.5,436.9,270.5z"></path> <path class="st1" d="M525.4,356.5h-44.8c-6.9,0-12.5-5.6-12.5-12.5v-44.8c0-6.9,5.6-12.5,12.5-12.5h44.8c6.9,0,12.5,5.6,12.5,12.5 V344C537.8,350.9,532.3,356.5,525.4,356.5z"></path> <path class="st2" d="M153.6,542.4h-44.8c-6.9,0-12.5-5.6-12.5-12.5v-44.8c0-6.9,5.6-12.5,12.5-12.5h44.8c6.9,0,12.5,5.6,12.5,12.5 v44.8C166,536.8,160.5,542.4,153.6,542.4z"></path> <path class="st1" d="M251,456.4h-53.7c-8.3,0-15-6.7-15-15v-53.7c0-8.3,6.7-15,15-15H251c8.3,0,15,6.7,15,15v53.7 C266,449.7,259.3,456.4,251,456.4z"></path> <path class="st1" d="M339.5,542.4h-44.8c-6.9,0-12.5-5.6-12.5-12.5v-44.8c0-6.9,5.6-12.5,12.5-12.5h44.8c6.9,0,12.5,5.6,12.5,12.5 v44.8C351.9,536.8,346.4,542.4,339.5,542.4z"></path> <path class="st1" d="M436.9,456.4h-53.7c-8.3,0-15-6.7-15-15v-53.7c0-8.3,6.7-15,15-15h53.7c8.3,0,15,6.7,15,15v53.7 C451.9,449.7,445.2,456.4,436.9,456.4z"></path> <path class="st0" d="M432.4,542.4h-44.8c-6.9,0-12.5-5.6-12.5-12.5v-44.8c0-6.9,5.6-12.5,12.5-12.5h44.8c6.9,0,12.5,5.6,12.5,12.5 v44.8C444.9,536.8,439.3,542.4,432.4,542.4z"></path> <path class="st3" d="M525.4,449.4h-44.8c-6.9,0-12.5-5.6-12.5-12.5v-44.8c0-6.9,5.6-12.5,12.5-12.5h44.8c6.9,0,12.5,5.6,12.5,12.5 V437C537.8,443.9,532.3,449.4,525.4,449.4z"></path> <path class="st0" d="M608.5,527.1h-25.2c-3.9,0-7-3.1-7-7v-25.2c0-3.9,3.1-7,7-7h25.2c3.9,0,7,3.1,7,7v25.2 C615.5,524,612.4,527.1,608.5,527.1z"></path> <path class="st1" d="M50.8,620.1H25.6c-3.9,0-7-3.1-7-7v-25.2c0-3.9,3.1-7,7-7h25.2c3.9,0,7,3.1,7,7v25.2 C57.8,616.9,54.7,620.1,50.8,620.1z"></path> <path class="st2" d="M519.8,626.6h-33.6c-5.2,0-9.3-4.2-9.3-9.3v-33.6c0-5.2,4.2-9.3,9.3-9.3h33.6c5.2,0,9.3,4.2,9.3,9.3v33.6 C529.1,622.4,524.9,626.6,519.8,626.6z"></path> <g> <path class="st4" d="M77.4,771.9c-0.2-3.2-1.9-5.6-4.3-7.3c-2.2-1.9-5.2-2.8-8.2-2.8c-5.2,0-11.2,1.1-11.2,7.5 c0,2.8,2.2,4.1,4.3,5.1c6.2,2.6,20.2,3.4,32.6,7.5c12.4,3.9,23.2,11.2,23.2,27.2c0,27-25.9,34.3-49.5,34.3 c-22.9,0-48-9.2-48.5-34.3h35.4c0.2,3.4,1.7,6.2,4.5,8.6c1.9,1.7,5.4,2.8,9.9,2.8c4.9,0,12.6-1.9,12.6-7.5 c0-5.6-3.2-7.3-20.4-10.3c-28.3-4.9-39.7-13.9-39.7-30.5c0-24.5,26.4-30.9,45.9-30.9c21,0,46.3,5.8,47.2,30.7H77.4z"></path> <path class="st4" d="M212.7,819.1c0,7.3,0.4,15.6,4.5,21.7h-37.8c-0.9-2.6-1.5-6.6-1.3-9.2h-0.4c-7.9,9-19.3,11.6-31.3,11.6 c-18.7,0-34.3-9-34.3-29.4c0-30.7,36-29.6,54.9-33.2c5.1-0.9,10.1-2.4,10.1-8.6c0-6.6-6.2-9-12.2-9c-11.4,0-13.7,5.8-13.9,9.9 h-34.5c1.1-27.4,27-31.8,50-31.8c46.5,0,46.1,19.3,46.1,38V819.1z M177.1,797.2c-4.5,2.2-9.6,3.6-14.6,4.7 c-8.2,1.9-12.6,3.9-12.6,10.5c0,4.5,4.9,9,11.6,9c8.4,0,15-5.1,15.5-15.2V797.2z"></path> <path class="st4" d="M221.1,743.6h35.8V756h0.4c6.9-9.7,16.9-14.8,31.7-14.8c17.4,0,33.3,10.7,33.3,33v66.7h-37.1v-51 c0-11.2-1.3-19.1-12.2-19.1c-6.4,0-14.8,3.2-14.8,18.7v51.3h-37.1V743.6z"></path> <path class="st4" d="M430.5,828.3c0,19.3-5.1,46.5-50.6,46.5c-23,0-47.4-6.2-50.8-32.4h36.7c0.4,0.9,1.3,2.2,2.1,3.4 c2.2,3.4,6.2,7.1,10.9,7.1c12,0,14.6-14.2,14.6-22.3v-9H393c-6,8.6-15,13.5-26,13.5c-28.7,0-41.6-21.4-41.6-47.4 c0-25.3,14.4-46.5,42.2-46.5c10.9,0,21.2,4.3,25.5,14.2h0.4v-11.8h37.1V828.3z M379.1,811.2c13.7,0,15.2-13.1,15.2-24 c0-10.7-5.2-19.1-16.1-19.1c-10.5,0-15.7,9-15.7,19.3C362.5,798.5,365.8,811.2,379.1,811.2"></path> <path class="st4" d="M469.3,800.6c0.9,11.1,7.3,18.9,18.9,18.9c6,0,12.6-2.2,15.5-6.9h34.7c-7.5,21-27.9,30.7-50,30.7 c-31.1,0-54.5-18.4-54.5-50.8c0-28.3,20.6-51.3,51.3-51.3c38.6,0,55.3,21.5,55.3,59.4H469.3z M504.9,781.3c0-9-6.7-16.3-16.3-16.3 c-11.1,0-17.4,5.8-19.1,16.3H504.9z"></path> <path class="st4" d="M544.2,743.6h35.6v15.5h0.4c6-11.6,13.9-18,27.4-18c3.7,0,7.3,0.6,10.9,1.5v32.8c-3.7-1.3-7.1-2.4-14.6-2.4 c-14.6,0-22.5,8.6-22.5,29.4v38.4h-37.1V743.6z"></path> <path class="st4" d="M39.5,872.9H24.1v-10.8h15.3V872.9z M24.1,877.2h15.3v40.2H24.1V877.2z"></path> <path class="st4" d="M43.2,877.2H58v5.1h0.2c2.9-4,7-6.1,13.1-6.1c7.2,0,13.8,4.4,13.8,13.6v27.6H69.7v-21.1c0-4.7-0.5-7.9-5-7.9 c-2.6,0-6.1,1.3-6.1,7.8v21.2H43.2V877.2z"></path> <path class="st4" d="M111.9,888.9c-0.1-1.3-0.8-2.3-1.8-3c-0.9-0.8-2.2-1.2-3.4-1.2c-2.2,0-4.7,0.5-4.7,3.1c0,1.2,0.9,1.7,1.8,2.1 c2.6,1.1,8.4,1.4,13.5,3.1c5.1,1.6,9.6,4.7,9.6,11.2c0,11.2-10.7,14.2-20.5,14.2c-9.5,0-19.8-3.8-20.1-14.2h14.6 c0.1,1.4,0.7,2.6,1.9,3.6c0.8,0.7,2.2,1.2,4.1,1.2c2,0,5.2-0.8,5.2-3.1c0-2.3-1.3-3-8.4-4.3c-11.7-2-16.4-5.7-16.4-12.6 c0-10.2,10.9-12.8,19-12.8c8.7,0,19.1,2.4,19.5,12.7H111.9z"></path> <path class="st4" d="M147.2,877.2h8.2v9.5h-8.2v14c0,3.7,0.9,5.3,4.7,5.3c1.2,0,2.3-0.1,3.5-0.2v11.6c-3.1,0-6.6,0.5-9.8,0.5 c-6.5,0-13.7-1-13.7-12v-19.2h-6.8v-9.5h6.8V865h15.3V877.2z"></path> <path class="st4" d="M173.3,872.9h-15.3v-10.8h15.3V872.9z M157.9,877.2h15.3v40.2h-15.3V877.2z"></path> <path class="st4" d="M197.8,877.2h8.2v9.5h-8.2v14c0,3.7,0.9,5.3,4.7,5.3c1.2,0,2.3-0.1,3.5-0.2v11.6c-3.1,0-6.6,0.5-9.8,0.5 c-6.5,0-13.7-1-13.7-12v-19.2h-6.8v-9.5h6.8V865h15.3V877.2z"></path> <path class="st4" d="M250,917.4h-14.8v-5.1H235c-2.9,4-7,6.1-13.1,6.1c-7.2,0-13.8-4.4-13.8-13.6v-27.6h15.3v21.1 c0,4.7,0.5,7.9,5,7.9c2.6,0,6.1-1.3,6.1-7.8v-21.2H250V917.4z"></path> <path class="st4" d="M272.2,877.2h8.2v9.5h-8.2v14c0,3.7,0.9,5.3,4.7,5.3c1.2,0,2.3-0.1,3.5-0.2v11.6c-3.1,0-6.6,0.5-9.8,0.5 c-6.5,0-13.7-1-13.7-12v-19.2h-6.8v-9.5h6.8V865h15.3V877.2z"></path> <path class="st4" d="M295.6,900.8c0.4,4.6,3,7.8,7.8,7.8c2.5,0,5.2-0.9,6.4-2.9h14.3c-3.1,8.7-11.5,12.7-20.7,12.7 c-12.9,0-22.5-7.6-22.5-21c0-11.7,8.5-21.2,21.2-21.2c16,0,22.9,8.9,22.9,24.6H295.6z M310.3,892.8c0-3.7-2.8-6.7-6.7-6.7 c-4.6,0-7.2,2.4-7.9,6.7H310.3z"></path> <g> <path class="st4" d="M147.7,680.3c-3.4-11.3-11.7-17.6-26-17.6c-11,0-19.4,5.6-23.6,13.8l3.9-12.5H82.4l-7,31.7H75L68.3,664H50.6 l-6.3,31.7H44L36.6,664H17l15.5,51h19.3l7.5-31.5h0.3l7.3,31.5h19.3l9.1-29.5c-0.2,1.4-0.3,2.7-0.3,4.1c0,17,11.7,26.6,27.6,26.6 c10.9,0,20.8-4.5,25.2-14.3v13h18.7v-70.1h-18.7V680.3z M122.5,674.9c5.5,0,9,3.9,9,9h-18.7C113.8,678,117.2,674.9,122.5,674.9z M147.7,700.4h-16.8c-1.6,2.5-5.1,3.6-8.1,3.6c-6.1,0-9.5-4.2-9.9-10.3h34.9V700.4z"></path> <path class="st4" d="M403.3,704c-6.1,0-9.5-4.2-10-10.3H430c-0.1-19.7-8.6-31-27.8-31c-13.3,0-22.8,8.2-25.8,19.4v-2.2 c0-8.3-4.3-17.2-17-17.2c-7.4,0-11.9,2.6-14.5,5.2c-0.3,0.3-0.6,0.6-0.7,0.9c-1,1-1.5,1.7-1.8,2.1c-2.4-5.3-8.2-8.2-13.4-8.2 c-6.9,0-12.5,2.2-16.4,8.2h-0.3V664h-18.1v25.4v25.5h18.7v-27.6c0-5.4,1.6-9.4,6.6-9.4c6,0,6.4,4.6,6.4,9.4v27.6h18.8v-27.6 c0-5.4,1.6-9.4,6.6-9.4c6,0,6.4,4.6,6.4,9.4v27.6h18.7v-17.4c3.1,12,13.4,18.7,26.6,18.7c11.5,0,21.9-5,25.8-15.8h-17.5 C409.8,702.9,406.3,704,403.3,704z M403.1,674.9c5.5,0,9,3.9,9,9h-18.7C394.4,678,397.7,674.9,403.1,674.9z"></path> <path class="st4" d="M267.1,662.7c-14,0-22.2,7-25.5,16.5c-2.7-11.5-13.2-16.5-24.2-16.5c-13.9,0-24.4,8.2-26.8,21.1v-39h-18.7 v70.1h18.7v-19.2c2.3,13.5,12.6,20.5,26.2,20.5c11.7,0,21.3-5.8,24.9-16.4c3.3,9.4,11.5,16.4,25.4,16.4 c18.7,0,27.1-12.7,27.1-26.8C294.2,675.3,285.8,662.7,267.1,662.7z M225,694.8c-0.5,4.1-3.1,7.6-8,7.6c-6,0-8.2-4.7-8.2-12.9 c0-6.2,1.5-13,8.6-13c4.4,0,7.1,2.9,7.1,8.1h15.9c-0.2,1.6-0.4,3.2-0.4,4.8c0,1.8,0.1,3.6,0.4,5.4H225z M267.1,702.4 c-7.4,0-8.4-7.5-8.4-13c0-5.5,1.1-12.9,8.4-12.9c7.4,0,8.4,7.4,8.4,12.9C275.5,694.9,274.5,702.4,267.1,702.4z"></path> </g> </g> </g> </svg> 