<?xml version="1.0" encoding="utf-8"?>
<!-- Generator: Adobe Illustrator 27.6.1, SVG Export Plug-In . SVG Version: 6.00 Build 0)  -->
<svg version="1.1" id="Layer_1" xmlns="http://www.w3.org/2000/svg" xmlns:xlink="http://www.w3.org/1999/xlink" x="0px" y="0px"
	 viewBox="0 0 28.3 28.3" style="enable-background:new 0 0 28.3 28.3;" xml:space="preserve">
<style type="text/css">
	.st0{fill-rule:evenodd;clip-rule:evenodd;fill:#64BC4D;}
	.st1{fill-rule:evenodd;clip-rule:evenodd;fill:#F57F27;}
	.st2{fill-rule:evenodd;clip-rule:evenodd;fill:#E6383D;}
	.st3{fill-rule:evenodd;clip-rule:evenodd;fill:#8E4199;}
	.st4{fill-rule:evenodd;clip-rule:evenodd;fill:#049FDB;}
</style>
<path class="st0" d="M6.4,3.3h15.7c0.7,0,1.2,0.5,1.2,1.2c0,0.7-0.5,1.2-1.2,1.2H6.4c-0.7,0-1.2-0.5-1.2-1.2
	C5.2,3.8,5.7,3.3,6.4,3.3z"/>
<path class="st0" d="M26.6,3.3c0.6,0,1.2,0.5,1.2,1.2v0.1c0,0.6-0.5,1.2-1.2,1.2c-0.6,0-1.2-0.5-1.2-1.2V4.4
	C25.4,3.8,25.9,3.3,26.6,3.3z"/>
<path class="st0" d="M1.4,3.3h1.7c0.7,0,1.2,0.5,1.2,1.2c0,0.7-0.5,1.2-1.2,1.2H1.4c-0.7,0-1.2-0.5-1.2-1.2C0.2,3.8,0.7,3.3,1.4,3.3
	z"/>
<path class="st1" d="M1.4,8.1h15.7c0.7,0,1.2,0.5,1.2,1.2c0,0.7-0.5,1.2-1.2,1.2H1.4c-0.7,0-1.2-0.5-1.2-1.2
	C0.2,8.6,0.7,8.1,1.4,8.1z"/>
<path class="st1" d="M20.9,8.1c0.6,0,1.2,0.5,1.2,1.2v0.1c0,0.6-0.5,1.2-1.2,1.2c-0.6,0-1.2-0.5-1.2-1.2V9.3
	C19.8,8.6,20.3,8.1,20.9,8.1z"/>
<path class="st1" d="M24.8,8.1h1.7c0.7,0,1.2,0.5,1.2,1.2c0,0.7-0.5,1.2-1.2,1.2h-1.7c-0.7,0-1.2-0.5-1.2-1.2
	C23.6,8.6,24.1,8.1,24.8,8.1z"/>
<path class="st2" d="M6.7,13h15.7c0.7,0,1.2,0.5,1.2,1.2c0,0.7-0.5,1.2-1.2,1.2H6.7c-0.7,0-1.2-0.5-1.2-1.2C5.4,13.5,6,13,6.7,13z"
	/>
<path class="st2" d="M26.6,13c0.6,0,1.2,0.5,1.2,1.2v0.1c0,0.6-0.5,1.2-1.2,1.2c-0.6,0-1.2-0.5-1.2-1.2v-0.1
	C25.4,13.5,25.9,13,26.6,13z"/>
<path class="st2" d="M1.4,13h1.7c0.7,0,1.2,0.5,1.2,1.2c0,0.7-0.5,1.2-1.2,1.2H1.4c-0.7,0-1.2-0.5-1.2-1.2C0.2,13.5,0.7,13,1.4,13z"
	/>
<path class="st3" d="M26.5,17.8H10.8c-0.7,0-1.2,0.5-1.2,1.2c0,0.7,0.5,1.2,1.2,1.2h15.7c0.7,0,1.2-0.5,1.2-1.2
	C27.7,18.3,27.2,17.8,26.5,17.8z"/>
<path class="st3" d="M7,17.8c-0.6,0-1.2,0.5-1.2,1.2v0.1c0,0.6,0.5,1.2,1.2,1.2s1.2-0.5,1.2-1.2V19C8.1,18.3,7.6,17.8,7,17.8z"/>
<path class="st3" d="M3.1,17.8H1.4c-0.7,0-1.2,0.5-1.2,1.2c0,0.7,0.5,1.2,1.2,1.2h1.7c0.7,0,1.2-0.5,1.2-1.2
	C4.3,18.3,3.8,17.8,3.1,17.8z"/>
<path class="st4" d="M21.5,22.6H5.8c-0.7,0-1.2,0.5-1.2,1.2c0,0.7,0.5,1.2,1.2,1.2h15.7c0.7,0,1.2-0.5,1.2-1.2
	C22.7,23.2,22.2,22.6,21.5,22.6z"/>
<path class="st4" d="M1.3,22.6c-0.6,0-1.2,0.5-1.2,1.2v0.1c0,0.6,0.5,1.2,1.2,1.2c0.6,0,1.2-0.5,1.2-1.2v-0.1
	C2.5,23.2,2,22.6,1.3,22.6z"/>
<path class="st4" d="M26.5,22.6h-1.7c-0.7,0-1.2,0.5-1.2,1.2c0,0.7,0.5,1.2,1.2,1.2h1.7c0.7,0,1.2-0.5,1.2-1.2
	C27.7,23.2,27.2,22.6,26.5,22.6z"/>
</svg>
