<svg width="1261" height="250" viewBox="0 0 1261 250" fill="none" xmlns="http://www.w3.org/2000/svg">
<path d="M212.237 129.43L212.587 129.57L212.937 129.71L213.267 129.87L213.597 130.05L213.917 130.23L214.238 130.43L214.538 130.66L214.828 130.88L215.098 131.13L215.378 131.38L215.638 131.66L215.878 131.93L216.118 132.23L216.328 132.53L216.538 132.85L216.719 133.159L216.889 133.499L217.049 133.829L217.189 134.169L217.329 134.519L217.429 134.879L217.529 135.229L217.599 135.609L217.669 135.969L217.709 136.349L217.729 136.709L217.739 137.079L217.729 137.459L217.709 137.829L217.669 138.199L217.599 138.569L217.529 138.929L217.429 139.299L217.329 139.649L217.189 140.009L217.049 140.349L216.889 140.679L216.719 141.009L216.538 141.329L216.328 141.649L216.118 141.949L215.878 142.229L215.638 142.519L215.378 142.779L215.098 143.049L214.828 143.299L214.538 143.519L214.238 143.729L213.917 143.949L213.597 144.129L213.267 144.309L212.937 144.459L212.587 144.609L212.237 144.729L211.887 144.849L211.527 144.929L211.167 145.019L210.786 145.069L210.426 145.109L210.046 145.149H209.986L210.366 145.139L211.046 145.109L211.727 145.069L212.407 145.009L213.077 144.919L213.757 144.819L214.428 144.709L215.098 144.569L215.758 144.419L216.428 144.249L217.089 144.059L217.739 143.849L218.379 143.629L219.019 143.389L219.65 143.129L220.28 142.859L220.9 142.569L221.51 142.259L222.11 141.939L222.701 141.599L223.281 141.239L223.861 140.879L224.421 140.499L224.981 140.089L225.522 139.669L226.052 139.249L226.572 138.799L227.082 138.339L227.572 137.879L228.063 137.389L228.533 136.899L228.983 136.389L229.423 135.869L229.853 135.339L230.273 134.789L230.674 134.239L231.054 133.679L231.434 133.099L231.784 132.52L232.124 131.92L232.454 131.32L232.754 130.72L233.044 130.1L233.314 129.47L233.575 128.84L233.815 128.2L234.045 127.55L234.245 126.9L234.435 126.24L234.605 125.58L234.755 124.92L234.895 124.24L235.015 123.57L235.115 122.9L235.185 122.22L235.255 121.54L235.305 120.85L235.325 120.171L235.335 119.491L235.325 118.811L235.305 118.121L235.255 117.441L235.185 116.761L235.115 116.091L235.015 115.411L234.895 114.731L234.755 114.071L234.605 113.401L234.475 112.891H210.156L209.676 112.901H152.155L211.817 129.31L212.237 129.43Z" fill="white"/>
<path d="M249.96 135.379L249.91 134.519L249.85 133.669L249.77 132.81L249.67 131.96L249.56 131.12L249.42 130.27L249.26 129.43L249.1 128.59L248.91 127.76L248.7 126.93L248.479 126.1L248.229 125.28L247.969 124.47L247.699 123.65L247.399 122.85L247.089 122.06L246.759 121.26L246.419 120.481L246.059 119.701L245.688 118.931L245.288 118.181L244.878 117.421L244.448 116.681L244.008 115.941L243.558 115.221L243.078 114.501L242.597 113.801L242.097 113.111L241.927 112.891H234.474L234.604 113.401L234.755 114.071L234.895 114.731L235.015 115.411L235.115 116.091L235.185 116.761L235.255 117.441L235.305 118.121L235.325 118.811L235.335 119.491L235.325 120.171L235.305 120.85L235.255 121.54L235.185 122.22L235.115 122.9L235.015 123.57L234.895 124.24L234.755 124.92L234.604 125.58L234.434 126.24L234.244 126.9L234.044 127.55L233.814 128.2L233.574 128.84L233.314 129.47L233.044 130.1L232.754 130.72L232.454 131.32L232.124 131.92L231.783 132.52L231.433 133.099L231.053 133.679L230.673 134.239L230.273 134.789L229.853 135.339L229.423 135.869L228.982 136.389L228.532 136.899L228.062 137.389L227.572 137.879L227.082 138.339L226.572 138.799L226.051 139.249L225.521 139.669L224.981 140.089L224.421 140.499L223.861 140.879L223.28 141.239L222.7 141.599L222.11 141.939L221.51 142.259L220.9 142.569L220.279 142.859L219.649 143.129L219.019 143.389L218.379 143.629L217.738 143.849L217.088 144.059L216.428 144.249L215.758 144.419L215.097 144.569L214.427 144.709L213.757 144.819L213.077 144.919L212.406 145.009L211.726 145.069L211.046 145.109L210.366 145.139L209.675 145.149H0V177.406H209.675L210.536 177.396L211.386 177.376L212.246 177.326L213.097 177.256L213.947 177.176L214.797 177.086L215.648 176.956L216.488 176.826L217.328 176.676L218.169 176.496L219.009 176.306L219.829 176.106L220.659 175.876L221.49 175.636L222.3 175.386L223.11 175.096L223.911 174.806L224.711 174.496L225.501 174.176L226.281 173.836L227.062 173.466L227.832 173.086L228.592 172.696L229.343 172.286L230.083 171.866L230.823 171.416L231.533 170.966L232.254 170.497L232.964 170.007L233.654 169.507L234.334 168.987L235.005 168.457L235.675 167.907L236.325 167.347L236.955 166.787L237.576 166.197L238.186 165.597L238.786 164.987L239.366 164.357L239.946 163.727L240.507 163.077L241.047 162.417L241.577 161.747L242.097 161.057L242.597 160.367L243.078 159.667L243.558 158.947L244.008 158.227L244.448 157.488L244.878 156.748L245.288 155.998L245.688 155.238L246.059 154.468L246.419 153.698L246.759 152.908L247.089 152.118L247.399 151.328L247.699 150.518L247.969 149.708L248.229 148.898L248.479 148.068L248.7 147.248L248.91 146.418L249.1 145.578L249.26 144.749L249.42 143.909L249.56 143.059L249.67 142.209L249.77 141.359L249.85 140.509L249.91 139.649L249.96 138.799L249.99 137.949L250 137.089L249.99 136.229L249.96 135.379Z" fill="#FA6863"/>
<path d="M37.7643 120.54L37.4142 120.41L37.0641 120.27L36.734 120.11L36.3938 119.93L36.0837 119.74L35.7636 119.54L35.4635 119.32L35.1734 119.09L34.8933 118.84L34.6232 118.59L34.3631 118.32L34.123 118.04L33.8829 117.741L33.6729 117.441L33.4628 117.131L33.2827 116.821L33.1127 116.481L32.9426 116.141L32.8125 115.811L32.6725 115.461L32.5725 115.091L32.4724 114.741L32.3924 114.371L32.3324 114.011L32.2924 113.631L32.2724 113.271L32.2624 112.891L32.2724 112.521L32.2924 112.141L32.3324 111.781L32.3924 111.411L32.4724 111.041L32.5725 110.681L32.6725 110.331L32.8125 109.971L32.9426 109.631L33.1127 109.291L33.2827 108.971L33.4628 108.641L33.6729 108.331L33.8829 108.031L34.123 107.741L34.3631 107.461L34.6232 107.191L34.8933 106.931L35.1734 106.681L35.4635 106.461L35.7636 106.241L36.0837 106.031L36.3938 105.841L36.734 105.671L37.0641 105.521L37.4142 105.372L37.7643 105.242L38.1145 105.132L38.4746 105.042L38.8347 104.962L39.2149 104.912L39.575 104.872L39.9451 104.832H40.0151H39.635L38.9548 104.862L38.2745 104.912L37.5943 104.972L36.924 105.052L36.2438 105.152L35.5635 105.272L34.9033 105.402L34.2331 105.561L33.5728 105.731L32.9126 105.921L32.2624 106.131L31.6221 106.351L30.9719 106.581L30.3517 106.841L29.7214 107.121L29.1012 107.411L28.491 107.721L27.8808 108.041L27.3006 108.371L26.7204 108.731L26.1401 109.101L25.5699 109.481L25.0197 109.891L24.4695 110.301L23.9494 110.731L23.4292 111.171L22.919 111.631L22.4288 112.101L21.9386 112.581L21.4685 113.081L21.0183 113.581L20.5681 114.101L20.148 114.641L19.7178 115.181L19.3277 115.731L18.9376 116.301L18.5674 116.871L18.2173 117.461L17.8772 118.05L17.5471 118.66L17.2469 119.26L16.9568 119.88L16.6867 120.51L16.4266 121.14L16.1866 121.78L15.9565 122.43L15.7564 123.08L15.5663 123.74L15.3963 124.39L15.2462 125.06L15.1062 125.73L14.9861 126.41L14.8861 127.08L14.8161 127.76L14.746 128.43L14.696 129.12L14.676 129.8L14.666 130.479L14.676 131.169L14.696 131.849L14.746 132.529L14.8161 133.209L14.8861 133.889L14.9861 134.569L15.1062 135.239L15.2462 135.909L15.3963 136.569L15.5263 137.089H39.8451L40.3253 137.079H97.846L38.1845 120.67L37.7643 120.54Z" fill="white"/>
<path d="M0.0400144 114.601L0.0800288 115.461L0.150054 116.311L0.230083 117.161L0.330119 118.011L0.440158 118.861L0.580209 119.7L0.730263 120.55L0.900324 121.39L1.09039 122.22L1.30047 123.05L1.52055 123.88L1.77064 124.7L2.03073 125.51L2.30083 126.32L2.60094 127.13L2.91105 127.92L3.24117 128.72L3.58129 129.5L3.94142 130.28L4.31155 131.04L4.7117 131.799L5.12184 132.559L5.552 133.299L5.99216 134.029L6.44232 134.749L6.91249 135.469L7.40267 136.179L7.90285 136.869L8.07291 137.089H15.5256L15.3955 136.569L15.2455 135.909L15.1054 135.239L14.9854 134.569L14.8854 133.889L14.8153 133.209L14.7453 132.529L14.6953 131.849L14.6753 131.17L14.6653 130.48L14.6753 129.8L14.6953 129.12L14.7453 128.43L14.8153 127.76L14.8854 127.08L14.9854 126.41L15.1054 125.73L15.2455 125.06L15.3955 124.39L15.5656 123.74L15.7557 123.08L15.9557 122.43L16.1858 121.78L16.4259 121.14L16.686 120.51L16.9561 119.88L17.2462 119.26L17.5463 118.661L17.8764 118.051L18.2166 117.461L18.5667 116.871L18.9368 116.301L19.327 115.731L19.7171 115.181L20.1473 114.641L20.5674 114.101L21.0176 113.581L21.4677 113.081L21.9379 112.581L22.4281 112.101L22.9183 111.631L23.4284 111.171L23.9486 110.731L24.4688 110.301L25.019 109.891L25.5692 109.481L26.1394 109.101L26.7196 108.731L27.2998 108.371L27.88 108.041L28.4903 107.721L29.1005 107.411L29.7207 107.121L30.3509 106.841L30.9711 106.581L31.6214 106.352L32.2616 106.132L32.9118 105.922L33.5721 105.732L34.2323 105.562L34.9026 105.402L35.5628 105.272L36.243 105.152L36.9233 105.052L37.5935 104.972L38.2738 104.912L38.954 104.862L39.6343 104.832L40.3245 104.822H250V72.5742H40.3245L39.4642 72.5842L38.6139 72.6042L37.7536 72.6542L36.9033 72.7142L36.043 72.7942L35.2027 72.8942L34.3524 73.0142L33.5121 73.1442L32.6718 73.3042L31.8215 73.4741L30.9912 73.6641L30.1609 73.8741L29.3406 74.0941L28.5103 74.3441L27.7 74.5941L26.8897 74.874L26.0894 75.164L25.2891 75.484L24.4988 75.804L23.7185 76.1439L22.9383 76.5139L22.168 76.8939L21.4077 77.2738L20.6574 77.6938L19.9172 78.1138L19.1769 78.5537L18.4566 79.0137L17.7364 79.4837L17.0361 79.9736L16.3459 80.4736L15.6556 80.9835L14.9954 81.5135L14.3252 82.0635L13.6749 82.6234L13.0447 83.1934L12.4245 83.7833L11.8143 84.3733L11.214 84.9932L10.6238 85.6232L10.0536 86.2531L9.49342 86.9031L8.95322 87.563L8.42303 88.233L7.90285 88.9129L7.40267 89.6129L6.91249 90.3128L6.44232 91.0227L5.99216 91.7527L5.552 92.4926L5.12184 93.2326L4.7117 93.9725L4.31155 94.7324L3.94142 95.5124L3.58129 96.2823L3.24117 97.0723L2.91105 97.8522L2.60094 98.6521L2.30083 99.4521L2.03073 100.262L1.77064 101.082L1.52055 101.902L1.30047 102.732L1.09039 103.562L0.900324 104.402L0.730263 105.232L0.580209 106.072L0.440158 106.921L0.330119 107.771L0.230083 108.621L0.150054 109.471L0.0800288 110.321L0.0400144 111.171L0 112.031V112.891V113.751L0.0400144 114.601Z" fill="#F18046"/>
<path d="M37.7643 47.9756L37.4142 47.8356L37.0641 47.6856L36.724 47.5356L36.4038 47.3556L36.0737 47.1756L35.7636 46.9757L35.4635 46.7457L35.1634 46.5257L34.8833 46.2757L34.6132 46.0257L34.3631 45.7458L34.123 45.4758L33.8829 45.1758L33.6629 44.8758L33.4628 44.5559L33.2727 44.2359L33.1027 43.9059L32.9326 43.5759L32.8025 43.236L32.6725 42.876L32.5625 42.526L32.4724 42.176L32.3924 41.7961L32.3324 41.4361L32.2824 41.0561L32.2724 40.6862L32.2624 40.3062L32.2724 39.9362L32.2824 39.5763L32.3324 39.2063L32.3924 38.8363L32.4724 38.4763L32.5625 38.1064L32.6725 37.7464L32.8025 37.3964L32.9326 37.0565L33.1027 36.7265L33.2727 36.3865L33.4628 36.0765L33.6629 35.7566L33.8829 35.4566L34.123 35.1766L34.3631 34.8866L34.6132 34.6067L34.8833 34.3567L35.1634 34.1067L35.4635 33.8867L35.7636 33.6767L36.0737 33.4567L36.4038 33.2768L36.724 33.0968L37.0641 32.9368L37.4142 32.7968L37.7643 32.6768L38.1145 32.5568L38.4746 32.4568L38.8447 32.3868L39.2048 32.3268L39.575 32.2868L39.9551 32.2568H40.0752H39.635L38.9548 32.2868L38.2745 32.3368L37.5943 32.3968L36.924 32.4868L36.2438 32.5868L35.5635 32.6968L34.9033 32.8368L34.2331 32.9868L33.5728 33.1568L32.9126 33.3467L32.2624 33.5567L31.6221 33.7767L30.9719 34.0167L30.3517 34.2667L29.7214 34.5467L29.1012 34.8366L28.491 35.1466L27.8808 35.4666L27.3006 35.7966L26.7104 36.1565L26.1401 36.5265L25.5699 36.9065L25.0197 37.3164L24.4695 37.7264L23.9394 38.1564L23.4292 38.6063L22.919 39.0563L22.4188 39.5263L21.9386 40.0062L21.4685 40.5062L21.0183 41.0161L20.5681 41.5361L20.148 42.0661L19.7178 42.616L19.3277 43.166L18.9376 43.7259L18.5674 44.2959L18.2173 44.8858L17.8772 45.4758L17.5471 46.0857L17.2469 46.6857L16.9568 47.3056L16.6867 47.9356L16.4266 48.5655L16.1866 49.2055L15.9565 49.8554L15.7564 50.5054L15.5663 51.1653L15.3963 51.8253L15.2362 52.4852L15.1062 53.1552L14.9861 53.8351L14.8861 54.5051L14.8061 55.185L14.746 55.8549L14.696 56.5449L14.676 57.2348L14.666 57.9148L14.676 58.5947L14.696 59.2847L14.746 59.9646L14.8061 60.6446L14.8861 61.3145L14.9861 61.9945L15.1062 62.6744L15.2362 63.3343L15.3963 64.0043L15.5663 64.6642L15.7564 65.3142L15.9565 65.9741L16.1866 66.6141L16.4266 67.254L16.6867 67.884L16.9568 68.5139L17.2469 69.1339L17.5471 69.7438L17.7471 70.0938L17.7671 70.0838L18.6074 69.6538L19.4477 69.2439L20.298 68.8439L21.1584 68.4739L22.0187 68.094L22.899 67.754L23.7693 67.434L24.6596 67.104L25.5499 66.8241L26.4503 66.5441L27.3506 66.2841L28.2509 66.0341L29.1612 65.8041L30.0816 65.6042L31.0019 65.4242L31.9122 65.2442L32.8426 65.0942L33.7729 64.9542L34.7032 64.8342L35.6436 64.7342L36.5739 64.6542L37.5142 64.5842L38.4346 64.5443L39.3949 64.5243L40.3253 64.5043H97.846L38.1745 48.0956L37.7643 47.9756Z" fill="white"/>
<path d="M209.676 217.743H210.366L211.046 217.703L211.727 217.663L212.407 217.603L213.087 217.513L213.767 217.413L214.438 217.303L215.108 217.163L215.768 217.013L216.438 216.843L217.089 216.653L217.739 216.443L218.389 216.223L219.029 215.983L219.65 215.723L220.28 215.453L220.9 215.163L221.51 214.853L222.12 214.533L222.711 214.193L223.291 213.833L223.861 213.463L224.431 213.083L224.991 212.683L225.532 212.263L226.062 211.843L226.582 211.393L227.082 210.933L227.582 210.473L228.063 209.983L228.533 209.493L228.993 208.983L229.433 208.463L229.863 207.934L230.283 207.384L230.674 206.834L231.064 206.274L231.434 205.694L231.784 205.114L232.124 204.514L232.454 203.914L232.764 203.304L233.054 202.694L233.314 202.064L233.585 201.424L233.815 200.794L234.045 200.144L234.255 199.494L234.435 198.834L234.615 198.174L234.765 197.514L234.895 196.834L235.015 196.164L235.115 195.494L235.195 194.805L235.265 194.135L235.305 193.445L235.335 192.765V192.085V191.405L235.305 190.715L235.265 190.035L235.195 189.355L235.115 188.685L235.015 188.005L234.895 187.325L234.765 186.665L234.615 185.995L234.435 185.335L234.255 184.685L234.045 184.025L233.815 183.375L233.585 182.746L233.314 182.116L233.054 181.486L232.764 180.866L232.454 180.256L232.254 179.886L232.234 179.896L231.394 180.326L230.553 180.736L229.703 181.136L228.843 181.516L227.973 181.876L227.102 182.226L226.232 182.546L225.342 182.866L224.441 183.165L223.551 183.435L222.661 183.695L221.74 183.945L220.84 184.165L219.92 184.375L218.999 184.565L218.079 184.735L217.159 184.885L216.228 185.025L215.298 185.145L214.368 185.245L213.427 185.325L212.487 185.385L211.547 185.435L210.616 185.465L209.676 185.475H152.155L211.817 201.884L212.237 202.014L212.587 202.144L212.937 202.284L213.267 202.444L213.597 202.624L213.917 202.814L214.238 203.014L214.538 203.234L214.828 203.464L215.098 203.714L215.378 203.964L215.638 204.234L215.878 204.514L216.118 204.814L216.328 205.114L216.538 205.424L216.719 205.734L216.889 206.074L217.049 206.414L217.189 206.744L217.329 207.094L217.429 207.464L217.529 207.814L217.599 208.183L217.669 208.543L217.709 208.923L217.729 209.283L217.739 209.663L217.729 210.033L217.709 210.413L217.669 210.773L217.599 211.143L217.529 211.513L217.429 211.873L217.329 212.223L217.189 212.583L217.049 212.923L216.889 213.263L216.719 213.583L216.538 213.913L216.328 214.223L216.118 214.523L215.878 214.813L215.638 215.093L215.378 215.363L215.098 215.623L214.828 215.873L214.538 216.093L214.238 216.313L213.917 216.523L213.597 216.713L213.267 216.883L212.937 217.033L212.587 217.183L212.237 217.313L211.887 217.423L211.527 217.513L211.167 217.593L210.786 217.643L210.426 217.683L210.046 217.723L209.676 217.733" fill="white"/>
<path d="M249.96 207.963L249.92 207.113L249.86 206.263L249.77 205.403L249.68 204.553L249.56 203.713L249.42 202.863L249.27 202.023L249.1 201.184L248.91 200.344L248.7 199.524L248.479 198.694L248.239 197.864L247.979 197.064L247.699 196.244L247.399 195.444L247.099 194.654L246.769 193.854L246.419 193.074L246.069 192.294L245.688 191.524L245.288 190.774L244.888 190.014L244.458 189.275L244.008 188.535L243.558 187.815L243.088 187.095L242.597 186.395L242.097 185.705L241.577 185.015L241.057 184.355L240.507 183.685L239.946 183.045L239.376 182.405L238.786 181.785L238.196 181.165L237.576 180.575L236.955 179.985L236.325 179.415L235.675 178.855L235.015 178.305L234.975 178.275L234.034 178.845L233.204 179.315L232.344 179.785L232.234 179.845L232.454 180.255L232.764 180.865L233.054 181.485L233.314 182.115L233.584 182.745L233.814 183.375L234.044 184.025L234.254 184.685L234.434 185.335L234.614 185.995L234.765 186.665L234.895 187.325L235.015 188.005L235.115 188.685L235.195 189.355L235.265 190.034L235.305 190.714L235.335 191.404V192.084V192.764L235.305 193.444L235.265 194.134L235.195 194.804L235.115 195.494L235.015 196.164L234.895 196.834L234.765 197.514L234.614 198.174L234.434 198.834L234.254 199.494L234.044 200.144L233.814 200.794L233.584 201.424L233.314 202.063L233.054 202.693L232.764 203.303L232.454 203.913L232.124 204.513L231.783 205.113L231.433 205.693L231.063 206.273L230.673 206.833L230.283 207.383L229.863 207.933L229.433 208.463L228.992 208.983L228.532 209.493L228.062 209.983L227.582 210.473L227.082 210.933L226.582 211.393L226.061 211.843L225.531 212.263L224.991 212.683L224.431 213.083L223.861 213.463L223.29 213.833L222.71 214.193L222.12 214.532L221.51 214.852L220.9 215.162L220.279 215.452L219.649 215.722L219.029 215.982L218.389 216.222L217.738 216.442L217.088 216.652L216.438 216.842L215.768 217.012L215.107 217.162L214.437 217.302L213.767 217.412L213.087 217.512L212.406 217.602L211.726 217.662L211.046 217.702L210.366 217.742H209.675H0V250H209.675L210.536 249.99L211.386 249.97L212.246 249.92L213.097 249.85L213.957 249.78L214.807 249.68L215.658 249.55L216.498 249.42L217.338 249.27L218.179 249.09L219.009 248.9L219.839 248.7L220.659 248.48L221.49 248.23L222.3 247.98L223.11 247.69L223.921 247.4L224.721 247.09L225.511 246.77L226.291 246.43L227.072 246.06L227.832 245.68L228.602 245.29L229.343 244.88L230.093 244.46L230.823 244.02L231.543 243.55L232.264 243.09L232.964 242.6L233.654 242.09L234.344 241.58L235.015 241.05L235.675 240.5L236.325 239.94L236.955 239.381L237.576 238.791L238.196 238.191L238.786 237.581L239.376 236.951L239.946 236.321L240.507 235.671L241.057 235.011L241.577 234.341L242.097 233.661L242.597 232.961L243.088 232.261L243.558 231.541L244.008 230.821L244.458 230.081L244.888 229.341L245.288 228.591L245.688 227.831L246.069 227.061L246.419 226.292L246.769 225.502L247.099 224.712L247.399 223.922L247.699 223.112L247.979 222.302L248.239 221.482L248.479 220.662L248.7 219.842L248.91 219.002L249.1 218.172L249.27 217.342L249.42 216.492L249.56 215.652L249.68 214.802L249.77 213.953L249.86 213.103L249.92 212.243L249.96 211.393L250 210.543V209.683V208.823L249.96 207.963Z" fill="#3D95FD"/>
<path d="M0.0400144 42.0266L0.0800288 42.8866L0.14005 43.7365L0.230083 44.5964L0.330119 45.4464L0.440158 46.2863L0.580209 47.1362L0.730263 47.9762L0.900324 48.8161L1.09039 49.646L1.30047 50.476L1.52055 51.2959L1.76063 52.1258L2.03073 52.9358L2.30083 53.7457L2.60094 54.5556L2.90104 55.3456L3.23116 56.1455L3.58129 56.9254L3.94142 57.7054L4.31155 58.4653L4.7117 59.2253L5.12184 59.9852L5.542 60.7251L5.99216 61.4651L6.44232 62.175L6.91249 62.895L7.40267 63.6049L7.90285 64.2949L8.42303 64.9848L8.95322 65.6448L9.49342 66.3147L10.0536 66.9546L10.6238 67.5946L11.214 68.2145L11.8143 68.8245L12.4245 69.4244L13.0447 70.0144L13.6749 70.5843L14.3252 71.1443L14.9954 71.6843L15.0254 71.7143L15.9657 71.1543L16.796 70.6843L17.6564 70.2044L17.7764 70.1544L17.5463 69.7444L17.2462 69.1345L16.9561 68.5145L16.686 67.8846L16.4259 67.2546L16.1858 66.6147L15.9557 65.9747L15.7557 65.3148L15.5656 64.6648L15.3955 64.0049L15.2355 63.3349L15.1054 62.675L14.9854 61.995L14.8854 61.3151L14.8053 60.6452L14.7453 59.9652L14.6953 59.2853L14.6753 58.5953L14.6653 57.9154L14.6753 57.2354L14.6953 56.5455L14.7453 55.8555L14.8053 55.1856L14.8854 54.5056L14.9854 53.8357L15.1054 53.1557L15.2355 52.4858L15.3955 51.8259L15.5656 51.1659L15.7557 50.506L15.9557 49.856L16.1858 49.2061L16.4259 48.5661L16.686 47.9362L16.9561 47.3062L17.2462 46.6863L17.5463 46.0863L17.8764 45.4764L18.2166 44.8864L18.5667 44.2965L18.9368 43.7265L19.327 43.1665L19.7171 42.6166L20.1473 42.0666L20.5674 41.5367L21.0176 41.0167L21.4677 40.5068L21.9379 40.0068L22.4181 39.5268L22.9183 39.0569L23.4284 38.6069L23.9386 38.1569L24.4688 37.727L25.019 37.317L25.5692 36.907L26.1394 36.5271L26.7096 36.1571L27.2998 35.7971L27.88 35.4672L28.4903 35.1472L29.1005 34.8372L29.7207 34.5472L30.3509 34.2673L30.9711 34.0173L31.6214 33.7773L32.2616 33.5573L32.9118 33.3473L33.5721 33.1573L34.2323 32.9874L34.9026 32.8374L35.5628 32.6974L36.243 32.5874L36.9233 32.4874L37.5935 32.3974L38.2738 32.3374L38.954 32.2874L39.6343 32.2574H40.3245H250V0H40.3245H39.4642L38.6139 0.0299976L37.7536 0.0799936L36.9033 0.149988L36.043 0.219982L35.1927 0.319974L34.3524 0.449964L33.5021 0.569954L32.6618 0.729942L31.8215 0.899928L30.9912 1.09991L30.1609 1.2999L29.3406 1.51988L28.5103 1.76986L27.7 2.01984L26.8897 2.29982L26.0894 2.58979L25.2791 2.90977L24.4988 3.22974L23.7185 3.56971L22.9383 3.93968L22.168 4.30966L21.4077 4.70962L20.6574 5.11959L19.9172 5.53956L19.1769 5.97952L18.4566 6.43948L17.7364 6.90945L17.0361 7.39941L16.3459 7.89937L15.6556 8.41933L14.9954 8.94928L14.3252 9.49924L13.6749 10.0492L13.0447 10.6192L12.4245 11.2091L11.8143 11.8091L11.214 12.419L10.6238 13.039L10.0536 13.6789L9.49342 14.3289L8.95322 14.9888L8.42303 15.6587L7.90285 16.3387L7.40267 17.0386L6.91249 17.7386L6.44232 18.4485L5.99216 19.1785L5.542 19.9084L5.12184 20.6583L4.7117 21.4083L4.31155 22.1582L3.94142 22.9382L3.58129 23.7081L3.23116 24.498L2.90104 25.288L2.60094 26.0779L2.30083 26.8778L2.03073 27.6978L1.76063 28.5077L1.52055 29.3277L1.30047 30.1576L1.09039 30.9875L0.900324 31.8275L0.730263 32.6574L0.580209 33.4973L0.440158 34.3473L0.330119 35.1972L0.230083 36.0471L0.14005 36.897L0.0800288 37.757L0.0400144 38.6069L0 39.4568V40.3168V41.1767L0.0400144 42.0266Z" fill="#0DC09D"/>
<path d="M394.144 202.864H330.009V177.636H394.144C404.073 177.636 411.722 175.716 417.092 171.856C422.462 168.007 425.151 163.037 425.151 156.958C425.151 150.878 422.612 146.418 417.552 143.579C412.482 140.749 404.983 138.409 395.054 136.589L384.715 134.769C374.575 132.95 365.356 130.31 357.057 126.87C348.748 123.43 342.158 118.661 337.298 112.581C332.439 106.502 329.999 98.7022 329.999 89.173C329.999 74.9941 335.269 63.995 345.808 56.1956C356.347 48.3963 370.326 44.4966 387.754 44.4966H450.369V70.0345H387.754C379.245 70.0345 372.556 71.6044 367.696 74.7442C362.836 77.8839 360.397 82.2936 360.397 87.9631C360.397 94.0426 362.776 98.5023 367.536 101.342C372.296 104.182 378.735 106.312 386.834 107.722L397.474 109.541C408.213 111.361 418.042 113.901 426.961 117.141C435.881 120.381 442.92 125.04 448.09 131.12C453.259 137.199 455.839 145.309 455.839 155.438C455.839 170.437 450.259 182.086 439.12 190.395C427.971 198.704 412.982 202.854 394.134 202.854L394.144 202.864Z" fill="white"/>
<path d="M782.601 248.98V178.246H777.742C775.512 182.306 772.272 186.205 768.013 189.945C763.753 193.695 758.333 196.784 751.754 199.214C745.164 201.644 737.015 202.864 727.286 202.864C714.717 202.864 703.168 199.824 692.629 193.745C682.089 187.665 673.68 178.906 667.401 167.447C661.121 155.998 657.981 142.169 657.981 125.95V121.39C657.981 105.182 661.171 91.3528 667.561 79.8937C673.94 68.4446 682.399 59.6753 692.939 53.5958C703.478 47.5163 714.927 44.4766 727.286 44.4766C741.875 44.4766 753.074 47.1164 760.873 52.3759C768.673 57.6455 774.502 63.625 778.352 70.3145H783.211V44.4766H813.919V248.96H782.611L782.601 248.98ZM736.095 175.506C749.874 175.506 761.123 171.146 769.832 162.437C778.542 153.728 782.901 141.259 782.901 125.05V122.31C782.901 106.302 778.492 93.9426 769.682 85.2233C760.863 76.514 749.664 72.1544 736.095 72.1544C722.526 72.1544 711.627 76.514 702.808 85.2233C693.989 93.9426 689.589 106.302 689.589 122.31V125.05C689.589 141.269 693.999 153.728 702.808 162.437C711.627 171.156 722.716 175.506 736.095 175.506Z" fill="white"/>
<path d="M627.976 120.48C627.976 105.281 624.936 92.0125 618.857 80.6634C612.777 69.3143 604.308 60.4451 593.479 54.0656C582.63 47.6861 570.011 44.4863 555.632 44.4863C541.253 44.4863 527.864 47.7261 516.725 54.2155C511.145 57.4553 506.176 61.325 501.796 65.8446C501.246 66.4046 500.706 66.9845 500.166 67.5645C498.566 69.3243 497.076 71.1642 495.656 73.084C493.777 75.6538 492.027 78.3836 490.427 81.2734C484.047 92.8225 480.848 106.401 480.848 122.01V125.66C480.848 141.269 484.037 154.838 490.427 166.397C496.806 177.946 505.676 186.915 517.025 193.294C528.364 199.674 541.643 202.874 556.842 202.874C570.221 202.874 581.36 200.744 590.279 196.494C599.198 192.235 606.288 186.965 611.557 180.685C613.017 178.936 614.397 177.216 615.687 175.516C619.047 171.106 621.826 166.857 624.016 162.747L597.878 149.368C594.639 156.267 590.019 162.347 584.049 167.606C578.06 172.876 569.201 175.506 557.452 175.506C544.883 175.506 534.393 171.596 525.994 163.807C525.474 163.317 524.964 162.837 524.474 162.317C523.974 161.797 523.504 161.287 523.034 160.767C521.914 159.477 520.874 158.127 519.915 156.707C515.825 150.568 513.485 143.258 512.895 134.789C512.835 133.979 512.805 133.159 512.775 132.339H627.986V120.48H627.976ZM533.743 108.321L517.735 124.33H512.465C512.385 119.72 512.465 113.801 513.075 108.321C513.375 106.241 513.775 104.232 514.295 102.302C514.795 100.372 515.405 98.532 516.115 96.7721C518.475 90.9026 521.984 85.933 526.604 81.8733C533.993 75.3839 543.563 72.1441 555.332 72.1441C567.101 72.1441 576.61 75.3839 583.909 81.8733C591.209 88.3628 595.359 97.1821 596.368 108.321H533.753H533.743Z" fill="white"/>
<path d="M991.035 120.48C991.035 105.281 987.996 92.0125 981.916 80.6634C975.837 69.3143 967.367 60.4451 956.538 54.0656C945.689 47.6861 933.07 44.4863 918.691 44.4863C904.312 44.4863 890.923 47.7261 879.784 54.2155C874.205 57.4553 869.235 61.325 864.856 65.8446C864.306 66.4046 863.766 66.9845 863.226 67.5645C861.626 69.3243 860.136 71.1642 858.716 73.084C856.836 75.6538 855.086 78.3836 853.486 81.2734C847.107 92.8225 843.907 106.401 843.907 122.01V125.66C843.907 141.269 847.097 154.838 853.486 166.397C859.866 177.946 868.735 186.915 880.084 193.294C891.423 199.674 904.702 202.874 919.901 202.874C933.28 202.874 944.419 200.744 953.338 196.494C962.258 192.235 969.347 186.965 974.617 180.685C976.077 178.936 977.457 177.216 978.746 175.516C982.106 171.106 984.886 166.857 987.076 162.747L960.938 149.368C957.698 156.267 953.078 162.347 947.109 167.606C941.119 172.876 932.26 175.506 920.511 175.506C907.942 175.506 897.453 171.596 889.054 163.807C888.534 163.317 888.024 162.837 887.534 162.317C887.034 161.797 886.564 161.287 886.094 160.767C884.974 159.477 883.934 158.127 882.974 156.707C878.884 150.568 876.545 143.258 875.955 134.789C875.895 133.979 875.865 133.159 875.835 132.339H991.045V120.48H991.035ZM896.803 108.321L880.794 124.33H875.525C875.445 119.72 875.525 113.801 876.135 108.321C876.435 106.241 876.835 104.232 877.355 102.302C877.855 100.372 878.464 98.532 879.174 96.7721C881.534 90.9026 885.044 85.933 889.664 81.8733C897.053 75.3839 906.622 72.1441 918.391 72.1441C930.16 72.1441 939.67 75.3839 946.969 81.8733C954.268 88.3628 958.418 97.1821 959.428 108.321H896.813H896.803Z" fill="white"/>
<path d="M1021.03 202.864V44.4864H1051.73V62.115H1056.59C1059.02 55.8355 1062.92 51.2259 1068.29 48.2861C1073.66 45.3463 1080.3 43.8765 1088.2 43.8765H1106.14V72.1442H1086.99C1076.85 72.1442 1068.55 74.934 1062.06 80.5035C1055.57 86.0831 1052.33 94.6424 1052.33 106.191V202.854H1021.02L1021.03 202.864Z" fill="white"/>
<path d="M1257.16 101.282C1257.16 82.9636 1251.57 68.8147 1240.38 58.8455C1229.19 48.8763 1213.82 43.8867 1194.27 43.8867C1181.45 43.8867 1170.61 45.9166 1161.75 49.9962C1152.9 54.0759 1145.77 59.4655 1140.38 66.1749C1134.99 72.8944 1131.07 80.2238 1128.62 88.1532L1157.93 97.6224C1159.76 89.4831 1163.53 82.8636 1169.23 77.774C1174.94 72.6944 1183.17 70.1446 1193.96 70.1446C1204.75 70.1446 1213.1 72.8444 1218.39 78.234C1223.69 83.6235 1226.33 90.603 1226.33 99.1523V125.19H1221.25L1204.96 108.922H1180.53C1164.04 108.922 1150.35 112.841 1139.46 120.681C1128.57 128.51 1123.12 140.069 1123.12 155.338C1123.12 165.517 1125.62 174.156 1130.6 181.286C1135.59 188.415 1142.31 193.805 1150.75 197.464C1159.21 201.124 1168.83 202.964 1179.6 202.964C1190.37 202.964 1198.33 201.484 1204.64 198.534C1210.95 195.585 1215.74 192.125 1218.99 188.155C1222.26 184.185 1224.68 180.566 1226.32 177.316H1231.21V202.964H1257.15V101.292L1257.16 101.282ZM1226.33 136.389C1226.33 149.018 1222.41 158.938 1214.57 166.157C1206.73 173.376 1196.62 176.996 1184.19 176.996C1175.03 176.996 1167.81 174.966 1162.51 170.887C1157.21 166.807 1154.57 161.317 1154.57 154.398C1154.57 147.478 1157.12 142.229 1162.2 138.679C1167.3 135.119 1174 133.34 1182.35 133.34H1226.32V136.389H1226.33Z" fill="white"/>
</svg>
