<svg width="76" height="76" viewBox="37 37 76 76" fill="none" xmlns="http://www.w3.org/2000/svg">
<mask id="mask0_417_2111" style="mask-type:luminance" maskUnits="userSpaceOnUse" x="37" y="37" width="76" height="76">
<path d="M112.5 37.5H37.5V112.5H112.5V37.5Z" fill="white"/>
</mask>
<g mask="url(#mask0_417_2111)">
<path d="M101.16 76.32L101.28 76.35L101.4 76.38L101.49 76.44L101.58 76.5L101.67 76.56L101.76 76.62L101.85 76.68L101.94 76.74L102.03 76.8L102.12 76.86L102.21 76.95L102.27 77.04L102.33 77.13L102.39 77.22L102.45 77.31L102.51 77.4L102.57 77.49L102.63 77.58L102.66 77.67L102.69 77.76L102.72 77.88L102.75 78L102.78 78.12L102.81 78.24V78.36V78.48V78.6V78.72V78.84V78.96L102.78 79.08L102.75 79.2L102.72 79.32L102.69 79.41L102.66 79.53L102.63 79.62L102.57 79.71L102.51 79.8L102.45 79.89L102.39 79.98L102.33 80.07L102.27 80.16L102.21 80.25L102.12 80.34L102.03 80.43L101.94 80.49L101.85 80.55L101.76 80.61L101.67 80.67L101.58 80.73L101.49 80.79L101.4 80.85L101.28 80.88L101.16 80.91L101.04 80.94L100.92 80.97L100.8 81H100.68H100.56H100.44H100.5H100.62H100.83H101.04L101.25 80.97L101.46 80.94L101.67 80.91L101.88 80.88L102.09 80.85L102.3 80.82L102.51 80.76L102.72 80.7L102.93 80.64L103.11 80.58L103.29 80.52L103.47 80.43L103.65 80.34L103.83 80.25L104.01 80.16L104.19 80.07L104.37 79.98L104.55 79.86L104.73 79.74L104.91 79.62L105.09 79.5L105.24 79.38L105.39 79.26L105.54 79.14L105.69 78.99L105.84 78.84L105.99 78.69L106.14 78.54L106.26 78.39L106.38 78.24L106.5 78.09L106.62 77.94L106.74 77.79L106.86 77.61L106.98 77.43L107.07 77.25L107.16 77.07L107.25 76.89L107.34 76.71L107.43 76.53L107.52 76.35L107.61 76.17L107.67 75.99L107.73 75.81L107.79 75.6L107.85 75.39L107.91 75.18L107.97 74.97L108 74.76L108.03 74.55L108.06 74.34L108.09 74.13L108.12 73.92V73.71V73.5V73.29V73.08V72.87V72.66L108.09 72.45L108.06 72.24L108.03 72.03L108 71.82L107.97 71.61L107.91 71.4L107.88 71.25H100.59H100.44H83.1899L101.1 76.17L101.16 76.32Z" fill="#201637"/>
<path d="M112.5 78.1197L112.47 77.8497L112.44 77.6097L112.41 77.3397L112.38 77.0697L112.35 76.8297L112.32 76.5897L112.26 76.3497L112.2 76.1097L112.14 75.8697L112.08 75.6297L112.02 75.3897L111.96 75.1497L111.87 74.9097L111.78 74.6697L111.69 74.4297L111.6 74.1897L111.51 73.9497L111.42 73.7097L111.3 73.4697L111.18 73.2297L111.06 72.9897L110.94 72.7497L110.82 72.5397L110.7 72.3297L110.55 72.1197L110.4 71.9097L110.25 71.6997L110.1 71.4897L110.04 71.4297H107.79L107.82 71.5797L107.88 71.7897L107.91 71.9997L107.94 72.2097L107.97 72.4197L108 72.6297L108.03 72.8397V73.0497V73.2597V73.4697V73.6797V73.8897V74.0997L108 74.3097L107.97 74.5197L107.94 74.7297L107.91 74.9397L107.88 75.1497L107.82 75.3597L107.76 75.5697L107.7 75.7797L107.64 75.9897L107.58 76.1697L107.52 76.3497L107.43 76.5297L107.34 76.7097L107.25 76.8897L107.16 77.0697L107.07 77.2497L106.98 77.4297L106.86 77.6097L106.74 77.7897L106.62 77.9697L106.5 78.1197L106.38 78.2697L106.26 78.4197L106.14 78.5697L105.99 78.7197L105.84 78.8697L105.69 79.0197L105.54 79.1697L105.39 79.3197L105.24 79.4397L105.09 79.5597L104.94 79.6797L104.76 79.7997L104.58 79.9197L104.4 80.0397L104.22 80.1597L104.04 80.2497L103.86 80.3397L103.68 80.4297L103.5 80.5197L103.32 80.6097L103.14 80.6997L102.96 80.7597L102.78 80.8197L102.6 80.8797L102.39 80.9397L102.18 80.9997L101.97 81.0297L101.76 81.0597L101.55 81.0897L101.34 81.1197L101.13 81.1497L100.92 81.1797H100.71H100.5H100.29H37.5V90.8697H100.41H100.68H100.92L101.19 90.8397L101.46 90.8097L101.73 90.7797L101.97 90.7497L102.24 90.7197L102.48 90.6897L102.72 90.6597L102.96 90.5997L103.2 90.5397L103.44 90.4797L103.68 90.4197L103.92 90.3597L104.16 90.2997L104.4 90.2097L104.64 90.1197L104.88 90.0297L105.12 89.9397L105.36 89.8497L105.6 89.7297L105.84 89.6097L106.08 89.4897L106.32 89.3697L106.53 89.2497L106.74 89.1297L106.95 88.9797L107.16 88.8297L107.37 88.6797L107.58 88.5297L107.79 88.3797L108 88.2297L108.21 88.0497L108.42 87.8697L108.6 87.6897L108.78 87.5097L108.96 87.3297L109.14 87.1497L109.32 86.9697L109.5 86.7897L109.68 86.6097L109.83 86.3997L109.98 86.1897L110.13 85.9797L110.28 85.7697L110.43 85.5597L110.58 85.3497L110.73 85.1397L110.85 84.9297L110.97 84.7197L111.09 84.5097L111.21 84.2697L111.33 84.0297L111.45 83.7897L111.54 83.5497L111.63 83.3097L111.72 83.0697L111.81 82.8297L111.9 82.5897L111.99 82.3497L112.05 82.1097L112.11 81.8697L112.17 81.6297L112.23 81.3897L112.29 81.1497L112.35 80.9097L112.38 80.6697L112.41 80.3997L112.44 80.1597L112.47 79.8897L112.5 79.6197L112.53 79.3797V79.1097V78.8397V78.5697L112.5 78.1197Z" fill="#0DC09D"/>
<path d="M48.8398 73.6502L48.7198 73.6202L48.5998 73.5902L48.5098 73.5302L48.4198 73.4702L48.3298 73.4102L48.2398 73.3502L48.1498 73.2902L48.0598 73.2302L47.9698 73.1702L47.8798 73.1102L47.7898 73.0202L47.7298 72.9302L47.6698 72.8402L47.6098 72.7502L47.5498 72.6602L47.4898 72.5702L47.4298 72.4802L47.3698 72.3902L47.3398 72.3002L47.3098 72.1802L47.2798 72.0602L47.2498 71.9402L47.2198 71.8202L47.1898 71.7002V71.5802V71.4602V71.3402V71.2202V71.1002V70.9802L47.2198 70.8602L47.2498 70.7402L47.2798 70.6202L47.3098 70.5002L47.3398 70.3802L47.3698 70.2902L47.4298 70.2002L47.4898 70.1102L47.5498 70.0202L47.6098 69.9302L47.6698 69.8402L47.7298 69.7502L47.7898 69.6602L47.8798 69.5702L47.9698 69.4802L48.0598 69.4202L48.1498 69.3602L48.2398 69.3002L48.3298 69.2402L48.4198 69.1802L48.5098 69.1202L48.5998 69.0902L48.7198 69.0602L48.8398 69.0302L48.9598 69.0002L49.0798 68.9702L49.1998 68.9402L49.3198 68.9102H49.4398H49.5598H49.5898H49.4698H49.2598L49.0498 68.9402L48.8398 68.9702L48.6298 69.0002L48.4198 69.0302L48.2098 69.0602L47.9998 69.0902L47.7898 69.1502L47.5798 69.2102L47.3698 69.2702L47.1598 69.3302L46.9798 69.3902L46.7698 69.4502L46.5898 69.5402L46.4098 69.6302L46.2298 69.7202L46.0498 69.8102L45.8698 69.9002L45.6898 69.9902L45.5098 70.1102L45.3298 70.2302L45.1498 70.3502L44.9698 70.4702L44.7898 70.5902L44.6398 70.7102L44.4898 70.8302L44.3398 70.9802L44.1898 71.1302L44.0398 71.2802L43.8898 71.4302L43.7398 71.5802L43.5898 71.7302L43.4698 71.8802L43.3498 72.0302L43.2298 72.2102L43.1098 72.3902L42.9898 72.5702L42.8698 72.7502L42.7798 72.9302L42.6898 73.1102L42.5998 73.2902L42.5098 73.4702L42.4198 73.6502L42.3298 73.8302L42.2698 74.0102L42.2098 74.1902L42.1498 74.4002L42.0898 74.6102L42.0298 74.8202L41.9698 75.0302L41.9398 75.2402L41.9098 75.4502L41.8798 75.6602L41.8498 75.8702L41.8198 76.0802V76.2902V76.5002V76.7102V76.9202V77.1302V77.3402L41.8498 77.5502L41.8798 77.7602L41.9098 77.9702L41.9398 78.1802L41.9698 78.3902L42.0298 78.6002L42.0598 78.7502H49.3498H49.4998H66.7498L48.8398 73.8302V73.6502Z" fill="#201637"/>
<path d="M37.4999 71.8796V72.1496L37.5299 72.4196L37.5599 72.6896L37.5899 72.9296L37.6199 73.1696L37.6499 73.4096L37.7099 73.6796L37.7699 73.9196L37.8299 74.1596L37.8899 74.3996L37.9499 74.6396L38.0399 74.8796L38.1299 75.1196L38.2199 75.3596L38.3099 75.5996L38.3999 75.8396L38.4899 76.0796L38.5799 76.3196L38.6999 76.5596L38.8199 76.7996L38.9399 77.0396L39.0599 77.2796L39.1799 77.4896L39.2999 77.6996L39.4499 77.9096L39.5999 78.1196L39.7499 78.3296L39.8999 78.5396L39.9599 78.5996H42.2099L42.1799 78.4496L42.1199 78.2396L42.0899 78.0296L42.0599 77.8196L42.0299 77.6096L41.9999 77.3996L41.9699 77.1896L41.9399 76.9796V76.7696V76.5596V76.3496V76.1396L41.9699 75.9296L41.9999 75.7196L42.0299 75.5096L42.0599 75.2996L42.0899 75.0896L42.1199 74.8796L42.1799 74.6696L42.2399 74.4596L42.2999 74.2496L42.3599 74.0396L42.4199 73.8596L42.4799 73.6796L42.5699 73.4996L42.6599 73.3196L42.7499 73.1396L42.8399 72.9596L42.9299 72.7796L43.0199 72.5996L43.1399 72.4196L43.2599 72.2396L43.3799 72.0596L43.4999 71.8796L43.6199 71.7296L43.7399 71.5796L43.8899 71.4296L44.0399 71.2796L44.1899 71.1296L44.3399 70.9796L44.4899 70.8296L44.6399 70.6796L44.7899 70.5596L44.9399 70.4396L45.1199 70.3196L45.2999 70.1996L45.4799 70.0796L45.6599 69.9596L45.8399 69.8396L46.0199 69.7496L46.1999 69.6596L46.3799 69.5696L46.5599 69.4796L46.7399 69.3896L46.9199 69.2996L47.1299 69.2396L47.3099 69.1796L47.5199 69.1196L47.7299 69.0596L47.9399 68.9996L48.1499 68.9396L48.3599 68.9096L48.5699 68.8796L48.7799 68.8496L48.9899 68.8196L49.1999 68.7896L49.4099 68.7596H49.6199H49.8299H112.5V59.0996H49.5899H49.3199H49.0499L48.7799 59.1296L48.5099 59.1596L48.2399 59.1896L47.9999 59.2196L47.7299 59.2496L47.4899 59.2796L47.2499 59.3396L46.9799 59.3996L46.7399 59.4596L46.4999 59.5196L46.2599 59.5796L46.0199 59.6396L45.7799 59.6996L45.5399 59.7896L45.2999 59.8796L45.0599 59.9696L44.8199 60.0596L44.5799 60.1496L44.3399 60.2696L44.0999 60.3896L43.8599 60.5096L43.6199 60.6296L43.4099 60.7496L43.1999 60.8696L42.9899 61.0196L42.7799 61.1696L42.5999 61.4996L42.3899 61.6496L42.1799 61.7996L41.9699 61.9496L41.7599 62.0996L41.5499 62.2796L41.3699 62.4596L41.1899 62.6396L41.0099 62.8196L40.8299 62.9996L40.6499 63.1796L40.4699 63.3596L40.2899 63.5696L40.1399 63.7796L39.9899 63.9896L39.8399 64.1996L39.6899 64.4096L39.5399 64.6196L39.3899 64.8296L39.2399 65.0396L39.1199 65.2496L38.9999 65.4596L38.8799 65.6696L38.7599 65.9096L38.6399 66.1496L38.5199 66.3896L38.4299 66.6296L38.3399 66.8696L38.2499 67.1096L38.1599 67.3496L38.0699 67.5896L37.9799 67.8296L37.8899 68.0696L37.8299 68.3096L37.7699 68.5496L37.7099 68.7896L37.6499 69.0296L37.5899 69.2696L37.5599 69.5096L37.5299 69.7796L37.4999 70.0496L37.4699 70.3196L37.4399 70.5596V70.7996V71.0696V71.3396V71.6096L37.4999 71.8796Z" fill="#0DC09D"/>
<path d="M48.8399 51.8997L48.7199 51.8697L48.5999 51.8097L48.5099 51.7797L48.4199 51.7197L48.3299 51.6597L48.2399 51.5997L48.1499 51.5397L48.0599 51.4797L47.9699 51.4197L47.8799 51.3597L47.8199 51.2697L47.7599 51.1797L47.6999 51.0897L47.6399 50.9997L47.5799 50.9097L47.5199 50.8197L47.4599 50.7297L47.3999 50.6397L47.3699 50.5497L47.3399 50.4297L47.3099 50.3397L47.2799 50.2197L47.2499 50.0997L47.2199 49.9797L47.1899 49.8597V49.7397V49.6197V49.4997V49.3797L47.2199 49.2597L47.2499 49.1397L47.2799 49.0197L47.3099 48.8997L47.3399 48.7797L47.3699 48.6897L47.3999 48.5997L47.4599 48.5097L47.5199 48.4197L47.5799 48.3297L47.6399 48.2397L47.6999 48.1497L47.7599 48.0597L47.8199 47.9697L47.8799 47.8797L47.9699 47.8197L48.0599 47.7597L48.1499 47.6997L48.2399 47.6397L48.3299 47.5797L48.4199 47.5197L48.5099 47.4597L48.5999 47.3997L48.7199 47.3697L48.8399 47.3397L48.9599 47.3097L49.0799 47.2797L49.1999 47.2497L49.3199 47.2197H49.4399H49.5599H49.5899H49.4699H49.2599H49.0499L48.8399 47.2497L48.6299 47.2797L48.4199 47.3097L48.2099 47.3397L47.9999 47.3697L47.7899 47.3997L47.5799 47.4597L47.3699 47.5197L47.1599 47.5797L46.9799 47.6397L46.7999 47.6997L46.6199 47.7597L46.4399 47.8497L46.2599 47.9397L46.0799 48.0297L45.8999 48.1197L45.7199 48.2097L45.5399 48.3297L45.3599 48.4497L45.1799 48.5697L44.9999 48.6897L44.8199 48.8097L44.6699 48.9297L44.5199 49.0497L44.3699 49.1697L44.2199 49.3197L44.0699 49.4697L43.9199 49.6197L43.7999 49.7997L43.6499 49.9497L43.5299 50.0997L43.4099 50.2797L43.2899 50.4297L43.1699 50.6097L43.0499 50.7897L42.9299 50.9697L42.8399 51.1497L42.7499 51.3297L42.6599 51.5097L42.5699 51.6897L42.4799 51.8697L42.3899 52.0497L42.3299 52.2297L42.2699 52.4097L42.2099 52.5897L42.1499 52.7997L42.0899 53.0097L42.0299 53.2197L41.9999 53.4297L41.9699 53.6397L41.9399 53.8497L41.9099 54.0597L41.8799 54.2697V54.4797V54.6897V54.8997V55.1097V55.3197V55.5297L41.9099 55.7397L41.9399 55.9497L41.9699 56.1597L41.9999 56.3697L42.0299 56.5797L42.0899 56.7897L42.1499 56.9997L42.2099 57.1797L42.2699 57.3897L42.3299 57.5697L42.3899 57.7497L42.4799 57.9297L42.5699 58.1097L42.6599 58.2897L42.7499 58.4697L42.8099 58.5597L43.0499 58.4397L43.2899 58.3197L43.5599 58.1997L43.8299 58.0797L44.0999 57.9597L44.3699 57.8697L44.6399 57.7797L44.9099 57.6897L45.1799 57.5997L45.4499 57.5097L45.7199 57.4197L45.9899 57.3597L46.2599 57.2997L46.5299 57.2397L46.7999 57.1797L47.0699 57.1197L47.3399 57.0897L47.6099 57.0597L47.8799 57.0297L48.1499 56.9997L48.4199 56.9697L48.6899 56.9397H48.9599H49.2599H49.5299H66.7799L48.8699 52.0197L48.8399 51.8997Z" fill="#201637"/>
<path d="M100.41 102.81H100.62H100.83H101.04L101.25 102.78L101.46 102.75L101.67 102.72L101.88 102.69L102.09 102.66L102.3 102.63L102.51 102.57L102.72 102.51L102.93 102.45L103.11 102.39L103.29 102.33L103.47 102.24L103.65 102.15L103.83 102.06L104.01 101.97L104.19 101.88L104.37 101.79L104.55 101.67L104.73 101.55L104.91 101.43L105.09 101.31L105.24 101.19L105.39 101.07L105.54 100.92L105.69 100.77L105.84 100.62L105.99 100.47L106.14 100.32L106.29 100.17L106.41 100.02L106.53 99.87L106.65 99.69L106.77 99.51L106.89 99.33L107.01 99.15L107.1 98.97L107.19 98.79L107.28 98.61L107.37 98.43L107.46 98.25L107.55 98.07L107.64 97.89L107.7 97.71L107.76 97.5L107.82 97.32L107.88 97.11L107.94 96.9L108 96.69L108.03 96.48L108.06 96.27L108.09 96.06L108.12 95.85L108.15 95.64V95.43V95.22V95.01V94.8V94.59V94.38L108.12 94.17L108.09 93.96L108 93.9L107.97 93.69L107.94 93.48L107.88 93.27L107.82 93.06L107.76 92.85L107.7 92.7L107.64 92.52L107.58 92.34L107.49 92.16L107.4 91.98L107.31 91.8L107.22 91.62L107.16 91.5L106.92 91.62L106.68 91.74L106.44 91.86L106.17 91.98L105.9 92.1L105.63 92.22L105.36 92.31L105.09 92.4L104.82 92.49L104.55 92.58L104.28 92.67L104.01 92.73L103.74 92.79L103.47 92.85L103.2 92.91L102.93 92.97L102.66 93.03L102.39 93.06L102.12 93.09L101.85 93.12L101.58 93.15L101.31 93.18H101.04H100.77H100.5H83.25L101.16 98.1L101.28 98.13L101.4 98.16L101.52 98.19L101.61 98.25L101.7 98.31L101.79 98.37L101.88 98.43L101.97 98.49L102.06 98.55L102.15 98.61L102.24 98.67L102.33 98.76L102.39 98.85L102.45 98.94L102.51 99.03L102.57 99.12L102.63 99.21L102.69 99.3L102.75 99.39L102.78 99.48L102.81 99.57L102.84 99.69L102.87 99.81L102.9 99.93L102.93 100.05V100.17V100.29V100.41V100.53V100.65V100.77L102.9 100.89L102.87 101.01L102.84 101.13L102.81 101.25L102.78 101.37L102.75 101.46L102.69 101.55L102.63 101.64L102.57 101.73L102.51 101.82L102.45 101.91L102.39 102L102.33 102.09L102.24 102.18L102.15 102.27L102.06 102.33L101.97 102.39L101.88 102.45L101.79 102.51L101.7 102.57L101.61 102.63L101.52 102.69L101.4 102.72L101.28 102.75L101.16 102.78L101.04 102.81L100.92 102.84H100.8H100.68H100.56L100.41 102.81Z" fill="#201637"/>
<path d="M112.5 99.9V99.63L112.47 99.39L112.44 99.12L112.41 98.88L112.38 98.64L112.35 98.4L112.32 98.16L112.26 97.92L112.2 97.68L112.14 97.44L112.08 97.2L112.02 96.96L111.93 96.72L111.84 96.48L111.75 96.24L111.66 96L111.57 95.76L111.48 95.52L111.36 95.28L111.24 95.04L111.12 94.8L111 94.56L110.88 94.35L110.73 94.14L110.58 93.93L110.43 93.72L110.28 93.51L110.13 93.3L109.98 93.09L109.83 92.88L109.68 92.67L109.5 92.49L109.32 92.31L109.14 92.13L108.96 91.95L108.78 91.77L108.6 91.5L108.42 91.32L108.21 91.14L108 90.96L107.73 91.14L107.49 91.29L107.22 91.44L107.19 91.47L107.25 91.59L107.34 91.77L107.43 91.95L107.52 92.13L107.61 92.31L107.67 92.49L107.73 92.67L107.79 92.88L107.85 93.09L107.91 93.3L107.97 93.51L108 93.72L108.03 93.93L108.06 94.14L108.09 94.35L108.12 94.56V94.77V94.98V95.19V95.4V95.61V95.82L108.09 96.03L108.06 96.24L108.03 96.45L108 96.66L107.97 96.87L107.91 97.08L107.85 97.29L107.79 97.5L107.73 97.68L107.67 97.89L107.61 98.07L107.52 98.25L107.43 98.43L107.34 98.61L107.25 98.79L107.16 98.97L107.07 99.15L106.95 99.33L106.83 99.51L106.71 99.69L106.59 99.84L106.47 99.99L106.35 100.14L106.2 100.2L106.05 100.35L105.9 100.5L105.75 100.65L105.6 100.8L105.45 100.95L105.3 101.1L105.15 101.22L105 101.34L104.82 101.46L104.64 101.58L104.46 101.7L104.28 101.82L104.1 101.91L103.92 102L103.74 102.09L103.56 102.18L103.38 102.27L103.2 102.3L103.02 102.36L102.81 102.42L102.63 102.48L102.42 102.54L102.21 102.6L102 102.63L101.79 102.66L101.58 102.69L101.37 102.72L101.16 102.75L100.95 102.78H100.74H100.53H100.32H37.5V112.5H100.41H100.68H100.92L101.19 112.47L101.46 112.44L101.73 112.41L102 112.38L102.27 112.35L102.51 112.32L102.75 112.29L102.99 112.23L103.23 112.17L103.47 112.11L103.71 112.05L103.95 111.99L104.19 111.93L104.43 111.84L104.67 111.75L104.91 111.66L105.15 111.57L105.39 111.48L105.63 111.36L105.87 111.24L106.11 111.12L106.32 111L106.56 110.88L106.77 110.76L106.98 110.61L107.19 110.46L107.4 110.31L107.61 110.16L107.82 110.01L108.03 109.86L108.24 109.71L108.45 109.53L108.63 109.35L108.81 109.17L108.99 108.99L109.17 108.81L109.35 108.63L109.53 108.45L109.71 108.27L109.86 108.06L110.01 107.85L110.16 107.64L110.31 107.43L110.46 107.22L110.61 107.01L110.76 106.8L110.91 106.59L111.03 106.38L111.15 106.14L111.27 105.9L111.39 105.66L111.51 105.42L111.6 105.18L111.69 104.94L111.78 104.7L111.87 104.46L111.96 104.22L112.05 103.98L112.11 103.74L112.17 103.5L112.23 103.26L112.29 103.02L112.35 102.78L112.38 102.51L112.41 102.27L112.44 102L112.47 101.76L112.5 101.49L112.53 101.22V100.98V100.71V100.44V100.17L112.5 99.9Z" fill="#0DC09D"/>
<path d="M37.5 50.1V50.37L37.53 50.61L37.56 50.88L37.59 51.12L37.62 51.36L37.65 51.6L37.71 51.84L37.77 52.08L37.83 52.32L37.89 52.56L37.95 52.8L38.01 53.04L38.1 53.28L38.19 53.52L38.28 53.76L38.37 54L38.46 54.24L38.58 54.48L38.7 54.72L38.82 54.96L38.94 55.2L39.06 55.44L39.18 55.65L39.33 55.86L39.48 56.07L39.63 56.28L39.78 56.49L39.93 56.7L40.08 56.91L40.23 57.12L40.38 57.33L40.56 57.51L40.74 57.69L40.92 57.87L41.1 58.05L41.28 58.23L41.46 58.41L41.64 58.59L41.85 58.77L42.06 58.92L42.33 58.74L42.57 58.59L42.84 58.44L42.87 58.41L42.81 58.29L42.72 58.11L42.63 57.93L42.54 57.75L42.45 57.57L42.39 57.39L42.3 57.3L42.24 57.09L42.18 56.91L42.12 56.7L42.06 56.49L42.03 56.28L42 56.1L41.97 55.89L41.94 55.68L41.91 55.47L41.88 55.26V55.05V54.84V54.63V54.42L41.91 54.21L41.94 54L41.97 53.79L42 53.58L42.03 53.37L42.06 53.16L42.12 52.95L42.18 52.74L42.24 52.53L42.3 52.35L42.36 52.17L42.42 51.99L42.51 51.81L42.6 51.63L42.69 51.45L42.78 51.27L42.87 51.09L42.96 50.91L43.08 50.73L43.2 50.55L43.32 50.37L43.44 50.22L43.56 50.04L43.68 49.89L43.83 49.74L43.98 49.59L44.13 49.44L44.28 49.29L44.43 49.14L44.58 49.02L44.73 48.87L44.88 48.75L45.06 48.63L45.24 48.51L45.42 48.39L45.6 48.27L45.78 48.15L45.96 48.06L46.14 47.97L46.32 47.88L46.5 47.79L46.68 47.7L46.86 47.64L47.07 47.58L47.25 47.52L47.46 47.46L47.67 47.4L47.88 47.34L48.09 47.31L48.3 47.28L48.51 47.25L48.72 47.22L48.93 47.19L49.14 47.16L49.35 47.13H49.56H49.77H112.5V37.5H49.59H49.32H49.05H48.78L48.51 37.53L48.24 37.56L47.97 37.59L47.73 37.62L47.46 37.65L47.22 37.71L46.98 37.77L46.74 37.83L46.5 37.89L46.26 37.95L46.02 38.01L45.78 38.07L45.54 38.16L45.3 38.25L45.06 38.34L44.82 38.43L44.58 38.52L44.34 38.64L44.1 38.76L43.86 38.88L43.62 39L43.41 39.12L43.2 39.24L42.99 39.39L42.78 39.54L42.57 39.69L42.36 39.84L42.15 39.99L41.94 40.14L41.73 40.29L41.52 40.44L41.34 40.62L41.16 40.8L40.98 40.98L40.8 41.16L40.62 41.34L40.44 41.52L40.26 41.73L40.2 42L40.05 42.21L39.9 42.42L39.75 42.63L39.6 42.84L39.45 43.05L39.3 43.26L39.15 43.47L39.03 43.68L38.91 43.92L38.79 44.13L38.67 44.37L38.55 44.61L38.43 44.85L38.34 45.09L38.25 45.33L38.16 45.57L38.07 45.81L37.98 46.05L37.92 46.29L37.86 46.53L37.8 46.77L37.74 47.01L37.68 47.25L37.62 47.49L37.59 47.76L37.56 48L37.53 48.24L37.5 48.48L37.47 48.75V48.99V49.23V49.5V49.77L37.5 50.1Z" fill="#0DC09D"/>
</g>
</svg>
