<?xml version="1.0" encoding="iso-8859-1"?>
<!-- Generator: Adobe Illustrator 16.0.0, SVG Export Plug-In . SVG Version: 6.00 Build 0)  -->
<!DOCTYPE svg PUBLIC "-//W3C//DTD SVG 1.1//EN" "http://www.w3.org/Graphics/SVG/1.1/DTD/svg11.dtd">
<svg version="1.1" id="Capa_1" xmlns="http://www.w3.org/2000/svg" xmlns:xlink="http://www.w3.org/1999/xlink" x="0px" y="0px"
	 width="31.943px" height="31.943px" viewBox="0 0 31.943 31.943" style="enable-background:new 0 0 31.943 31.943;"
	 xml:space="preserve">
<g>
	<g>
		<path d="M10.709,19.175L6.101,15.3l4.627-3.974c1.005-0.863,1.12-2.377,0.258-3.381c-0.863-1.003-2.379-1.12-3.383-0.256
			l-6.768,5.812c-0.533,0.46-0.839,1.13-0.835,1.833c0.004,0.704,0.316,1.37,0.854,1.823l6.769,5.689
			c0.449,0.377,0.997,0.562,1.541,0.562c0.684,0,1.362-0.291,1.836-0.854C11.852,21.542,11.723,20.029,10.709,19.175z"/>
		<path d="M31.105,13.502L24.337,7.69c-1.005-0.863-2.52-0.746-3.382,0.258c-0.859,1.004-0.747,2.517,0.258,3.381l4.627,3.974
			l-4.605,3.875c-1.014,0.854-1.146,2.363-0.291,3.379c0.474,0.562,1.148,0.854,1.836,0.854c0.544,0,1.092-0.188,1.541-0.562
			l6.769-5.689c0.538-0.453,0.852-1.12,0.854-1.823C31.945,14.631,31.642,13.961,31.105,13.502z"/>
		<path d="M18.104,3.406c-1.299-0.25-2.56,0.6-2.811,1.899l-3.951,20.421c-0.252,1.301,0.598,2.56,1.898,2.811
			c0.153,0.029,0.307,0.044,0.458,0.044c1.126,0,2.129-0.796,2.352-1.941l3.951-20.42C20.255,4.917,19.404,3.658,18.104,3.406z"/>
	</g>
</g>
<g>
</g>
<g>
</g>
<g>
</g>
<g>
</g>
<g>
</g>
<g>
</g>
<g>
</g>
<g>
</g>
<g>
</g>
<g>
</g>
<g>
</g>
<g>
</g>
<g>
</g>
<g>
</g>
<g>
</g>
</svg>
