<?xml version="1.0" encoding="utf-8"?>
<!-- Generator: Adobe Illustrator 18.0.0, SVG Export Plug-In . SVG Version: 6.00 Build 0)  -->
<!DOCTYPE svg PUBLIC "-//W3C//DTD SVG 1.1//EN" "http://www.w3.org/Graphics/SVG/1.1/DTD/svg11.dtd">
<svg version="1.1" id="Layer_1" xmlns="http://www.w3.org/2000/svg" xmlns:xlink="http://www.w3.org/1999/xlink" x="0px" y="0px"
	 viewBox="0 0 56.7 56.7" enable-background="new 0 0 56.7 56.7" xml:space="preserve">
<g>
	<circle cx="28.3" cy="28.3" r="28.3"/>
	<path fill="#FFFFFE" d="M26,30.3c0-3.7,0-7.3,0-11c0-0.7,0-0.7,0.7-0.7c2.1-0.2,4.1-0.4,6.2-0.4c1.6,0,3.2,0.2,4.7,0.6
		c1.6,0.4,3.1,1.1,4.4,2.2c0.9,0.8,1.7,1.8,2.2,2.9c1.2,2.5,1.4,5.2,1.1,7.9c-0.1,0.5-0.1,1.1-0.3,1.6c-0.3,1-0.6,2-1.1,3
		c-0.5,0.9-1.1,1.8-1.9,2.5c-0.5,0.5-1.1,0.9-1.7,1.3c-1.1,0.6-2.2,1.1-3.4,1.4c-0.6,0.2-1.3,0.3-2,0.4c-1.9,0.3-3.7,0.2-5.6,0.2
		c-1,0-2-0.2-3-0.2c-0.3,0-0.4-0.1-0.4-0.4c0-0.6,0-1.3,0-1.9C26,36.6,26,33.4,26,30.3C26,30.3,26,30.3,26,30.3z M29.1,30.3
		C29.1,30.3,29.1,30.3,29.1,30.3c0,2.9,0,5.8,0,8.8c0,0.6,0,0.6,0.6,0.6c0.1,0,0.1,0,0.2,0c0.9,0.1,1.7,0,2.6,0c1.5,0,3-0.2,4.5-0.8
		c1.5-0.6,2.7-1.5,3.6-2.8c0.9-1.2,1.3-2.6,1.5-4c0.2-1.9,0.3-3.8-0.3-5.7c-0.6-1.9-1.6-3.3-3.3-4.4c-1.4-0.9-2.9-1.2-4.5-1.3
		c-1.4-0.1-2.9-0.1-4.3,0.2c-0.4,0.1-0.5,0.1-0.5,0.6C29.1,24.3,29.1,27.3,29.1,30.3z"/>
	<path fill="#FFFFFE" d="M15.6,30.3c0-3.7,0-7.4,0-11c0-0.6,0-0.6,0.6-0.6c1.1,0,2.1,0,3.2,0c0.4,0,0.5,0,0.5,0.5c0,0.5,0,0.9,0,1.4
		c0,7,0,14,0,20.9c0,0.5,0,0.5-0.5,0.5c-1.1,0-2.2,0-3.3,0c-0.5,0-0.5,0-0.5-0.5C15.6,37.8,15.6,34.1,15.6,30.3
		C15.6,30.3,15.6,30.3,15.6,30.3z"/>
	<path fill="#FFFFFE" d="M17.7,16.1c-1.6,0-2.7-1.3-2.6-2.8c0.1-1.6,1.2-2.7,3-2.6c1.5,0.1,2.5,1.1,2.5,2.7
		C20.4,15,19.3,16.1,17.7,16.1z"/>
</g>
</svg>
