<?xml version="1.0" encoding="utf-8"?>
<!-- Generator: Adobe Illustrator 18.0.0, SVG Export Plug-In . SVG Version: 6.00 Build 0)  -->
<!DOCTYPE svg PUBLIC "-//W3C//DTD SVG 1.1//EN" "http://www.w3.org/Graphics/SVG/1.1/DTD/svg11.dtd">
<svg version="1.1" id="Layer_1" xmlns="http://www.w3.org/2000/svg" xmlns:xlink="http://www.w3.org/1999/xlink" x="0px" y="0px"
	 viewBox="0 0 39.8 39.8" enable-background="new 0 0 39.8 39.8" xml:space="preserve">
<g>
	<path d="M9.2,10.1c2.2,0,4.4-0.2,6.6,0c3.6,0.4,6.2,2.4,6.8,5.4c0.7,3.8-1.4,7.6-5.2,8.9c-0.7,0.2-0.8,0.4-0.4,1.1
		c1.8,3,3.8,5.8,6.1,8.4c1.1,1.2,2.3,2.2,4,2.5c0.4,0.1,0.5,0.3,0.5,0.6c0,0.4-0.1,0.7-0.5,0.8c-1.1,0.3-2.3,0.2-3.4-0.1
		c-1.8-0.4-3.2-1.4-4.3-2.8c-2.2-2.8-4.2-5.9-5.9-9c-0.3-0.5-0.6-0.8-1.2-0.7c-0.8,0.1-1.9-0.4-2.5,0.2c-0.5,0.5-0.1,1.6-0.1,2.4
		c0,1.7,0,3.4,0,5c0,2.6,0.5,3.1,3,3.4c0.4,0,0.8-0.1,1,0.3c0.3,0.6-0.1,1.1-0.8,1c-3.1-0.2-6.3-0.2-9.4,0c-0.3,0-0.7,0.1-0.8-0.4
		c0-0.5,0-0.8,0.6-0.9c2.5-0.5,2.8-0.9,2.8-3.5c0-5.9,0-11.8,0-17.7c0-0.4,0-0.7-0.1-1.1c-0.3-1.7-0.7-2.1-2.3-2.4
		c-0.4-0.1-1,0.1-1.1-0.6c0-0.5,0-0.8,0.7-0.8C5.4,10.1,7.3,10.1,9.2,10.1z M9.7,17.5c0,1.6,0,3.2,0,4.9c0,0.5,0.1,0.7,0.6,0.7
		c1.5,0,2.9,0.2,4.4-0.1c2.6-0.6,4.3-2.6,4.4-5.4c0.1-3-1.2-4.9-3.9-5.5c-1.7-0.4-3.3-0.3-5-0.1c-0.5,0-0.5,0.4-0.5,0.7
		C9.7,14.3,9.7,15.9,9.7,17.5z"/>
	<path d="M28.3,8.6c0,1.1-0.1,2.2,0.2,3.3c0.4,1.5,1.4,2.3,2.9,2.3c1.6,0,2.6-0.8,3-2.3c0,0,0-0.1,0-0.1c0.4-1.7,0.3-1.9-1.5-1.9
		c-0.6,0-1.4,0.2-1.3-0.9c0-0.8,0.2-1,1-1C33.7,8,34.9,8,36,8c0.6,0,0.8,0.2,0.8,0.8c0,1.2,0,2.4-0.3,3.5c-0.5,2.4-2.4,3.9-5.1,3.9
		c-2.7,0-4.5-1.3-5.1-3.8c-0.6-2.5-0.5-5.1,0-7.6c0.4-2.1,1.8-3.4,3.9-3.7c2.2-0.3,4.2,0.1,5.6,2C36,3.4,36.7,3.8,36,4.3
		c-1,0.6-1.5,0.6-1.9,0c-1.3-1.9-3.9-1.9-5.1-0.1c-0.4,0.6-0.6,1.3-0.6,2.1C28.3,7.1,28.3,7.8,28.3,8.6z"/>
</g>
</svg>
