<svg width="248" height="40" viewBox="0 0 248 40" fill="none" xmlns="http://www.w3.org/2000/svg">
<path d="M41.0625 24.6562H44.9688C45.0938 25.6875 45.625 26.5208 46.5625 27.1562C47.5 27.7812 48.6615 28.0938 50.0469 28.0938C51.401 28.0938 52.5052 27.7917 53.3594 27.1875C54.224 26.5833 54.6562 25.8125 54.6562 24.875C54.6562 24.0625 54.3438 23.4062 53.7188 22.9062C53.0938 22.3958 52.0729 21.974 50.6562 21.6406L47.7344 20.9531C45.6615 20.474 44.1198 19.7292 43.1094 18.7188C42.1094 17.7083 41.6094 16.3958 41.6094 14.7812C41.6094 12.7917 42.3906 11.1771 43.9531 9.9375C45.5156 8.69792 47.5312 8.07812 50 8.07812C52.4792 8.07812 54.474 8.69271 55.9844 9.92188C57.5052 11.1406 58.2917 12.7448 58.3438 14.7344H54.5C54.4062 13.6823 53.9531 12.8594 53.1406 12.2656C52.3281 11.6615 51.2708 11.3594 49.9688 11.3594C48.6979 11.3594 47.6667 11.6458 46.875 12.2188C46.0938 12.7917 45.7031 13.5469 45.7031 14.4844C45.7031 15.2344 46.0052 15.8438 46.6094 16.3125C47.224 16.7812 48.224 17.1823 49.6094 17.5156L52.2031 18.1094C54.4844 18.6302 56.1406 19.3906 57.1719 20.3906C58.2031 21.3906 58.7188 22.7292 58.7188 24.4062C58.7188 26.5417 57.9167 28.2396 56.3125 29.5C54.7188 30.75 52.5573 31.375 49.8281 31.375C47.224 31.375 45.1302 30.776 43.5469 29.5781C41.974 28.3698 41.1458 26.7292 41.0625 24.6562ZM65.7969 8.45312V22.6875C65.7969 24.25 66.2552 25.5052 67.1719 26.4531C68.099 27.3906 69.3854 27.8594 71.0312 27.8594C72.6771 27.8594 73.9635 27.3906 74.8906 26.4531C75.8177 25.5052 76.2812 24.25 76.2812 22.6875V8.45312H80.2969V23.0469C80.2969 25.5365 79.4583 27.5469 77.7812 29.0781C76.1146 30.6094 73.8646 31.375 71.0312 31.375C68.2083 31.375 65.9583 30.6094 64.2812 29.0781C62.6042 27.5469 61.7656 25.5365 61.7656 23.0469V8.45312H65.7969ZM107.562 8.45312V31H103.938V15H103.828L97.3125 30.8125H94.5625L88.0469 15H87.9375V31H84.2969V8.45312H88.9688L95.875 25.4688H96L102.906 8.45312H107.562ZM134.812 8.45312V31H131.188V15H131.078L124.562 30.8125H121.812L115.297 15H115.188V31H111.547V8.45312H116.219L123.125 25.4688H123.25L130.156 8.45312H134.812ZM142.828 31H138.797V8.45312H142.828V31ZM156.438 31H152.406V11.8594H145.562V8.45312H163.281V11.8594H156.438V31ZM172.641 15.1406C172.641 13.0573 173.391 11.349 174.891 10.0156C176.391 8.67188 178.307 8 180.641 8C182.88 8 184.724 8.60938 186.172 9.82812C187.63 11.0469 188.359 12.5729 188.359 14.4062C188.359 15.6667 188.005 16.8594 187.297 17.9844C186.599 19.099 185.438 20.474 183.812 22.1094L178.234 27.625V27.7031H188.703V31H172.859V28.2812L181.156 20.0312C182.438 18.7188 183.302 17.6927 183.75 16.9531C184.198 16.2135 184.422 15.4219 184.422 14.5781C184.422 13.6406 184.047 12.849 183.297 12.2031C182.557 11.5573 181.63 11.2344 180.516 11.2344C179.339 11.2344 178.359 11.6042 177.578 12.3438C176.807 13.0833 176.422 14.0104 176.422 15.125V15.1875H172.641V15.1406ZM200.172 31.4531C197.422 31.4531 195.26 30.4062 193.688 28.3125C192.125 26.2083 191.344 23.3385 191.344 19.7031C191.344 16.0885 192.13 13.2344 193.703 11.1406C195.276 9.04688 197.432 8 200.172 8C202.911 8 205.062 9.04688 206.625 11.1406C208.188 13.224 208.969 16.0729 208.969 19.6875C208.969 23.3125 208.188 26.1823 206.625 28.2969C205.062 30.401 202.911 31.4531 200.172 31.4531ZM200.172 28.1562C201.661 28.1562 202.818 27.4115 203.641 25.9219C204.474 24.4323 204.891 22.3594 204.891 19.7031C204.891 17.0677 204.474 15.0104 203.641 13.5312C202.807 12.0417 201.651 11.2969 200.172 11.2969C198.693 11.2969 197.526 12.0417 196.672 13.5312C195.828 15.0208 195.406 17.0729 195.406 19.6875C195.406 22.3438 195.823 24.4219 196.656 25.9219C197.5 27.4115 198.672 28.1562 200.172 28.1562ZM211.547 15.1406C211.547 13.0573 212.297 11.349 213.797 10.0156C215.297 8.67188 217.214 8 219.547 8C221.786 8 223.63 8.60938 225.078 9.82812C226.536 11.0469 227.266 12.5729 227.266 14.4062C227.266 15.6667 226.911 16.8594 226.203 17.9844C225.505 19.099 224.344 20.474 222.719 22.1094L217.141 27.625V27.7031H227.609V31H211.766V28.2812L220.062 20.0312C221.344 18.7188 222.208 17.6927 222.656 16.9531C223.104 16.2135 223.328 15.4219 223.328 14.5781C223.328 13.6406 222.953 12.849 222.203 12.2031C221.464 11.5573 220.536 11.2344 219.422 11.2344C218.245 11.2344 217.266 11.6042 216.484 12.3438C215.714 13.0833 215.328 14.0104 215.328 15.125V15.1875H211.547V15.1406ZM230.422 15.1406C230.422 13.0573 231.172 11.349 232.672 10.0156C234.172 8.67188 236.089 8 238.422 8C240.661 8 242.505 8.60938 243.953 9.82812C245.411 11.0469 246.141 12.5729 246.141 14.4062C246.141 15.6667 245.786 16.8594 245.078 17.9844C244.38 19.099 243.219 20.474 241.594 22.1094L236.016 27.625V27.7031H246.484V31H230.641V28.2812L238.938 20.0312C240.219 18.7188 241.083 17.6927 241.531 16.9531C241.979 16.2135 242.203 15.4219 242.203 14.5781C242.203 13.6406 241.828 12.849 241.078 12.2031C240.339 11.5573 239.411 11.2344 238.297 11.2344C237.12 11.2344 236.141 11.6042 235.359 12.3438C234.589 13.0833 234.203 14.0104 234.203 15.125V15.1875H230.422V15.1406Z" fill="white"/>
<g clip-path="url(#clip0_421_5713)">
<path d="M36.664 5.01121C37.7661 4.97307 38.3839 5.04172 38.7576 5.07604H53.2185V10.9756H46.4304C46.4304 10.9756 41.8771 10.987 39.5279 10.9756C34.7267 11.0099 30.2229 11.8451 30.0017 11.8718L36.664 5.01121Z" fill="url(#paint0_linear_421_5713)"/>
<path d="M17.5963 17.5044C18.0082 18.0383 18.0082 18.0612 18.4239 18.6485C25.906 29.1662 36.2293 28.1365 36.664 28.087V33.9941C36.5496 34.0094 36.6335 34.0399 35.6268 34.0399C31.5577 34.0399 21.2917 32.873 13.6074 22.0692C13.3938 21.7717 13.3938 21.7641 13.1841 21.4781L17.5963 17.5044Z" fill="url(#paint1_linear_421_5713)"/>
<path d="M12.9705 21.2C5.74386 11.4678 -0.102295 10.9263 -0.102295 10.9263V5.04199C0.778633 5.06106 8.42478 5.57207 17.1845 16.9707L12.9705 21.2Z" fill="url(#paint2_linear_421_5713)"/>
<path d="M3.41374 24.811C-4.08749 28.6131 -10.3646 28.1403 -10.7497 28.1136L-11.2112 34.0055C-11.112 34.0131 -10.6773 34.0436 -9.96415 34.0436C-7.50823 34.0436 -1.95191 33.7614 4.61882 30.7716L3.41374 24.811Z" fill="url(#paint3_linear_421_5713)"/>
<path d="M38.7577 5.06425C38.2848 5.01849 37.1598 4.94603 35.5619 5.06425H35.539L35.5314 5.06807C30.8064 5.42272 21.9972 7.4439 13.7942 16.7299C10.0188 21.001 5.95361 23.6819 2.23541 25.3599C-2.84422 31.2099 -11.2188 33.9938 -11.2188 33.9938C-11.1196 34.0014 -10.6849 34.0319 -9.97172 34.0319C-5.88742 34.0319 7.30361 33.0022 18.2256 20.6387C25.0404 12.924 27.9005 12.3481 31.8552 11.3909C31.8552 11.3909 35.4971 9.50702 40.203 8.07313C46.8919 5.94518 53.2148 5.06425 53.2148 5.06425H38.7577Z" fill="#26AF64"/>
</g>
<defs>
<linearGradient id="paint0_linear_421_5713" x1="36.0517" y1="4.13009" x2="50.0342" y2="15.0544" gradientUnits="userSpaceOnUse">
<stop offset="0.2147" stop-color="#035421"/>
<stop offset="0.2726" stop-color="#08622B"/>
<stop offset="0.4333" stop-color="#158344"/>
<stop offset="0.5866" stop-color="#1E9B56"/>
<stop offset="0.7282" stop-color="#24AA60"/>
<stop offset="0.8466" stop-color="#26AF64"/>
</linearGradient>
<linearGradient id="paint1_linear_421_5713" x1="23.457" y1="16.4689" x2="26.8526" y2="35.7263" gradientUnits="userSpaceOnUse">
<stop offset="0.1043" stop-color="#035421"/>
<stop offset="0.4356" stop-color="#26AF64"/>
</linearGradient>
<linearGradient id="paint2_linear_421_5713" x1="-1.53741" y1="7.42831" x2="16.4296" y2="18.224" gradientUnits="userSpaceOnUse">
<stop offset="0.6196" stop-color="#26AF64"/>
<stop offset="1" stop-color="#035421"/>
</linearGradient>
<linearGradient id="paint3_linear_421_5713" x1="-9.50409" y1="26.0399" x2="2.95962" y2="33.5288" gradientUnits="userSpaceOnUse">
<stop offset="0.1534" stop-color="#26AF64"/>
<stop offset="0.237" stop-color="#23A75E"/>
<stop offset="0.3702" stop-color="#1A8F4D"/>
<stop offset="0.5355" stop-color="#0B6A31"/>
<stop offset="0.6196" stop-color="#035421"/>
</linearGradient>
<clipPath id="clip0_421_5713">
<rect width="32" height="32" fill="white" transform="translate(0 4)"/>
</clipPath>
</defs>
</svg>
