<?xml version="1.0" encoding="utf-8"?>
<!-- Generator: Adobe Illustrator 18.0.0, SVG Export Plug-In . SVG Version: 6.00 Build 0)  -->
<!DOCTYPE svg PUBLIC "-//W3C//DTD SVG 1.1//EN" "http://www.w3.org/Graphics/SVG/1.1/DTD/svg11.dtd">
<svg version="1.1" id="Layer_1" xmlns="http://www.w3.org/2000/svg" xmlns:xlink="http://www.w3.org/1999/xlink" x="0px" y="0px"
	 viewBox="0 0 58 58" enable-background="new 0 0 58 58" xml:space="preserve">
<g>
	<circle fill="#EFEFEF" cx="29" cy="16.7" r="4.4"/>
	<path fill="#EFEFEF" d="M36.5,45.3c0,0.4-0.4,0.8-0.8,0.8h-2.6h-8.4h-2.6c-0.4,0-0.8-0.4-0.8-0.8v-1.6c0-0.4,0.4-0.8,0.8-0.8h2.6
		V27.4h-2.6c-0.4,0-0.8-0.4-0.8-0.8V25c0-0.4,0.4-0.8,0.8-0.8h2.6h7.6h0c0.4,0,0.8,0.4,0.8,0.8v17.9h2.5c0.4,0,0.8,0.4,0.8,0.8
		L36.5,45.3L36.5,45.3z"/>
</g>
</svg>
