<?xml version="1.0" encoding="utf-8"?>
<!-- Generator: Adobe Illustrator 18.0.0, SVG Export Plug-In . SVG Version: 6.00 Build 0)  -->
<!DOCTYPE svg PUBLIC "-//W3C//DTD SVG 1.1//EN" "http://www.w3.org/Graphics/SVG/1.1/DTD/svg11.dtd">
<svg version="1.1" id="Capa_1" xmlns="http://www.w3.org/2000/svg" xmlns:xlink="http://www.w3.org/1999/xlink" x="0px" y="0px"
	 viewBox="0 0 1200 800" enable-background="new 0 0 1200 800" xml:space="preserve">
<g>
	<polygon fill="none" points="836.3,219.5 299.1,219.5 299.1,542.3 836.3,542.3 836.3,523.6 836.3,496.1 	"/>
	<path d="M924.3,561.4h-39.5V526v-29.3V198.9c0-15.4-12.5-27.9-27.9-27.9H278.5c-15.4,0-27.9,12.5-27.9,27.9v362.5h-37.9
		c-7,0-12.7,5.7-12.7,12.7c0,30.2,24.6,54.8,54.8,54.8h440.8v-23.7c0-8.4,6.8-15.3,15.3-15.3c8.4,0,15.3,6.8,15.3,15.3v23.7h25
		v-23.7c0-8.4,6.8-15.3,15.3-15.3c8.4,0,15.3,6.8,15.3,15.3v23.7h100.5c30.2,0,54.8-24.6,54.8-54.8
		C937,567.1,931.3,561.4,924.3,561.4z M836.3,542.3H299.1V219.5h537.2v276.6v27.4V542.3z"/>
	<g>
		<path d="M522.9,412.2l-48.7-40.9l48.9-42c10.6-9.1,11.8-25.1,2.7-35.7c-9.1-10.6-25.1-11.8-35.7-2.7l-71.5,61.4
			c-5.6,4.9-8.9,11.9-8.8,19.4c0,7.4,3.3,14.5,9,19.3l71.5,60.1c4.7,4,10.5,5.9,16.3,5.9c7.2,0,14.4-3.1,19.4-9
			C535,437.2,533.6,421.2,522.9,412.2z"/>
		<path d="M738.4,352.3l-71.5-61.4c-10.6-9.1-26.6-7.9-35.7,2.7c-9.1,10.6-7.9,26.6,2.7,35.7l48.9,42l-48.7,40.9
			c-10.7,9-12.1,25-3.1,35.7c5,5.9,12.1,9,19.4,9c5.7,0,11.5-2,16.3-5.9l71.5-60.1c5.7-4.8,9-11.8,9-19.3
			C747.3,364.2,744.1,357.1,738.4,352.3z"/>
		<path d="M601,245.6c-13.7-2.6-27.1,6.3-29.7,20.1l-41.7,215.8c-2.7,13.7,6.3,27.1,20.1,29.7c1.6,0.3,3.2,0.5,4.8,0.5
			c11.9,0,22.5-8.4,24.9-20.5l41.7-215.8C623.8,261.6,614.8,248.2,601,245.6z"/>
	</g>
</g>
</svg>
