<?xml version="1.0" encoding="utf-8"?>
<!-- Generator: Adobe Illustrator 18.0.0, SVG Export Plug-In . SVG Version: 6.00 Build 0)  -->
<!DOCTYPE svg PUBLIC "-//W3C//DTD SVG 1.1//EN" "http://www.w3.org/Graphics/SVG/1.1/DTD/svg11.dtd">
<svg version="1.1" id="Layer_1" xmlns="http://www.w3.org/2000/svg" xmlns:xlink="http://www.w3.org/1999/xlink" x="0px" y="0px"
	 viewBox="0 0 58 58" enable-background="new 0 0 58 58" xml:space="preserve">
<g>
	<path fill="#EFEFEF" d="M47.2,37h-2v-1.8v-1.5V18.5c0-0.8-0.6-1.4-1.4-1.4H14.4c-0.8,0-1.4,0.6-1.4,1.4V37h-1.9
		c-0.4,0-0.6,0.3-0.6,0.6c0,1.5,1.2,2.8,2.8,2.8h22.4v-1.2c0-0.4,0.3-0.8,0.8-0.8c0.4,0,0.8,0.3,0.8,0.8v1.2h1.3v-1.2
		c0-0.4,0.3-0.8,0.8-0.8c0.4,0,0.8,0.3,0.8,0.8v1.2h5.1c1.5,0,2.8-1.2,2.8-2.8C47.9,37.2,47.6,37,47.2,37z M42.8,33.6V35v1H15.5
		V19.6h27.3V33.6z"/>
	<g>
		<path fill="#EFEFEF" d="M26.8,29.4l-2.5-2.1l2.5-2.1c0.5-0.5,0.6-1.3,0.1-1.8s-1.3-0.6-1.8-0.1l-3.6,3.1c-0.3,0.2-0.5,0.6-0.4,1
			c0,0.4,0.2,0.7,0.5,1l3.6,3.1c0.2,0.2,0.5,0.3,0.8,0.3c0.4,0,0.7-0.2,1-0.5C27.5,30.6,27.4,29.8,26.8,29.4z"/>
		<path fill="#EFEFEF" d="M37.8,26.3l-3.6-3.1c-0.5-0.5-1.4-0.4-1.8,0.1c-0.5,0.5-0.4,1.4,0.1,1.8l2.5,2.1l-2.5,2.1
			c-0.5,0.5-0.6,1.3-0.2,1.8c0.3,0.3,0.6,0.5,1,0.5c0.3,0,0.6-0.1,0.8-0.3l3.6-3.1c0.3-0.2,0.5-0.6,0.5-1
			C38.2,26.9,38.1,26.6,37.8,26.3z"/>
		<path fill="#EFEFEF" d="M30.8,20.9c-0.7-0.1-1.4,0.3-1.5,1l-2.1,11c-0.1,0.7,0.3,1.4,1,1.5c0.1,0,0.2,0,0.2,0c0.6,0,1.1-0.4,1.3-1
			l2.1-11C32,21.7,31.5,21.1,30.8,20.9z"/>
	</g>
</g>
</svg>
