<?xml version="1.0" encoding="utf-8"?>
<!-- Generator: Adobe Illustrator 18.0.0, SVG Export Plug-In . SVG Version: 6.00 Build 0)  -->
<!DOCTYPE svg PUBLIC "-//W3C//DTD SVG 1.1//EN" "http://www.w3.org/Graphics/SVG/1.1/DTD/svg11.dtd">
<svg version="1.1" id="Layer_1" xmlns="http://www.w3.org/2000/svg" xmlns:xlink="http://www.w3.org/1999/xlink" x="0px" y="0px"
	 viewBox="0 0 58 58" enable-background="new 0 0 58 58" xml:space="preserve">
<g>
	<path fill="#EFEFEF" d="M41.3,40.3c0.7,0,1.3-0.2,1.8-0.6l-8.7-8.1c-0.2,0.1-0.4,0.3-0.6,0.4c-0.7,0.4-1.2,0.8-1.6,1.1
		c-0.4,0.3-0.9,0.5-1.6,0.8s-1.3,0.4-1.9,0.4l0,0l0,0c-0.6,0-1.2-0.1-1.9-0.4c-0.7-0.3-1.2-0.5-1.6-0.8s-0.9-0.6-1.6-1.1
		c-0.2-0.1-0.4-0.3-0.6-0.4l-8.7,8.1c0.5,0.4,1.1,0.6,1.8,0.6C16.1,40.3,41.3,40.3,41.3,40.3z"/>
	<path fill="#EFEFEF" d="M15,26.4c-0.7-0.4-1.2-0.9-1.7-1.4v12.4l7.7-7.2C19.4,29.2,17.5,27.9,15,26.4z"/>
	<path fill="#EFEFEF" d="M42.4,26.4c-2.3,1.5-4.3,2.8-6,3.8l7.7,7.2V25C43.6,25.5,43,26,42.4,26.4z"/>
	<path fill="#EFEFEF" d="M41.3,17.7H16c-0.9,0-1.6,0.3-2,0.8c-0.5,0.6-0.7,1.3-0.7,2.1c0,0.7,0.3,1.4,0.9,2.2c0.6,0.8,1.3,1.4,2,1.9
		c0.4,0.3,1.6,1,3.5,2.3c1.1,0.7,2,1.3,2.8,1.8c0.7,0.4,1.3,0.8,1.7,1.1c0.1,0,0.1,0.1,0.3,0.2c0.1,0.1,0.3,0.2,0.5,0.3
		c0.4,0.3,0.7,0.5,0.9,0.6c0.2,0.2,0.5,0.3,0.9,0.5c0.3,0.2,0.7,0.3,1,0.4s0.6,0.1,0.9,0.1l0,0l0,0c0.3,0,0.5,0,0.9-0.1
		c0.3-0.1,0.6-0.2,1-0.4c0.3-0.2,0.6-0.4,0.9-0.5c0.2-0.2,0.6-0.4,0.9-0.6c0.2-0.1,0.3-0.2,0.5-0.3c0.1-0.1,0.2-0.1,0.3-0.2
		c0.4-0.2,1-0.6,1.7-1.1c1.4-0.9,3.5-2.3,6.3-4.1c0.8-0.5,1.5-1.2,2.1-2s0.8-1.6,0.8-2.4c0-0.7-0.3-1.3-0.8-1.8
		C42.7,18,42.1,17.7,41.3,17.7z"/>
</g>
</svg>
