<?xml version="1.0" encoding="utf-8"?>
<!-- Generator: Adobe Illustrator 18.0.0, SVG Export Plug-In . SVG Version: 6.00 Build 0)  -->
<!DOCTYPE svg PUBLIC "-//W3C//DTD SVG 1.1//EN" "http://www.w3.org/Graphics/SVG/1.1/DTD/svg11.dtd">
<svg version="1.1" id="Layer_1" xmlns="http://www.w3.org/2000/svg" xmlns:xlink="http://www.w3.org/1999/xlink" x="0px" y="0px"
	 viewBox="0 0 58 58" enable-background="new 0 0 58 58" xml:space="preserve">
<g>
	<path fill="#EFEFEF" d="M23.9,30c-0.2,0-0.5,0-0.7,0c-1.2,0-3,0.5-5,2.7c-1.6,1.7-1.6,3.5-1.7,5.1c-0.1,1.5-0.1,2.7-1.4,3.6
		c-0.1,0.1-0.2,0.2-0.2,0.4c0,0.1,0.1,0.2,0.1,0.2l0.1,0.1c2.4,1,6.4,0.5,9.7-2.8c1.5-1.5,2.4-3.1,2.6-4.6c0.1-0.4,0.1-0.8,0-1.1
		L23.9,30z M23.3,32.8c-0.1,0.2-0.3,0.3-0.5,0.3c-1.6,0.3-2.1,1.3-2.2,1.4c-0.1,0.3-0.4,0.5-0.7,0.5h-0.1c-0.1,0-0.2,0-0.3-0.1
		c-0.4-0.2-0.6-0.7-0.4-1.1c0-0.1,0.9-1.9,3.4-2.3h0.1c0.4,0,0.7,0.3,0.8,0.7C23.4,32.4,23.4,32.6,23.3,32.8z"/>
	<path fill="#EFEFEF" d="M43.1,14.4c-0.7-0.7-1.9-0.8-2.6-0.1C40,14.7,28.7,24.5,27.2,26c-0.8,0.8-1.7,2.1-2.6,3.3l3.5,3.6
		c1.2-0.8,2.5-1.8,3.3-2.6C33,28.7,42.7,17.5,43.2,17C43.8,16.3,43.8,15.1,43.1,14.4z"/>
</g>
</svg>
