<?xml version="1.0" encoding="utf-8"?>
<!-- Generator: Adobe Illustrator 18.0.0, SVG Export Plug-In . SVG Version: 6.00 Build 0)  -->
<!DOCTYPE svg PUBLIC "-//W3C//DTD SVG 1.1//EN" "http://www.w3.org/Graphics/SVG/1.1/DTD/svg11.dtd">
<svg version="1.1" id="Layer_1" xmlns="http://www.w3.org/2000/svg" xmlns:xlink="http://www.w3.org/1999/xlink" x="0px" y="0px"
	 viewBox="0 0 58 58" enable-background="new 0 0 58 58" xml:space="preserve">
<path fill="#EFEFEF" d="M25,37.5l-1.4,1.4c-1.2,1.2-3.2,1.2-4.4,0c-0.6-0.6-0.9-1.3-0.9-2.1s0.3-1.6,0.9-2.1l5.1-5.1
	c1.1-1.1,3.1-2.6,4.5-1.2c0.7,0.7,1.7,0.7,2.4,0c0.7-0.7,0.7-1.7,0-2.4c-2.5-2.5-6.1-2-9.3,1.2l-5.1,5.1c-1.2,1.2-1.9,2.8-1.9,4.6
	c0,1.7,0.7,3.3,1.9,4.6c1.3,1.3,2.9,1.9,4.6,1.9s3.3-0.6,4.6-1.9l1.4-1.4c0.7-0.7,0.7-1.7,0-2.4C26.7,36.8,25.7,36.8,25,37.5z
	 M40.5,17.7c-2.7-2.6-6.4-2.8-8.8-0.3L30,19.1c-0.7,0.7-0.7,1.7,0,2.4c0.7,0.7,1.7,0.7,2.4,0l1.7-1.7c1.3-1.3,2.9-0.7,4,0.3
	c0.6,0.6,0.9,1.3,0.9,2.1c0,0.8-0.3,1.6-0.9,2.1l-5.5,5.4c-2.5,2.5-3.7,1.3-4.2,0.8c-0.7-0.7-1.7-0.7-2.4,0c-0.7,0.7-0.7,1.7,0,2.4
	c1.1,1.1,2.5,1.7,3.8,1.7c1.7,0,3.5-0.8,5.1-2.5l5.5-5.4c1.2-1.2,1.9-2.8,1.9-4.6C42.4,20.6,41.7,19,40.5,17.7z"/>
</svg>
