<?xml version="1.0" encoding="iso-8859-1"?>
<!-- Generator: Adobe Illustrator 16.0.0, SVG Export Plug-In . SVG Version: 6.00 Build 0)  -->
<!DOCTYPE svg PUBLIC "-//W3C//DTD SVG 1.1//EN" "http://www.w3.org/Graphics/SVG/1.1/DTD/svg11.dtd">
<svg version="1.1" id="Capa_1" xmlns="http://www.w3.org/2000/svg" xmlns:xlink="http://www.w3.org/1999/xlink" x="0px" y="0px"
	 width="347.523px" height="347.523px" viewBox="0 0 347.523 347.523" style="enable-background:new 0 0 347.523 347.523;"
	 xml:space="preserve">
<g>
	<g>
		<path d="M108.674,196.125c-2.857-0.402-5.777-0.592-8.746-0.534c-14.267,0.278-36.342,6.092-60.493,32.207
			c-19.171,20.729-19.954,42.635-20.644,61.961c-0.66,18.474-1.181,33.065-16.507,43.727c-1.506,1.049-2.318,2.837-2.113,4.661
			c0.128,1.147,0.645,2.191,1.434,2.98c0.466,0.466,1.026,0.843,1.658,1.099c28.523,11.553,77.316,5.895,117.044-33.833
			c18.043-18.044,28.812-37.145,31.14-55.233c0.607-4.719,0.618-9.323,0.091-13.763L108.674,196.125z M100.915,229.382
			c-1.553,2.174-3.859,3.612-6.494,4.052c-19.209,3.202-25.884,15.953-26.159,16.494c-1.627,3.387-5.167,5.611-8.989,5.611
			c-0.337,0-0.676-0.017-1.015-0.052c-1.149-0.117-2.264-0.432-3.313-0.936c-4.97-2.391-7.069-8.376-4.681-13.347
			c0.442-0.918,11.153-22.546,40.869-27.5c0.546-0.09,1.1-0.136,1.647-0.136c4.908,0,9.055,3.516,9.861,8.357
			C103.08,224.559,102.467,227.207,100.915,229.382z"/>
		<path d="M340.587,6.796c-8.615-8.614-22.425-9.1-31.624-1.112c-5.782,5.021-141.818,123.166-160.166,141.513
			c-9.175,9.175-20.946,24.898-31.124,39.428l42.864,43.271c14.546-10.18,30.345-22.003,39.65-31.308
			C218.749,180.024,336.69,44.193,341.703,38.42C349.688,29.22,349.201,15.41,340.587,6.796z"/>
	</g>
</g>
<g>
</g>
<g>
</g>
<g>
</g>
<g>
</g>
<g>
</g>
<g>
</g>
<g>
</g>
<g>
</g>
<g>
</g>
<g>
</g>
<g>
</g>
<g>
</g>
<g>
</g>
<g>
</g>
<g>
</g>
</svg>
