<?xml version="1.0" encoding="utf-8"?>
<!-- Generator: Adobe Illustrator 18.0.0, SVG Export Plug-In . SVG Version: 6.00 Build 0)  -->
<!DOCTYPE svg PUBLIC "-//W3C//DTD SVG 1.1//EN" "http://www.w3.org/Graphics/SVG/1.1/DTD/svg11.dtd">
<svg version="1.1" id="Layer_1" xmlns="http://www.w3.org/2000/svg" xmlns:xlink="http://www.w3.org/1999/xlink" x="0px" y="0px"
	 viewBox="0 0 58 58" enable-background="new 0 0 58 58" xml:space="preserve">
<path fill="#EFEFEF" d="M47,20.6c-0.7-0.2-1.4,0.3-1.5,0.9c0,0.1-0.2,0.6-0.5,1.3l-9.1-9.1c0.7-0.4,1.3-0.5,1.3-0.5
	c1.7-0.4,1.1-2.9-0.6-2.5c-0.1,0-10.2,2.7-8.5,17c-0.7,0-1.3-0.1-2-0.1c-11.7,0-16.2,7.4-16.4,7.7c-0.9,1.5,1.3,2.7,2.2,1.3
	c0.1-0.1,0.4-0.7,1.1-1.4l10.4,10.4c-0.7,0.7-1.3,1.1-1.4,1.1c-1.5,0.9-0.2,3.1,1.3,2.2c0.4-0.2,8.5-5.2,7.6-18.4
	c10.5,1.2,16-4.1,17-8.5C48.1,21.5,47.6,20.8,47,20.6z M28.1,36.1l-5.5-5.5c1.8-0.3,3.7-0.3,5.7-0.2C28.4,32.4,28.4,34.3,28.1,36.1z
	 M19.5,31.2l7.9,7.9c-0.8,2.3-1.7,3.9-2.4,4.7L14.8,33.7C16.6,32.2,18.9,31.5,19.5,31.2z M30.4,22.8l5.4,5.4
	c-1.6,0.2-3.4,0.1-5.2-0.2C30.3,26.2,30.3,24.4,30.4,22.8z M38.9,27.6L31,19.8c0.6-1.9,1.4-3.2,2.5-4.3l9.7,9.6l-0.1,0.1
	C41.6,26.7,39.6,27.5,38.9,27.6z"/>
</svg>
