<?xml version="1.0" encoding="utf-8"?>
<!-- Generator: Adobe Illustrator 18.0.0, SVG Export Plug-In . SVG Version: 6.00 Build 0)  -->
<!DOCTYPE svg PUBLIC "-//W3C//DTD SVG 1.1//EN" "http://www.w3.org/Graphics/SVG/1.1/DTD/svg11.dtd">
<svg version="1.1" id="Layer_1" xmlns="http://www.w3.org/2000/svg" xmlns:xlink="http://www.w3.org/1999/xlink" x="0px" y="0px"
	 viewBox="0 0 58 58" enable-background="new 0 0 58 58" xml:space="preserve">
<g>
	<path fill="#EFEFEF" d="M25.5,25.8L25.5,25.8c-0.3,0-0.5,0.1-0.6,0.4l-1,2.9l-1-2.9c-0.1-0.2-0.3-0.4-0.5-0.4h-0.1
		c-0.2,0-0.4,0.1-0.5,0.4l-1,2.9l-1-2.9c-0.1-0.2-0.3-0.4-0.5-0.4h-0.1c-0.2,0-0.3,0.1-0.4,0.2s-0.1,0.3-0.1,0.5l1.5,4.4
		c0.1,0.2,0.3,0.4,0.5,0.4l0,0l0,0l0,0l0,0c0.2,0,0.4-0.1,0.5-0.4l1-2.9l1,2.9c0.1,0.2,0.3,0.4,0.5,0.4l0,0l0,0l0,0l0,0
		c0.2,0,0.4-0.1,0.5-0.4l1.5-4.4c0.1-0.2,0-0.3-0.1-0.5C25.8,25.9,25.6,25.8,25.5,25.8z"/>
	<path fill="#EFEFEF" d="M32.7,25.8L32.7,25.8c-0.3,0-0.5,0.1-0.6,0.4l-1,2.9l-1-2.9c-0.1-0.2-0.3-0.4-0.5-0.4h-0.1
		c-0.2,0-0.4,0.1-0.5,0.4l-1,2.9l-1-2.9c-0.1-0.2-0.3-0.4-0.5-0.4h-0.1c-0.2,0-0.3,0.1-0.4,0.2s-0.1,0.3-0.1,0.5l1.5,4.4
		c0.1,0.2,0.3,0.4,0.5,0.4l0,0l0,0l0,0l0,0c0.2,0,0.4-0.1,0.5-0.4l1-2.9l1,2.9c0.1,0.2,0.3,0.4,0.5,0.4l0,0l0,0l0,0l0,0
		c0.2,0,0.4-0.1,0.5-0.4l1.5-4.4c0.1-0.2,0-0.3-0.1-0.5C33,25.9,32.9,25.8,32.7,25.8z"/>
	<path fill="#EFEFEF" d="M40,25.8L40,25.8c-0.3,0-0.5,0.1-0.6,0.4l-1,2.9l-1-2.9c-0.1-0.2-0.3-0.4-0.5-0.4h-0.1
		c-0.2,0-0.4,0.1-0.5,0.4l-1,2.9l-1-2.9c-0.1-0.2-0.3-0.4-0.5-0.4h-0.1c-0.2,0-0.3,0.1-0.4,0.2c-0.1,0.1-0.1,0.3-0.1,0.5l1.5,4.4
		c0.1,0.2,0.3,0.4,0.5,0.4l0,0l0,0l0,0l0,0c0.2,0,0.4-0.1,0.5-0.4l1-2.9l1,2.9c0.1,0.2,0.3,0.4,0.5,0.4l0,0l0,0l0,0l0,0
		c0.2,0,0.4-0.1,0.5-0.4l1.5-4.4c0.1-0.2,0-0.3-0.1-0.5C40.3,25.9,40.1,25.8,40,25.8z"/>
	<path fill="#EFEFEF" d="M16.2,41.1V21.5h27v11.2c0.5-0.5,1.2-0.7,1.9-0.7c0.1,0,0.2,0,0.3,0V16.6c0-1-0.9-1.9-1.9-1.9H15.8
		c-1,0-1.9,0.9-1.9,1.9v24.9c0,1,0.9,1.9,1.9,1.9h18.1c-0.4-0.7-0.8-1.5-0.9-2.3L16.2,41.1L16.2,41.1z M41.1,17.9
		c0-0.4,0.3-0.7,0.7-0.7h0.7c0.4,0,0.7,0.3,0.7,0.7v0.8c0,0.4-0.3,0.7-0.7,0.7h-0.7c-0.4,0-0.7-0.3-0.7-0.7V17.9z M37.9,17.9
		c0-0.4,0.3-0.7,0.7-0.7h0.7c0.4,0,0.7,0.3,0.7,0.7v0.8c0,0.4-0.3,0.7-0.7,0.7h-0.7c-0.4,0-0.7-0.3-0.7-0.7V17.9z M34.6,17.9
		c0-0.4,0.3-0.7,0.7-0.7H36c0.4,0,0.7,0.3,0.7,0.7v0.8c0,0.4-0.3,0.7-0.7,0.7h-0.7c-0.4,0-0.7-0.3-0.7-0.7V17.9z"/>
	<path fill="#EFEFEF" d="M47.5,36c0-0.4-0.1-0.7-0.4-1l-1-1c-0.3-0.3-0.6-0.4-1-0.4s-0.7,0.1-1,0.4l-1.6,1.6c-0.8-0.6-1.9-1-3-1
		c-2.8,0-5.1,2.3-5.1,5.1s2.3,5.1,5.1,5.1s5.1-2.3,5.1-5.1c0-0.1,0-0.2,0-0.3L47,37C47.3,36.7,47.5,36.4,47.5,36z M45.9,36.3l-4.9,5
		c-0.1,0.1-0.2,0.2-0.4,0.2l0,0c-0.1,0-0.3-0.1-0.4-0.2L37.9,39c-0.2-0.2-0.2-0.6,0-0.8l0.4-0.4c0.2-0.2,0.6-0.2,0.8,0l1.5,1.5
		l4.1-4.1c0.1-0.1,0.2-0.2,0.4-0.2s0.3,0.1,0.4,0.2l0.4,0.4C46.1,35.8,46.1,36.1,45.9,36.3z"/>
</g>
</svg>
